<?xml version="1.0" encoding="UTF-8"?>
<svg version="1.1" xmlns="http://www.w3.org/2000/svg" width="512" height="512">
<path d="M0 0 C1.32626745 1.00935248 2.65619859 2.0141118 4 3 C4.3403125 2.54109375 4.680625 2.0821875 5.03125 1.609375 C9.52896417 -4.08453975 14.18528185 -6.72842728 21 -9 C22.72795352 -9.06802967 24.45835365 -9.08495645 26.1875 -9.0625 C27.08855469 -9.05347656 27.98960937 -9.04445313 28.91796875 -9.03515625 C29.60503906 -9.02355469 30.29210937 -9.01195313 31 -9 C31.061875 -10.27875 31.12375 -11.5575 31.1875 -12.875 C32.17145182 -21.331667 36.04207207 -28.23789209 42.70703125 -33.52734375 C50.18457731 -38.32978815 58.19727989 -40.20772822 67 -39 C75.67807438 -36.99371468 82.58235537 -33.14777395 87.56640625 -25.640625 C90.58944295 -20.09408474 91.69592232 -15.28427198 92 -9 C92.61746094 -9.04640625 93.23492187 -9.0928125 93.87109375 -9.140625 C101.90019521 -9.48280893 107.85190236 -7.52663234 114.3125 -2.75 C120.35699029 3.43505983 122.37105014 10.58469287 122.28125 19.08203125 C121.59809864 26.16972657 118.01687547 32.09714443 113 37 C107.26614807 40.50776824 102.25300781 42.11675224 95.5090332 42.20532227 C94.8551059 42.21522186 94.20117859 42.22512146 93.5274353 42.23532104 C91.3685873 42.26687783 89.20971729 42.29167032 87.05078125 42.31640625 C85.55290662 42.33698081 84.05503772 42.35797742 82.55717468 42.37937927 C78.6166143 42.43454809 74.67600197 42.48398021 70.73535156 42.53222656 C66.71349469 42.58247951 62.69171316 42.63814577 58.66992188 42.69335938 C50.78001164 42.80087746 42.89003834 42.90233648 35 43 C35.53834473 44.10174561 36.07668945 45.20349121 36.63134766 46.33862305 C40.5060147 54.35664837 44.11805704 62.16550074 46.375 70.8125 C46.60832031 71.63685547 46.84164063 72.46121094 47.08203125 73.31054688 C50.39713184 85.40036286 51.37670381 97.14765838 51.3125 109.625 C51.31034485 110.37800385 51.3081897 111.13100769 51.30596924 111.90682983 C51.25417132 123.18455323 50.80366039 134.03474064 48 145 C47.70198486 146.20873779 47.70198486 146.20873779 47.39794922 147.44189453 C38.81483017 181.58792095 22.35550544 209.34933536 0.76855469 236.74316406 C-2.1034682 240.40812535 -4.92726875 244.10952174 -7.75 247.8125 C-8.82416231 249.22009516 -9.89837975 250.62764824 -10.97265625 252.03515625 C-11.73860107 253.03893311 -11.73860107 253.03893311 -12.52001953 254.06298828 C-14.73618927 256.96353113 -16.96090813 259.85745394 -19.1875 262.75 C-19.98800781 263.79027344 -20.78851563 264.83054687 -21.61328125 265.90234375 C-23.21334403 267.97902097 -24.81492397 270.05453005 -26.41796875 272.12890625 C-33.02889615 280.6903402 -39.52601883 289.33465407 -46 298 C-44.88496094 298.30421875 -43.76992188 298.6084375 -42.62109375 298.921875 C-37.56137133 300.42832957 -37.56137133 300.42832957 -36 303 C-35.45301523 306.59447138 -35.80163367 308.56548328 -37.3125 311.875 C-40.53089997 314.41978137 -41.66883655 314.23242458 -45.66796875 314.1328125 C-47.16299927 314.10405029 -47.16299927 314.10405029 -48.68823242 314.07470703 C-49.45111572 314.05005371 -50.21399902 314.02540039 -51 314 C-51.14099121 314.77601563 -51.28198242 315.55203125 -51.42724609 316.3515625 C-52.07380345 319.90153836 -52.72436851 323.45076867 -53.375 327 C-53.59671875 328.22074219 -53.8184375 329.44148438 -54.046875 330.69921875 C-55.17917253 336.86024945 -56.38101468 342.94771845 -58 349 C-56.7625 348.9175 -55.525 348.835 -54.25 348.75 C-51.1489408 348.76099666 -50.18587609 348.87918054 -47.5 350.625 C-45.5325801 353.74008151 -45.4076261 355.37170989 -46 359 C-47.75 361.875 -47.75 361.875 -50 364 C-51.32 364 -52.64 364 -54 364 C-53.99111755 364.54821915 -53.98223511 365.09643829 -53.9730835 365.66127014 C-53.88431252 371.38792451 -53.82414299 377.11438213 -53.78027344 382.84155273 C-53.76020818 384.97639918 -53.73294942 387.111191 -53.69824219 389.24584961 C-53.64950057 392.32158925 -53.62697994 395.39659969 -53.609375 398.47265625 C-53.58872986 399.42084732 -53.56808472 400.36903839 -53.54681396 401.34596252 C-53.54450696 408.22142368 -54.84850143 412.47773689 -59.52734375 417.70703125 C-65.21655454 422.16699428 -69.64696998 423.29954345 -76.78442383 423.29052734 C-77.55258926 423.29724457 -78.3207547 423.30396179 -79.11219788 423.31088257 C-81.64387538 423.32983178 -84.1752873 423.33378533 -86.70703125 423.3359375 C-88.4743409 423.34236808 -90.24164948 423.34909664 -92.00895691 423.35610962 C-95.71180691 423.36807505 -99.41456367 423.37179125 -103.11743164 423.37060547 C-107.84850101 423.37040244 -112.57896861 423.39769104 -117.30989552 423.43214989 C-120.96032932 423.45445383 -124.61061917 423.45844192 -128.26111412 423.45738602 C-130.00453449 423.45973723 -131.74795912 423.46853363 -133.49131203 423.48405075 C-135.93709317 423.50378009 -138.38158804 423.49784618 -140.82739258 423.48583984 C-141.53883423 423.49707886 -142.25027588 423.50831787 -142.98327637 423.51989746 C-149.26332885 423.44206777 -154.38356189 421.30862186 -159.05859375 417.18359375 C-159.51363281 416.60738281 -159.96867188 416.03117187 -160.4375 415.4375 C-160.91058594 414.85871094 -161.38367188 414.27992188 -161.87109375 413.68359375 C-163.89279857 410.66852531 -164.12338017 408.0467194 -164.11352539 404.52856445 C-164.11344986 403.62785721 -164.11337433 402.72714996 -164.11329651 401.79914856 C-164.10555458 400.34589424 -164.10555458 400.34589424 -164.09765625 398.86328125 C-164.09553383 397.37141548 -164.09553383 397.37141548 -164.09336853 395.84941101 C-164.08776761 392.67041018 -164.07521496 389.49147957 -164.0625 386.3125 C-164.05748512 384.15820414 -164.05292219 382.00390718 -164.04882812 379.84960938 C-164.03779788 374.56638226 -164.02105886 369.28319615 -164 364 C-164.78761719 363.85820312 -165.57523438 363.71640625 -166.38671875 363.5703125 C-169 363 -169 363 -170.8125 361.875 C-172.72950563 358.84814901 -172.42793633 356.4846244 -172 353 C-170.5 350.5625 -170.5 350.5625 -168 349 C-165.3177942 348.79476266 -162.69460209 348.93153958 -160 349 C-160.26478149 347.78268188 -160.26478149 347.78268188 -160.53491211 346.54077148 C-161.19475956 343.5014807 -161.85238097 340.46171884 -162.50854492 337.42163086 C-162.93043619 335.47017364 -163.35484522 333.5192613 -163.77929688 331.56835938 C-164.18051758 329.70727539 -164.18051758 329.70727539 -164.58984375 327.80859375 C-164.83597412 326.67220459 -165.08210449 325.53581543 -165.33569336 324.36499023 C-166.01557928 320.92108445 -166.53397626 317.47874156 -167 314 C-167.74765625 314.04640625 -168.4953125 314.0928125 -169.265625 314.140625 C-177.25453113 314.43341214 -177.25453113 314.43341214 -180.6875 312.4375 C-182.52035388 309.03362851 -182.54407614 306.80853299 -182 303 C-179.83811712 299.84032503 -178.62445865 299.11931344 -174.8515625 298.3984375 C-173.91054687 298.26695312 -172.96953125 298.13546875 -172 298 C-179.65001524 287.98710842 -187.31168841 277.98351717 -195 268 C-195.82950659 266.92193617 -196.65893273 265.84381044 -197.48828125 264.765625 C-197.90239258 264.22728027 -198.31650391 263.68893555 -198.74316406 263.13427734 C-199.57994158 262.0462065 -200.41653065 260.95799071 -201.25292969 259.86962891 C-203.31844983 257.18251781 -205.38753268 254.49832162 -207.46484375 251.8203125 C-213.79048443 243.65291896 -219.92262165 235.35350674 -226 227 C-228.69555523 228.03065347 -231.15864333 229.09247195 -233.65737915 230.54896545 C-237.64205954 232.27871859 -241.09406795 232.4292803 -245.35693359 232.40405273 C-246.58255257 232.41434761 -246.58255257 232.41434761 -247.83293152 232.42485046 C-250.52161262 232.44308255 -253.20970811 232.43928568 -255.8984375 232.43359375 C-257.77641997 232.43815774 -259.65440077 232.44346396 -261.53237915 232.44947815 C-265.46468905 232.45840256 -269.3967958 232.45599429 -273.32910156 232.44604492 C-278.35498322 232.43456451 -283.38016129 232.45475592 -288.40595055 232.48396206 C-292.28372616 232.50235776 -296.16133429 232.50202474 -300.03914261 232.49632454 C-301.89140433 232.49617169 -303.74367766 232.50218565 -305.59589767 232.51461601 C-308.19246559 232.52958572 -310.78774813 232.51880536 -313.38427734 232.50170898 C-314.14090164 232.51137695 -314.89752594 232.52104492 -315.67707825 232.53100586 C-322.16073864 232.44214372 -327.24714249 230.31922155 -332.20703125 226.140625 C-337.90060861 219.43577964 -340.69177388 213.50140662 -340.3359375 204.578125 C-339.23771019 196.14986886 -335.71974638 191.02823693 -329.31640625 185.59375 C-324.75705828 182.45679558 -321.19354958 181.75398792 -315.6875 181.875 C-314.61886719 181.89304688 -313.55023438 181.91109375 -312.44921875 181.9296875 C-311.64097656 181.95289063 -310.83273437 181.97609375 -310 182 C-309.97873047 181.07380859 -309.97873047 181.07380859 -309.95703125 180.12890625 C-309.439129 170.93264189 -306.3674915 164.94734083 -299.6875 158.625 C-291.91044638 152.2353422 -285.79615902 151.66468167 -275.78125 151.6015625 C-271.36160006 152.06726941 -268.08738646 153.29089372 -264 155 C-264.17390259 154.15405273 -264.17390259 154.15405273 -264.35131836 153.29101562 C-264.88319184 150.69464371 -265.41037146 148.09733924 -265.9375 145.5 C-266.21110352 144.1696875 -266.21110352 144.1696875 -266.49023438 142.8125 C-266.75610352 141.49765625 -266.75610352 141.49765625 -267.02734375 140.15625 C-267.18968506 139.36025391 -267.35202637 138.56425781 -267.51928711 137.74414062 C-271.15543225 116.9872735 -270.85787665 93.27726531 -265 73 C-264.80164551 72.26539551 -264.60329102 71.53079102 -264.39892578 70.77392578 C-256.20745065 40.89491744 -236.82607862 13.45416784 -212 -5 C-211.02933594 -5.72445312 -210.05867187 -6.44890625 -209.05859375 -7.1953125 C-146.03608874 -52.47055389 -59.71625193 -49.09639865 0 0 Z M-150 314 C-149.41491269 319.26578575 -148.8664827 324.17551686 -147.84375 329.3125 C-147.62589844 330.40691406 -147.40804687 331.50132812 -147.18359375 332.62890625 C-146.95800781 333.74136719 -146.73242188 334.85382813 -146.5 336 C-146.27441406 337.14339844 -146.04882812 338.28679687 -145.81640625 339.46484375 C-145.59855469 340.54894531 -145.38070312 341.63304687 -145.15625 342.75 C-144.95837891 343.73484375 -144.76050781 344.7196875 -144.55664062 345.734375 C-144.21870996 347.95394794 -144.21870996 347.95394794 -143 349 C-141.07332493 349.08748207 -139.14348139 349.10697334 -137.21484375 349.09765625 C-135.63497681 349.09390991 -135.63497681 349.09390991 -134.02319336 349.09008789 C-132.00077515 349.07643188 -132.00077515 349.07643188 -129.9375 349.0625 C-125.668125 349.041875 -121.39875 349.02125 -117 349 C-117 337.45 -117 325.9 -117 314 C-127.89 314 -138.78 314 -150 314 Z M-101 314 C-101 325.55 -101 337.1 -101 349 C-92.42 349 -83.84 349 -75 349 C-73.63529491 344.90588473 -72.54979888 341.26122566 -71.7109375 337.0859375 C-71.49179687 335.99539063 -71.27265625 334.90484375 -71.046875 333.78125 C-70.82515625 332.6571875 -70.6034375 331.533125 -70.375 330.375 C-70.14554687 329.24320312 -69.91609375 328.11140625 -69.6796875 326.9453125 C-69.463125 325.85734375 -69.2465625 324.769375 -69.0234375 323.6484375 C-68.82669434 322.66020996 -68.62995117 321.67198242 -68.42724609 320.65380859 C-67.89403542 317.78980533 -67.89403542 317.78980533 -68 314 C-78.89 314 -89.78 314 -101 314 Z " fill="#F0E7DB" transform="translate(365,64)"/>
<path d="M0 0 C16.42615473 11.50175195 23.62519927 34.32853412 28.26611328 52.94628906 C28.85990978 55.29137254 29.49700515 57.621282 30.140625 59.953125 C34.45410825 76.13276882 36.15304528 92.68732014 37.86328125 109.3046875 C37.97003174 110.24610596 38.07678223 111.18752441 38.18676758 112.1574707 C39.27183421 122.85064294 39.06280294 133.63151219 39.05078125 144.3671875 C39.04984467 145.44214478 39.04890808 146.51710205 39.04794312 147.62463379 C39.01712181 163.93654157 38.76461492 180.08566518 36.86328125 196.3046875 C36.78787109 196.95407288 36.71246094 197.60345825 36.63476562 198.27252197 C26.65555905 283.5124097 26.65555905 283.5124097 17.86328125 292.3046875 C16.052731 292.39844803 14.23850924 292.4221286 12.42553711 292.41821289 C11.26440903 292.41813736 10.10328094 292.41806183 8.90696716 292.41798401 C7.01169029 292.41024208 7.01169029 292.41024208 5.078125 292.40234375 C3.79216934 292.4009288 2.50621368 292.39951385 1.18128967 292.39805603 C-2.24315318 292.39423168 -5.66755384 292.38440212 -9.09197998 292.37335205 C-12.58410064 292.36313614 -16.07622809 292.35855803 -19.56835938 292.35351562 C-26.42449653 292.34277977 -33.28060562 292.32570434 -40.13671875 292.3046875 C-41.38788927 289.22663856 -42.48536583 286.26592892 -43.25 283.03125 C-43.54028076 281.81139404 -43.54028076 281.81139404 -43.83642578 280.56689453 C-44.03864746 279.69661621 -44.24086914 278.82633789 -44.44921875 277.9296875 C-44.66433105 277.01429199 -44.87944336 276.09889648 -45.10107422 275.15576172 C-47.57117948 264.56677743 -49.90752025 253.94692102 -52.13671875 243.3046875 C-52.38188232 242.14952637 -52.6270459 240.99436523 -52.87963867 239.80419922 C-54.71038596 230.96527537 -56.10409998 222.13827411 -57.19921875 213.1796875 C-57.28320923 212.49260712 -57.36719971 211.80552673 -57.45373535 211.09762573 C-61.89820749 174.41181795 -63.11605881 137.09779201 -59.13671875 100.3046875 C-59.04551758 99.37769043 -58.95431641 98.45069336 -58.86035156 97.49560547 C-55.66228643 65.45323706 -49.36423653 23.94476755 -24.13671875 1.3046875 C-16.88760297 -4.18706688 -7.85589838 -4.56555217 0 0 Z " fill="#EF5D40" transform="translate(267.13671875,28.6953125)"/>
<path d="M0 0 C45.69229146 -1.0675769 86.33020378 9.67366959 122 39 C123.32626745 40.00935248 124.65619859 41.0141118 126 42 C126.3403125 41.54109375 126.680625 41.0821875 127.03125 40.609375 C131.52896417 34.91546025 136.18528185 32.27157272 143 30 C144.72795352 29.93197033 146.45835365 29.91504355 148.1875 29.9375 C149.08855469 29.94652344 149.98960937 29.95554687 150.91796875 29.96484375 C151.60503906 29.97644531 152.29210937 29.98804687 153 30 C153.061875 28.72125 153.12375 27.4425 153.1875 26.125 C154.17145182 17.668333 158.04207207 10.76210791 164.70703125 5.47265625 C172.18457731 0.67021185 180.19727989 -1.20772822 189 0 C197.67807438 2.00628532 204.58235537 5.85222605 209.56640625 13.359375 C212.58944295 18.90591526 213.69592232 23.71572802 214 30 C214.61746094 29.95359375 215.23492187 29.9071875 215.87109375 29.859375 C223.90019521 29.51719107 229.85190236 31.47336766 236.3125 36.25 C242.35699029 42.43505983 244.37105014 49.58469287 244.28125 58.08203125 C243.59809864 65.16972657 240.01687547 71.09714443 235 76 C229.26614807 79.50776824 224.25300781 81.11675224 217.5090332 81.20532227 C216.8551059 81.21522186 216.20117859 81.22512146 215.5274353 81.23532104 C213.3685873 81.26687783 211.20971729 81.29167032 209.05078125 81.31640625 C207.55290662 81.33698081 206.05503772 81.35797742 204.55717468 81.37937927 C200.6166143 81.43454809 196.67600197 81.48398021 192.73535156 81.53222656 C188.71349469 81.58247951 184.69171316 81.63814577 180.66992188 81.69335938 C172.78001164 81.80087746 164.89003834 81.90233648 157 82 C157.53834473 83.10174561 158.07668945 84.20349121 158.63134766 85.33862305 C162.5060147 93.35664837 166.11805704 101.16550074 168.375 109.8125 C168.60832031 110.63685547 168.84164062 111.46121094 169.08203125 112.31054688 C172.39713184 124.40036286 173.37670381 136.14765838 173.3125 148.625 C173.30926727 149.75450577 173.30926727 149.75450577 173.30596924 150.90682983 C173.25417132 162.18455323 172.80366039 173.03474064 170 184 C169.70198486 185.20873779 169.70198486 185.20873779 169.39794922 186.44189453 C161.09805931 219.46115692 145.50276728 246.90318179 124.58203125 273.4375 C120.37582363 278.7738883 116.26855324 284.18460207 112.17431641 289.60717773 C111.6694873 290.27177002 111.1646582 290.9363623 110.64453125 291.62109375 C110.20471924 292.2030249 109.76490723 292.78495605 109.31176758 293.38452148 C107.9685614 295.03871752 106.53195776 296.52072343 105 298 C105 297.34 105 296.68 105 296 C95.76 296 86.52 296 77 296 C78.45744243 292.35639392 79.9435168 289.05710734 81.7578125 285.60546875 C82.29712402 284.57550781 82.83643555 283.54554688 83.39208984 282.484375 C83.9639502 281.39640625 84.53581055 280.3084375 85.125 279.1875 C86.30803673 276.92096165 87.49032964 274.65403491 88.671875 272.38671875 C89.24486328 271.28763184 89.81785156 270.18854492 90.40820312 269.05615234 C103.39727392 244.11793329 113.97049159 218.30589078 118.59423828 190.40087891 C118.99428013 188.03384428 119.44575016 185.68091011 119.90234375 183.32421875 C124.05757871 160.35054156 123.90662879 134.80423343 119 112 C118.75056641 110.74654785 118.75056641 110.74654785 118.49609375 109.46777344 C111.52630567 74.68336811 94.08999655 39.32833896 64.6875 18.25 C47.93605328 7.22672132 31.09209456 1.06125532 10.953125 1.921875 C7.09485141 1.99812547 3.78288509 1.65358748 0 1 C0 0.67 0 0.34 0 0 Z " fill="#EE5D40" transform="translate(243,25)"/>
<path d="M0 0 C-3.04025404 2.02683603 -4.67864659 2.43774871 -8.1875 3.125 C-24.84957451 7.12389788 -38.73654205 17.44565356 -51 29 C-51.59296875 29.52851562 -52.1859375 30.05703125 -52.796875 30.6015625 C-75.79128898 51.95351834 -87.41067162 84.95977194 -93 115 C-93.20882812 116.10601562 -93.41765625 117.21203125 -93.6328125 118.3515625 C-102.76970113 179.11912339 -81.87534016 238.23682723 -51.89160156 290.21606445 C-51 292 -51 292 -51 294 C-54.96139061 294.41882713 -58.92154084 294.75907803 -62.89575195 295.03149414 C-64.90076411 295.18469308 -66.90093668 295.39748805 -68.90039062 295.61132812 C-78.45569951 296.21304783 -78.45569951 296.21304783 -82.68383789 292.8918457 C-85.03705519 290.04228788 -87.02505988 287.12190272 -89 284 C-90.30155542 282.24734906 -91.61486239 280.50334589 -92.94140625 278.76953125 C-94.15148779 277.11942005 -95.35856059 275.4670979 -96.5625 273.8125 C-97.18962891 272.95591797 -97.81675781 272.09933594 -98.46289062 271.21679688 C-99.97801178 269.14651682 -101.49035262 267.07427293 -103 265 C-105.69555523 266.03065347 -108.15864333 267.09247195 -110.65737915 268.54896545 C-114.64205954 270.27871859 -118.09406795 270.4292803 -122.35693359 270.40405273 C-123.58255257 270.41434761 -123.58255257 270.41434761 -124.83293152 270.42485046 C-127.52161262 270.44308255 -130.20970811 270.43928568 -132.8984375 270.43359375 C-134.77641997 270.43815774 -136.65440077 270.44346396 -138.53237915 270.44947815 C-142.46468905 270.45840256 -146.3967958 270.45599429 -150.32910156 270.44604492 C-155.35498322 270.43456451 -160.38016129 270.45475592 -165.40595055 270.48396206 C-169.28372616 270.50235776 -173.16133429 270.50202474 -177.03914261 270.49632454 C-178.89140433 270.49617169 -180.74367766 270.50218565 -182.59589767 270.51461601 C-185.19246559 270.52958572 -187.78774813 270.51880536 -190.38427734 270.50170898 C-191.14090164 270.51137695 -191.89752594 270.52104492 -192.67707825 270.53100586 C-199.16073864 270.44214372 -204.24714249 268.31922155 -209.20703125 264.140625 C-214.90060861 257.43577964 -217.69177388 251.50140662 -217.3359375 242.578125 C-216.23771019 234.14986886 -212.71974638 229.02823693 -206.31640625 223.59375 C-201.75705828 220.45679558 -198.19354958 219.75398792 -192.6875 219.875 C-191.61886719 219.89304688 -190.55023438 219.91109375 -189.44921875 219.9296875 C-188.64097656 219.95289063 -187.83273438 219.97609375 -187 220 C-186.97873047 219.07380859 -186.97873047 219.07380859 -186.95703125 218.12890625 C-186.439129 208.93264189 -183.3674915 202.94734083 -176.6875 196.625 C-168.91044638 190.2353422 -162.79615902 189.66468167 -152.78125 189.6015625 C-148.36160006 190.06726941 -145.08738646 191.29089372 -141 193 C-141.17390259 192.15405273 -141.17390259 192.15405273 -141.35131836 191.29101562 C-141.88319184 188.69464371 -142.41037146 186.09733924 -142.9375 183.5 C-143.21110352 182.1696875 -143.21110352 182.1696875 -143.49023438 180.8125 C-143.75610352 179.49765625 -143.75610352 179.49765625 -144.02734375 178.15625 C-144.18968506 177.36025391 -144.35202637 176.56425781 -144.51928711 175.74414062 C-148.15543225 154.9872735 -147.85787665 131.27726531 -142 111 C-141.80164551 110.26539551 -141.60329102 109.53079102 -141.39892578 108.77392578 C-133.20745065 78.89491744 -113.82607862 51.45416784 -89 33 C-88.02933594 32.27554688 -87.05867187 31.55109375 -86.05859375 30.8046875 C-61.75351126 13.34396491 -30.51377713 -1.0171259 0 0 Z " fill="#DA4F3C" transform="translate(242,26)"/>
<path d="M0 0 C1.16087128 -0.0112793 2.32174255 -0.02255859 3.51779175 -0.03417969 C4.78752838 -0.02608276 6.05726501 -0.01798584 7.36547852 -0.00964355 C8.71917473 -0.01506501 10.07286505 -0.0221878 11.42654419 -0.03088379 C15.10015964 -0.04911779 18.77332571 -0.04204964 22.44694901 -0.02936745 C26.2914679 -0.01924003 30.13594834 -0.0286324 33.98046875 -0.03491211 C40.43667509 -0.0421893 46.8926984 -0.03259906 53.34887695 -0.0135498 C60.81303926 0.00821923 68.27676454 0.0011679 75.74091625 -0.02085543 C82.14953699 -0.03900751 88.55802617 -0.04156874 94.96666431 -0.03110075 C98.79424516 -0.0248647 102.62162059 -0.02403306 106.44918823 -0.0372467 C110.04774304 -0.04880198 113.64573443 -0.04078627 117.24422836 -0.01766968 C119.19480362 -0.00985777 121.14542654 -0.02174131 123.09597778 -0.03417969 C124.8372847 -0.01726074 124.8372847 -0.01726074 126.61376953 0 C127.62254654 0.0015081 128.63132355 0.0030162 129.67066956 0.00457001 C133.03618713 0.64718912 134.22549885 1.83469547 136.30688477 4.50793457 C136.92602856 8.14540438 136.52440442 10.03146295 134.99438477 13.38293457 C131.77598479 15.92771594 130.63804822 15.74035915 126.63891602 15.64074707 C125.642229 15.62157227 124.64554199 15.60239746 123.61865234 15.5826416 C122.47432739 15.54566162 122.47432739 15.54566162 121.30688477 15.50793457 C121.16589355 16.2839502 121.02490234 17.05996582 120.87963867 17.85949707 C120.23308131 21.40947293 119.58251626 24.95870324 118.93188477 28.50793457 C118.71016602 29.72867676 118.48844727 30.94941895 118.26000977 32.20715332 C117.12771223 38.36818402 115.92587008 44.45565302 114.30688477 50.50793457 C115.54438477 50.42543457 116.78188477 50.34293457 118.05688477 50.25793457 C121.15794396 50.26893123 122.12100868 50.38711511 124.80688477 52.13293457 C126.77430467 55.24801608 126.89925866 56.87964446 126.30688477 60.50793457 C124.55688477 63.38293457 124.55688477 63.38293457 122.30688477 65.50793457 C120.98688477 65.50793457 119.66688477 65.50793457 118.30688477 65.50793457 C118.31576721 66.05615372 118.32464966 66.60437286 118.33380127 67.16920471 C118.42257225 72.89585908 118.48274177 78.6223167 118.52661133 84.3494873 C118.54667659 86.48433375 118.57393534 88.61912557 118.60864258 90.75378418 C118.6573842 93.82952382 118.67990482 96.90453426 118.69750977 99.98059082 C118.71815491 100.92878189 118.73880005 101.87697296 118.7600708 102.85389709 C118.76237781 109.72935825 117.45838334 113.98567146 112.77954102 119.21496582 C107.09033023 123.67492885 102.65991479 124.80747802 95.52246094 124.79846191 C94.7542955 124.80517914 93.98613007 124.81189636 93.19468689 124.81881714 C90.66300938 124.83776635 88.13159747 124.8417199 85.59985352 124.84387207 C83.83254387 124.85030265 82.06523529 124.85703121 80.29792786 124.86404419 C76.59507785 124.87600962 72.89232109 124.87972582 69.18945312 124.87854004 C64.45838376 124.87833701 59.72791616 124.90562561 54.99698925 124.94008446 C51.34655545 124.9623884 47.6962656 124.9663765 44.04577065 124.96532059 C42.30235027 124.9676718 40.55892564 124.9764682 38.81557274 124.99198532 C36.36979159 125.01171466 33.92529672 125.00578075 31.47949219 124.99377441 C30.76805054 125.00501343 30.05660889 125.01625244 29.3236084 125.02783203 C23.04355592 124.95000234 17.92332288 122.81655643 13.24829102 118.69152832 C12.79325195 118.11531738 12.33821289 117.53910645 11.86938477 116.94543457 C11.39629883 116.36664551 10.92321289 115.78785645 10.43579102 115.19152832 C8.41408619 112.17645988 8.1835046 109.55465397 8.19335938 106.03649902 C8.19343491 105.13579178 8.19351044 104.23508453 8.19358826 103.30708313 C8.19874954 102.33824692 8.20391083 101.36941071 8.20922852 100.37121582 C8.21064346 99.37663864 8.21205841 98.38206146 8.21351624 97.35734558 C8.21911716 94.17834475 8.23166981 90.99941415 8.24438477 87.82043457 C8.24939965 85.66613871 8.25396257 83.51184175 8.25805664 81.35754395 C8.26908688 76.07431683 8.2858259 70.79113072 8.30688477 65.50793457 C7.51926758 65.3661377 6.73165039 65.22434082 5.92016602 65.07824707 C3.30688477 64.50793457 3.30688477 64.50793457 1.49438477 63.38293457 C-0.42262086 60.35608358 -0.12105156 57.99255897 0.30688477 54.50793457 C1.80688477 52.07043457 1.80688477 52.07043457 4.30688477 50.50793457 C6.98909057 50.30269723 9.61228268 50.43947415 12.30688477 50.50793457 C12.13036377 49.69638916 11.95384277 48.88484375 11.77197266 48.04870605 C11.1121252 45.00941527 10.4545038 41.96965341 9.79833984 38.92956543 C9.37644858 36.97810821 8.95203955 35.02719587 8.52758789 33.07629395 C8.26010742 31.83557129 7.99262695 30.59484863 7.71704102 29.31652832 C7.47091064 28.18013916 7.22478027 27.04375 6.97119141 25.8729248 C6.29130549 22.42901903 5.77290851 18.98667613 5.30688477 15.50793457 C4.55922852 15.55434082 3.81157227 15.60074707 3.04125977 15.64855957 C-4.94764636 15.94134671 -4.94764636 15.94134671 -8.38061523 13.94543457 C-10.21346912 10.54156308 -10.23719138 8.31646756 -9.69311523 4.50793457 C-6.75731688 0.67572322 -4.75160631 0.00710356 0 0 Z M22.30688477 15.50793457 C22.89197207 20.77372032 23.44040207 25.68345143 24.46313477 30.82043457 C24.68098633 31.91484863 24.89883789 33.0092627 25.12329102 34.13684082 C25.34887695 35.24930176 25.57446289 36.3617627 25.80688477 37.50793457 C26.0324707 38.65133301 26.25805664 39.79473145 26.49047852 40.97277832 C26.70833008 42.05687988 26.92618164 43.14098145 27.15063477 44.25793457 C27.34850586 45.24277832 27.54637695 46.22762207 27.75024414 47.24230957 C28.08817481 49.46188251 28.08817481 49.46188251 29.30688477 50.50793457 C31.23355984 50.59541664 33.16340338 50.61490791 35.09204102 50.60559082 C36.67190796 50.60184448 36.67190796 50.60184448 38.28369141 50.59802246 C40.30610962 50.58436646 40.30610962 50.58436646 42.36938477 50.57043457 C46.63875977 50.54980957 50.90813477 50.52918457 55.30688477 50.50793457 C55.30688477 38.95793457 55.30688477 27.40793457 55.30688477 15.50793457 C44.41688477 15.50793457 33.52688477 15.50793457 22.30688477 15.50793457 Z M71.30688477 15.50793457 C71.30688477 27.05793457 71.30688477 38.60793457 71.30688477 50.50793457 C79.88688477 50.50793457 88.46688477 50.50793457 97.30688477 50.50793457 C98.67158986 46.4138193 99.75708589 42.76916023 100.59594727 38.59387207 C100.81508789 37.5033252 101.03422852 36.41277832 101.26000977 35.28918457 C101.48172852 34.16512207 101.70344727 33.04105957 101.93188477 31.88293457 C102.16133789 30.7511377 102.39079102 29.61934082 102.62719727 28.45324707 C102.84375977 27.36527832 103.06032227 26.27730957 103.28344727 25.15637207 C103.48019043 24.16814453 103.67693359 23.17991699 103.87963867 22.16174316 C104.41284935 19.2977399 104.41284935 19.2977399 104.30688477 15.50793457 C93.41688477 15.50793457 82.52688477 15.50793457 71.30688477 15.50793457 Z " fill="#D78546" transform="translate(192.693115234375,362.4920654296875)"/>
<path d="M0 0 C6.5466145 4.2045548 10.44899873 9.67973548 13 17 C13.60608527 20.0575645 13.84870689 22.8732757 14 26 C14.61746094 25.95359375 15.23492187 25.9071875 15.87109375 25.859375 C23.90019521 25.51719107 29.85190236 27.47336766 36.3125 32.25 C42.35699029 38.43505983 44.37105014 45.58469287 44.28125 54.08203125 C43.59809864 61.16972657 40.01687547 67.09714443 35 72 C29.26649853 75.50755384 24.29625294 77.12483235 17.54760742 77.12939453 C16.5711879 77.13202301 16.5711879 77.13202301 15.57504272 77.13470459 C13.41849104 77.13911118 11.26202131 77.13618555 9.10546875 77.1328125 C7.59629806 77.13348678 6.08712747 77.13445783 4.57795715 77.13571167 C1.40620902 77.13718776 -1.76551099 77.13504021 -4.93725586 77.13037109 C-8.96357678 77.12472747 -12.98983023 77.12791886 -17.01614857 77.13394356 C-20.14009588 77.13759771 -23.26402785 77.13638767 -26.38797569 77.13381577 C-27.86963598 77.13315702 -29.35129775 77.1339373 -30.83295631 77.13629532 C-60.90557434 77.17359191 -60.90557434 77.17359191 -69 70 C-75.86148676 61.76340955 -76.80624118 54.57327718 -76 44 C-74.38984981 37.26840826 -70.79663601 32.69846715 -65 29 C-59.1367314 25.78190663 -53.57771815 25.63606887 -47 26 C-46.9071875 24.081875 -46.9071875 24.081875 -46.8125 22.125 C-45.82854818 13.668333 -41.95792793 6.76210791 -35.29296875 1.47265625 C-24.07058327 -5.73490648 -11.78588394 -6.0270757 0 0 Z " fill="#54C1EC" transform="translate(443,29)"/>
<path d="M0 0 C3.39604279 3.54560944 4.56530812 8.01725628 6.125 12.5625 C13.49918048 33.18440068 23.78160268 51.57239236 37 69 C35.25308336 73.19186113 33.25717371 74.36940383 29.23991394 76.21568298 C25.61428275 77.48521579 22.22784404 77.55854005 18.41601562 77.51757812 C17.59864426 77.5245874 16.78127289 77.53159668 15.93913269 77.53881836 C13.26115037 77.55629573 10.5842414 77.54481265 7.90625 77.53125 C6.03112589 77.53394787 4.15600314 77.53783275 2.28088379 77.54284668 C-1.63954045 77.54872783 -5.55959891 77.54022351 -9.47998047 77.52148438 C-14.4901415 77.49869566 -19.49944526 77.51182618 -24.50957489 77.53577423 C-28.37878814 77.5502697 -32.24780015 77.54560907 -36.11701965 77.53526306 C-37.96369022 77.53260613 -39.81037941 77.53582895 -41.6570282 77.54518127 C-44.24384543 77.55540899 -46.82929922 77.53976022 -49.41601562 77.51757812 C-50.54623894 77.52972351 -50.54623894 77.52972351 -51.69929504 77.54211426 C-58.16829398 77.44001271 -63.25824361 75.3098691 -68.20703125 71.140625 C-73.90060861 64.43577964 -76.69177388 58.50140662 -76.3359375 49.578125 C-75.23771019 41.14986886 -71.71974638 36.02823693 -65.31640625 30.59375 C-60.75705828 27.45679558 -57.19354958 26.75398792 -51.6875 26.875 C-50.61886719 26.89304688 -49.55023438 26.91109375 -48.44921875 26.9296875 C-47.64097656 26.95289063 -46.83273438 26.97609375 -46 27 C-45.97873047 26.07380859 -45.97873047 26.07380859 -45.95703125 25.12890625 C-45.439129 15.93264189 -42.3674915 9.94734083 -35.6875 3.625 C-25.75590561 -4.53483696 -11.57143566 -6.23077305 0 0 Z " fill="#54C0EC" transform="translate(101,219)"/>
<path d="M0 0 C1.16087128 -0.0112793 2.32174255 -0.02255859 3.51779175 -0.03417969 C4.78752838 -0.02608276 6.05726501 -0.01798584 7.36547852 -0.00964355 C8.71917473 -0.01506501 10.07286505 -0.0221878 11.42654419 -0.03088379 C15.10015964 -0.04911779 18.77332571 -0.04204964 22.44694901 -0.02936745 C26.2914679 -0.01924003 30.13594834 -0.0286324 33.98046875 -0.03491211 C40.43667509 -0.0421893 46.8926984 -0.03259906 53.34887695 -0.0135498 C60.81303926 0.00821923 68.27676454 0.0011679 75.74091625 -0.02085543 C82.14953699 -0.03900751 88.55802617 -0.04156874 94.96666431 -0.03110075 C98.79424516 -0.0248647 102.62162059 -0.02403306 106.44918823 -0.0372467 C110.04774304 -0.04880198 113.64573443 -0.04078627 117.24422836 -0.01766968 C119.19480362 -0.00985777 121.14542654 -0.02174131 123.09597778 -0.03417969 C124.8372847 -0.01726074 124.8372847 -0.01726074 126.61376953 0 C127.62254654 0.0015081 128.63132355 0.0030162 129.67066956 0.00457001 C133.03618713 0.64718912 134.22549885 1.83469547 136.30688477 4.50793457 C136.92602856 8.14540438 136.52440442 10.03146295 134.99438477 13.38293457 C131.77598479 15.92771594 130.63804822 15.74035915 126.63891602 15.64074707 C125.642229 15.62157227 124.64554199 15.60239746 123.61865234 15.5826416 C122.47432739 15.54566162 122.47432739 15.54566162 121.30688477 15.50793457 C121.16589355 16.2839502 121.02490234 17.05996582 120.87963867 17.85949707 C120.23308131 21.40947293 119.58251626 24.95870324 118.93188477 28.50793457 C118.71016602 29.72867676 118.48844727 30.94941895 118.26000977 32.20715332 C118.04086914 33.39953613 117.82172852 34.59191895 117.59594727 35.82043457 C117.39694824 36.90969238 117.19794922 37.9989502 116.99291992 39.12121582 C116.21868768 42.94333316 115.25271203 46.72462553 114.30688477 50.50793457 C108.69688477 50.50793457 103.08688477 50.50793457 97.30688477 50.50793457 C99.61688477 38.95793457 101.92688477 27.40793457 104.30688477 15.50793457 C93.41688477 15.50793457 82.52688477 15.50793457 71.30688477 15.50793457 C71.30688477 27.05793457 71.30688477 38.60793457 71.30688477 50.50793457 C66.02688477 50.50793457 60.74688477 50.50793457 55.30688477 50.50793457 C55.30688477 38.95793457 55.30688477 27.40793457 55.30688477 15.50793457 C44.41688477 15.50793457 33.52688477 15.50793457 22.30688477 15.50793457 C24.61688477 27.05793457 26.92688477 38.60793457 29.30688477 50.50793457 C23.69688477 50.50793457 18.08688477 50.50793457 12.30688477 50.50793457 C11.46842217 46.64895536 10.63149796 42.78968904 9.79833984 38.92956543 C9.37644858 36.97810821 8.95203955 35.02719587 8.52758789 33.07629395 C8.26010742 31.83557129 7.99262695 30.59484863 7.71704102 29.31652832 C7.47091064 28.18013916 7.22478027 27.04375 6.97119141 25.8729248 C6.29130549 22.42901903 5.77290851 18.98667613 5.30688477 15.50793457 C4.55922852 15.55434082 3.81157227 15.60074707 3.04125977 15.64855957 C-4.94764636 15.94134671 -4.94764636 15.94134671 -8.38061523 13.94543457 C-10.21346912 10.54156308 -10.23719138 8.31646756 -9.69311523 4.50793457 C-6.75731688 0.67572322 -4.75160631 0.00710356 0 0 Z " fill="#84828E" transform="translate(192.693115234375,362.4920654296875)"/>
<path d="M0 0 C0.66 0.33 1.32 0.66 2 1 C1.32195312 1.81339844 0.64390625 2.62679687 -0.0546875 3.46484375 C-18.85935608 26.43697826 -29.58951076 52.92095514 -35 82 C-35.31324219 83.65902344 -35.31324219 83.65902344 -35.6328125 85.3515625 C-43.88080342 140.20724815 -27.69352071 194.65067755 -1.80908203 242.57763672 C-1.3139209 243.50205566 -0.81875977 244.42647461 -0.30859375 245.37890625 C0.13685791 246.1994751 0.58230957 247.02004395 1.04125977 247.86547852 C2 250 2 250 2 253 C-34.9184431 210.38216592 -61.25119253 160.50333334 -57.86376953 102.67431641 C-54.79153706 63.15304831 -33.53675903 28.52559422 -4 3 C-2.68057249 1.98172261 -1.35379363 0.97212169 0 0 Z " fill="#EE5E41" transform="translate(184,59)"/>
<path d="M0 0 C0.44472656 0.60593994 0.88945312 1.21187988 1.34765625 1.83618164 C1.85039062 2.51487305 2.353125 3.19356445 2.87109375 3.89282227 C3.37898438 4.58698242 3.886875 5.28114258 4.41015625 5.99633789 C5.92759692 8.05874773 7.44866689 10.11692965 8.9921875 12.15991211 C10.25364088 13.84923449 11.46104563 15.57861368 12.66015625 17.31274414 C18.2598129 22.90444673 25.45709388 24.4977649 33.19087219 24.61997986 C34.1180455 24.61494949 35.04521881 24.60991913 36.00048828 24.60473633 C37.00656631 24.61507401 38.01264435 24.62541168 39.04920959 24.63606262 C42.33896294 24.66530634 45.6280961 24.66698591 48.91796875 24.66821289 C51.21297364 24.68320694 53.50796778 24.69993665 55.802948 24.71832275 C61.81653358 24.76187054 67.82997362 24.7819676 73.84368896 24.79705811 C79.99093181 24.81667448 86.13801852 24.85863942 92.28515625 24.89868164 C104.32677461 24.97384766 116.36835779 25.02422156 128.41015625 25.05883789 C124.0939296 33.8797234 124.0939296 33.8797234 120.41015625 37.05883789 C116.47960164 38.28178336 112.66268465 38.25445913 108.56835938 38.25268555 C106.78661316 38.29780777 106.78661316 38.29780777 104.96887207 38.34384155 C101.71988073 38.41514375 98.47330701 38.45001446 95.22362709 38.46275759 C93.18739466 38.47292041 91.15156709 38.49396817 89.11546326 38.51874924 C81.99276522 38.60469232 74.87124713 38.64717593 67.74804688 38.65112305 C61.13922925 38.65597856 54.53672706 38.7576666 47.92968798 38.90490687 C42.23402697 39.02728746 36.54042484 39.0789494 30.84345961 39.07779348 C27.45026754 39.0783562 24.06311645 39.1062393 20.67127991 39.20650101 C0.1620431 39.71294008 0.1620431 39.71294008 -6.06536865 35.30764008 C-10.31822823 31.15076579 -13.40331261 26.45292873 -16.2935791 21.28420639 C-18.23821144 17.94574957 -20.60812578 14.99821492 -23.02734375 11.99633789 C-23.80722656 10.97668945 -24.58710938 9.95704102 -25.390625 8.90649414 C-26.82775562 7.04562695 -28.2828761 5.19847881 -29.7578125 3.36743164 C-30.40363281 2.5643457 -31.04945313 1.76125977 -31.71484375 0.93383789 C-32.27429688 0.25063477 -32.83375 -0.43256836 -33.41015625 -1.13647461 C-34.58984375 -2.94116211 -34.58984375 -2.94116211 -34.58984375 -5.94116211 C-30.02922044 -6.25450102 -25.46714669 -6.50939921 -20.90234375 -6.75366211 C-19.60876953 -6.84325195 -18.31519531 -6.9328418 -16.98242188 -7.02514648 C-15.73525391 -7.08637695 -14.48808594 -7.14760742 -13.203125 -7.21069336 C-12.05626221 -7.27877197 -10.90939941 -7.34685059 -9.7277832 -7.41699219 C-4.85467586 -6.67804515 -2.99286836 -3.6542224 0 0 Z " fill="#EED9C4" transform="translate(197.58984375,325.941162109375)"/>
<path d="M0 0 C6.6 0 13.2 0 20 0 C20.01417969 2.97386719 20.02835938 5.94773437 20.04296875 9.01171875 C20.07359885 11.89781995 20.11268511 14.78369161 20.15258789 17.66967773 C20.17575811 19.67252461 20.19016132 21.67549317 20.19555664 23.6784668 C20.20485333 26.56115454 20.24585906 29.44193119 20.29296875 32.32421875 C20.2890361 33.21711105 20.28510345 34.11000336 20.28105164 35.029953 C20.30069473 35.87044693 20.32033783 36.71094086 20.34057617 37.5769043 C20.34723801 38.31192673 20.35389984 39.04694916 20.36076355 39.804245 C21.38358687 43.31760757 23.12184327 44.79709398 26 47 C28.86567247 47.49827801 31.14274794 47.69279128 34.00317383 47.65942383 C35.18932785 47.67514938 35.18932785 47.67514938 36.39944458 47.69119263 C39.0023748 47.71989857 41.60397138 47.71365671 44.20703125 47.70703125 C46.01594201 47.72014905 47.82483813 47.73545353 49.63371277 47.75285339 C54.38650233 47.79270687 59.13890875 47.80289405 63.8918457 47.80688477 C68.74507269 47.81621555 73.59807449 47.85362876 78.45117188 47.88867188 C87.96743739 47.95325123 97.48353453 47.98648846 107 48 C106.31366149 51.84022737 104.78487323 53.35671002 101.765625 55.8515625 C97.07675045 58.90140568 92.69146582 59.29744455 87.21557617 59.29052734 C86.44741074 59.29724457 85.6792453 59.30396179 84.88780212 59.31088257 C82.35612462 59.32983178 79.8247127 59.33378533 77.29296875 59.3359375 C75.5256591 59.34236808 73.75835052 59.34909664 71.99104309 59.35610962 C68.28819309 59.36807505 64.58543633 59.37179125 60.88256836 59.37060547 C56.15149899 59.37040244 51.42103139 59.39769104 46.69010448 59.43214989 C43.03967068 59.45445383 39.38938083 59.45844192 35.73888588 59.45738602 C33.99546551 59.45973723 32.25204088 59.46853363 30.50868797 59.48405075 C28.06290683 59.50378009 25.61841196 59.49784618 23.17260742 59.48583984 C22.10544495 59.50269836 22.10544495 59.50269836 21.01672363 59.51989746 C14.73667115 59.44206777 9.61643811 57.30862186 4.94140625 53.18359375 C4.25884766 52.31927734 4.25884766 52.31927734 3.5625 51.4375 C3.08941406 50.85871094 2.61632812 50.27992188 2.12890625 49.68359375 C0.10720143 46.66852531 -0.12338017 44.0467194 -0.11352539 40.52856445 C-0.11344986 39.62785721 -0.11337433 38.72714996 -0.11329651 37.79914856 C-0.10813522 36.83031235 -0.10297394 35.86147614 -0.09765625 34.86328125 C-0.0962413 33.86870407 -0.09482635 32.87412689 -0.09336853 31.84941101 C-0.08776761 28.67041018 -0.07521496 25.49147957 -0.0625 22.3125 C-0.05748512 20.15820414 -0.05292219 18.00390718 -0.04882812 15.84960938 C-0.03864845 10.56635737 -0.01907313 5.28325738 0 0 Z " fill="#C1773D" transform="translate(201,428)"/>
<path d="M0 0 C1.14508026 -0.00700928 2.29016052 -0.01401855 3.46994019 -0.02124023 C7.26015373 -0.03886486 11.04962243 -0.0271808 14.83984375 -0.01367188 C17.47013492 -0.01636548 20.10042513 -0.0202468 22.73071289 -0.02526855 C28.24536225 -0.0325436 33.75979726 -0.02296125 39.27441406 -0.00390625 C45.64797042 0.01786253 52.02101495 0.01081103 58.39455891 -0.01121187 C64.52847897 -0.03155758 70.66217229 -0.02939587 76.79611206 -0.01768494 C79.40526399 -0.01501298 82.01442895 -0.01830379 84.62356567 -0.02760315 C88.26762701 -0.03774021 91.91069994 -0.02230561 95.5546875 0 C96.63740936 -0.00809692 97.72013123 -0.01619385 98.83566284 -0.02453613 C106.11381731 0.05816933 106.11381731 0.05816933 109.44750977 2.36633301 C111.29266566 5.35120379 111.34092237 7.06565907 110.77734375 10.51757812 C109.44750977 13.16954041 109.44750977 13.16954041 106.77734375 15.51757812 C103.04717851 16.28444333 99.35115167 16.18967926 95.5546875 16.14868164 C94.40960724 16.15583694 93.26452698 16.16299225 92.08474731 16.17036438 C88.29437537 16.18729233 84.50517927 16.16782297 80.71484375 16.14648438 C78.08455304 16.14731268 75.45426238 16.14977063 72.82397461 16.15379333 C67.30926945 16.1583135 61.79490357 16.14244976 56.28027344 16.11450195 C49.90670235 16.08244992 43.53374312 16.08246573 37.16012859 16.09971672 C31.02618904 16.11558673 24.89250957 16.10874818 18.75857544 16.09177971 C16.14942935 16.08658947 13.54026563 16.08708985 10.93112183 16.09332466 C7.28702657 16.09876335 3.64397627 16.07844262 0 16.05102539 C-1.62408279 16.06081421 -1.62408279 16.06081421 -3.28097534 16.07080078 C-10.54562945 15.97767175 -10.54562945 15.97767175 -13.89282227 13.70298767 C-15.86492226 10.4620973 -15.75299534 8.22995178 -15.22265625 4.51757812 C-11.77883413 -1.14446502 -5.89574991 -0.04409021 0 0 Z " fill="#FFB154" transform="translate(208.22265625,412.482421875)"/>
<path d="M0 0 C5.61 0 11.22 0 17 0 C16.2114665 4.33392457 15.41928529 8.66712914 14.625 13 C14.29242188 14.83111328 14.29242188 14.83111328 13.953125 16.69921875 C13.73398437 17.89160156 13.51484375 19.08398438 13.2890625 20.3125 C13.09006348 21.40175781 12.89106445 22.49101562 12.68603516 23.61328125 C11.91180291 27.43539859 10.94582726 31.21669096 10 35 C4.39 35 -1.22 35 -7 35 C-4.69 23.45 -2.38 11.9 0 0 Z " fill="#76757E" transform="translate(297,378)"/>
<path d="M0 0 C5.61 0 11.22 0 17 0 C19.31 11.55 21.62 23.1 24 35 C18.39 35 12.78 35 7 35 C6.16153741 31.14102079 5.3246132 27.28175447 4.49145508 23.42163086 C4.06956381 21.47017364 3.64515478 19.5192613 3.22070312 17.56835938 C2.95322266 16.32763672 2.68574219 15.08691406 2.41015625 13.80859375 C2.04096069 12.10401001 2.04096069 12.10401001 1.66430664 10.36499023 C0.98657481 6.93199583 0.49486909 3.46408366 0 0 Z " fill="#76757F" transform="translate(198,378)"/>
<path d="M0 0 C5.28 0 10.56 0 16 0 C16 11.55 16 23.1 16 35 C10.72 35 5.44 35 0 35 C0 23.45 0 11.9 0 0 Z " fill="#787780" transform="translate(248,378)"/>
</svg>
