<?xml version="1.0" encoding="UTF-8"?>
<svg version="1.1" xmlns="http://www.w3.org/2000/svg" width="512" height="512">
<path d="M0 0 C3.12578143 1.6720747 5.39281175 3.7856235 7 7 C7.22858114 9.0374763 7.41024278 11.08040303 7.5625 13.125 C7.68818359 14.76855469 7.68818359 14.76855469 7.81640625 16.4453125 C7.87699219 17.28835937 7.93757813 18.13140625 8 19 C15.45215844 21.99691829 22.26255554 23.42102228 30.25 23.5 C30.96196533 23.51804687 31.67393066 23.53609375 32.4074707 23.5546875 C47.4805416 23.39649194 61.94372371 17.44752889 75.75 12 C98.67345054 3.03625318 122.56035444 -5.97086214 146.91015625 3.5 C152.37781619 6.15433808 156.61376734 8.92065101 160 14 C160.2004394 17.03480615 160.28327435 19.97810709 160.2746582 23.01367188 C160.2823246 24.39698448 160.2823246 24.39698448 160.29014587 25.8082428 C160.30406558 28.86181089 160.30308349 31.91515392 160.30078125 34.96875 C160.30466652 37.08719975 160.30900083 39.20564872 160.31376648 41.32409668 C160.32123355 45.76605758 160.32093361 50.20793901 160.31567383 54.64990234 C160.30987479 60.3499465 160.32681844 66.04966619 160.3500185 71.74965668 C160.36472904 76.12475495 160.36563126 80.49977457 160.36250877 84.87489319 C160.36302321 86.97689965 160.36828379 89.07891038 160.37832069 91.18089294 C160.39061753 94.1162545 160.38393437 97.05097727 160.37231445 99.98632812 C160.37995819 100.85914932 160.38760193 101.73197052 160.39547729 102.63124084 C160.34349537 108.55348549 160.34349537 108.55348549 158.65629864 110.74669647 C157 112 157 112 154.125 112 C149.26500173 111.08810267 144.73400563 109.03541169 140.18359375 107.15625 C116.73851106 98.6412261 90.8991831 111.70275583 69.41894531 119.99658203 C49.63519755 127.63204384 31.91641819 131.80863588 11 126 C9.6563832 125.35430958 8.32065576 124.69144094 7 124 C6.99089575 131.42036954 7.02830551 138.83947338 7.09765625 146.25952148 C7.11579492 148.78225384 7.12338866 151.30508541 7.12011719 153.82788086 C7.11725424 157.46025027 7.15263502 161.09057099 7.1953125 164.72265625 C7.1816716 166.40742821 7.1816716 166.40742821 7.16775513 168.12623596 C7.28359798 174.4049722 7.84310914 177.95544282 12.38293457 182.40330505 C15.11866435 185.10457232 16.97745721 188.38290251 19.01171875 191.625 C19.97491056 193.13595128 20.93898119 194.64634261 21.90380859 196.15625 C22.65908844 197.34154297 22.65908844 197.34154297 23.42962646 198.55078125 C26.13212064 202.76570162 28.88886273 206.94472635 31.64453125 211.125 C32.50760139 212.43543274 32.50760139 212.43543274 33.3881073 213.77233887 C35.19538764 216.51545429 37.00383532 219.25779717 38.8125 222 C39.75203018 223.42517944 39.75203018 223.42517944 40.71054077 224.87915039 C50.08276496 239.09446552 59.49099825 253.28528201 68.9465332 267.4453125 C69.3619487 268.06744629 69.7773642 268.68958008 70.20536804 269.33056641 C71.00376278 270.52492923 71.80313198 271.71864138 72.60359192 272.91162109 C74.52750223 275.78091544 76.43264596 278.65999385 78.30615234 281.5625 C79.02367676 282.6659375 79.74120117 283.769375 80.48046875 284.90625 C81.42829224 286.38061523 81.42829224 286.38061523 82.39526367 287.88476562 C83.18960815 288.93180664 83.18960815 288.93180664 84 290 C84.66 290 85.32 290 86 290 C87.56341749 287.71671903 89.00423606 285.43475512 90.421875 283.0625 C91.32553311 281.58344787 92.23120043 280.10562178 93.13867188 278.62890625 C93.60942139 277.8620752 94.0801709 277.09524414 94.56518555 276.30517578 C98.18230368 270.49390652 102.01980493 264.82289073 105.82421875 259.13330078 C107.2665149 256.97528986 108.70375384 254.81396961 110.140625 252.65234375 C125.01396189 230.32867937 125.01396189 230.32867937 132 228 C137.68985711 227.4364332 142.16908403 227.67203567 147 231 C152.37317218 236.69491902 156.52902862 243.13219365 160.76779175 249.68600464 C162.57857016 252.48529521 164.40101229 255.27693458 166.22236633 258.0693512 C167.21748362 259.59537089 168.21200598 261.12177867 169.20597839 262.64854431 C175.57925181 272.43601095 182.00897055 282.18627698 188.4375 291.9375 C189.05501129 292.87465851 189.67252258 293.81181702 190.30874634 294.77737427 C198.86408005 307.76037902 207.46051531 320.71502395 216.09844971 333.64318848 C234.02308158 360.47542531 234.02308158 360.47542531 239.91392517 369.88052368 C241.91861237 373.01537169 241.91861237 373.01537169 244.30513 375.67340088 C253.55854383 387.31817585 252.23698003 400.17427717 252.0546875 414.44140625 C252.05058635 417.09990495 252.04955116 419.75824858 252.05203247 422.41673279 C252.05011738 427.96198213 252.01331523 433.50611316 251.95361328 439.05102539 C251.88498828 445.4521991 251.86597199 451.85202844 251.8743819 458.2535339 C251.88191198 464.43884588 251.86094847 470.62370964 251.82483292 476.80891228 C251.81144217 479.43116764 251.80437275 482.05346317 251.80373764 484.67575264 C251.79761078 488.33086293 251.75876948 491.98415181 251.71044922 495.63891602 C251.71428619 496.72103363 251.71812317 497.80315125 251.72207642 498.9180603 C251.70219666 499.91439987 251.68231689 500.91073944 251.66183472 501.93727112 C251.65475431 502.79939996 251.64767391 503.6615288 251.64037895 504.54978275 C250.67893353 508.2284642 248.95375295 509.64080795 246 512 C242.99483347 512.49124604 240.55943155 512.67362153 237.55880737 512.6292057 C236.70697254 512.63647291 235.85513772 512.64374011 234.97748971 512.65122753 C232.10938549 512.66954482 229.24260725 512.65209102 226.37451172 512.63491821 C224.30310314 512.64067673 222.23169967 512.64861603 220.16030693 512.65855443 C214.45752842 512.6794878 208.75516658 512.66908297 203.05238628 512.65362334 C196.906416 512.64234034 190.76051888 512.65975738 184.61456299 512.67352295 C173.26699768 512.69450452 161.91960281 512.69263958 150.57204169 512.67896561 C140.08965982 512.66639595 129.60732682 512.66310051 119.12493896 512.66907883 C118.08262382 512.66965172 118.08262382 512.66965172 117.01925181 512.67023618 C114.19863701 512.67179283 111.37802224 512.67338482 108.55740749 512.675035 C82.08897778 512.69033567 55.62063301 512.67645374 29.1522164 512.64955051 C5.62812481 512.62582183 -17.89583146 512.62794494 -41.41992188 512.65185547 C-67.83942428 512.67861911 -94.25885163 512.68925062 -120.67836571 512.67379415 C-123.49389011 512.67219052 -126.30941453 512.67062633 -129.12493896 512.66907883 C-130.16484685 512.66848575 -130.16484685 512.66848575 -131.22576298 512.66788069 C-141.70247014 512.66218937 -152.1791231 512.66885202 -162.65582275 512.68147659 C-174.56636863 512.69575726 -186.47675464 512.69174982 -198.38729429 512.66507287 C-204.46789087 512.65190397 -210.54821233 512.6468348 -216.62880707 512.66331863 C-222.19020009 512.6781673 -227.7510618 512.67011383 -233.3124063 512.64343087 C-235.32915079 512.63782432 -237.34593975 512.64073467 -239.36265588 512.65280981 C-242.09535277 512.6679226 -244.82620813 512.65251815 -247.55880737 512.6292057 C-248.34962448 512.64091153 -249.14044158 512.65261737 -249.95522285 512.66467792 C-254.00378736 512.59521097 -255.78851852 512.17123524 -258.97779846 509.5888952 C-260.9080343 507.11773779 -261.68258992 505.95214942 -262.02783203 502.90795898 C-262.16578186 501.73760605 -262.16578186 501.73760605 -262.30651855 500.54360962 C-262.40615906 499.28258926 -262.40615906 499.28258926 -262.5078125 497.99609375 C-262.58084595 497.10159515 -262.65387939 496.20709656 -262.72912598 495.28549194 C-264.78256654 464.08824497 -254.32401475 445.87389913 -235.60644531 421.71533203 C-230.8899821 415.61204387 -226.69067451 409.21916121 -222.5 402.75 C-221.09273284 400.63739555 -219.68259186 398.52670252 -218.26953125 396.41796875 C-213.53981167 389.3228403 -208.86136985 382.19447836 -204.1875 375.0625 C-196.02902358 362.61485032 -187.86225219 350.17272309 -179.6781311 337.74191284 C-178.4089769 335.81368471 -177.14038671 333.88508522 -175.87240601 331.95608521 C-171.93081505 325.96009085 -167.9732808 319.9750362 -164 314 C-163.5373172 313.30025055 -163.0746344 312.6005011 -162.59793091 311.87954712 C-161.37230802 310.03075417 -160.13583529 308.18984977 -158.89453125 306.3515625 C-158.23042236 305.3610791 -157.56631348 304.3705957 -156.88208008 303.35009766 C-153.84760982 299.56104451 -151.80334907 298.68619272 -147 298 C-143.1192655 298.0298518 -140.33889062 298.9307258 -137.29296875 301.36328125 C-131.50928326 307.47204508 -127.35770285 315.14516992 -123.03393555 322.31762695 C-122.06016088 323.90210894 -121.03162609 325.45256087 -120 327 C-119.34 327 -118.68 327 -118 327 C-116.56561212 325.23184612 -116.56561212 325.23184612 -115.10546875 322.859375 C-114.18906616 321.44023804 -114.18906616 321.44023804 -113.25415039 319.99243164 C-112.57215576 318.9224292 -111.89016113 317.85242676 -111.1875 316.75 C-110.06150769 315.00254257 -108.93254856 313.25702518 -107.8033905 311.51161194 C-106.96250569 310.21173728 -106.12237815 308.91137251 -105.28291321 307.61058044 C-99.10845857 298.05157071 -92.82844014 288.56165921 -86.5625 279.0625 C-85.28668062 277.12696753 -84.01088306 275.19142068 -82.73510742 273.25585938 C-75.32996137 262.02496493 -67.8938126 250.81576217 -60.41577148 239.63330078 C-54.60419261 230.93264613 -48.85986495 222.18883739 -43.125 213.4375 C-30.12682111 193.61099358 -30.12682111 193.61099358 -25.875 187.1875 C-25.40852051 186.477146 -24.94204102 185.76679199 -24.46142578 185.03491211 C-21.24477626 180.19278236 -21.24477626 180.19278236 -19.38658714 178.72929859 C-17.22200661 176.02971632 -17.62974508 173.63699399 -17.63491821 170.22575378 C-17.63179922 169.53322 -17.62868022 168.84068622 -17.6254667 168.12716657 C-17.61850908 165.80095041 -17.63286914 163.47534666 -17.64697266 161.14916992 C-17.64614207 159.48360575 -17.64392654 157.81804178 -17.64042664 156.15248108 C-17.63547144 152.56256003 -17.639586 148.97280216 -17.65044022 145.38289452 C-17.66677484 139.70590327 -17.65834753 134.02911766 -17.64559937 128.35212708 C-17.61545071 113.22725412 -17.61693744 98.10241761 -17.63585222 82.97752982 C-17.64818398 73.04430766 -17.64632795 63.11131773 -17.61746442 53.17812234 C-17.60222133 47.53545208 -17.60972674 41.89341153 -17.63417459 36.25078046 C-17.64424689 32.73774992 -17.63355228 29.22500812 -17.61705971 25.71201134 C-17.61360845 24.08422856 -17.61870361 22.45640154 -17.63302803 20.82867813 C-17.65139645 18.60343881 -17.63896097 16.38037628 -17.61904907 14.15519714 C-17.62018015 12.9109859 -17.62131123 11.66677465 -17.62247658 10.38486004 C-16.79382136 5.87885608 -15.19800264 4.23385004 -12 1 C-8.27533151 -0.86233425 -4.05504687 -0.57130829 0 0 Z " fill="#5BA9EF" transform="translate(261,0)"/>
<path d="M0 0 C3.12578143 1.6720747 5.39281175 3.7856235 7 7 C7.22858114 9.0374763 7.41024278 11.08040303 7.5625 13.125 C7.64628906 14.22070312 7.73007812 15.31640625 7.81640625 16.4453125 C7.87699219 17.28835937 7.93757813 18.13140625 8 19 C15.45215844 21.99691829 22.26255554 23.42102228 30.25 23.5 C30.96196533 23.51804687 31.67393066 23.53609375 32.4074707 23.5546875 C47.4805416 23.39649194 61.94372371 17.44752889 75.75 12 C98.67345054 3.03625318 122.56035444 -5.97086214 146.91015625 3.5 C152.37781619 6.15433808 156.61376734 8.92065101 160 14 C160.2004394 17.03480615 160.28327435 19.97810709 160.2746582 23.01367188 C160.2823246 24.39698448 160.2823246 24.39698448 160.29014587 25.8082428 C160.30406558 28.86181089 160.30308349 31.91515392 160.30078125 34.96875 C160.30466652 37.08719975 160.30900083 39.20564872 160.31376648 41.32409668 C160.32123355 45.76605758 160.32093361 50.20793901 160.31567383 54.64990234 C160.30987479 60.3499465 160.32681844 66.04966619 160.3500185 71.74965668 C160.36472904 76.12475495 160.36563126 80.49977457 160.36250877 84.87489319 C160.36302321 86.97689965 160.36828379 89.07891038 160.37832069 91.18089294 C160.39061753 94.1162545 160.38393437 97.05097727 160.37231445 99.98632812 C160.37995819 100.85914932 160.38760193 101.73197052 160.39547729 102.63124084 C160.34349537 108.55348549 160.34349537 108.55348549 158.65629864 110.74669647 C157 112 157 112 154.125 112 C149.26500173 111.08810267 144.73400563 109.03541169 140.18359375 107.15625 C116.73851106 98.6412261 90.8991831 111.70275583 69.41894531 119.99658203 C49.63519755 127.63204384 31.91641819 131.80863588 11 126 C9.6563832 125.35430958 8.32065576 124.69144094 7 124 C6.99089575 131.42036954 7.02830551 138.83947338 7.09765625 146.25952148 C7.11579492 148.78225384 7.12338866 151.30508541 7.12011719 153.82788086 C7.11725424 157.46025027 7.15263502 161.09057099 7.1953125 164.72265625 C7.18621857 165.84583755 7.17712463 166.96901886 7.16775513 168.12623596 C7.28359798 174.4049722 7.84310914 177.95544282 12.38293457 182.40330505 C15.11866435 185.10457232 16.97745721 188.38290251 19.01171875 191.625 C19.97491056 193.13595128 20.93898119 194.64634261 21.90380859 196.15625 C22.65908844 197.34154297 22.65908844 197.34154297 23.42962646 198.55078125 C26.13212059 202.76570154 28.88885733 206.94473 31.64453125 211.125 C32.21986603 211.99853119 32.79520081 212.87206238 33.38796997 213.77206421 C35.19533026 216.51524854 37.00383934 219.2576729 38.8125 222 C39.43918579 222.9507843 40.06587158 223.9015686 40.71154785 224.88116455 C50.45913235 239.66871788 60.25252849 254.42489785 70.11103821 269.13873291 C71.29768579 270.91536435 72.47652864 272.69696609 73.65429688 274.47949219 C75.2938241 276.95790794 76.97349964 279.4037648 78.67382812 281.84082031 C79.52770042 283.09415812 80.38122781 284.347731 81.234375 285.6015625 C81.64294739 286.1711972 82.05151978 286.74083191 82.47247314 287.32772827 C83.56933594 288.96337891 83.56933594 288.96337891 85 292 C84.3918457 294.63818359 84.3918457 294.63818359 83 297 C82.60868896 297.69480469 82.21737793 298.38960938 81.81420898 299.10546875 C81.37923096 299.79253906 80.94425293 300.47960937 80.49609375 301.1875 C80.00729736 301.96206543 79.51850098 302.73663086 79.01489258 303.53466797 C78.49435303 304.34822754 77.97381348 305.16178711 77.4375 306 C76.89955811 306.84578613 76.36161621 307.69157227 75.80737305 308.56298828 C71.37241012 315.49842429 66.74989932 322.27600459 62 329 C60.45330309 331.20485177 58.9133796 333.41434029 57.375 335.625 C56.70210937 336.58664062 56.02921875 337.54828125 55.3359375 338.5390625 C53.45316117 341.28557812 51.66845373 344.08687895 49.890625 346.90234375 C45.64356478 353.60763015 41.22793406 360.19651797 36.81188965 366.79104614 C25.75623065 383.30620576 14.77507341 399.85492158 4.32006836 416.75878906 C1.86857629 420.69457307 -0.71337696 424.4302864 -3.5703125 428.078125 C-6.03073911 431.38558372 -8.15407331 434.90991493 -10.33984375 438.40234375 C-11.70570943 440.53952181 -13.11724155 442.58787182 -14.625 444.625 C-16.96922609 447.83490435 -18.8440278 451.22902125 -20.73828125 454.71875 C-25.71264368 463.71264368 -25.71264368 463.71264368 -29 467 C-34.5513023 459.50274741 -39.83991589 451.87471348 -44.9375 444.0625 C-45.60845703 443.04865234 -46.27941406 442.03480469 -46.97070312 440.99023438 C-47.60814453 440.01505859 -48.24558594 439.03988281 -48.90234375 438.03515625 C-49.47460693 437.1625415 -50.04687012 436.28992676 -50.63647461 435.39086914 C-51.88350716 433.20426398 -52.55289879 431.45923479 -53 429 C-53.66 429 -54.32 429 -55 429 C-56.405582 427.04376966 -57.67990471 425.09631742 -58.9375 423.046875 C-59.75168053 421.75007069 -60.5668253 420.45387139 -61.3828125 419.15820312 C-61.81110352 418.4747583 -62.23939453 417.79131348 -62.68066406 417.0871582 C-64.84739191 413.65944607 -67.08002518 410.27573955 -69.3125 406.890625 C-70.24415904 405.47462149 -71.17579934 404.05860565 -72.10742188 402.64257812 C-72.57978271 401.92529541 -73.05214355 401.2080127 -73.53881836 400.46899414 C-76.05888625 396.64194368 -78.57618266 392.81307068 -81.09375 388.984375 C-81.59555786 388.22133057 -82.09736572 387.45828613 -82.61437988 386.67211914 C-87.25131476 379.62023202 -91.87924528 372.5624983 -96.5 365.5 C-97.16257813 364.4884082 -97.82515625 363.47681641 -98.5078125 362.43457031 C-101.60081819 357.70437179 -104.66831614 352.96025006 -107.6953125 348.1875 C-110.83725663 343.23473399 -114.09515314 338.37776759 -117.3984375 333.53125 C-119 331 -119 331 -120 328 C-119.46246094 327.525625 -118.92492187 327.05125 -118.37109375 326.5625 C-115.08913416 323.01560462 -112.65658907 319.06694502 -110.0625 315 C-108.72790688 312.93142369 -107.39183057 310.86380392 -106.0546875 308.796875 C-105.4906144 307.92382721 -105.4906144 307.92382721 -104.91514587 307.03314209 C-98.89860739 297.73333477 -92.78518337 288.49669204 -86.6875 279.25 C-85.73389084 277.8032489 -85.73389084 277.8032489 -84.76101685 276.32727051 C-76.68239063 264.07170519 -68.57592659 251.83577048 -60.41625977 239.6340332 C-54.60451968 230.93313328 -48.86002583 222.18908289 -43.125 213.4375 C-30.12682111 193.61099358 -30.12682111 193.61099358 -25.875 187.1875 C-25.17528076 186.12196899 -25.17528076 186.12196899 -24.46142578 185.03491211 C-21.24477626 180.19278236 -21.24477626 180.19278236 -19.38658714 178.72929859 C-17.22200661 176.02971632 -17.62974508 173.63699399 -17.63491821 170.22575378 C-17.63179922 169.53322 -17.62868022 168.84068622 -17.6254667 168.12716657 C-17.61850908 165.80095041 -17.63286914 163.47534666 -17.64697266 161.14916992 C-17.64614207 159.48360575 -17.64392654 157.81804178 -17.64042664 156.15248108 C-17.63547144 152.56256003 -17.639586 148.97280216 -17.65044022 145.38289452 C-17.66677484 139.70590327 -17.65834753 134.02911766 -17.64559937 128.35212708 C-17.61545071 113.22725412 -17.61693744 98.10241761 -17.63585222 82.97752982 C-17.64818398 73.04430766 -17.64632795 63.11131773 -17.61746442 53.17812234 C-17.60222133 47.53545208 -17.60972674 41.89341153 -17.63417459 36.25078046 C-17.64424689 32.73774992 -17.63355228 29.22500812 -17.61705971 25.71201134 C-17.61360845 24.08422856 -17.61870361 22.45640154 -17.63302803 20.82867813 C-17.65139645 18.60343881 -17.63896097 16.38037628 -17.61904907 14.15519714 C-17.62018015 12.9109859 -17.62131123 11.66677465 -17.62247658 10.38486004 C-16.79382136 5.87885608 -15.19800264 4.23385004 -12 1 C-8.27533151 -0.86233425 -4.05504687 -0.57130829 0 0 Z " fill="#5DA9EB" transform="translate(261,0)"/>
<path d="M0 0 C2.31321742 1.88938288 3.48561384 3.32217076 5.1875 5.875 C5.3879394 8.90980615 5.47077435 11.85310709 5.4621582 14.88867188 C5.46726913 15.81088028 5.47238007 16.73308868 5.47764587 17.6832428 C5.49156558 20.73681089 5.49058349 23.79015392 5.48828125 26.84375 C5.49216652 28.96219975 5.49650083 31.08064872 5.50126648 33.19909668 C5.50873355 37.64105758 5.50843361 42.08293901 5.50317383 46.52490234 C5.49737479 52.2249465 5.51431844 57.92466619 5.5375185 63.62465668 C5.55222904 67.99975495 5.55313126 72.37477457 5.55000877 76.74989319 C5.55052321 78.85189965 5.55578379 80.95391038 5.56582069 83.05589294 C5.57811753 85.9912545 5.57143437 88.92597727 5.55981445 91.86132812 C5.56745819 92.73414932 5.57510193 93.60697052 5.58297729 94.50624084 C5.53099537 100.42848549 5.53099537 100.42848549 3.84379864 102.62169647 C2.1875 103.875 2.1875 103.875 -0.6875 103.875 C-5.54749827 102.96310267 -10.07849437 100.91041169 -14.62890625 99.03125 C-38.07398894 90.5162261 -63.9133169 103.57775583 -85.39355469 111.87158203 C-105.17730245 119.50704384 -122.89608181 123.68363588 -143.8125 117.875 C-145.1325 117.215 -146.4525 116.555 -147.8125 115.875 C-147.8125 81.225 -147.8125 46.575 -147.8125 10.875 C-143.1925 12.195 -138.5725 13.515 -133.8125 14.875 C-130.54543792 15.22735562 -127.72700295 15.44508875 -124.5 15.375 C-123.4490918 15.39820313 -123.4490918 15.39820313 -122.37695312 15.421875 C-107.3349754 15.31696147 -92.83363971 9.30866508 -79.0625 3.875 C-54.3908766 -5.77233408 -24.20928839 -17.2615247 0 0 Z " fill="#DD313C" transform="translate(415.8125,8.125)"/>
<path d="M0 0 C3.12578143 1.6720747 5.39281175 3.7856235 7 7 C7.0945773 9.22981064 7.12189797 11.46255157 7.12025452 13.69436646 C7.12110894 14.39027921 7.12196337 15.08619196 7.12284368 15.80319297 C7.12449713 18.14632762 7.11897932 20.48939143 7.11352539 22.83251953 C7.11324346 24.50767007 7.11340136 26.18282073 7.1139679 27.85797119 C7.11425566 32.4155694 7.10836238 36.97314147 7.10139394 41.53073359 C7.09515684 46.2900088 7.09455632 51.04928456 7.09336853 55.80856323 C7.09025627 64.8254077 7.08204429 73.8422401 7.07201904 82.85907924 C7.06085465 93.12253209 7.05534663 103.38598551 7.05032361 113.64944291 C7.03986159 134.76630202 7.02226417 155.88315025 7 177 C6.24460937 176.67547852 5.48921875 176.35095703 4.7109375 176.01660156 C1.35009592 174.75628597 -1.41762227 174.73455872 -5 174.75 C-6.19625 174.74484375 -7.3925 174.7396875 -8.625 174.734375 C-11.89023592 174.99136116 -14.02676905 175.72267766 -17 177 C-17.1167936 154.9384419 -17.20496878 132.87693476 -17.25906086 110.81513023 C-17.28484418 100.57147259 -17.31999723 90.32800702 -17.37719727 80.08447266 C-17.42702822 71.15635825 -17.45929009 62.22838295 -17.47044247 53.30013335 C-17.47696175 48.57247615 -17.49228654 43.8452169 -17.52865028 39.11768723 C-17.56260491 34.66727385 -17.57305408 30.21742209 -17.56553841 25.76689148 C-17.5669132 24.13424756 -17.57684918 22.50158474 -17.59602737 20.86905289 C-17.62095919 18.63714298 -17.61490735 16.40734473 -17.60127258 14.17538452 C-17.60588155 12.92727682 -17.61049051 11.67916912 -17.61523914 10.39323997 C-16.79622659 5.87612471 -15.20539231 4.23836768 -12 1 C-8.27533151 -0.86233425 -4.05504687 -0.57130829 0 0 Z " fill="#909FA9" transform="translate(261,0)"/>
<path d="M0 0 C4.18659858 3.82774727 7.37820862 7.94607874 10 13 C10 13.66 10 14.32 10 15 C-22.65514017 15.11402861 -55.31022305 15.20253052 -87.96551682 15.25532665 C-91.81954084 15.26158029 -95.67356446 15.26805189 -99.52758789 15.2746582 C-100.67850256 15.27662553 -100.67850256 15.27662553 -101.85266802 15.2786326 C-114.28124864 15.30039749 -126.70971379 15.33982493 -139.13822588 15.38576398 C-151.88817273 15.43249858 -164.63805905 15.46028903 -177.38808805 15.47044247 C-185.25751629 15.4773079 -193.12661817 15.49900215 -200.99594597 15.53958233 C-207.02712784 15.569102 -213.05802813 15.57228175 -219.08929062 15.56553841 C-221.56571146 15.56691717 -224.04214434 15.57690532 -226.51849174 15.59602737 C-229.89345838 15.6208163 -233.26701595 15.6149556 -236.64201355 15.60127258 C-238.12012781 15.62311889 -238.12012781 15.62311889 -239.62810296 15.64540654 C-244.23985024 15.59468662 -246.33548847 15.49512596 -250.1278429 12.66945171 C-252.34818338 9.50353594 -252.4403879 7.78733593 -252 4 C-241.54083389 3.97661518 -231.0816742 3.95895386 -220.62248707 3.94818783 C-215.76353328 3.94301528 -210.90459764 3.93602275 -206.0456543 3.92456055 C-201.33827733 3.91352803 -196.63091759 3.90768106 -191.92352867 3.90512276 C-190.14621396 3.90330454 -188.36889996 3.89975646 -186.59159279 3.89426994 C-173.69869382 3.85612888 -160.87304986 4.28623843 -148 5 C-148 5.33 -148 5.66 -148 6 C-123.58 6 -99.16 6 -74 6 C-74.66 6.66 -75.32 7.32 -76 8 C-74.42025391 8.09087891 -74.42025391 8.09087891 -72.80859375 8.18359375 C-68.99111928 8.40448355 -65.17395185 8.63025314 -61.35693359 8.85888672 C-59.83907214 8.94976345 -58.3211712 9.03998436 -56.80322266 9.12939453 C-54.78526042 9.24925951 -52.76762094 9.37452111 -50.75 9.5 C-49.56921875 9.5721875 -48.3884375 9.644375 -47.171875 9.71875 C-44.3752774 9.96672417 -41.73558115 10.38295162 -39 11 C-39 11.33 -39 11.66 -39 12 C-38.35675781 11.9278125 -37.71351563 11.855625 -37.05078125 11.78125 C-29.68032493 11.02422738 -22.40534071 10.89404123 -15 11 C-14.67 10.34 -14.34 9.68 -14 9 C-13.2575 9.185625 -12.515 9.37125 -11.75 9.5625 C-9.05009037 9.99203108 -7.55368923 9.85122974 -5 9 C-6.65 8.67 -8.3 8.34 -10 8 C-10 7.67 -10 7.34 -10 7 C-8.35 7 -6.7 7 -5 7 C-4.67 5.35 -4.34 3.7 -4 2 C-2.68 2 -1.36 2 0 2 C0 1.34 0 0.68 0 0 Z " fill="#1A6A98" transform="translate(252,497)"/>
<path d="M0 0 C7 1 7 1 9.89992046 3.61403847 C12.3264199 7.52628732 12.61814518 9.60628583 12.60127258 14.17538452 C12.60768077 15.2243802 12.60768077 15.2243802 12.61421841 16.2945677 C12.6224209 18.62591454 12.59501252 20.95544152 12.56762695 23.28662109 C12.56621587 24.96236122 12.56700964 26.63810444 12.56983948 28.31384277 C12.57127271 32.85493678 12.5418982 37.39536899 12.50696969 41.93630934 C12.47569058 46.68485111 12.47277422 51.43340845 12.46684265 56.18203735 C12.45130878 65.17055619 12.41028647 74.15877057 12.3600952 83.1471554 C12.30418756 93.3816396 12.27671166 103.61613842 12.25161803 113.85073733 C12.19937024 134.90066141 12.11143678 155.95031152 12 177 C10.9790625 176.566875 10.9790625 176.566875 9.9375 176.125 C6.69475377 174.88309719 3.33881845 173.95394813 0 173 C0 115.91 0 58.82 0 0 Z " fill="#40595A" transform="translate(256,0)"/>
<path d="M0 0 C0.90105469 0.01804687 1.80210937 0.03609375 2.73046875 0.0546875 C3.41753906 0.07789063 4.10460937 0.10109375 4.8125 0.125 C4.1525 1.115 3.4925 2.105 2.8125 3.125 C3.52941356 3.12407821 4.24632711 3.12315641 4.98496532 3.12220669 C22.42818747 3.10012337 39.87140606 3.08357472 57.31463909 3.07318783 C65.7500477 3.06803131 74.18544699 3.06100086 82.62084961 3.04956055 C89.97304774 3.03959406 97.32523911 3.03314188 104.6774438 3.03091151 C108.57044455 3.02960775 112.46342596 3.026543 116.35642052 3.01926994 C120.02120738 3.01247876 123.68596695 3.01038936 127.35075951 3.01189232 C129.33578209 3.01148637 131.32080172 3.00610731 133.30581665 3.00057983 C134.49067154 3.0019545 135.67552643 3.00332916 136.89628601 3.00474548 C138.43798478 3.00336279 138.43798478 3.00336279 140.01082897 3.00195217 C142.71642487 3.12078043 145.17499905 3.53262276 147.8125 4.125 C148.1425 4.125 148.4725 4.125 148.8125 4.125 C149.8025 4.125 150.7925 4.125 151.8125 4.125 C151.4825 4.455 151.1525 4.785 150.8125 5.125 C151.988125 5.3415625 151.988125 5.3415625 153.1875 5.5625 C155.8125 6.125 155.8125 6.125 157.8125 7.125 C157.8125 8.775 157.8125 10.425 157.8125 12.125 C88.8425 12.125 19.8725 12.125 -51.1875 12.125 C-51.1875 11.795 -51.1875 11.465 -51.1875 11.125 C-49.2075 11.125 -47.2275 11.125 -45.1875 11.125 C-44.5275 9.145 -43.8675 7.165 -43.1875 5.125 C-41.8675 5.125 -40.5475 5.125 -39.1875 5.125 C-39.8475 4.465 -40.5075 3.805 -41.1875 3.125 C-39.78951172 3.14240234 -39.78951172 3.14240234 -38.36328125 3.16015625 C-30.85386905 3.21330679 -23.47934982 3.02959693 -15.9921875 2.34375 C-13.1875 2.125 -13.1875 2.125 -10.5078125 2.21875 C-6.56053265 2.05926395 -4.30556651 -0.1118329 0 0 Z " fill="#0262A3" transform="translate(344.1875,499.875)"/>
<path d="M0 0 C4.18659858 3.82774727 7.37820862 7.94607874 10 13 C10 13.66 10 14.32 10 15 C-22.17963427 15.04559573 -54.35925938 15.08100412 -86.53891839 15.10213066 C-90.33543458 15.10463216 -94.13195071 15.1072208 -97.9284668 15.10986328 C-98.6843054 15.1103879 -99.44014401 15.11091252 -100.21888682 15.11145304 C-112.46770443 15.12016277 -124.71650333 15.13593586 -136.96530984 15.15430559 C-149.52767101 15.17298886 -162.09002236 15.18411339 -174.65239686 15.18817699 C-182.40808668 15.19092532 -190.1637236 15.19961503 -197.91939714 15.21583293 C-203.85997377 15.22762475 -209.80052305 15.22891533 -215.74111176 15.22621536 C-218.18287927 15.22676763 -220.62464871 15.23077276 -223.06640434 15.23841095 C-226.38913729 15.24829904 -229.71164025 15.24599136 -233.03437805 15.24050903 C-234.49788514 15.24924756 -234.49788514 15.24924756 -235.99095803 15.25816262 C-236.87823026 15.25418052 -237.76550249 15.25019842 -238.67966175 15.24609566 C-239.83078393 15.24723482 -239.83078393 15.24723482 -241.00516111 15.24839699 C-243 15 -243 15 -246 13 C-245.34237514 12.99061433 -244.68475027 12.98122866 -244.00719738 12.97155857 C-227.91926721 12.74169942 -211.8314016 12.50778969 -195.74359417 12.26950932 C-187.96328565 12.15436847 -180.18296227 12.04054055 -172.40258789 11.92993164 C-165.61201656 11.83339069 -158.8214886 11.73425582 -152.03099853 11.63215441 C-148.443868 11.57830519 -144.85672993 11.52565395 -141.26953697 11.4761219 C-127.44313163 11.2844572 -113.63775635 11.07050773 -99.83430481 10.20603943 C-94.21977906 9.90433841 -88.62184462 9.9091623 -83 10 C-83 9.34 -83 8.68 -83 8 C-46.06489187 9.42711127 -46.06489187 9.42711127 -39 11 C-39 11.33 -39 11.66 -39 12 C-38.35675781 11.9278125 -37.71351563 11.855625 -37.05078125 11.78125 C-29.68032493 11.02422738 -22.40534071 10.89404123 -15 11 C-14.67 10.34 -14.34 9.68 -14 9 C-13.2575 9.185625 -12.515 9.37125 -11.75 9.5625 C-9.05009037 9.99203108 -7.55368923 9.85122974 -5 9 C-6.65 8.67 -8.3 8.34 -10 8 C-10 7.67 -10 7.34 -10 7 C-8.35 7 -6.7 7 -5 7 C-4.67 5.35 -4.34 3.7 -4 2 C-2.68 2 -1.36 2 0 2 C0 1.34 0 0.68 0 0 Z " fill="#035782" transform="translate(252,497)"/>
<path d="M0 0 C1.65 0 3.3 0 5 0 C5 57.09 5 114.18 5 173 C6.32 173.33 7.64 173.66 9 174 C6.03 174 3.06 174 0 174 C0 116.58 0 59.16 0 0 Z " fill="#71858C" transform="translate(251,0)"/>
<path d="M0 0 C1.32 0 2.64 0 4 0 C4 57.09 4 114.18 4 173 C2.68 173 1.36 173 0 173 C0 115.91 0 58.82 0 0 Z " fill="#556D70" transform="translate(256,0)"/>
<path d="M0 0 C0 1.65 0 3.3 0 5 C-68.97 5 -137.94 5 -209 5 C-209 4.67 -209 4.34 -209 4 C-207.02 4 -205.04 4 -203 4 C-202.67 3.34 -202.34 2.68 -202 2 C-201.04332428 2.00229111 -200.08664856 2.00458221 -199.10098267 2.00694275 C-164.33016085 2.08097195 -129.56103734 1.88514203 -94.79111862 1.66065407 C-85.2640104 1.59914365 -75.73689596 1.54114536 -66.20973718 1.48800808 C-59.40881616 1.44981638 -52.60792449 1.40789955 -45.80704367 1.36312145 C-41.77841889 1.33668113 -37.74979952 1.31181861 -33.72114182 1.29092598 C-29.97283686 1.27139563 -26.22459025 1.24726384 -22.47633743 1.21950912 C-21.10367122 1.21014825 -19.73099238 1.2024695 -18.35830688 1.19658089 C-16.48969012 1.18831124 -14.62110598 1.17344557 -12.75253296 1.15821838 C-11.70759359 1.15176583 -10.66265423 1.14531328 -9.58605003 1.1386652 C-6.15994998 0.95495613 -3.52171111 0 0 0 Z " fill="#146592" transform="translate(502,507)"/>
<path d="M0 0 C10.45916611 -0.02338482 20.9183258 -0.04104614 31.37751293 -0.05181217 C36.23646672 -0.05698472 41.09540236 -0.06397725 45.9543457 -0.07543945 C50.66172267 -0.08647197 55.36908241 -0.09231894 60.07647133 -0.09487724 C61.85378604 -0.09669546 63.63110004 -0.10024354 65.40840721 -0.10573006 C78.30130618 -0.14387112 91.12695014 0.28623843 104 1 C103.67 1.66 103.34 2.32 103 3 C102.43490723 3.02505615 101.86981445 3.0501123 101.28759766 3.07592773 C98.73316258 3.19179956 96.1791045 3.31456537 93.625 3.4375 C92.73554687 3.47681641 91.84609375 3.51613281 90.9296875 3.55664062 C90.07890625 3.59853516 89.228125 3.64042969 88.3515625 3.68359375 C87.56604004 3.72025146 86.78051758 3.75690918 85.97119141 3.79467773 C83.92476504 3.890891 83.92476504 3.890891 82 5 C79.46714949 5.09292928 76.96206407 5.12581684 74.42919922 5.11352539 C73.25833267 5.11374443 73.25833267 5.11374443 72.06381226 5.1139679 C69.47740931 5.11326986 66.89107791 5.10548257 64.3046875 5.09765625 C62.51392659 5.09579168 60.72316517 5.09436796 58.93240356 5.09336853 C54.21415809 5.08954641 49.4959433 5.07971871 44.77770996 5.06866455 C39.96509211 5.05844389 35.15246932 5.0538695 30.33984375 5.04882812 C20.89321567 5.03809619 11.44661038 5.0210234 2 5 C2.33 6.32 2.66 7.64 3 9 C1.5 7.875 1.5 7.875 0 6 C-0.06012319 4.0009039 -0.06500629 1.99894327 0 0 Z " fill="#3F88BC" transform="translate(0,501)"/>
<path d="M0 0 C0.05058145 7.36894815 0.08568333 14.73785178 0.10986328 22.10693359 C0.11994011 24.61541415 0.13360179 27.12388292 0.15087891 29.63232422 C0.17505337 33.23147488 0.18646612 36.83047067 0.1953125 40.4296875 C0.20563507 41.55680145 0.21595764 42.68391541 0.22659302 43.84518433 C0.22674408 44.88611237 0.22689514 45.92704041 0.22705078 46.99951172 C0.231492 47.91884491 0.23593323 48.8381781 0.24050903 49.78536987 C0 52 0 52 -2 54 C-2.66 52.02 -3.32 50.04 -4 48 C-4.66 48 -5.32 48 -6 48 C-6.33 46.02 -6.66 44.04 -7 42 C-7.99 42.495 -7.99 42.495 -9 43 C-9.09897181 37.94634708 -9.17151603 32.89325976 -9.21972656 27.83886719 C-9.23982628 26.12001721 -9.26711089 24.40123548 -9.30175781 22.68261719 C-9.35035034 20.21011511 -9.37298435 17.7385179 -9.390625 15.265625 C-9.41127014 14.49881409 -9.43191528 13.73200317 -9.45318604 12.94195557 C-9.45467607 9.38881478 -9.34615603 7.43585404 -7.10058594 4.60839844 C-6.40739258 4.07762695 -5.71419922 3.54685547 -5 3 C-4.34 2.34 -3.68 1.68 -3 1 C-1 0 -1 0 0 0 Z " fill="#015B91" transform="translate(510,442)"/>
<path d="M0 0 C0.90105469 0.01804687 1.80210937 0.03609375 2.73046875 0.0546875 C3.41753906 0.07789063 4.10460937 0.10109375 4.8125 0.125 C4.1525 1.115 3.4925 2.105 2.8125 3.125 C23.9325 3.125 45.0525 3.125 66.8125 3.125 C66.8125 3.455 66.8125 3.785 66.8125 4.125 C51.4675 4.62 51.4675 4.62 35.8125 5.125 C36.8025 5.785 37.7925 6.445 38.8125 7.125 C-14.02947929 8.2209831 -14.02947929 8.2209831 -30.875 8.25 C-32.47081909 8.25676758 -32.47081909 8.25676758 -34.09887695 8.26367188 C-35.03948975 8.26173828 -35.98010254 8.25980469 -36.94921875 8.2578125 C-37.73256592 8.25668457 -38.51591309 8.25555664 -39.32299805 8.25439453 C-41.1875 8.125 -41.1875 8.125 -43.1875 7.125 C-42.8575 6.465 -42.5275 5.805 -42.1875 5.125 C-41.1975 5.125 -40.2075 5.125 -39.1875 5.125 C-39.8475 4.465 -40.5075 3.805 -41.1875 3.125 C-40.25550781 3.13660156 -39.32351563 3.14820313 -38.36328125 3.16015625 C-30.85386905 3.21330679 -23.47934982 3.02959693 -15.9921875 2.34375 C-13.1875 2.125 -13.1875 2.125 -10.5078125 2.21875 C-6.56053265 2.05926395 -4.30556651 -0.1118329 0 0 Z " fill="#2B7EB9" transform="translate(344.1875,499.875)"/>
<path d="M0 0 C2.31 0.66 4.62 1.32 7 2 C7.0462719 12.65691222 7.08184295 23.31380068 7.10362434 33.97079277 C7.11407654 38.91887832 7.12826183 43.86689532 7.15087891 48.81494141 C7.17255623 53.58707481 7.1845578 58.35914213 7.18975449 63.13132095 C7.19345946 64.9550493 7.200694 66.77877389 7.21146011 68.60247421 C7.22590721 71.15026512 7.22798081 73.69778042 7.22705078 76.24560547 C7.23424133 77.00517548 7.24143188 77.76474548 7.24884033 78.54733276 C7.22810432 83.77189568 7.22810432 83.77189568 5 86 C4.01 86 3.02 86 2 86 C2 58.28 2 30.56 2 2 C1.34 2 0.68 2 0 2 C0 1.34 0 0.68 0 0 Z " fill="#CC4247" transform="translate(268,19)"/>
<path d="M0 0 C4.01763346 0.01049642 8.03527407 0.01485205 12.05291748 0.01983643 C19.84264929 0.03034952 27.63234776 0.04725958 35.42205811 0.06866455 C35.91705811 1.55366455 35.91705811 1.55366455 36.42205811 3.06866455 C2.43205811 3.06866455 -31.55794189 3.06866455 -66.57794189 3.06866455 C-66.24794189 2.40866455 -65.91794189 1.74866455 -65.57794189 1.06866455 C-43.71062927 0.18987269 -21.88315765 -0.06357221 0 0 Z " fill="#1073BE" transform="translate(445.57794189453125,502.93133544921875)"/>
<path d="M0 0 C-0.33 0.66 -0.66 1.32 -1 2 C-40.96080812 3.9770084 -80.99909448 4.19020182 -121 4 C-120.67 3.01 -120.34 2.02 -120 1 C-119.00822754 1.00523682 -118.01645508 1.01047363 -116.99462891 1.01586914 C-96.74289802 1.11265398 -76.51826022 0.98473224 -56.27355957 0.42852783 C-37.51414585 -0.08085123 -18.76495537 -0.10553055 0 0 Z " fill="#1D71A7" transform="translate(421,506)"/>
<path d="M0 0 C0 0.33 0 0.66 0 1 C-13.21995596 2.9346008 -26.20825201 3.29590561 -39.5546875 3.265625 C-41.67554773 3.2669756 -43.79640766 3.2689194 -45.91726685 3.27142334 C-50.32264202 3.27434704 -54.72793524 3.2701606 -59.13330078 3.26074219 C-64.78355728 3.24925042 -70.43362576 3.25598533 -76.08387566 3.26788712 C-80.44521518 3.27509691 -84.80650965 3.27282355 -89.16785049 3.26763153 C-91.25310412 3.26629766 -93.33836183 3.26793355 -95.42361069 3.27259064 C-98.3214185 3.27765199 -101.21891473 3.26995561 -104.11669922 3.25878906 C-104.97687653 3.26283752 -105.83705383 3.26688599 -106.72329712 3.27105713 C-112.65717208 3.22855195 -112.65717208 3.22855195 -116 1 C-105.10425841 0.8271168 -94.2084269 0.66075761 -83.3125 0.5 C-82.50773602 0.48812275 -81.70297203 0.4762455 -80.87382126 0.46400833 C-53.91416686 0.06823767 -26.96293875 -0.14242918 0 0 Z " fill="#136087" transform="translate(122,509)"/>
<path d="M0 0 C1.25683594 0.00322266 2.51367188 0.00644531 3.80859375 0.00976562 C5.12730469 0.01814453 6.44601563 0.02652344 7.8046875 0.03515625 C9.14452961 0.04017136 10.4843735 0.04473424 11.82421875 0.04882812 C15.10941956 0.06064539 18.39453147 0.07712008 21.6796875 0.09765625 C21.6796875 0.42765625 21.6796875 0.75765625 21.6796875 1.09765625 C17.7196875 1.42765625 13.7596875 1.75765625 9.6796875 2.09765625 C10.1746875 3.08765625 10.1746875 3.08765625 10.6796875 4.09765625 C-21.9903125 4.09765625 -54.6603125 4.09765625 -88.3203125 4.09765625 C-88.3203125 3.43765625 -88.3203125 2.77765625 -88.3203125 2.09765625 C-87.32250763 2.08734879 -86.32470276 2.07704132 -85.29666138 2.06642151 C-75.90832217 1.96880411 -66.52005097 1.86608124 -57.13182259 1.75831699 C-52.30486488 1.70307527 -47.47790113 1.64965327 -42.65087891 1.6003418 C-37.99540698 1.55271668 -33.34001011 1.50037455 -28.68462753 1.4447155 C-26.9055861 1.42428354 -25.12652408 1.40557186 -23.34744644 1.38858223 C-20.86192609 1.36455682 -18.37654826 1.33449979 -15.89111328 1.30297852 C-14.77981049 1.29434532 -14.77981049 1.29434532 -13.64605713 1.28553772 C-8.8475759 1.21604114 -4.85305794 -0.02186062 0 0 Z " fill="#2977A7" transform="translate(90.3203125,503.90234375)"/>
<path d="M0 0 C4.18659858 3.82774727 7.37820862 7.94607874 10 13 C10 13.66 10 14.32 10 15 C0.02751531 15.06999599 -9.90862611 14.86188011 -19.875 14.5 C-21.25650264 14.45160031 -22.63801306 14.40342227 -24.01953125 14.35546875 C-27.34643681 14.23914338 -30.67324796 14.12062283 -34 14 C-33.67 13.34 -33.34 12.68 -33 12 C-29.07226248 10.85829933 -25.25421021 10.89642212 -21.1875 10.9375 C-20.02605469 10.94652344 -18.86460937 10.95554687 -17.66796875 10.96484375 C-16.78753906 10.97644531 -15.90710938 10.98804688 -15 11 C-14.67 10.34 -14.34 9.68 -14 9 C-13.2575 9.185625 -12.515 9.37125 -11.75 9.5625 C-9.05009037 9.99203108 -7.55368923 9.85122974 -5 9 C-7.475 8.505 -7.475 8.505 -10 8 C-10 7.67 -10 7.34 -10 7 C-8.35 7 -6.7 7 -5 7 C-4.67 5.35 -4.34 3.7 -4 2 C-2.68 2 -1.36 2 0 2 C0 1.34 0 0.68 0 0 Z " fill="#0D5C85" transform="translate(252,497)"/>
<path d="M0 0 C24.39586997 0.94261592 24.39586997 0.94261592 36.171875 1.81640625 C38.44395675 1.96390327 40.72313574 2 43 2 C43 2.66 43 3.32 43 4 C37.15442943 4.75108902 31.43413669 5.1427388 25.54272461 5.11352539 C24.75137115 5.11367142 23.9600177 5.11381744 23.14468384 5.1139679 C20.5638746 5.11327869 17.98314017 5.10553343 15.40234375 5.09765625 C13.59916727 5.09578854 11.79599028 5.0943663 9.99281311 5.09336853 C5.27302624 5.08957117 0.55327069 5.07976496 -4.16650391 5.06866455 C-8.99315975 5.05839031 -13.81982072 5.05385808 -18.64648438 5.04882812 C-28.09766993 5.03813992 -37.54883235 5.02109732 -47 5 C-47 4.67 -47 4.34 -47 4 C-42.39621972 3.71002238 -37.79214515 3.42545692 -33.18774414 3.14550781 C-31.62743512 3.04992305 -30.06720977 2.95296061 -28.50708008 2.85449219 C-18.98754811 2.25474025 -9.5426043 1.84871353 0 2 C0 1.34 0 0.68 0 0 Z " fill="#035D93" transform="translate(169,505)"/>
<path d="M0 0 C4.49541284 4.49541284 4.49541284 4.49541284 6.2265625 7.36328125 C6.80784912 8.31243408 6.80784912 8.31243408 7.40087891 9.28076172 C8.00681885 10.28647217 8.00681885 10.28647217 8.625 11.3125 C12.56911397 17.76067119 16.66520155 24.07583011 20.95166016 30.30200195 C24 34.78734614 24 34.78734614 24 37 C22.35 37 20.7 37 19 37 C18.7525 36.05125 18.505 35.1025 18.25 34.125 C16.78034403 30.45086007 16.32964601 30.62244569 13 29 C11.1484375 27.1953125 11.1484375 27.1953125 9.375 25.125 C8.48941406 24.10792969 8.48941406 24.10792969 7.5859375 23.0703125 C6.08681913 21.11333531 5.01430932 19.23951463 4 17 C2.68 18.65 1.36 20.3 0 22 C0 14.74 0 7.48 0 0 Z " fill="#96C8F2" transform="translate(225,457)"/>
<path d="M0 0 C0 0.66 0 1.32 0 2 C-53.46 2 -106.92 2 -162 2 C-162 1.67 -162 1.34 -162 1 C-160.93720322 0.98969254 -159.87440643 0.97938507 -158.77940369 0.96876526 C-146.27068311 0.84714723 -133.7619957 0.72234194 -121.2533226 0.59593964 C-117.9536837 0.56266321 -114.65404229 0.52964526 -111.35440063 0.49664307 C-89.46978599 0.27685138 -67.58566851 0.05370626 -45.703125 -0.32421875 C-44.5757426 -0.34348954 -44.5757426 -0.34348954 -43.42558479 -0.36314964 C-37.1755094 -0.470285 -30.92547849 -0.5790731 -24.67575073 -0.70504761 C-21.01696829 -0.77857057 -17.35811665 -0.84658482 -13.69921875 -0.9140625 C-12.64136169 -0.93792526 -11.58350464 -0.96178802 -10.49359131 -0.9863739 C-9.53881897 -1.00327774 -8.58404663 -1.02018158 -7.6003418 -1.03759766 C-6.77737106 -1.05456696 -5.95440033 -1.07153625 -5.10649109 -1.08901978 C-3 -1 -3 -1 0 0 Z " fill="#055984" transform="translate(502,510)"/>
<path d="M0 0 C-3.4352048 2.29013653 -4.985331 2.17842973 -9 2 C-9 2.66 -9 3.32 -9 4 C-32.1 4 -55.2 4 -79 4 C-78.67 3.34 -78.34 2.68 -78 2 C-70.06942969 0.60452866 -61.72667484 0.81069033 -53.69140625 0.68359375 C-51.99853737 0.6524221 -51.99853737 0.6524221 -50.27146912 0.62062073 C-47.90260995 0.57770094 -45.53371679 0.53662125 -43.16479492 0.49731445 C-39.57527668 0.43771215 -35.98588926 0.37268823 -32.39648438 0.30664062 C-30.07813061 0.26530887 -27.75977137 0.22428314 -25.44140625 0.18359375 C-23.85955284 0.15548866 -23.85955284 0.15548866 -22.2457428 0.1268158 C-14.82997159 0.00488977 -7.41669933 -0.01989349 0 0 Z " fill="#0E6CAF" transform="translate(178,503)"/>
<path d="M0 0 C0.66 0 1.32 0 2 0 C2.33 29.37 2.66 58.74 3 89 C2.01 89 1.02 89 0 89 C0 59.63 0 30.26 0 0 Z " fill="#BE3A3D" transform="translate(268,21)"/>
<path d="M0 0 C0.99 0 1.98 0 3 0 C3.0694077 10.65688885 3.12276419 21.31372422 3.15543652 31.97079277 C3.17111495 36.91892333 3.19239277 41.86689964 3.22631836 46.81494141 C3.2588344 51.58708341 3.2768366 56.35907675 3.28463173 61.13132095 C3.29018923 62.95506253 3.30104119 64.77879567 3.31719017 66.60247421 C3.33886167 69.1503657 3.34197129 71.69763715 3.34057617 74.24560547 C3.351362 75.00517548 3.36214783 75.76474548 3.3732605 76.54733276 C3.36076355 78.64645386 3.36076355 78.64645386 3 82 C1.515 82.99 1.515 82.99 0 84 C0 56.28 0 28.56 0 0 Z " fill="#D84B51" transform="translate(272,21)"/>
<path d="M0 0 C0.90105469 0.01804687 1.80210937 0.03609375 2.73046875 0.0546875 C3.41753906 0.07789063 4.10460937 0.10109375 4.8125 0.125 C4.1525 1.115 3.4925 2.105 2.8125 3.125 C3.99005859 3.10759766 3.99005859 3.10759766 5.19140625 3.08984375 C10.84969775 3.04124493 16.24128878 3.11205251 21.8125 4.125 C21.8125 4.455 21.8125 4.785 21.8125 5.125 C6.25426203 5.75199866 -9.30416119 6.24557609 -24.875 6.375 C-26.80593506 6.4069043 -26.80593506 6.4069043 -28.77587891 6.43945312 C-29.96745605 6.44396484 -31.1590332 6.44847656 -32.38671875 6.453125 C-33.43690186 6.4624707 -34.48708496 6.47181641 -35.5690918 6.48144531 C-38.52434604 6.07914497 -39.3998208 5.45024919 -41.1875 3.125 C-40.25550781 3.13660156 -39.32351563 3.14820313 -38.36328125 3.16015625 C-30.85386905 3.21330679 -23.47934982 3.02959693 -15.9921875 2.34375 C-13.1875 2.125 -13.1875 2.125 -10.5078125 2.21875 C-6.56053265 2.05926395 -4.30556651 -0.1118329 0 0 Z " fill="#3687C2" transform="translate(344.1875,499.875)"/>
<path d="M0 0 C0 0.66 0 1.32 0 2 C-3.03609121 3.0120304 -5.16619319 3.15408444 -8.34619141 3.20532227 C-10.00306221 3.23523254 -10.00306221 3.23523254 -11.69340515 3.26574707 C-12.90059708 3.2824646 -14.107789 3.29918213 -15.3515625 3.31640625 C-17.24603874 3.34764587 -17.24603874 3.34764587 -19.17878723 3.3795166 C-22.61504249 3.43549248 -26.05136316 3.48481791 -29.48774338 3.53242874 C-31.61954825 3.56242329 -33.75131788 3.59425869 -35.88308716 3.62667847 C-62.25567787 4.02580975 -88.6245393 4.11964582 -115 4 C-115 3.67 -115 3.34 -115 3 C-104.06243872 2.00470454 -93.1780856 1.81481871 -82.20305824 1.73963928 C-79.11360892 1.71832099 -76.02425237 1.69133585 -72.93486023 1.66296387 C-65.27821612 1.59372822 -57.62150696 1.53354566 -49.96478271 1.47393799 C-43.45801068 1.42302502 -36.95129445 1.36827453 -30.44460106 1.30812073 C-27.40060961 1.28157552 -24.35661262 1.26076038 -21.31257629 1.2401123 C-19.45748638 1.22351801 -17.60239891 1.20664694 -15.74731445 1.18945312 C-14.90112549 1.18526871 -14.05493652 1.18108429 -13.18310547 1.17677307 C-8.6006212 1.12742668 -4.52275412 0 0 0 Z " fill="#075E93" transform="translate(502,507)"/>
<path d="M0 0 C1.16660156 0.04833984 2.33320312 0.09667969 3.53515625 0.14648438 C5.37013672 0.2305957 5.37013672 0.2305957 7.2421875 0.31640625 C8.47324219 0.36861328 9.70429687 0.42082031 10.97265625 0.47460938 C14.02107338 0.60458065 17.069187 0.73955644 20.1171875 0.87890625 C19.7871875 1.53890625 19.4571875 2.19890625 19.1171875 2.87890625 C-14.5428125 2.87890625 -48.2028125 2.87890625 -82.8828125 2.87890625 C-82.8828125 2.54890625 -82.8828125 2.21890625 -82.8828125 1.87890625 C-81.48006577 1.86344505 -81.48006577 1.86344505 -80.04898071 1.84767151 C-71.24928355 1.75004679 -62.44965883 1.64732321 -53.65007973 1.53956699 C-49.12579436 1.48432935 -44.60150253 1.430908 -40.07714844 1.3815918 C-35.71344642 1.33396066 -31.34982433 1.2816183 -26.9862175 1.2259655 C-25.31882077 1.20553627 -23.65140212 1.18682414 -21.98396683 1.16983223 C-19.65410665 1.14580075 -17.32439815 1.11574459 -14.99462891 1.08422852 C-14.30051407 1.07847305 -13.60639923 1.07271759 -12.89125061 1.06678772 C-8.30341459 0.99593142 -4.6463409 -0.20299548 0 0 Z " fill="#3B87BE" transform="translate(83.8828125,501.12109375)"/>
<path d="M0 0 C0.07415168 4.78715623 0.12860204 9.57397827 0.16479492 14.36157227 C0.17988243 15.99021223 0.20035506 17.61881156 0.22631836 19.24731445 C0.26270449 21.58815535 0.2797262 23.92845919 0.29296875 26.26953125 C0.30845261 26.99775589 0.32393646 27.72598053 0.33988953 28.47627258 C0.34057617 30.53833008 0.34057617 30.53833008 0 34 C-0.99 34.99 -1.98 35.98 -3 37 C-3 25.12 -3 13.24 -3 1 C-1 0 -1 0 0 0 Z " fill="#0266AE" transform="translate(504,448)"/>
<path d="M0 0 C0.92167969 -0.01224609 1.84335937 -0.02449219 2.79296875 -0.03710938 C8.83647802 -0.04989536 14.14807847 0.67055723 20 2.1875 C20 2.5175 20 2.8475 20 3.1875 C1.52 3.1875 -16.96 3.1875 -36 3.1875 C-36 2.8575 -36 2.5275 -36 2.1875 C-34.8718689 2.14991577 -34.8718689 2.14991577 -33.72094727 2.11157227 C-30.33460804 1.99599486 -26.94857387 1.87309655 -23.5625 1.75 C-21.78649414 1.69102539 -21.78649414 1.69102539 -19.97460938 1.63085938 C-18.84990234 1.58896484 -17.72519531 1.54707031 -16.56640625 1.50390625 C-15.52427979 1.46724854 -14.48215332 1.43059082 -13.40844727 1.39282227 C-9.00270809 1.01722909 -4.91405184 0.0033248 0 0 Z " fill="#0D68A5" transform="translate(431,505.8125)"/>
<path d="M0 0 C0 5.40186104 -4.13389224 9.8046674 -7.04345703 14.22485352 C-8.24297588 16.05180179 -9.42471206 17.8894021 -10.60546875 19.72851562 C-11.36613214 20.89391869 -12.12781795 22.05865518 -12.890625 23.22265625 C-13.58188477 24.28234619 -14.27314453 25.34203613 -14.98535156 26.43383789 C-16.94966741 28.93588878 -18.08092957 29.90401342 -21 31 C-21.66 31.33 -22.32 31.66 -23 32 C-21.62313063 29.0344352 -19.95648934 26.60865245 -18 24 C-17.69964844 23.36835938 -17.39929688 22.73671875 -17.08984375 22.0859375 C-15.96175857 19.92680673 -14.7095704 18.41037402 -13.0625 16.625 C-9.88584192 13.01551259 -7.90979259 9.27448148 -6.125 4.8125 C-4.57188775 2.3102636 -2.56732862 1.35122559 0 0 Z " fill="#0A65A1" transform="translate(302,357)"/>
<path d="M0 0 C0.66 0.33 1.32 0.66 2 1 C2 12.22 2 23.44 2 35 C-0.36835967 30.26328065 -1.12726823 27.30422544 -1.1328125 22.08984375 C-1.13410156 20.93548828 -1.13539063 19.78113281 -1.13671875 18.59179688 C-1.13285156 17.38587891 -1.12898438 16.17996094 -1.125 14.9375 C-1.12886719 13.72771484 -1.13273437 12.51792969 -1.13671875 11.27148438 C-1.13542969 10.11841797 -1.13414062 8.96535156 -1.1328125 7.77734375 C-1.13168457 6.71765381 -1.13055664 5.65796387 -1.12939453 4.56616211 C-1 2 -1 2 0 0 Z " fill="#05577F" transform="translate(508,453)"/>
<path d="M0 0 C0.69561035 0.03029297 1.3912207 0.06058594 2.10791016 0.09179688 C5.28021743 0.22919482 8.4526062 0.36461526 11.625 0.5 C12.71941406 0.54769531 13.81382812 0.59539062 14.94140625 0.64453125 C16.00488281 0.68964844 17.06835938 0.73476563 18.1640625 0.78125 C19.13811035 0.82314453 20.1121582 0.86503906 21.11572266 0.90820312 C24.0791675 1.00251964 27.03526326 1.01538125 30 1 C26.73870024 3.17419984 25.56895978 3.29571066 21.765625 3.44921875 C20.72269287 3.49312744 19.67976074 3.53703613 18.60522461 3.58227539 C16.94438843 3.63436157 16.94438843 3.63436157 15.25 3.6875 C13.56692749 3.74828735 13.56692749 3.74828735 11.84985352 3.81030273 C3.49555334 4.06579511 -4.687579 3.87854856 -13 3 C-13 2.67 -13 2.34 -13 2 C-8.71 2 -4.42 2 0 2 C0 1.34 0 0.68 0 0 Z " fill="#0161A1" transform="translate(169,505)"/>
<path d="M0 0 C3.66186662 3.37277189 5.08905121 5.22262802 7 10 C3.04 10 -0.92 10 -5 10 C-5 9.67 -5 9.34 -5 9 C-6.65 8.67 -8.3 8.34 -10 8 C-10 7.67 -10 7.34 -10 7 C-8.35 7 -6.7 7 -5 7 C-4.67 5.35 -4.34 3.7 -4 2 C-2.68 2 -1.36 2 0 2 C0 1.34 0 0.68 0 0 Z " fill="#307CAC" transform="translate(252,497)"/>
<path d="M0 0 C0 3.63 0 7.26 0 11 C-0.66 11 -1.32 11 -2 11 C-2.33 13.31 -2.66 15.62 -3 18 C-5.00390625 16.80859375 -5.00390625 16.80859375 -7 15 C-7.27734375 12.66015625 -7.27734375 12.66015625 -6.9375 10.0625 C-6.84339844 9.20785156 -6.74929688 8.35320312 -6.65234375 7.47265625 C-5.91867098 4.69172892 -4.91095102 3.13016236 -3 1 C-1 0 -1 0 0 0 Z " fill="#0C649A" transform="translate(510,442)"/>
<path d="M0 0 C-1.65244463 2.0209846 -2.52789679 2.92060026 -5.14506531 3.36076355 C-6.38749748 3.3507708 -6.38749748 3.3507708 -7.6550293 3.34057617 C-8.59577805 3.34034958 -9.53652679 3.34012299 -10.50578308 3.33988953 C-12.02465874 3.31666374 -12.02465874 3.31666374 -13.57421875 3.29296875 C-14.61318802 3.28872391 -15.65215729 3.28447906 -16.72261047 3.28010559 C-20.04450276 3.26329849 -23.36579075 3.22564196 -26.6875 3.1875 C-28.93814229 3.17245582 -31.18879407 3.15876695 -33.43945312 3.14648438 C-38.95984197 3.11338836 -44.47987782 3.06316869 -50 3 C-50 2.67 -50 2.34 -50 2 C-36.8 2 -23.6 2 -10 2 C-10 1.34 -10 0.68 -10 0 C-6.42355152 -1.2380014 -3.66305234 -0.74926071 0 0 Z " fill="#0268B2" transform="translate(492,504)"/>
<path d="M0 0 C0.90105469 0.01804687 1.80210937 0.03609375 2.73046875 0.0546875 C3.41753906 0.07789063 4.10460937 0.10109375 4.8125 0.125 C3.71362305 2.10058594 3.71362305 2.10058594 1.8125 4.125 C-1.09838867 4.57910156 -1.09838867 4.57910156 -4.60546875 4.515625 C-5.85908203 4.50273437 -7.11269531 4.48984375 -8.40429688 4.4765625 C-9.71462891 4.44304687 -11.02496094 4.40953125 -12.375 4.375 C-13.7102601 4.35493307 -15.04554883 4.33668262 -16.38085938 4.3203125 C-19.65046146 4.27309803 -22.91862192 4.20725184 -26.1875 4.125 C-26.1875 3.795 -26.1875 3.465 -26.1875 3.125 C-24.12519732 2.9559093 -22.0626477 2.78982867 -20 2.625 C-18.27716797 2.48578125 -18.27716797 2.48578125 -16.51953125 2.34375 C-13.1875 2.125 -13.1875 2.125 -10.44921875 2.21875 C-6.52931499 2.05626694 -4.28687708 -0.11134746 0 0 Z " fill="#4390CB" transform="translate(344.1875,499.875)"/>
<path d="M0 0 C0.33 0 0.66 0 1 0 C0.99476318 0.71019287 0.98952637 1.42038574 0.98413086 2.15209961 C0.96316239 5.4138905 0.95027719 8.67566714 0.9375 11.9375 C0.92912109 13.05447266 0.92074219 14.17144531 0.91210938 15.32226562 C0.89358251 21.63992667 1.15660583 27.73763227 2 34 C1.01 34 0.02 34 -1 34 C-1.02468857 29.4793335 -1.04285449 24.9587061 -1.05493164 20.43798828 C-1.05996552 18.89956987 -1.06679308 17.36115625 -1.07543945 15.82275391 C-1.08754639 13.61359474 -1.09323769 11.40449874 -1.09765625 9.1953125 C-1.10281754 8.50567413 -1.10797882 7.81603577 -1.11329651 7.10549927 C-1.11387171 2.22774341 -1.11387171 2.22774341 0 0 Z " fill="#02609E" transform="translate(505,456)"/>
<path d="M0 0 C4 4 4 4 4.27734375 7.56640625 C4.18613761 8.90013086 4.07217125 10.23246107 3.9375 11.5625 C3.89689453 12.23474609 3.85628906 12.90699219 3.81445312 13.59960938 C3.46555209 17.83266175 3.12783961 18.87216039 0 22 C0 14.74 0 7.48 0 0 Z " fill="#8EBDE1" transform="translate(225,457)"/>
<path d="M0 0 C9.57 0.33 19.14 0.66 29 1 C29 1.33 29 1.66 29 2 C17.31433979 2.8283506 5.71389465 3.12330415 -6 3 C-6 2.67 -6 2.34 -6 2 C-4.02 2 -2.04 2 0 2 C0 1.34 0 0.68 0 0 Z " fill="#10679D" transform="translate(299,509)"/>
<path d="M0 0 C5.61 0 11.22 0 17 0 C17.66 1.65 18.32 3.3 19 5 C18.34 4.67 17.68 4.34 17 4 C13.5623287 3.56341208 10.12577272 3.18060835 6.67773438 2.83789062 C4.77648623 2.62548961 2.88619261 2.31958745 1 2 C0.67 1.34 0.34 0.68 0 0 Z " fill="#206C97" transform="translate(243,507)"/>
<path d="M0 0 C2 3 2 3 3.125 5.75 C5.31358472 9.54354685 7.86454995 11.68329529 11.2578125 14.38671875 C13 16 13 16 14 19 C11.1875 18.8125 11.1875 18.8125 8 18 C6.4375 15.875 6.4375 15.875 5 13 C4.11320061 11.84716079 3.21677435 10.70168361 2.3125 9.5625 C-0.06188563 6.32082381 -0.49586221 4.06607009 0 0 Z " fill="#7BB4E2" transform="translate(229,472)"/>
<path d="M0 0 C0.26683594 0.5775 0.53367188 1.155 0.80859375 1.75 C2.41830798 4.78998491 4.51881683 7.31939906 6.66015625 10 C8.02236222 12.03338034 8.56778573 13.60948156 9 16 C11.31 16.66 13.62 17.32 16 18 C12.9190925 18.99029169 11.01461191 19.25239392 8 18 C5.859375 15.48828125 5.859375 15.48828125 3.75 12.3125 C3.04359375 11.27738281 2.3371875 10.24226563 1.609375 9.17578125 C-0.11600069 5.77109572 -0.33798783 3.7572981 0 0 Z " fill="#6AA8D7" transform="translate(228,474)"/>
<path d="M0 0 C3 2 3 2 3.6875 4.625 C3.790625 5.40875 3.89375 6.1925 4 7 C1.03 7 -1.94 7 -5 7 C-4.67 5.35 -4.34 3.7 -4 2 C-2.68 2 -1.36 2 0 2 C0 1.34 0 0.68 0 0 Z " fill="#458FC4" transform="translate(252,497)"/>
<path d="M0 0 C1.5 1.25 1.5 1.25 3 3 C3 4.32 3 5.64 3 7 C0.75 7.3125 0.75 7.3125 -2 7 C-4.3125 4.5 -4.3125 4.5 -6 2 C-4.02 2 -2.04 2 0 2 C0 1.34 0 0.68 0 0 Z " fill="#5DA3D9" transform="translate(249,492)"/>
<path d="M0 0 C0.90105469 0.02707031 1.80210937 0.05414063 2.73046875 0.08203125 C3.76107422 0.13423828 3.76107422 0.13423828 4.8125 0.1875 C3.8225 1.6725 3.8225 1.6725 2.8125 3.1875 C0.2109375 3.48046875 0.2109375 3.48046875 -2.8125 3.375 C-4.31683594 3.33439453 -4.31683594 3.33439453 -5.8515625 3.29296875 C-6.62242187 3.25816406 -7.39328125 3.22335937 -8.1875 3.1875 C-5.67753317 0.01043235 -3.96125134 -0.15433447 0 0 Z " fill="#4D98D3" transform="translate(344.1875,499.8125)"/>
<path d="M0 0 C0.33 0 0.66 0 1 0 C1 3.63 1 7.26 1 11 C0.34 11 -0.32 11 -1 11 C-1.33 11.66 -1.66 12.32 -2 13 C-2.05391993 11.20866022 -2.09275571 9.41686101 -2.125 7.625 C-2.14820313 6.62726563 -2.17140625 5.62953125 -2.1953125 4.6015625 C-2 2 -2 2 0 0 Z " fill="#15628A" transform="translate(509,442)"/>
<path d="M0 0 C0 0.66 0 1.32 0 2 C-4.455 2.495 -4.455 2.495 -9 3 C-8 1 -8 1 -5.0625 -0.1875 C-2 -1 -2 -1 0 0 Z " fill="#6DB0E9" transform="translate(336,495)"/>
<path d="M0 0 C0.33 0.66 0.66 1.32 1 2 C-1.12780579 4.34058637 -3.11562221 5.70700306 -6 7 C-4.60667426 3.63279613 -3.0210714 2.0140476 0 0 Z " fill="#126BA8" transform="translate(280,390)"/>
<path d="M0 0 C0 3.99904969 -1.72586967 5.80200422 -4 9 C-4.66 8.34 -5.32 7.68 -6 7 C-4.02 4.69 -2.04 2.38 0 0 Z " fill="#1E73AC" transform="translate(254,430)"/>
<path d="M0 0 C0 3.90838866 -1.50567876 5.11594107 -4 8 C-4 4 -4 4 -2 1.75 C-1.01 0.88375 -1.01 0.88375 0 0 Z " fill="#1A70AA" transform="translate(259,422)"/>
</svg>
