<?xml version="1.0" encoding="UTF-8"?>
<svg version="1.1" xmlns="http://www.w3.org/2000/svg" width="512" height="512">
<path d="M0 0 C0.89976562 0.44085938 1.79953125 0.88171875 2.7265625 1.3359375 C13.36575778 6.76042861 28.16867455 16.52560206 33 28 C33.25173747 31.02084963 33.20627553 33.34335623 32.296875 36.23828125 C31.88116389 40.10548851 33.30499813 42.82211247 35 46.1875 C35.27972656 46.81591797 35.55945313 47.44433594 35.84765625 48.09179688 C36.83156309 50.21395434 36.83156309 50.21395434 39 53 C42.51395245 54.21464499 42.51395245 54.21464499 46 55 C49.46794829 58.11301968 49.95733473 62.26444123 50.6875 66.6875 C50.8127002 67.43644531 50.93790039 68.18539062 51.06689453 68.95703125 C54.96528053 94.33101576 49.20665248 120.18076182 34 141 C24.75271517 152.66668821 13.91027996 161.27990204 0.88793945 168.4128418 C-5.5604168 172.02318223 -8.84839487 175.69345621 -11.25 182.8125 C-11.58515625 183.78832031 -11.9203125 184.76414063 -12.265625 185.76953125 C-12.62914062 186.87361328 -12.62914062 186.87361328 -13 188 C-12.26394531 187.96519531 -11.52789062 187.93039063 -10.76953125 187.89453125 C-0.73392265 187.6161326 -0.73392265 187.6161326 3 191 C7.37531346 196.84787658 6.19515183 203.03958464 6 210 C6.94748611 210.23083282 7.89497223 210.46166565 8.87117004 210.69949341 C19.27189447 213.25440518 29.58394297 216.06996142 39.88671875 218.9921875 C41.56226536 219.46554268 43.23786993 219.93869274 44.91352844 220.41165161 C49.28709561 221.64672671 53.65983654 222.88470203 58.03240967 224.12329102 C62.42406181 225.36665526 66.81656744 226.60699704 71.20898438 227.84765625 C76.284252 229.28125623 81.35919383 230.71596642 86.43258667 232.15618896 C88.0323675 232.61031609 89.63214977 233.06443812 91.23193359 233.51855469 C91.99661894 233.73563961 92.76130428 233.95272453 93.54916191 234.17638779 C98.01493949 235.44248876 102.48491552 236.69194455 106.95947266 237.92675781 C107.9450264 238.20101593 108.93058014 238.47527405 109.94599915 238.75784302 C111.66111346 239.23450342 113.37775296 239.70573486 115.09635925 240.16964722 C120.75742281 241.75208423 125.3463317 243.37023373 128.5859375 248.45703125 C129.25846558 249.49138306 129.25846558 249.49138306 129.94458008 250.54663086 C130.65263794 251.66823608 130.65263794 251.66823608 131.375 252.8125 C132.42690148 254.43585836 133.48036111 256.05820784 134.53515625 257.6796875 C135.09219238 258.54045898 135.64922852 259.40123047 136.22314453 260.28808594 C139.94119074 265.9627297 143.81447851 271.53342356 147.65966797 277.12231445 C150.78560888 281.68554278 153.86958545 286.27414837 156.88671875 290.91015625 C157.74656372 292.22898804 157.74656372 292.22898804 158.6237793 293.57446289 C161.39879057 298.46531566 161.7379264 303.49992709 160.57421875 309.01953125 C158.82901269 314.61918014 155.80141037 317.74601057 151 321 C147.68833325 322.58026719 144.30073247 323.7472834 140.8125 324.875 C139.92369141 325.18179687 139.03488281 325.48859375 138.11914062 325.8046875 C134.13911549 327.1443203 131.2560117 328 127 328 C127.00460896 328.61383891 127.00921793 329.22767782 127.01396656 329.86011791 C127.12441292 344.79970795 127.20714038 359.7392136 127.25906086 374.67911053 C127.28483703 381.90398004 127.31997574 389.12857695 127.37719727 396.35327148 C127.42705093 402.65071715 127.45929531 408.94796539 127.47044247 415.24560291 C127.47695821 418.57996311 127.49488339 421.91362716 127.52865028 425.24783897 C127.56486347 428.97115156 127.56994826 432.69328814 127.56762695 436.41674805 C127.58560333 437.52086029 127.60357971 438.62497253 127.62210083 439.76254272 C127.57190815 447.18609539 127.57190815 447.18609539 124.83331299 451.08349609 C121.91240478 453.05925098 119.46532965 454.21198553 116.09936523 455.24731445 C114.32795921 455.80529976 114.32795921 455.80529976 112.52076721 456.3745575 C111.22094228 456.76685156 109.92104879 457.15891855 108.62109375 457.55078125 C107.24396554 457.97862604 105.86730291 458.40797183 104.49107361 458.83869934 C101.53842889 459.76014171 98.58317951 460.6724774 95.62567139 461.57818604 C90.98859792 462.99992267 86.36096739 464.45073932 81.73486328 465.90771484 C69.20410597 469.8508256 56.66136733 473.75539113 44.11903 477.661479 C39.70291551 479.03690465 35.28698636 480.41292467 30.87109375 481.7890625 C30.00800598 482.05793085 29.14491821 482.3267992 28.25567627 482.60381508 C17.31395052 486.01332117 6.38563936 489.46050972 -4.52734375 492.9609375 C-7.80675715 494.00741286 -11.08645671 495.05298626 -14.36624146 496.09829712 C-16.34697901 496.73305489 -18.32610103 497.37287973 -20.30343628 498.01815796 C-22.97706807 498.89063431 -25.65565019 499.74588959 -28.3359375 500.59765625 C-29.45227821 500.97070389 -29.45227821 500.97070389 -30.59117126 501.35128784 C-41.87116996 504.88008828 -51.20998881 502.10435677 -62.10546875 498.5234375 C-63.60143269 498.04389914 -65.09783952 497.56574052 -66.59465027 497.08885193 C-69.79443498 496.06658515 -72.99125481 495.03569876 -76.18597412 493.99771118 C-81.23425129 492.35769805 -86.28847351 490.73663592 -91.34423828 489.11987305 C-92.19674793 488.84720706 -93.04925758 488.57454107 -93.92760086 488.29361248 C-95.665305 487.73784103 -97.40302558 487.18212097 -99.14076233 486.62645149 C-101.78573297 485.77997115 -104.43009228 484.93160355 -107.07434082 484.08287048 C-119.13664099 480.21429868 -131.22040376 476.42016859 -143.32421875 472.68359375 C-144.13559233 472.43303474 -144.9469659 472.18247574 -145.78292656 471.92432404 C-152.83187457 469.74836532 -159.88257119 467.57810558 -166.93441772 465.41156006 C-170.54388705 464.30254369 -174.15247678 463.19070425 -177.76055336 462.0771656 C-179.68289973 461.48492435 -181.6063396 460.89623598 -183.52983093 460.307724 C-187.02781956 459.22830133 -190.51601107 458.12375583 -194 457 C-194.63460396 456.79743465 -195.26920792 456.59486931 -195.9230423 456.38616562 C-197.85468682 455.7631903 -199.77858415 455.12032334 -201.70166016 454.47143555 C-202.83785797 454.09399704 -203.97405579 453.71655853 -205.14468384 453.3276825 C-208.29362545 451.86346823 -209.23470091 450.93121382 -211 448 C-211.36914349 445.63372421 -211.36914349 445.63372421 -211.36076355 442.96331787 C-211.36488754 441.94812073 -211.36901154 440.93292358 -211.3732605 439.88696289 C-211.36247467 438.77925537 -211.35168884 437.67154785 -211.34057617 436.53027344 C-211.34101425 435.35926086 -211.34145233 434.18824829 -211.34190369 432.98175049 C-211.33981208 429.10745629 -211.31646262 425.2335937 -211.29296875 421.359375 C-211.28570863 418.67466472 -211.28295584 415.98995492 -211.28010559 413.30523682 C-211.27078392 406.9587542 -211.24616861 400.61242674 -211.21605712 394.26601243 C-211.18251681 387.03996058 -211.16602805 379.81390129 -211.15097082 372.58779097 C-211.11961908 357.72511007 -211.0668563 342.86256528 -211 328 C-212.6630719 327.77010628 -212.6630719 327.77010628 -214.35974121 327.53556824 C-223.12394566 326.2461463 -234.50237867 323.10157059 -240.83984375 316.62890625 C-244.47345129 311.52717446 -245.66686548 306.22407781 -245 300 C-243.15925155 294.31997621 -240.90492992 289.98219684 -237.3125 285.25 C-236.40474828 284.01672894 -235.49851635 282.78233789 -234.59375 281.546875 C-234.14902344 280.94294922 -233.70429688 280.33902344 -233.24609375 279.71679688 C-231.5322992 277.35562852 -229.917731 274.93600845 -228.3125 272.5 C-227.67570312 271.55125 -227.03890625 270.6025 -226.3828125 269.625 C-224.3826313 266.61849434 -222.47145658 263.56023165 -220.5546875 260.5 C-219.2664231 258.49948583 -217.97735275 256.49949044 -216.6875 254.5 C-216.09557861 253.53126953 -215.50365723 252.56253906 -214.89379883 251.56445312 C-214.2933374 250.64599609 -213.69287598 249.72753906 -213.07421875 248.78125 C-212.55432373 247.95689453 -212.03442871 247.13253906 -211.4987793 246.28320312 C-204.22074128 239.63306033 -191.96650891 238.1826408 -182.625 235.5859375 C-181.13262067 235.16759962 -179.64035441 234.74885823 -178.14819336 234.32974243 C-174.22377812 233.22848696 -170.29801645 232.13211418 -166.37188721 231.0369873 C-160.2014175 229.3148259 -154.03320521 227.58458358 -147.86459351 225.85578156 C-145.56657412 225.21207871 -143.26828745 224.56933702 -140.9699707 223.92669678 C-132.95689066 221.68415824 -124.95060495 219.41966563 -116.953125 217.12207031 C-116.13831161 216.88817156 -115.32349823 216.6542728 -114.48399353 216.41328621 C-110.5677379 215.2885986 -106.65244311 214.1607201 -102.73852539 213.02792358 C-101.34263354 212.62612092 -99.94672005 212.22439342 -98.55078125 211.82275391 C-97.33044189 211.46984283 -96.11010254 211.11693176 -94.8527832 210.75332642 C-92 210 -92 210 -90 210 C-90.03480469 209.04738281 -90.06960937 208.09476563 -90.10546875 207.11328125 C-90.13253906 205.85902344 -90.15960938 204.60476562 -90.1875 203.3125 C-90.22230469 202.07113281 -90.25710937 200.82976562 -90.29296875 199.55078125 C-89.90615795 194.86263436 -88.45008143 192.31413629 -85 189.1875 C-80.40682175 187.36936694 -75.87977427 187.76925761 -71 188 C-71.57070825 186.26662548 -72.15720486 184.53844585 -72.75 182.8125 C-73.07484375 181.84957031 -73.3996875 180.88664063 -73.734375 179.89453125 C-76.34643924 173.92064358 -79.73855685 171.29458035 -85.4375 168.3125 C-107.96025139 156.04569729 -124.29902328 136.91984984 -132.3125 112.4375 C-139.48938442 86.87177438 -136.81703279 60.47823739 -123.97558594 37.20385742 C-110.96328981 14.84222076 -90.04932931 0.10031342 -65.48828125 -7.125 C-44.03144184 -12.50723072 -19.59623165 -10.31063265 0 0 Z " fill="#020201" transform="translate(298,9)"/>
<path d="M0 0 C6.66717419 1.31333281 13.238478 3.0355498 19.8125 4.75 C20.81877441 5.01240479 21.82504883 5.27480957 22.86181641 5.54516602 C30.05986592 7.44293658 37.19205968 9.50854386 44.3112793 11.6809082 C59.54642792 16.31834319 74.92711345 20.45685865 90.3125 24.5625 C98.81866687 26.83442339 107.27738415 29.21481371 115.69604492 31.79223633 C120.06110804 33.12716324 124.43438711 34.4127813 128.83203125 35.63671875 C129.79906982 35.90669678 130.7661084 36.1766748 131.76245117 36.45483398 C133.63217692 36.97421111 135.50338632 37.48828441 137.3762207 37.99633789 C138.63245239 38.34619751 138.63245239 38.34619751 139.9140625 38.703125 C140.6560791 38.90583008 141.3980957 39.10853516 142.16259766 39.31738281 C144 40 144 40 146 42 C145.41226807 42.88123535 144.82453613 43.7624707 144.21899414 44.67041016 C140.03932968 50.93821355 135.86122294 57.20704007 131.68881226 63.47967529 C129.76023107 66.3788091 127.83071861 69.27732252 125.90112305 72.17578125 C124.90886736 73.66673024 123.9170182 75.15794985 122.92553711 76.64941406 C121.47095587 78.83730049 120.01492524 81.02421583 118.55859375 83.2109375 C118.11390244 83.88055511 117.66921112 84.55017273 117.21104431 85.24008179 C114.11386973 89.88613027 114.11386973 89.88613027 113 91 C107.40082798 91.39399925 103.10648989 90.35020119 97.90625 88.55859375 C96.3659522 88.05253105 94.82558551 87.54667801 93.28515625 87.04101562 C90.8875035 86.24024187 88.4915891 85.43465335 86.09716797 84.62426758 C83.76668523 83.8397179 81.4307614 83.07343584 79.09375 82.30859375 C78.3862561 82.06282089 77.67876221 81.81704803 76.9498291 81.56382751 C72.28158575 80.0460795 68.76013138 79.73060679 64 81 C61.83448884 84.24826674 61.44843047 85.23094157 62 89 C65.32720044 93.42753445 69.46603707 94.41387343 74.5625 95.875 C76.27373453 96.38441996 77.98466363 96.89486682 79.6953125 97.40625 C80.57219727 97.66535156 81.44908203 97.92445313 82.35253906 98.19140625 C84.9406244 98.98186536 87.49682213 99.835832 90.0546875 100.71875 C99.90131902 104.0885165 109.03061677 107.19406509 119.375 103.9375 C126.92577403 98.36430964 131.57107802 89.78109762 136.5625 82 C146.32877224 66.84799366 146.32877224 66.84799366 150 62 C150.33 62 150.66 62 151 62 C151 116.12 151 170.24 151 226 C146.03319319 225.29045617 142.10058289 224.54886492 137.42456055 223.06079102 C136.80356256 222.86487492 136.18256456 222.66895882 135.54274845 222.46710587 C133.48907195 221.81783802 131.43795182 221.16084869 129.38671875 220.50390625 C127.91742267 220.03794367 126.44795634 219.57251761 124.97833252 219.10758972 C121.84410462 218.11501863 118.71093355 217.1192065 115.57858276 216.12072754 C108.16831253 213.75874151 100.75312483 211.41226906 93.33833504 209.06451797 C90.8191178 208.26667866 88.30011187 207.46817463 85.78111267 206.66964722 C75.04729183 203.26893852 64.30318141 199.90310804 53.546875 196.57421875 C52.53443946 196.26080379 52.53443946 196.26080379 51.50155067 195.94105721 C45.74466364 194.1593987 39.98675416 192.38107784 34.22738647 190.60745239 C30.78514993 189.54738505 27.34372445 188.4847167 23.90234375 187.421875 C22.90664368 187.11662399 21.9109436 186.81137299 20.8850708 186.49687195 C19.95740906 186.210121 19.02974731 185.92337006 18.07397461 185.62792969 C16.88535072 185.26232941 16.88535072 185.26232941 15.67271423 184.88934326 C12.07995725 183.6938566 8.54534971 182.32950614 5 181 C5 145.69 5 110.38 5 74 C13.58 76.64 22.16 79.28 31 82 C38.22034845 82.65368165 38.22034845 82.65368165 41 80.875 C42.44655433 78.16271063 42.25219383 76.026326 42 73 C41.67 72.01 41.34 71.02 41 70 C38.81227344 69.08702807 38.81227344 69.08702807 36.12524414 68.52929688 C30.32873654 67.0900818 24.6786905 65.36441054 18.99609375 63.53125 C17.49019432 63.04887878 17.49019432 63.04887878 15.95387268 62.5567627 C12.78102828 61.54007074 9.60920854 60.52022929 6.4375 59.5 C3.26206024 58.48028132 0.08639901 57.46126166 -3.08958435 56.4432373 C-5.05450569 55.81323135 -7.01909814 55.1821983 -8.98329163 54.54992676 C-9.88800705 54.25952515 -10.79272247 53.96912354 -11.72485352 53.66992188 C-12.5961087 53.39011475 -13.46736389 53.11030762 -14.36502075 52.82202148 C-17.89024315 51.72227523 -21.44120493 50.71718166 -24.99937439 49.72961426 C-27 49 -27 49 -29 47 C-29.53657738 42.8438063 -28.54838393 40.73500119 -26.17578125 37.3671875 C-25.56492676 36.48699951 -24.95407227 35.60681152 -24.32470703 34.69995117 C-23.32866455 33.30160034 -23.32866455 33.30160034 -22.3125 31.875 C-20.94127059 29.91025092 -19.5701796 27.94540523 -18.19921875 25.98046875 C-17.15193604 24.49232666 -17.15193604 24.49232666 -16.08349609 22.97412109 C-12.88559869 18.40922934 -9.75805998 13.79700838 -6.625 9.1875 C-5.5560765 7.61754296 -4.48589209 6.0484432 -3.4140625 4.48046875 C-2.74818115 3.50436646 -2.74818115 3.50436646 -2.06884766 2.50854492 C-1 1 -1 1 0 0 Z " fill="#E09873" transform="translate(98,268)"/>
<path d="M0 0 C5.22974813 4.18046745 10.42855156 8.424739 14.6171875 13.671875 C16.24886924 16.03294514 16.24886924 16.03294514 18.453125 16.9609375 C21.45786997 17.09653068 24.44381347 17.00392766 27.453125 16.9609375 C30.093125 22.2409375 32.733125 27.5209375 35.453125 32.9609375 C34.793125 33.9509375 34.133125 34.9409375 33.453125 35.9609375 C32.793125 35.9609375 32.133125 35.9609375 31.453125 35.9609375 C31.42600347 37.8775255 31.40667403 39.7942248 31.390625 41.7109375 C31.37322266 43.31195313 31.37322266 43.31195313 31.35546875 44.9453125 C31.33587144 47.79679877 31.33587144 47.79679877 31.94433594 49.83203125 C36.47695936 68.79771081 31.04016073 89.71677898 21.55615234 106.16699219 C14.38137288 117.83593409 4.45164525 126.55460674 -7.42651367 133.08496094 C-18.62117229 139.25560781 -26.35618948 146.60944333 -30.546875 158.9609375 C-31.0370381 161.95477681 -31.34786091 164.9345508 -31.546875 167.9609375 C-33.856875 167.9609375 -36.166875 167.9609375 -38.546875 167.9609375 C-38.84970185 159.17246171 -39.07985395 150.38581156 -39.22043324 141.59323502 C-39.2879513 137.50899757 -39.37929683 133.42835769 -39.52758789 129.34619141 C-40.54027911 100.73876757 -40.54027911 100.73876757 -35.74462891 94.19873047 C-32.70399693 91.03183906 -29.40820626 89.01140333 -25.546875 86.9609375 C-20.46753179 83.21829805 -20.46753179 83.21829805 -17.421875 77.8359375 C-17.38925981 74.98190339 -17.38925981 74.98190339 -18.484375 72.5859375 C-21.09631058 70.52804886 -23.18073448 70.50387994 -26.44555664 70.57324219 C-30.09500092 71.24656826 -32.33463852 73.69069474 -34.796875 76.2734375 C-41.16816213 82.60388304 -41.16816213 82.60388304 -44.546875 84.9609375 C-48.2115229 83.36197556 -50.99063086 81.08010327 -54.046875 78.5234375 C-55.87638558 76.99800766 -57.70944424 75.47681788 -59.546875 73.9609375 C-60.24683594 73.38085938 -60.94679687 72.80078125 -61.66796875 72.203125 C-64.66443539 70.222093 -67.0693423 70.51834243 -70.546875 70.9609375 C-72.71354167 72.4609375 -72.71354167 72.4609375 -73.546875 74.9609375 C-73.41716922 79.01565289 -72.83173477 80.64052723 -70.10546875 83.70703125 C-69.07776371 84.61864124 -68.03687535 85.5155709 -66.984375 86.3984375 C-66.48357422 86.83736328 -65.98277344 87.27628906 -65.46679688 87.72851562 C-64.95568359 88.17517578 -64.44457031 88.62183594 -63.91796875 89.08203125 C-63.41563217 89.52940643 -62.91329559 89.97678162 -62.39573669 90.43771362 C-60.57769998 92.00731937 -60.57769998 92.00731937 -58.49513245 93.21865845 C-54.7229346 95.78597557 -52.81428798 97.70642002 -51.84495544 102.25386047 C-51.61990471 106.43856568 -51.64592628 110.5524419 -51.765625 114.73828125 C-51.78056358 116.27524357 -51.79194297 117.81224424 -51.79992676 119.34925842 C-51.83033609 123.37638274 -51.90879377 127.40116383 -51.99755859 131.42736816 C-52.07969744 135.54305322 -52.11599747 139.65912053 -52.15625 143.77539062 C-52.24180643 151.83830975 -52.37816873 159.8993314 -52.546875 167.9609375 C-54.856875 167.9609375 -57.166875 167.9609375 -59.546875 167.9609375 C-59.62164062 167.22230469 -59.69640625 166.48367187 -59.7734375 165.72265625 C-61.13458407 155.22047633 -64.67997614 146.39860848 -73.08984375 139.62890625 C-76.65738972 137.20705867 -80.4177941 135.15602069 -84.19018555 133.0769043 C-103.25539996 122.4006902 -115.13947159 105.77473536 -121.63671875 85.3359375 C-127.20496457 64.68802166 -123.92702113 43.22104326 -113.62744141 24.80761719 C-103.64244709 7.74333861 -88.29408051 -4.73877212 -69.546875 -11.0390625 C-68.66515625 -11.35617188 -67.7834375 -11.67328125 -66.875 -12 C-45.16221446 -18.68557521 -18.08026413 -13.35606608 0 0 Z " fill="#FCEEAC" transform="translate(301.546875,29.0390625)"/>
<path d="M0 0 C4.49777958 4.49777958 4.49777958 4.49777958 6.37841797 7.40405273 C6.79920624 8.04829697 7.21999451 8.6925412 7.65353394 9.35630798 C8.09528961 10.04181229 8.53704529 10.72731659 8.9921875 11.43359375 C9.9541698 12.9018613 10.91641767 14.3699549 11.87890625 15.83789062 C13.37885378 18.13736858 14.87577656 20.43869965 16.36767578 22.7434082 C17.81756864 24.97899852 19.27911041 27.20661706 20.7421875 29.43359375 C21.17989471 30.11707382 21.61760193 30.80055389 22.068573 31.50474548 C25.26550354 36.3507235 28.70032785 40.35016393 34 43 C40.68252902 43.80930282 46.57677177 43.04291811 52.94921875 40.94921875 C53.62555862 40.73016373 54.3018985 40.5111087 54.99873352 40.28541565 C56.50716731 39.79678666 58.01453825 39.30486799 59.52099609 38.81018066 C63.14122311 37.62702886 66.77142787 36.47571433 70.40087891 35.32122803 C76.54220605 33.36697538 82.67951686 31.4001203 88.81762695 29.43579102 C109.2563479 22.89636176 109.2563479 22.89636176 119.29614258 19.83422852 C121.95619725 19.01351458 124.60410932 18.16206641 127.25 17.296875 C128.04277344 17.0390625 128.83554687 16.78125 129.65234375 16.515625 C131.25030715 15.99449218 132.84661064 15.46824798 134.44140625 14.9375 C135.22386719 14.68484375 136.00632812 14.4321875 136.8125 14.171875 C137.49957031 13.9459668 138.18664062 13.72005859 138.89453125 13.48730469 C141 13 141 13 146 13 C146 47.98 146 82.96 146 119 C127.4504749 125.54689121 127.4504749 125.54689121 118.32910156 128.07119751 C112.80841063 129.61144235 107.34530197 131.33384155 101.875 133.04296875 C100.64418701 133.42623825 99.41337402 133.80950775 98.14526367 134.20439148 C82.85978639 138.96713778 67.58882981 143.77647108 52.31713867 148.58319092 C46.1305925 150.53037879 39.94387997 152.47703707 33.75692749 154.42293358 C31.63837827 155.08941061 29.51998776 155.75639015 27.40161133 156.42341614 C24.82459401 157.23464165 22.24677454 158.04314961 19.66845703 158.85025024 C17.1938513 159.625829 14.72089672 160.40669315 12.24951172 161.19247437 C11.08307129 161.5597464 9.91663086 161.92701843 8.71484375 162.30541992 C7.1678479 162.79615242 7.1678479 162.79615242 5.58959961 163.29679871 C3 164 3 164 0 164 C0 109.88 0 55.76 0 0 Z " fill="#DF9773" transform="translate(263,330)"/>
<path d="M0 0 C6.66717419 1.31333281 13.238478 3.0355498 19.8125 4.75 C20.81877441 5.01240479 21.82504883 5.27480957 22.86181641 5.54516602 C30.05986592 7.44293658 37.19205968 9.50854386 44.3112793 11.6809082 C59.54642792 16.31834319 74.92711345 20.45685865 90.3125 24.5625 C98.81866687 26.83442339 107.27738415 29.21481371 115.69604492 31.79223633 C120.06110804 33.12716324 124.43438711 34.4127813 128.83203125 35.63671875 C129.79906982 35.90669678 130.7661084 36.1766748 131.76245117 36.45483398 C133.63217692 36.97421111 135.50338632 37.48828441 137.3762207 37.99633789 C138.63245239 38.34619751 138.63245239 38.34619751 139.9140625 38.703125 C140.6560791 38.90583008 141.3980957 39.10853516 142.16259766 39.31738281 C144 40 144 40 146 42 C145.41226807 42.88123535 144.82453613 43.7624707 144.21899414 44.67041016 C140.03932968 50.93821355 135.86122294 57.20704007 131.68881226 63.47967529 C129.76023107 66.3788091 127.83071861 69.27732252 125.90112305 72.17578125 C124.90886736 73.66673024 123.9170182 75.15794985 122.92553711 76.64941406 C121.47095587 78.83730049 120.01492524 81.02421583 118.55859375 83.2109375 C118.11390244 83.88055511 117.66921112 84.55017273 117.21104431 85.24008179 C114.11386973 89.88613027 114.11386973 89.88613027 113 91 C107.40082798 91.39399925 103.10648989 90.35020119 97.90625 88.55859375 C96.3659522 88.05253105 94.82558551 87.54667801 93.28515625 87.04101562 C90.8875035 86.24024187 88.4915891 85.43465335 86.09716797 84.62426758 C83.76668523 83.8397179 81.4307614 83.07343584 79.09375 82.30859375 C78.3862561 82.06282089 77.67876221 81.81704803 76.9498291 81.56382751 C72.28158575 80.0460795 68.76013138 79.73060679 64 81 C63.34 81.99 62.68 82.98 62 84 C55.54945018 82.64746536 49.28894321 80.96939767 43 79 C42.01 74.545 42.01 74.545 41 70 C40.33360001 69.82368042 39.66720001 69.64736084 38.98060608 69.46569824 C32.2570615 67.66279075 25.62027441 65.66815802 18.99609375 63.53125 C17.49019432 63.04887878 17.49019432 63.04887878 15.95387268 62.5567627 C12.78102828 61.54007074 9.60920854 60.52022929 6.4375 59.5 C3.26206024 58.48028132 0.08639901 57.46126166 -3.08958435 56.4432373 C-5.05450569 55.81323135 -7.01909814 55.1821983 -8.98329163 54.54992676 C-9.88800705 54.25952515 -10.79272247 53.96912354 -11.72485352 53.66992188 C-12.5961087 53.39011475 -13.46736389 53.11030762 -14.36502075 52.82202148 C-17.89024315 51.72227523 -21.44120493 50.71718166 -24.99937439 49.72961426 C-27 49 -27 49 -29 47 C-29.53657738 42.8438063 -28.54838393 40.73500119 -26.17578125 37.3671875 C-25.56492676 36.48699951 -24.95407227 35.60681152 -24.32470703 34.69995117 C-23.32866455 33.30160034 -23.32866455 33.30160034 -22.3125 31.875 C-20.94127059 29.91025092 -19.5701796 27.94540523 -18.19921875 25.98046875 C-17.15193604 24.49232666 -17.15193604 24.49232666 -16.08349609 22.97412109 C-12.88559869 18.40922934 -9.75805998 13.79700838 -6.625 9.1875 C-5.5560765 7.61754296 -4.48589209 6.0484432 -3.4140625 4.48046875 C-2.74818115 3.50436646 -2.74818115 3.50436646 -2.06884766 2.50854492 C-1 1 -1 1 0 0 Z " fill="#F2D5C6" transform="translate(98,268)"/>
<path d="M0 0 C1.40942383 1.50854492 1.40942383 1.50854492 2.70703125 3.48046875 C3.20436768 4.22216309 3.7017041 4.96385742 4.21411133 5.72802734 C4.74157959 6.53965332 5.26904785 7.3512793 5.8125 8.1875 C6.95753206 9.91329232 8.10340128 11.63852941 9.25 13.36328125 C9.85328125 14.27674316 10.4565625 15.19020508 11.078125 16.13134766 C13.07431312 19.11092214 15.12249708 22.04822175 17.1875 24.98046875 C18.21846802 26.45447144 18.21846802 26.45447144 19.27026367 27.95825195 C20.61417654 29.8776455 21.96571822 31.79172384 23.32543945 33.69995117 C23.93605225 34.58013916 24.54666504 35.46032715 25.17578125 36.3671875 C25.72145752 37.14175293 26.26713379 37.91631836 26.8293457 38.71435547 C28.17613421 41.34389332 28.23274831 43.08533445 28 46 C22.89826591 48.7554374 17.6773943 50.58130181 12.1875 52.375 C11.25099609 52.6838916 10.31449219 52.9927832 9.34960938 53.31103516 C3.25749157 55.30476261 -2.85947267 57.17810141 -9.0168457 58.95800781 C-27.61773443 64.34956976 -46.03407921 70.2967704 -64.38757324 76.46884155 C-73.38868354 79.49397334 -82.39581599 82.42352021 -91.53515625 85.0078125 C-96.11822019 86.32021187 -100.64328232 87.80045927 -105.16796875 89.30078125 C-108.35510395 90.08767394 -110.72744686 90.35993651 -114 90 C-116.03710938 88.04858398 -116.03710938 88.04858398 -117.84375 85.30859375 C-118.52179688 84.3016748 -119.19984375 83.29475586 -119.8984375 82.25732422 C-120.59195312 81.18240723 -121.28546875 80.10749023 -122 79 C-122.69351562 77.9598877 -123.38703125 76.91977539 -124.1015625 75.84814453 C-126.25797929 72.60108613 -128.38255697 69.33508728 -130.5 66.0625 C-131.92653632 63.86553013 -133.35361732 61.66891384 -134.78125 59.47265625 C-135.4721875 58.4067627 -136.163125 57.34086914 -136.875 56.24267578 C-138.33850734 54.0094147 -139.8126629 51.78994282 -141.3125 49.58154297 C-142.0446875 48.50146973 -142.776875 47.42139648 -143.53125 46.30859375 C-144.19705078 45.33591553 -144.86285156 44.3632373 -145.54882812 43.36108398 C-147 41 -147 41 -147 39 C-146.28682617 38.81937012 -145.57365234 38.63874023 -144.83886719 38.45263672 C-132.32204485 35.27219855 -119.83871938 32.05469747 -107.48999023 28.26879883 C-97.77889234 25.29785048 -87.99025284 22.60768051 -78.20556641 19.89111328 C-72.96820078 18.43518148 -67.73424177 16.96711474 -62.5 15.5 C-56.20367752 13.73629935 -49.90705318 11.97369804 -43.609375 10.21484375 C-42.55580811 9.92029297 -41.50224121 9.62574219 -40.41674805 9.32226562 C-38.32478275 8.73778623 -36.23250288 8.15443149 -34.13989258 7.57226562 C-29.04816017 6.15180616 -23.9680201 4.70236537 -18.90234375 3.19140625 C-17.45649902 2.76420288 -17.45649902 2.76420288 -15.98144531 2.32836914 C-14.1670703 1.7904301 -12.35504076 1.24449195 -10.54589844 0.68920898 C-9.74055664 0.45145752 -8.93521484 0.21370605 -8.10546875 -0.03125 C-7.40574951 -0.24330078 -6.70603027 -0.45535156 -5.98510742 -0.67382812 C-3.60088315 -1.06557866 -2.23954532 -0.91108386 0 0 Z " fill="#F2D5C6" transform="translate(415,269)"/>
<path d="M0 0 C0.53625 0.763125 1.0725 1.52625 1.625 2.3125 C4.10637662 5.12037354 4.61903412 5.3202634 8 6.1875 C10.80522378 7.09491989 11.74968086 7.56055084 13.23046875 10.16015625 C13.87710816 11.91004168 14.49765132 13.66975909 15.09375 15.4375 C18.2262028 24.29478034 25.1642282 28.56174683 33.24609375 32.63671875 C37.56968335 34.20688812 41.12754872 34.57665982 45.6875 34.5625 C46.47406982 34.56080811 47.26063965 34.55911621 48.07104492 34.55737305 C56.7600898 34.29197061 63.15336461 31.09403281 69.875 25.6875 C73.7282426 20.81428142 77.42135383 15.98724856 79.4375 10.0625 C81 7 81 7 84.4375 5.875 C85.613125 5.58625 86.78875 5.2975 88 5 C90.43177033 2.52656069 90.43177033 2.52656069 92 0 C98.63830951 1.22996504 105.08926256 2.7771458 111.5625 4.6875 C113.41256503 5.22463177 115.26283437 5.76106019 117.11328125 6.296875 C118.07443848 6.57595703 119.0355957 6.85503906 120.02587891 7.14257812 C125.09245245 8.60324192 130.17128998 10.01972327 135.25 11.4375 C136.7976001 11.8703833 136.7976001 11.8703833 138.37646484 12.31201172 C143.89444497 13.85506722 149.41365244 15.39366348 154.93359375 16.9296875 C156.06442383 17.24494385 157.19525391 17.5602002 158.36035156 17.88500977 C160.52470489 18.48835422 162.68940092 19.09047112 164.85449219 19.69116211 C169.61199886 21.01821079 174.33466235 22.37070831 179 24 C179 24.33 179 24.66 179 25 C178.20118408 25.21092285 177.40236816 25.4218457 176.5793457 25.63916016 C162.08325966 29.47192489 147.60441843 33.34000193 133.19921875 37.50390625 C127.30962672 39.20564708 121.40493645 40.8524443 115.5 42.5 C108.84700575 44.35871016 102.19435288 46.21802707 95.5534668 48.11962891 C93.92613785 48.58392563 92.29736486 49.04318881 90.66723633 49.49755859 C85.65779895 50.90498311 80.69120346 52.40874916 75.74090576 54.00999451 C72.66785908 54.99668453 69.58474029 55.94949867 66.50018311 56.89950562 C64.98331546 57.37535073 63.47084218 57.865489 61.96368408 58.37124634 C50.3138469 62.27012723 42.58248732 61.95099364 31 58 C29.4631845 57.57421562 27.92346587 57.158493 26.37890625 56.76171875 C25.11949219 56.40722656 23.86007813 56.05273438 22.5625 55.6875 C21.83844971 55.48439209 21.11439941 55.28128418 20.3684082 55.07202148 C18.77889058 54.62602981 17.18962394 54.17914284 15.60058594 53.73144531 C12.74781692 52.92907055 9.89356033 52.13213948 7.0390625 51.3359375 C-8.23763858 47.0726445 -23.51242646 42.79882314 -38.7265625 38.31640625 C-40.71348394 37.73157469 -42.70046378 37.14694146 -44.6875 36.5625 C-45.66952393 36.2735083 -46.65154785 35.9845166 -47.66333008 35.68676758 C-56.60941482 33.07402777 -65.60501921 30.65767048 -74.6237793 28.30883789 C-75.66058838 28.03547607 -76.69739746 27.76211426 -77.765625 27.48046875 C-78.68118164 27.24223389 -79.59673828 27.00399902 -80.54003906 26.75854492 C-82.85917891 26.0434231 -84.87094285 25.15494825 -87 24 C-83.75984498 22.64594832 -80.58905972 21.55525353 -77.18359375 20.703125 C-76.26529785 20.46988525 -75.34700195 20.23664551 -74.40087891 19.99633789 C-72.93400635 19.62690063 -72.93400635 19.62690063 -71.4375 19.25 C-63.95170737 17.33233234 -56.51486198 15.32238505 -49.125 13.0625 C-41.44282819 10.71549472 -33.73478004 8.48019077 -26 6.3125 C-24.98566895 6.02705322 -23.97133789 5.74160645 -22.92626953 5.44750977 C-3.40961324 0 -3.40961324 0 0 0 Z " fill="#E5AB8A" transform="translate(210,235)"/>
<path d="M0 0 C10.17973364 3.81962082 19.41048571 11.25277039 26.16796875 19.71484375 C27.79650293 22.07246495 27.79650293 22.07246495 30 23 C33.00474497 23.13559318 35.99068847 23.04299016 39 23 C41.64 28.28 44.28 33.56 47 39 C46.34 39.99 45.68 40.98 45 42 C44.34 42 43.68 42 43 42 C42.97287847 43.916588 42.95354903 45.8332873 42.9375 47.75 C42.92589844 48.81734375 42.91429687 49.8846875 42.90234375 50.984375 C42.88274644 53.83586127 42.88274644 53.83586127 43.49121094 55.87109375 C48.02383436 74.83677331 42.58703573 95.75584148 33.10302734 112.20605469 C25.92824788 123.87499659 15.99852025 132.59366924 4.12036133 139.12402344 C-7.07429729 145.29467031 -14.80931448 152.64850583 -19 165 C-19.4901631 167.99383931 -19.80098591 170.9736133 -20 174 C-22.31 174 -24.62 174 -27 174 C-27 151.23 -27 128.46 -27 105 C-26.67 105 -26.34 105 -26 105 C-25.67 120.18 -25.34 135.36 -25 151 C-21.7 147.7 -18.4 144.4 -15 141 C-13.04652798 139.41984776 -11.05534348 137.88266338 -9 136.4375 C-3.31186631 132.29537188 1.88236612 127.8232184 7 123 C7.71027344 122.35417969 8.42054688 121.70835937 9.15234375 121.04296875 C22.13662304 108.8063447 29.48931126 91.29920983 30.23828125 73.57421875 C30.66081686 55.14110255 27.27447771 39.97349347 18 24 C17.49339844 23.12730469 16.98679687 22.25460938 16.46484375 21.35546875 C12.2858857 14.70871375 6.943243 8.70821527 1.23046875 3.3359375 C0 2 0 2 0 0 Z " fill="#F7E37B" transform="translate(290,23)"/>
<path d="M0 0 C0.33 0 0.66 0 1 0 C1 54.12 1 108.24 1 164 C-6.875 162.875 -6.875 162.875 -10.9375 161.4375 C-12.09572266 161.03337891 -12.09572266 161.03337891 -13.27734375 160.62109375 C-14.13005859 160.31365234 -14.13005859 160.31365234 -15 160 C-14.34 159.67 -13.68 159.34 -13 159 C-13 114.12 -13 69.24 -13 23 C-13.66 22.67 -14.32 22.34 -15 22 C-13.43898481 19.64483728 -11.87623051 17.29085896 -10.3125 14.9375 C-9.87744141 14.28072266 -9.44238281 13.62394531 -8.99414062 12.94726562 C-6.08118401 8.56704197 -3.13643806 4.22402954 0 0 Z " fill="#D38154" transform="translate(248,330)"/>
<path d="M0 0 C0.85722656 0.19980469 1.71445312 0.39960938 2.59765625 0.60546875 C3.51417969 0.83878906 4.43070313 1.07210937 5.375 1.3125 C6.88900391 1.67794922 6.88900391 1.67794922 8.43359375 2.05078125 C14.10838771 3.48977322 14.10838771 3.48977322 16.375 4.3125 C16.705 4.9725 17.035 5.6325 17.375 6.3125 C16.57618408 6.52342285 15.77736816 6.7343457 14.9543457 6.95166016 C0.45825966 10.78442489 -14.02058157 14.65250193 -28.42578125 18.81640625 C-34.31537328 20.51814708 -40.22006355 22.1649443 -46.125 23.8125 C-52.77799425 25.67121016 -59.43064712 27.53052707 -66.0715332 29.43212891 C-67.69886215 29.89642563 -69.32763514 30.35568881 -70.95776367 30.81005859 C-75.96720105 32.21748311 -80.93379654 33.72124916 -85.88409424 35.32249451 C-88.95714092 36.30918453 -92.04025971 37.26199867 -95.12481689 38.21200562 C-96.64168454 38.68785073 -98.15415782 39.177989 -99.66131592 39.68374634 C-111.42812485 43.62177446 -118.82569294 43.2406406 -130.625 39.3125 C-133.28295175 38.60281034 -135.9498051 37.95566983 -138.625 37.3125 C-138.625 36.9825 -138.625 36.6525 -138.625 36.3125 C-137.4184375 36.10947266 -137.4184375 36.10947266 -136.1875 35.90234375 C-126.99849572 34.2197081 -118.14682473 31.80255374 -109.19775391 29.13354492 C-101.99396473 26.98923066 -94.76654461 24.98254753 -87.5 23.0625 C-75.66650623 19.92339138 -63.91547864 16.52437828 -52.16403198 13.09414673 C-40.60468671 9.72186028 -29.02797096 6.46109174 -17.37695312 3.41796875 C-16.41595703 3.1653125 -15.45496094 2.91265625 -14.46484375 2.65234375 C-13.23302368 2.33317993 -13.23302368 2.33317993 -11.97631836 2.00756836 C-9.54349832 1.33192172 -9.54349832 1.33192172 -6.96557617 0.22021484 C-4.1932651 -0.85493406 -2.86615431 -0.67579893 0 0 Z " fill="#DD9672" transform="translate(371.625,253.6875)"/>
<path d="M0 0 C0 34.98 0 69.96 0 106 C-4.29 107.32 -8.58 108.64 -13 110 C-13 75.02 -13 40.04 -13 4 C-13.66 3.67 -14.32 3.34 -15 3 C-13.44033782 2.491217 -11.87710759 1.99336531 -10.3125 1.5 C-9.44238281 1.2215625 -8.57226562 0.943125 -7.67578125 0.65625 C-5 0 -5 0 0 0 Z " fill="#DB8657" transform="translate(409,343)"/>
<path d="M0 0 C21.78 0 43.56 0 66 0 C66 5.28 66 10.56 66 16 C44.22 16 22.44 16 0 16 C0 10.72 0 5.44 0 0 Z " fill="#9B9B9B" transform="translate(223,212)"/>
<path d="M0 0 C5.65020618 0.60108576 10.66164461 2.07528683 16 4 C15.61070312 4.6084375 15.22140625 5.216875 14.8203125 5.84375 C10.78970763 12.15759212 10.78970763 12.15759212 6.8359375 18.51953125 C-11.74382308 48.74382308 -11.74382308 48.74382308 -17 54 C-23.15384476 54.52373147 -28.19413301 52.92184949 -34 51 C-33.46267998 50.30219925 -33.46267998 50.30219925 -32.914505 49.59030151 C-28.89461574 44.30831293 -25.18009294 38.87096256 -21.54296875 33.3203125 C-20.9545369 32.42633759 -20.36610504 31.53236267 -19.75984192 30.61129761 C-18.52756911 28.73807908 -17.29652088 26.86405447 -16.06665039 24.98925781 C-14.17814688 22.1107437 -12.28567671 19.23486868 -10.39257812 16.359375 C-9.19247751 14.53400591 -7.99259965 12.70849033 -6.79296875 10.8828125 C-6.22636032 10.02140656 -5.65975189 9.16000061 -5.07597351 8.27249146 C-4.29429558 7.0801741 -4.29429558 7.0801741 -3.49682617 5.86376953 C-3.03749191 5.1639798 -2.57815765 4.46419006 -2.10490417 3.74319458 C-0.95431579 1.99288934 -0.95431579 1.99288934 0 0 Z " fill="#E9B8A1" transform="translate(228,305)"/>
<path d="M0 0 C1.40942383 1.50854492 1.40942383 1.50854492 2.70703125 3.48046875 C3.45303589 4.59301025 3.45303589 4.59301025 4.21411133 5.72802734 C4.74157959 6.53965332 5.26904785 7.3512793 5.8125 8.1875 C6.95753206 9.91329232 8.10340128 11.63852941 9.25 13.36328125 C9.85328125 14.27674316 10.4565625 15.19020508 11.078125 16.13134766 C13.07431312 19.11092214 15.12249708 22.04822175 17.1875 24.98046875 C17.87481201 25.96313721 18.56212402 26.94580566 19.27026367 27.95825195 C20.61417654 29.8776455 21.96571822 31.79172384 23.32543945 33.69995117 C23.93605225 34.58013916 24.54666504 35.46032715 25.17578125 36.3671875 C25.72145752 37.14175293 26.26713379 37.91631836 26.8293457 38.71435547 C28.17613421 41.34389332 28.23274831 43.08533445 28 46 C23.37234081 48.54521255 19.1103144 49.8545847 14 51 C13.81179688 50.05769531 13.62359375 49.11539063 13.4296875 48.14453125 C11.85055668 42.65064418 8.39163701 38.30064955 5.125 33.6875 C3.77142614 31.73877372 2.41857278 29.7895468 1.06640625 27.83984375 C0.38723145 26.86644043 -0.29194336 25.89303711 -0.99169922 24.89013672 C-4.0157962 20.53817221 -6.98541331 16.15102179 -9.9375 11.75 C-10.45103027 10.99420654 -10.96456055 10.23841309 -11.49365234 9.4597168 C-15 4.23179498 -15 4.23179498 -15 2 C-13.25364835 1.46706165 -11.50272348 0.94909337 -9.75 0.4375 C-8.77546875 0.14746094 -7.8009375 -0.14257812 -6.796875 -0.44140625 C-3.90194712 -1.01958319 -2.71199695 -1.0231821 0 0 Z " fill="#E9B8A1" transform="translate(415,269)"/>
<path d="M0 0 C1.28874023 -0.0299707 1.28874023 -0.0299707 2.60351562 -0.06054688 C8.86265869 -0.05569106 8.86265869 -0.05569106 12.12890625 2.24609375 C14.23992917 5.47302524 14.10065372 7.67042394 13.5625 11.4375 C11.34386971 14.34467073 10.04305071 15.27731643 6.5625 16.4375 C4.60683497 16.55729145 2.64679234 16.61278496 0.6875 16.625 C-0.34117187 16.63917969 -1.36984375 16.65335938 -2.4296875 16.66796875 C-6.44330623 16.36043173 -9.30857363 15.45353373 -12.3125 12.75 C-13.97333755 9.33605615 -13.35702707 7.04992777 -12.4375 3.4375 C-9.14784668 -0.88184917 -5.01375642 -0.04118844 0 0 Z " fill="#000000" transform="translate(386.4375,79.5625)"/>
<path d="M0 0 C0.86302734 -0.00708984 1.72605469 -0.01417969 2.61523438 -0.02148438 C8.92375478 0.04223805 8.92375478 0.04223805 11.14819336 1.75366211 C13.29101944 4.55219866 13.37780648 6.97527579 13.4375 10.4375 C11.82675923 13.18172501 10.7324064 14.98784019 7.66015625 16.0546875 C0.74958302 17.24490925 -6.64340726 17.59686246 -12.5625 13.4375 C-14.10836876 10.34576248 -13.85609521 7.84320448 -13.5625 4.4375 C-10.18647036 -0.78421617 -5.62341649 -0.13077713 0 0 Z " fill="#000000" transform="translate(125.5625,79.5625)"/>
<path d="M0 0 C2.98496444 2.09754258 3.85227852 3.49352636 4.875 7 C5.01208527 10.2900465 4.74180832 11.28069925 3 14 C0.79296875 15.88671875 0.79296875 15.88671875 -1.8125 17.6875 C-2.66457031 18.28949219 -3.51664062 18.89148438 -4.39453125 19.51171875 C-7.05335481 21.03047704 -8.96077136 21.73051175 -12 22 C-17.63855422 19.72289157 -17.63855422 19.72289157 -19 17 C-19.625 13.875 -19.625 13.875 -19 10 C-13.94296536 4.12833844 -8.08370819 -1.01046352 0 0 Z " fill="#000000" transform="translate(377,19)"/>
<path d="M0 0 C4.95497986 0.93490186 8.35754967 3.60062622 12.3125 6.625 C13.158125 7.264375 14.00375 7.90375 14.875 8.5625 C17.05694562 11.69311763 16.84251935 13.91486454 16.3125 17.625 C14.40401767 20.31101216 12.98700962 21.3587462 9.9375 22.5625 C4.10081267 22.70146875 -1.34692587 18.28022032 -5.6875 14.625 C-7.70413774 12.02017626 -7.70082397 10.94477536 -7.5625 7.625 C-6.25829788 3.15344988 -4.60583758 1.07112502 0 0 Z " fill="#000000" transform="translate(137.6875,18.375)"/>
<path d="M0 0 C5.8062568 1.53814873 11.10532662 6.56228343 14.2265625 11.58984375 C14.16136309 15.30621001 14.02546374 17.63730766 11.6015625 20.52734375 C8.03214656 22.12418772 6.13963891 22.22098511 2.2265625 21.58984375 C-2.52930642 18.9160044 -6.72752989 16.15870516 -9.7734375 11.58984375 C-10.19201232 7.75290788 -10.31988019 5.47781311 -8.2734375 2.15234375 C-5.48303513 0.40834227 -3.30156793 -0.15456779 0 0 Z " fill="#000000" transform="translate(367.7734375,134.41015625)"/>
<path d="M0 0 C2.5 1.5625 2.5 1.5625 4 4 C4.5625 7.4375 4.5625 7.4375 4 11 C1.9375 13.625 1.9375 13.625 -1 16 C-1.54269531 16.46792969 -2.08539063 16.93585938 -2.64453125 17.41796875 C-5.77931626 19.94419504 -7.6076239 20.94679646 -11.6875 21.5 C-15.2236514 20.9662413 -16.70633525 20.73475413 -19 18 C-20.125 14.75 -20.125 14.75 -20 11 C-15.58030511 3.30169509 -8.8440337 -1.14116564 0 0 Z " fill="#000000" transform="translate(150,135)"/>
<path d="M0 0 C11.88 0 23.76 0 36 0 C33.73801917 5.65495208 33.73801917 5.65495208 30.5625 8.25 C29.96566406 8.75015625 29.36882812 9.2503125 28.75390625 9.765625 C23.70713251 13.31747467 16.87129499 12.52124937 11 12 C7.5 10.3125 7.5 10.3125 5 8 C4.05125 7.154375 3.1025 6.30875 2.125 5.4375 C0 3 0 3 0 0 Z " fill="#BCBCBC" transform="translate(238,243)"/>
<path d="M0 0 C3.96 0 7.92 0 12 0 C12 5.28 12 10.56 12 16 C-9.78 16 -31.56 16 -54 16 C-54 15.67 -54 15.34 -54 15 C-36.18 15 -18.36 15 0 15 C0 10.05 0 5.1 0 0 Z " fill="#7A7A7A" transform="translate(277,212)"/>
<path d="M0 0 C4.29 0 8.58 0 13 0 C10.73801917 5.65495208 10.73801917 5.65495208 7.5625 8.25 C6.96566406 8.75015625 6.36882812 9.2503125 5.75390625 9.765625 C1.99643533 12.41008115 -1.56639737 12.08365288 -6 12 C-4.02 8.04 -2.04 4.08 0 0 Z " fill="#AAAAAA" transform="translate(261,243)"/>
</svg>
