<?xml version="1.0" encoding="UTF-8"?>
<svg version="1.1" xmlns="http://www.w3.org/2000/svg" width="512" height="512">
<path d="M0 0 C1.23477829 -0.00445784 2.46955657 -0.00891569 3.74175239 -0.01350862 C5.11941132 -0.01341932 6.49707025 -0.01322946 7.87472916 -0.01294994 C9.3325098 -0.01624857 10.79028953 -0.01997413 12.24806809 -0.02409142 C16.26393426 -0.03411959 20.27978549 -0.03782952 24.2956624 -0.04048073 C28.62298882 -0.04438133 32.95030337 -0.05395978 37.27762222 -0.0626936 C47.73255528 -0.08246419 58.18748931 -0.09252464 68.64243639 -0.10142139 C73.56374257 -0.10580302 78.48504767 -0.11117012 83.406353 -0.11641026 C99.76195808 -0.13342258 116.11756248 -0.14791755 132.47317505 -0.155159 C136.7183749 -0.15706894 140.96357474 -0.15898927 145.20877457 -0.16094494 C146.26391952 -0.16142868 147.31906447 -0.16191242 148.40618351 -0.16241082 C165.50525978 -0.17071411 182.60426615 -0.19605605 199.70331189 -0.22852562 C217.25140465 -0.26157673 234.79946186 -0.27960596 252.34758592 -0.28280324 C262.20313109 -0.28497006 272.05857433 -0.29374399 281.9140892 -0.31926441 C290.30609227 -0.34094475 298.69796865 -0.34903496 307.08999655 -0.33929763 C311.37239714 -0.33474527 315.65453618 -0.33669332 319.93690109 -0.35605907 C323.85772667 -0.3736369 327.77809883 -0.37273715 331.69892886 -0.35716178 C333.11686025 -0.3547775 334.53482258 -0.35915175 335.95270655 -0.37099043 C349.14027869 -0.47427494 349.14027869 -0.47427494 355.1218605 4.13422108 C361.21931212 10.23167269 362.33797532 16.08221917 362.39975357 24.35507679 C362.39368088 25.68821415 362.39368088 25.68821415 362.3874855 27.04828358 C362.38939896 27.98095051 362.39131241 28.91361744 362.39328384 29.874547 C362.39463878 31.83610779 362.39099087 33.79767776 362.38260269 35.75922108 C362.3718691 38.75682162 362.38253398 41.75382621 362.395298 44.75140858 C362.39397676 46.66286823 362.39141509 48.57432751 362.3874855 50.48578358 C362.39153397 51.37859028 362.39558243 52.27139698 362.39975357 53.19125843 C362.33722198 61.50246658 362.33722198 61.50246658 360.1218605 65.13422108 C358.1418605 66.12422108 358.1418605 66.12422108 356.1218605 67.13422108 C355.7918605 73.40422108 355.4618605 79.67422108 355.1218605 86.13422108 C356.7718605 86.79422108 358.4218605 87.45422108 360.1218605 88.13422108 C362.73842945 91.51898823 362.39842043 95.23709335 362.44070816 99.38129139 C362.45075378 100.10363972 362.46079941 100.82598804 362.47114944 101.57022572 C362.50196852 103.95092463 362.51901281 106.33151114 362.535923 108.71234608 C362.5546357 110.36573725 362.57420919 112.01911889 362.59460831 113.67249012 C362.64592485 118.01909224 362.68555309 122.36572533 362.72275162 126.71246815 C362.76279427 131.15000534 362.81388542 135.58741379 362.864048 140.02484608 C362.96080164 148.72788312 363.04520818 157.4309839 363.1218605 166.13422108 C363.4855574 165.48952366 363.8492543 164.84482624 364.22397232 164.18059254 C365.90292257 161.20518689 367.58269966 158.23024881 369.2624855 155.25531483 C369.83434586 154.24158802 370.40620621 153.22786121 370.99539566 152.18341541 C390.72650526 117.24815647 390.72650526 117.24815647 408.36795425 111.38812733 C420.23641964 108.32052041 432.76630948 109.83899216 443.4343605 115.88422108 C453.25722867 122.34911195 459.59976535 131.09549855 462.79764175 142.55609608 C463.24639229 146.1244738 463.38609137 149.66799782 463.4343605 153.25922108 C463.46336441 153.95531483 463.49236832 154.65140858 463.52225113 155.36859608 C463.64572539 165.81641841 458.48312634 174.87369697 453.4968605 183.75922108 C452.96616959 184.71796131 452.43547867 185.67670155 451.88870621 186.66449451 C447.9896275 193.67431042 443.96401002 200.60382475 439.864048 207.49750233 C436.50248937 213.15900879 433.22071584 218.86634238 429.9343605 224.57172108 C429.29651627 225.6787035 428.65867203 226.78568592 428.00149918 227.92621326 C426.69327451 230.19709382 425.38525214 232.46809092 424.07742691 234.73920155 C420.92853997 240.20592087 417.77502787 245.66996995 414.6218605 251.13422108 C413.371837 253.30087419 412.12183704 255.46754087 410.8718605 257.63422108 C408.3718605 261.96755441 405.8718605 266.30088774 403.3718605 270.63422108 C402.75302994 271.70688221 402.13419937 272.77954334 401.49661636 273.88470936 C400.24750532 276.04979178 398.99831921 278.2148309 397.74905777 280.37982655 C394.60983741 285.82037814 391.47195488 291.26169323 388.33670425 296.70453358 C387.70377457 297.80281483 387.07084488 298.90109608 386.4187355 300.03265858 C385.25285729 302.05580018 384.0874233 304.0791979 382.92264175 306.10297108 C382.36834488 307.0646117 381.814048 308.02625233 381.24295425 309.01703358 C380.67610916 310.0411182 380.10926407 311.06520283 379.52524185 312.12032032 C377.77051361 315.1762807 375.79613636 317.97808905 373.70895767 320.81596851 C361.53812284 338.18282484 361.17585983 353.10976749 361.59921098 373.57030082 C361.67101797 377.82197644 361.65879511 382.07347954 361.65571976 386.32564259 C361.66165329 394.34746244 361.73565905 402.36698957 361.83783692 410.38810354 C361.98514228 422.17121067 362.03527302 433.95484188 362.07659054 445.73873711 C362.07967356 446.60686498 362.08275658 447.47499285 362.08593303 448.36942762 C362.09206446 450.10075264 362.09801325 451.83207832 362.10377425 453.56340462 C362.12295637 458.60078792 362.16463351 463.63733674 362.22667754 468.67437065 C362.26339883 471.80388393 362.28845491 474.93342862 362.31147766 478.06306934 C362.32496844 479.50583508 362.34376076 480.94856321 362.36843681 482.39118099 C362.6619318 499.79477885 362.6619318 499.79477885 357.1843605 506.50922108 C356.5037355 507.04547108 355.8231105 507.58172108 355.1218605 508.13422108 C354.4412355 508.69109608 353.7606105 509.24797108 353.0593605 509.82172108 C349.48286846 512.24450601 346.44000452 512.26076158 342.2409277 512.26564884 C340.38783522 512.27141056 340.38783522 512.27141056 338.49730653 512.27728868 C337.11895854 512.27650839 335.7406106 512.27562959 334.36226273 512.27466297 C332.90376959 512.27724589 331.44527716 512.28025885 329.98678571 512.28366637 C325.96898676 512.29174815 321.95120567 512.2935266 317.93339956 512.29426384 C313.60404884 512.29611234 309.27470744 512.30365862 304.94536209 512.31039906 C295.47436582 512.32399105 286.00337378 512.33000838 276.53236938 512.33440971 C270.62105516 512.33717055 264.70974259 512.3414076 258.79842949 512.34591389 C242.43853197 512.35810746 226.07863576 512.36840675 209.71873379 512.37178898 C208.67131414 512.37200854 207.62389449 512.37222811 206.54473485 512.37245433 C205.49478032 512.37267261 204.44482579 512.37289089 203.36305445 512.37311578 C201.23537457 512.37355925 199.10769468 512.37400581 196.9800148 512.37445545 C195.92460754 512.37467688 194.86920028 512.37489831 193.78181098 512.37512645 C176.67560642 512.37907552 159.56944443 512.39653249 142.46325632 512.41981497 C124.90951804 512.44351419 107.35580114 512.45599017 89.8020466 512.4571569 C79.94264141 512.45807444 70.08329168 512.46384667 60.22390175 512.48197651 C51.82932179 512.49735818 43.43481445 512.5025094 35.04022308 512.49423841 C30.75596547 512.49032509 26.47185416 512.49129463 22.18761444 512.50529575 C18.26628823 512.51799386 14.34521889 512.51687338 10.42389325 512.50470504 C9.00463683 512.50274093 7.58536246 512.50585936 6.16613128 512.5145494 C4.23755613 512.52561138 2.30889652 512.51638057 0.38031673 512.50615788 C-1.22687842 512.50705351 -1.22687842 512.50705351 -2.86654216 512.50796723 C-7.97119768 511.87446774 -11.87268288 509.71227554 -15.1281395 505.75922108 C-15.60767075 505.1946117 -16.087202 504.63000233 -16.5812645 504.04828358 C-20.10053166 498.85418445 -20.14913389 494.17998439 -20.073452 488.11468983 C-20.0706221 487.25611881 -20.06779221 486.3975478 -20.06487656 485.51295948 C-20.0537202 482.78240233 -20.02862408 480.05217837 -20.0031395 477.32172108 C-19.99310382 475.46560604 -19.98397899 473.60948583 -19.97579575 471.7533617 C-19.95379575 467.21352062 -19.9192973 462.67392726 -19.8781395 458.13422108 C-20.96570541 457.95101307 -22.05327133 457.76780506 -23.17379379 457.5790453 C-24.62089767 457.32446764 -26.06791467 457.0693958 -27.51485825 456.81390858 C-28.22928085 456.69491199 -28.94370346 456.57591541 -29.67977524 456.45331287 C-36.74281 455.18678186 -43.27501956 452.73854099 -47.604702 446.74359608 C-49.66937362 442.51291925 -49.74676002 438.72857759 -48.8781395 434.13422108 C-45.53885268 427.67582021 -39.46951716 424.67053291 -32.83517075 422.45062733 C-28.20281352 421.15141689 -24.97509659 421.13422108 -19.8781395 421.13422108 C-19.8781395 409.25422108 -19.8781395 397.37422108 -19.8781395 385.13422108 C-23.5081395 384.80422108 -27.1381395 384.47422108 -30.8781395 384.13422108 C-37.42035434 382.36130283 -43.82314799 379.74756756 -47.948452 374.15765858 C-49.78018578 370.17094387 -49.67335682 366.38476321 -48.8781395 362.13422108 C-46.27926363 356.14550712 -41.70081534 353.55961929 -35.8781395 351.13422108 C-30.52438339 349.45487474 -25.50480773 348.13422108 -19.8781395 348.13422108 C-20.2081395 336.58422108 -20.5381395 325.03422108 -20.8781395 313.13422108 C-27.8081395 311.64922108 -27.8081395 311.64922108 -34.8781395 310.13422108 C-40.8742219 307.80241125 -45.79847454 305.00343762 -48.8781395 299.13422108 C-49.90586141 294.81501142 -49.8891511 291.06100407 -47.8000145 287.07953358 C-40.9059092 278.2535636 -31.6977344 277.4527057 -20.8781395 275.13422108 C-20.5481395 263.58422108 -20.2181395 252.03422108 -19.8781395 240.13422108 C-23.1781395 239.80422108 -26.4781395 239.47422108 -29.8781395 239.13422108 C-37.90286995 237.11815579 -44.20060843 234.15051768 -48.8781395 227.13422108 C-49.59011479 222.32424847 -49.38855153 218.26138098 -47.3781395 213.82172108 C-41.12623438 207.10092308 -33.82569694 204.65222048 -24.8781395 203.13422108 C-23.2281395 203.13422108 -21.5781395 203.13422108 -19.8781395 203.13422108 C-19.8781395 191.25422108 -19.8781395 179.37422108 -19.8781395 167.13422108 C-23.8381395 166.80422108 -27.7981395 166.47422108 -31.8781395 166.13422108 C-38.28456078 163.88781361 -45.67046167 160.54957672 -48.8781395 154.13422108 C-49.59439855 149.75527368 -49.78798391 145.81130106 -47.63204575 141.83734608 C-40.11722925 132.60436137 -31.64679954 131.94478416 -19.8781395 130.13422108 C-19.8781395 118.58422108 -19.8781395 107.03422108 -19.8781395 95.13422108 C-24.1681395 94.47422108 -28.4581395 93.81422108 -32.8781395 93.13422108 C-44.76261112 88.67754422 -44.76261112 88.67754422 -47.98360825 83.28265858 C-49.52038174 79.59171788 -49.41118837 76.05691404 -48.8781395 72.13422108 C-46.30817611 66.56596708 -42.29940317 63.67797541 -36.8781395 61.13422108 C-31.09449303 59.08328262 -26.01433196 58.06912261 -19.8781395 58.13422108 C-19.89908676 56.87351795 -19.92003403 55.61281483 -19.94161606 54.31390858 C-20.01434037 49.61008656 -20.06005685 44.90631368 -20.09786606 40.20209217 C-20.11790785 38.17108251 -20.14514896 36.14013002 -20.17989731 34.10931873 C-20.22874364 31.17997551 -20.25118292 28.25139908 -20.2687645 25.32172108 C-20.28940964 24.42243885 -20.31005478 23.52315662 -20.33132553 22.59662342 C-20.33376807 15.64158326 -18.71125384 10.345084 -14.06173325 5.07562733 C-13.19741684 4.39306873 -13.19741684 4.39306873 -12.3156395 3.69672108 C-11.73685043 3.22363514 -11.15806137 2.7505492 -10.56173325 2.26312733 C-7.11677867 -0.04683061 -4.01882201 0.00671498 0 0 Z M-29.8781395 76.13422108 C-26.43363213 78.43055932 -23.94001667 78.67438593 -19.8781395 79.13422108 C-19.8781395 77.48422108 -19.8781395 75.83422108 -19.8781395 74.13422108 C-23.48843119 74.13422108 -26.43620626 75.09514689 -29.8781395 76.13422108 Z M-28.8781395 148.13422108 C-28.8781395 148.79422108 -28.8781395 149.45422108 -28.8781395 150.13422108 C-25.9081395 150.46422108 -22.9381395 150.79422108 -19.8781395 151.13422108 C-19.8781395 149.81422108 -19.8781395 148.49422108 -19.8781395 147.13422108 C-23.22066674 147.05994269 -25.6817309 147.06875155 -28.8781395 148.13422108 Z M-29.8781395 221.13422108 C-26.43363213 223.43055932 -23.94001667 223.67438593 -19.8781395 224.13422108 C-19.8781395 222.48422108 -19.8781395 220.83422108 -19.8781395 219.13422108 C-23.48843119 219.13422108 -26.43620626 220.09514689 -29.8781395 221.13422108 Z M-28.8781395 293.13422108 C-28.8781395 293.79422108 -28.8781395 294.45422108 -28.8781395 295.13422108 C-25.9081395 295.46422108 -22.9381395 295.79422108 -19.8781395 296.13422108 C-19.8781395 294.81422108 -19.8781395 293.49422108 -19.8781395 292.13422108 C-23.07716589 292.04535923 -25.80491406 292.22363576 -28.8781395 293.13422108 Z M-26.0031395 365.13422108 C-26.72759262 365.31984608 -27.45204575 365.50547108 -28.198452 365.69672108 C-28.75274887 365.84109608 -29.30704575 365.98547108 -29.8781395 366.13422108 C-26.87196681 369.14039376 -24.05432352 368.73007424 -19.8781395 369.13422108 C-19.8781395 367.48422108 -19.8781395 365.83422108 -19.8781395 364.13422108 C-22.08843482 364.13422108 -23.86481542 364.58239551 -26.0031395 365.13422108 Z M-28.8781395 439.13422108 C-25.69051584 441.25930351 -23.61301727 441.63623737 -19.8781395 442.13422108 C-19.8781395 440.48422108 -19.8781395 438.83422108 -19.8781395 437.13422108 C-23.6737183 437.13422108 -25.50716566 437.63601048 -28.8781395 439.13422108 Z " fill="#6FB4E7" transform="translate(48.87813949584961,-0.13422107696533203)"/>
<path d="M0 0 C1.23477829 -0.00445784 2.46955657 -0.00891569 3.74175239 -0.01350862 C5.11941132 -0.01341932 6.49707025 -0.01322946 7.87472916 -0.01294994 C9.3325098 -0.01624857 10.79028953 -0.01997413 12.24806809 -0.02409142 C16.26393426 -0.03411959 20.27978549 -0.03782952 24.2956624 -0.04048073 C28.62298882 -0.04438133 32.95030337 -0.05395978 37.27762222 -0.0626936 C47.73255528 -0.08246419 58.18748931 -0.09252464 68.64243639 -0.10142139 C73.56374257 -0.10580302 78.48504767 -0.11117012 83.406353 -0.11641026 C99.76195808 -0.13342258 116.11756248 -0.14791755 132.47317505 -0.155159 C136.7183749 -0.15706894 140.96357474 -0.15898927 145.20877457 -0.16094494 C146.26391952 -0.16142868 147.31906447 -0.16191242 148.40618351 -0.16241082 C165.50525978 -0.17071411 182.60426615 -0.19605605 199.70331189 -0.22852562 C217.25140465 -0.26157673 234.79946186 -0.27960596 252.34758592 -0.28280324 C262.20313109 -0.28497006 272.05857433 -0.29374399 281.9140892 -0.31926441 C290.30609227 -0.34094475 298.69796865 -0.34903496 307.08999655 -0.33929763 C311.37239714 -0.33474527 315.65453618 -0.33669332 319.93690109 -0.35605907 C323.85772667 -0.3736369 327.77809883 -0.37273715 331.69892886 -0.35716178 C333.11686025 -0.3547775 334.53482258 -0.35915175 335.95270655 -0.37099043 C349.14027869 -0.47427494 349.14027869 -0.47427494 355.1218605 4.13422108 C361.21931212 10.23167269 362.33797532 16.08221917 362.39975357 24.35507679 C362.39368088 25.68821415 362.39368088 25.68821415 362.3874855 27.04828358 C362.38939896 27.98095051 362.39131241 28.91361744 362.39328384 29.874547 C362.39463878 31.83610779 362.39099087 33.79767776 362.38260269 35.75922108 C362.3718691 38.75682162 362.38253398 41.75382621 362.395298 44.75140858 C362.39397676 46.66286823 362.39141509 48.57432751 362.3874855 50.48578358 C362.39153397 51.37859028 362.39558243 52.27139698 362.39975357 53.19125843 C362.36688739 57.55957282 362.33072178 61.22985247 360.1218605 65.13422108 C357.04994932 67.096831 355.59487147 67.21936305 351.9968605 66.57172108 C348.42925353 64.78791759 347.74369791 63.76971773 346.1218605 60.13422108 C345.67069948 56.84883847 345.6571182 53.58750133 345.645298 50.27484608 C345.62192871 48.8573708 345.62192871 48.8573708 345.59808731 47.41125965 C345.55066247 44.40225467 345.52282313 41.39348127 345.4968605 38.38422108 C345.46040533 35.36084023 345.41985988 32.33759175 345.37421036 29.31433582 C345.34691759 27.43473529 345.32559525 25.55503718 345.31067276 23.67529774 C345.67803906 19.5795022 345.67803906 19.5795022 344.1218605 16.13422108 C341.69376899 16.02415919 339.29350523 15.9792637 336.86439896 15.97600269 C335.71155555 15.96859573 335.71155555 15.96859573 334.53542238 15.96103913 C331.94045809 15.94558783 329.34551868 15.93728299 326.75052261 15.92889881 C324.89817966 15.91932627 323.04583892 15.90931657 321.19350052 15.89890003 C316.1482802 15.87177722 311.10305045 15.85080773 306.05779719 15.83089805 C300.79133798 15.80908383 295.52490806 15.78167289 290.25847244 15.7548418 C280.27830216 15.704853 270.29811567 15.65993721 260.31791359 15.61681944 C248.95895781 15.56749983 237.6000314 15.5125622 226.24110401 15.45713985 C202.86805023 15.34322485 179.49496829 15.23640664 156.1218605 15.13422108 C156.13074295 15.83055653 156.1396254 16.52689198 156.14877701 17.2443285 C156.22921483 23.83458973 156.28997209 30.42471224 156.32910919 37.01535511 C156.34990722 40.40301066 156.37807937 43.79025764 156.42361832 47.17767811 C156.47230743 51.07996754 156.49486979 54.9816826 156.5124855 58.88422108 C156.53313065 60.08973621 156.55377579 61.29525135 156.57504654 62.53729725 C156.57690562 69.55570935 155.98663613 74.20556121 152.1218605 80.13422108 C147.34083228 83.93952926 143.39962945 85.55697023 137.2312355 85.38812733 C133.44797098 84.93273438 130.8591413 83.67640411 128.1218605 81.13422108 C120.1218605 70.77796005 120.1218605 70.77796005 120.1218605 67.13422108 C117.24743694 67.4791519 115.60237112 67.73393283 113.1218605 69.13422108 C111.3448925 71.56046585 109.96343999 74.07114733 108.535923 76.71625233 C106.43500756 80.30870167 103.78810655 82.30109805 100.1218605 84.13422108 C94.59143998 84.63924451 89.71155527 84.87229365 84.6218605 82.50922108 C79.60960502 77.74757837 77.89343144 74.99857045 77.66775894 68.03705311 C77.66838969 65.57195587 77.69083693 63.10679984 77.7312355 60.64203358 C77.73689529 59.34095661 77.74255508 58.03987965 77.74838638 56.69937611 C77.76358807 53.25662427 77.80282057 49.8145579 77.8472023 46.37207508 C77.88827446 42.85278055 77.90642271 39.3333742 77.926548 35.81390858 C77.96932195 28.9203711 78.03962565 22.02739967 78.1218605 15.13422108 C69.8718605 15.13422108 61.6218605 15.13422108 53.1218605 15.13422108 C53.1218605 174.19422108 53.1218605 333.25422108 53.1218605 497.13422108 C125.113423 496.91765858 125.113423 496.91765858 198.5593605 496.69672108 C213.74250259 496.65361805 228.92564468 496.61051502 244.56888199 496.56610584 C258.11802508 496.52287709 258.11802508 496.52287709 271.66716385 496.47832203 C277.72628209 496.45843293 283.78540067 496.44128059 289.84453201 496.42595387 C296.82358749 496.40829088 303.8026225 496.387222 310.78165436 496.36184734 C314.35573003 496.34896199 317.92979158 496.33767122 321.5038842 496.33075154 C325.32065564 496.32332754 329.13737438 496.30830011 332.95412064 496.29243946 C334.08315339 496.29146228 335.21218615 496.2904851 336.37543201 496.2894783 C337.39141153 496.28400293 338.40739105 496.27852757 339.45415783 496.27288628 C340.77957164 496.26889921 340.77957164 496.26889921 342.13176149 496.2648316 C344.12201679 496.35382509 344.12201679 496.35382509 345.1218605 495.13422108 C345.21789073 493.51465768 345.24373905 491.89089025 345.24211502 490.26848316 C345.24348969 489.21533924 345.24486435 488.16219532 345.24628067 487.07713795 C345.24268539 485.91189091 345.23909012 484.74664387 345.23538589 483.54608631 C345.23560493 481.71707279 345.23560493 481.71707279 345.2358284 479.8511095 C345.23524943 476.49794597 345.23022019 473.14484334 345.22325444 469.79169059 C345.21702033 466.29096546 345.21641706 462.7902396 345.21522903 459.28950977 C345.21211589 452.65612452 345.20390272 446.02275567 345.19387954 439.38937765 C345.18271789 431.83931901 345.17720783 424.28925959 345.17218411 416.73919475 C345.16172009 401.20419401 345.14412097 385.66920966 345.1218605 370.13422108 C343.06606259 373.69731166 341.01029985 377.26042253 338.95456791 380.82355118 C338.25707895 382.03247356 337.55958085 383.24139067 336.86207294 384.45030212 C330.41581101 395.62267211 330.41581101 395.62267211 323.98025894 406.80121326 C322.79761391 408.85062443 321.60885094 410.89651079 320.41580582 412.93988514 C317.70308804 417.59365962 315.03085567 422.23102986 312.62576675 427.05218983 C306.83550124 438.38995547 299.12336676 444.50679866 288.59451675 451.4799242 C284.6921684 454.09073704 280.91484002 456.86814898 277.1218605 459.63422108 C275.64684363 460.69445582 274.17158135 461.75434921 272.69607925 462.81390858 C269.44404181 465.16114813 266.22366381 467.54650426 263.01639175 469.95453358 C262.1675441 470.58939686 261.31869644 471.22426014 260.44412613 471.8783617 C258.8172031 473.09760441 257.19451813 474.32253105 255.57693863 475.55414295 C249.21277582 480.31482425 243.42077292 484.19044629 235.1218605 483.13422108 C229.84347723 480.33978287 226.0332159 476.86828726 224.1218605 471.13422108 C223.9795506 467.96670427 224.17172745 464.80059892 224.3093605 461.63422108 C224.35198013 460.64534901 224.39459976 459.65647694 224.43851089 458.63763905 C225.1182453 445.54755722 226.70862111 432.52057041 228.35536575 419.52122974 C228.80894934 415.9184068 229.19941799 412.32672599 229.47684097 408.70575428 C230.26349632 399.19169476 232.2368023 392.30625023 237.3718605 384.07172108 C237.99520279 383.01718739 238.61854507 381.96265369 239.26077652 380.87616444 C240.55606586 378.6890312 241.86347707 376.50903166 243.18289566 374.33636951 C245.62419792 370.3046243 247.98594838 366.22953615 250.3472023 362.1505785 C252.07516 359.1694634 253.81569613 356.19601644 255.5593605 353.22406483 C259.25399361 346.91851689 262.91038732 340.59127671 266.5593605 334.25922108 C267.18189713 333.17906727 267.80443375 332.09891346 268.44583511 330.98602772 C269.70762877 328.79625774 270.96926584 326.60639753 272.23074722 324.41644764 C275.35866199 318.98762165 278.49044498 313.56102827 281.6218605 308.13422108 C282.87187929 305.96756525 284.12187929 303.80089858 285.3718605 301.63422108 C292.8718605 288.63422108 300.3718605 275.63422108 307.8718605 262.63422108 C308.49093277 261.56115711 309.11000504 260.48809315 309.74783707 259.38251209 C310.99456306 257.2215312 312.24130777 255.0605611 313.48807144 252.89960194 C316.66331934 247.39603256 319.83821546 241.89226075 323.0124855 236.38812733 C323.65895035 235.26728748 324.30541519 234.14644764 324.97146988 232.99164295 C326.17602264 230.90317377 327.38046346 228.81464001 328.58475113 226.72601795 C329.14871597 225.74826405 329.71268082 224.77051014 330.2937355 223.76312733 C330.84364655 222.78039341 331.39355759 221.79765949 331.9601326 220.78514576 C333.46834841 218.15675043 335.11609832 215.68729457 336.86391068 213.21254444 C345.88035158 199.93688481 346.58513962 188.76681703 346.20389175 173.04828358 C346.19054231 170.68847609 346.18297572 168.32862959 346.18086624 165.96878529 C346.16402533 159.81807217 346.08694174 153.66983613 345.99100113 147.51990223 C345.84206196 137.63101535 345.76407346 127.74214057 345.72873878 117.8522501 C345.70423896 114.40957184 345.63991083 110.96925038 345.5717659 107.52719593 C345.55423628 105.4256754 345.53806363 103.32414296 345.52347183 101.22259998 C345.49396942 100.26989719 345.46446701 99.3171944 345.43407059 98.33562183 C345.43951336 92.07968877 345.43951336 92.07968877 347.36860085 89.40672398 C350.24979417 86.830191 351.92648636 86.14084393 355.8093605 86.00922108 C359.1218605 87.13422108 359.1218605 87.13422108 360.80186844 89.24449635 C362.44527555 92.84224083 362.52055733 95.54122827 362.55423355 99.49481678 C362.5644252 100.21731113 362.57461685 100.93980549 362.58511734 101.68419361 C362.61518246 104.05954273 362.62450304 106.43448815 362.63357925 108.81000233 C362.65043081 110.461968 362.66858169 112.11392088 362.68797684 113.76585865 C362.73543147 118.10424269 362.76527006 122.44257488 362.79141617 126.7811327 C362.82124466 131.21208401 362.86776712 135.64285677 362.91287613 140.0736742 C362.99885761 148.76043534 363.06622568 157.44721282 363.1218605 166.13422108 C363.4855574 165.48952366 363.8492543 164.84482624 364.22397232 164.18059254 C365.90292257 161.20518689 367.58269966 158.23024881 369.2624855 155.25531483 C369.83434586 154.24158802 370.40620621 153.22786121 370.99539566 152.18341541 C390.72650526 117.24815647 390.72650526 117.24815647 408.36795425 111.38812733 C420.23641964 108.32052041 432.76630948 109.83899216 443.4343605 115.88422108 C453.25722867 122.34911195 459.59976535 131.09549855 462.79764175 142.55609608 C463.24639229 146.1244738 463.38609137 149.66799782 463.4343605 153.25922108 C463.46336441 153.95531483 463.49236832 154.65140858 463.52225113 155.36859608 C463.64572539 165.81641841 458.48312634 174.87369697 453.4968605 183.75922108 C452.96616959 184.71796131 452.43547867 185.67670155 451.88870621 186.66449451 C447.9896275 193.67431042 443.96401002 200.60382475 439.864048 207.49750233 C436.50248937 213.15900879 433.22071584 218.86634238 429.9343605 224.57172108 C429.29651627 225.6787035 428.65867203 226.78568592 428.00149918 227.92621326 C426.69327451 230.19709382 425.38525214 232.46809092 424.07742691 234.73920155 C420.92853997 240.20592087 417.77502787 245.66996995 414.6218605 251.13422108 C413.371837 253.30087419 412.12183704 255.46754087 410.8718605 257.63422108 C408.3718605 261.96755441 405.8718605 266.30088774 403.3718605 270.63422108 C402.75302994 271.70688221 402.13419937 272.77954334 401.49661636 273.88470936 C400.24750532 276.04979178 398.99831921 278.2148309 397.74905777 280.37982655 C394.60983741 285.82037814 391.47195488 291.26169323 388.33670425 296.70453358 C387.70377457 297.80281483 387.07084488 298.90109608 386.4187355 300.03265858 C385.25285729 302.05580018 384.0874233 304.0791979 382.92264175 306.10297108 C382.36834488 307.0646117 381.814048 308.02625233 381.24295425 309.01703358 C380.67610916 310.0411182 380.10926407 311.06520283 379.52524185 312.12032032 C377.77051361 315.1762807 375.79613636 317.97808905 373.70895767 320.81596851 C361.53812284 338.18282484 361.17585983 353.10976749 361.59921098 373.57030082 C361.67101797 377.82197644 361.65879511 382.07347954 361.65571976 386.32564259 C361.66165329 394.34746244 361.73565905 402.36698957 361.83783692 410.38810354 C361.98514228 422.17121067 362.03527302 433.95484188 362.07659054 445.73873711 C362.07967356 446.60686498 362.08275658 447.47499285 362.08593303 448.36942762 C362.09206446 450.10075264 362.09801325 451.83207832 362.10377425 453.56340462 C362.12295637 458.60078792 362.16463351 463.63733674 362.22667754 468.67437065 C362.26339883 471.80388393 362.28845491 474.93342862 362.31147766 478.06306934 C362.32496844 479.50583508 362.34376076 480.94856321 362.36843681 482.39118099 C362.6619318 499.79477885 362.6619318 499.79477885 357.1843605 506.50922108 C356.5037355 507.04547108 355.8231105 507.58172108 355.1218605 508.13422108 C354.4412355 508.69109608 353.7606105 509.24797108 353.0593605 509.82172108 C349.48286846 512.24450601 346.44000452 512.26076158 342.2409277 512.26564884 C340.38783522 512.27141056 340.38783522 512.27141056 338.49730653 512.27728868 C337.11895854 512.27650839 335.7406106 512.27562959 334.36226273 512.27466297 C332.90376959 512.27724589 331.44527716 512.28025885 329.98678571 512.28366637 C325.96898676 512.29174815 321.95120567 512.2935266 317.93339956 512.29426384 C313.60404884 512.29611234 309.27470744 512.30365862 304.94536209 512.31039906 C295.47436582 512.32399105 286.00337378 512.33000838 276.53236938 512.33440971 C270.62105516 512.33717055 264.70974259 512.3414076 258.79842949 512.34591389 C242.43853197 512.35810746 226.07863576 512.36840675 209.71873379 512.37178898 C208.67131414 512.37200854 207.62389449 512.37222811 206.54473485 512.37245433 C205.49478032 512.37267261 204.44482579 512.37289089 203.36305445 512.37311578 C201.23537457 512.37355925 199.10769468 512.37400581 196.9800148 512.37445545 C195.92460754 512.37467688 194.86920028 512.37489831 193.78181098 512.37512645 C176.67560642 512.37907552 159.56944443 512.39653249 142.46325632 512.41981497 C124.90951804 512.44351419 107.35580114 512.45599017 89.8020466 512.4571569 C79.94264141 512.45807444 70.08329168 512.46384667 60.22390175 512.48197651 C51.82932179 512.49735818 43.43481445 512.5025094 35.04022308 512.49423841 C30.75596547 512.49032509 26.47185416 512.49129463 22.18761444 512.50529575 C18.26628823 512.51799386 14.34521889 512.51687338 10.42389325 512.50470504 C9.00463683 512.50274093 7.58536246 512.50585936 6.16613128 512.5145494 C4.23755613 512.52561138 2.30889652 512.51638057 0.38031673 512.50615788 C-1.22687842 512.50705351 -1.22687842 512.50705351 -2.86654216 512.50796723 C-7.97119768 511.87446774 -11.87268288 509.71227554 -15.1281395 505.75922108 C-15.60767075 505.1946117 -16.087202 504.63000233 -16.5812645 504.04828358 C-20.10053166 498.85418445 -20.14913389 494.17998439 -20.073452 488.11468983 C-20.0706221 487.25611881 -20.06779221 486.3975478 -20.06487656 485.51295948 C-20.0537202 482.78240233 -20.02862408 480.05217837 -20.0031395 477.32172108 C-19.99310382 475.46560604 -19.98397899 473.60948583 -19.97579575 471.7533617 C-19.95379575 467.21352062 -19.9192973 462.67392726 -19.8781395 458.13422108 C-20.96570541 457.95101307 -22.05327133 457.76780506 -23.17379379 457.5790453 C-24.62089767 457.32446764 -26.06791467 457.0693958 -27.51485825 456.81390858 C-28.22928085 456.69491199 -28.94370346 456.57591541 -29.67977524 456.45331287 C-36.74281 455.18678186 -43.27501956 452.73854099 -47.604702 446.74359608 C-49.66937362 442.51291925 -49.74676002 438.72857759 -48.8781395 434.13422108 C-45.53885268 427.67582021 -39.46951716 424.67053291 -32.83517075 422.45062733 C-28.20281352 421.15141689 -24.97509659 421.13422108 -19.8781395 421.13422108 C-19.8781395 409.25422108 -19.8781395 397.37422108 -19.8781395 385.13422108 C-23.5081395 384.80422108 -27.1381395 384.47422108 -30.8781395 384.13422108 C-37.42035434 382.36130283 -43.82314799 379.74756756 -47.948452 374.15765858 C-49.78018578 370.17094387 -49.67335682 366.38476321 -48.8781395 362.13422108 C-46.27926363 356.14550712 -41.70081534 353.55961929 -35.8781395 351.13422108 C-30.52438339 349.45487474 -25.50480773 348.13422108 -19.8781395 348.13422108 C-20.2081395 336.58422108 -20.5381395 325.03422108 -20.8781395 313.13422108 C-27.8081395 311.64922108 -27.8081395 311.64922108 -34.8781395 310.13422108 C-40.8742219 307.80241125 -45.79847454 305.00343762 -48.8781395 299.13422108 C-49.90586141 294.81501142 -49.8891511 291.06100407 -47.8000145 287.07953358 C-40.9059092 278.2535636 -31.6977344 277.4527057 -20.8781395 275.13422108 C-20.5481395 263.58422108 -20.2181395 252.03422108 -19.8781395 240.13422108 C-23.1781395 239.80422108 -26.4781395 239.47422108 -29.8781395 239.13422108 C-37.90286995 237.11815579 -44.20060843 234.15051768 -48.8781395 227.13422108 C-49.59011479 222.32424847 -49.38855153 218.26138098 -47.3781395 213.82172108 C-41.12623438 207.10092308 -33.82569694 204.65222048 -24.8781395 203.13422108 C-23.2281395 203.13422108 -21.5781395 203.13422108 -19.8781395 203.13422108 C-19.8781395 191.25422108 -19.8781395 179.37422108 -19.8781395 167.13422108 C-23.8381395 166.80422108 -27.7981395 166.47422108 -31.8781395 166.13422108 C-38.28456078 163.88781361 -45.67046167 160.54957672 -48.8781395 154.13422108 C-49.59439855 149.75527368 -49.78798391 145.81130106 -47.63204575 141.83734608 C-40.11722925 132.60436137 -31.64679954 131.94478416 -19.8781395 130.13422108 C-19.8781395 118.58422108 -19.8781395 107.03422108 -19.8781395 95.13422108 C-24.1681395 94.47422108 -28.4581395 93.81422108 -32.8781395 93.13422108 C-44.76261112 88.67754422 -44.76261112 88.67754422 -47.98360825 83.28265858 C-49.52038174 79.59171788 -49.41118837 76.05691404 -48.8781395 72.13422108 C-46.30817611 66.56596708 -42.29940317 63.67797541 -36.8781395 61.13422108 C-31.09449303 59.08328262 -26.01433196 58.06912261 -19.8781395 58.13422108 C-19.89908676 56.87351795 -19.92003403 55.61281483 -19.94161606 54.31390858 C-20.01434037 49.61008656 -20.06005685 44.90631368 -20.09786606 40.20209217 C-20.11790785 38.17108251 -20.14514896 36.14013002 -20.17989731 34.10931873 C-20.22874364 31.17997551 -20.25118292 28.25139908 -20.2687645 25.32172108 C-20.28940964 24.42243885 -20.31005478 23.52315662 -20.33132553 22.59662342 C-20.33376807 15.64158326 -18.71125384 10.345084 -14.06173325 5.07562733 C-13.19741684 4.39306873 -13.19741684 4.39306873 -12.3156395 3.69672108 C-11.73685043 3.22363514 -11.15806137 2.7505492 -10.56173325 2.26312733 C-7.11677867 -0.04683061 -4.01882201 0.00671498 0 0 Z M-29.8781395 76.13422108 C-26.43363213 78.43055932 -23.94001667 78.67438593 -19.8781395 79.13422108 C-19.8781395 77.48422108 -19.8781395 75.83422108 -19.8781395 74.13422108 C-23.48843119 74.13422108 -26.43620626 75.09514689 -29.8781395 76.13422108 Z M-28.8781395 148.13422108 C-28.8781395 148.79422108 -28.8781395 149.45422108 -28.8781395 150.13422108 C-25.9081395 150.46422108 -22.9381395 150.79422108 -19.8781395 151.13422108 C-19.8781395 149.81422108 -19.8781395 148.49422108 -19.8781395 147.13422108 C-23.22066674 147.05994269 -25.6817309 147.06875155 -28.8781395 148.13422108 Z M-29.8781395 221.13422108 C-26.43363213 223.43055932 -23.94001667 223.67438593 -19.8781395 224.13422108 C-19.8781395 222.48422108 -19.8781395 220.83422108 -19.8781395 219.13422108 C-23.48843119 219.13422108 -26.43620626 220.09514689 -29.8781395 221.13422108 Z M-28.8781395 293.13422108 C-28.8781395 293.79422108 -28.8781395 294.45422108 -28.8781395 295.13422108 C-25.9081395 295.46422108 -22.9381395 295.79422108 -19.8781395 296.13422108 C-19.8781395 294.81422108 -19.8781395 293.49422108 -19.8781395 292.13422108 C-23.07716589 292.04535923 -25.80491406 292.22363576 -28.8781395 293.13422108 Z M-26.0031395 365.13422108 C-26.72759262 365.31984608 -27.45204575 365.50547108 -28.198452 365.69672108 C-28.75274887 365.84109608 -29.30704575 365.98547108 -29.8781395 366.13422108 C-26.87196681 369.14039376 -24.05432352 368.73007424 -19.8781395 369.13422108 C-19.8781395 367.48422108 -19.8781395 365.83422108 -19.8781395 364.13422108 C-22.08843482 364.13422108 -23.86481542 364.58239551 -26.0031395 365.13422108 Z M-28.8781395 439.13422108 C-25.69051584 441.25930351 -23.61301727 441.63623737 -19.8781395 442.13422108 C-19.8781395 440.48422108 -19.8781395 438.83422108 -19.8781395 437.13422108 C-23.6737183 437.13422108 -25.50716566 437.63601048 -28.8781395 439.13422108 Z " fill="#010101" transform="translate(48.87813949584961,-0.13422107696533203)"/>
<path d="M0 0 C0.83267556 -0.00382555 1.66535113 -0.00765109 2.52325928 -0.01159257 C5.29976118 -0.02187091 8.07605428 -0.01794027 10.85256958 -0.01396179 C12.84882803 -0.01831113 14.84508481 -0.02349502 16.84133911 -0.02944946 C22.25459824 -0.04282701 27.6677875 -0.04341949 33.08105993 -0.04088616 C37.60386596 -0.03981558 42.1266579 -0.04470209 46.64946091 -0.04949158 C57.32166673 -0.06058254 67.99383735 -0.06102653 78.66604614 -0.05497742 C89.6672401 -0.04893761 100.66830616 -0.06124982 111.6694783 -0.08254749 C121.1227687 -0.10017404 130.57601843 -0.10616316 140.02932465 -0.10290974 C145.67177504 -0.10109838 151.3141342 -0.10371848 156.95656967 -0.11762428 C162.26389437 -0.13021504 167.57101997 -0.1282466 172.87834167 -0.11521339 C174.82253716 -0.11285077 176.76674671 -0.11557101 178.71092606 -0.12383652 C181.37229199 -0.13433235 184.03299334 -0.12618071 186.69433594 -0.11352539 C187.45709898 -0.12089968 188.21986202 -0.12827396 189.00573909 -0.13587171 C195.81108644 -0.06815285 202.08127779 1.23195556 207.34915161 5.69819641 C211.97323593 11.27429809 213.59036613 14.42933141 213.65115356 21.80830383 C213.65772476 22.46888794 213.66429596 23.12947205 213.67106628 23.81007385 C213.69076867 25.99543886 213.702457 28.18073513 213.71243286 30.36616516 C213.71650839 31.11467554 213.72058392 31.86318592 213.72478294 32.63437843 C213.74563394 36.5987635 213.75993797 40.5631141 213.76931763 44.52754211 C213.78036035 48.60848647 213.81473766 52.68888229 213.85448933 56.76963329 C213.88072674 59.91907719 213.88901589 63.06839201 213.89259911 66.21793556 C213.89744929 67.72133894 213.90901836 69.22473716 213.9276371 70.72803307 C214.02111857 78.77832055 214.07007716 85.36653897 209.47415161 92.26069641 C207.69290161 94.06538391 207.69290161 94.06538391 205.97415161 95.13569641 C205.40696411 95.50436829 204.83977661 95.87304016 204.25540161 96.25288391 C203.66758911 96.58546204 203.07977661 96.91804016 202.47415161 97.26069641 C201.89469504 97.60596689 201.31523848 97.95123737 200.71822262 98.3069706 C197.93859339 99.48830761 195.80709337 99.51807722 192.7877655 99.52812195 C191.62833939 99.53665192 190.46891327 99.54518188 189.27435303 99.55397034 C187.37210464 99.55261078 187.37210464 99.55261078 185.431427 99.55122375 C184.07935719 99.55720956 182.72729079 99.56401523 181.37522888 99.57157898 C177.70580727 99.58923934 174.03647894 99.59393432 170.36701894 99.59521055 C168.07407553 99.5966325 165.78115582 99.60090289 163.48821831 99.60620499 C155.48782724 99.62470422 147.48750281 99.63287559 139.48709106 99.63130188 C132.03092957 99.63009997 124.57505731 99.65121213 117.11896902 99.68278921 C110.71545235 99.70894167 104.31203023 99.71966964 97.90846056 99.71839106 C94.08472965 99.71788119 90.26125589 99.72357814 86.4375782 99.74474716 C82.84152897 99.7641129 79.24598268 99.76426598 75.6499157 99.7497139 C73.70307862 99.74662635 71.75624159 99.76331326 69.80947876 99.78059387 C68.64723282 99.7722049 67.48498688 99.76381592 66.28752136 99.75517273 C64.77573854 99.75680703 64.77573854 99.75680703 63.23341465 99.75847435 C59.6690118 99.11544718 58.00608525 97.81557675 55.47415161 95.26069641 C55.14415161 93.94069641 54.81415161 92.62069641 54.47415161 91.26069641 C48.20415161 91.26069641 41.93415161 91.26069641 35.47415161 91.26069641 C34.81415161 92.91069641 34.15415161 94.56069641 33.47415161 96.26069641 C29.25547484 99.88385358 25.02697936 99.71365351 19.73587036 99.69429016 C18.89627274 99.69953201 18.05667511 99.70477386 17.19163513 99.71017456 C15.41903791 99.71658267 13.64639809 99.71527345 11.87380981 99.70674133 C9.18056196 99.69825599 6.48945447 99.72696776 3.79641724 99.75874329 C2.06790224 99.76035628 0.33938353 99.7597759 -1.38912964 99.75679016 C-2.18523148 99.76802414 -2.98133331 99.77925812 -3.80155945 99.79083252 C-10.37944058 99.71007152 -15.65215499 97.84538459 -20.58444214 93.40913391 C-21.0394812 92.82389954 -21.49452026 92.23866516 -21.96334839 91.63569641 C-22.43643433 91.04530579 -22.90952026 90.45491516 -23.39694214 89.84663391 C-25.85962286 86.38695095 -25.67533199 83.77007147 -25.71871948 79.55122375 C-25.72689697 78.86152496 -25.73507446 78.17182617 -25.74349976 77.46122742 C-25.76835895 75.17303838 -25.78487543 72.88491164 -25.79928589 70.59663391 C-25.80460957 69.81410877 -25.80993324 69.03158363 -25.81541824 68.22534561 C-25.84215849 64.07942433 -25.8615262 59.93353318 -25.87594604 55.78755188 C-25.88925992 52.36345045 -25.91706289 48.93994857 -25.95797729 45.5160675 C-26.00743767 41.37693926 -26.03208405 37.23835293 -26.03917313 33.0989418 C-26.04586533 31.52573866 -26.0610344 29.95254664 -26.08506393 28.37951279 C-26.31407678 12.47374891 -26.31407678 12.47374891 -20.52584839 6.26069641 C-14.73949614 0.47434417 -7.76981362 -0.03827386 0 0 Z " fill="#9FD7F5" transform="translate(152.52584838867188,125.73930358886719)"/>
<path d="M0 0 C13.2 0 26.4 0 40 0 C40 159.06 40 318.12 40 482 C26.8 482 13.6 482 0 482 C-2 480 -2 480 -2.22705078 476.28466797 C-2.22673351 474.68713948 -2.21539982 473.08958973 -2.1953125 471.4921875 C-2.1924826 470.65156769 -2.18965271 469.81094788 -2.18673706 468.94485474 C-2.1755243 466.25475954 -2.15041803 463.5649949 -2.125 460.875 C-2.1149716 459.05339022 -2.10584551 457.23177523 -2.09765625 455.41015625 C-2.07558142 450.93997642 -2.04104434 446.47004429 -2 442 C-0.82937012 441.73880371 0.34125977 441.47760742 1.54736328 441.20849609 C3.09675103 440.85545619 4.64606353 440.5020859 6.1953125 440.1484375 C6.96528564 439.97755615 7.73525879 439.8066748 8.52856445 439.63061523 C15.52980276 438.02014272 20.76854743 436.11050965 25.0625 430.125 C26.20323854 426.32253818 25.95780172 423.83120687 25 420 C23.07132033 417.67555436 23.07132033 417.67555436 19.6875 417.5 C15.79218614 417.60857827 15.79218614 417.60857827 13.625 420.8125 C13.04298828 421.63041016 13.04298828 421.63041016 12.44921875 422.46484375 C9.70833251 425.36826232 5.82263766 426.2204281 2 427 C0.68 427 -0.64 427 -2 427 C-2 408.19 -2 389.38 -2 370 C5.425 368.02 5.425 368.02 13 366 C18.27751242 363.8186282 22.13211454 362.0474784 25 357 C25.88457207 354.10346007 26 352.12712712 26 349 C24.68620182 346.26938424 24.68620182 346.26938424 22 345 C18.40528996 344.75161619 18.40528996 344.75161619 15 346 C13.96210419 347.64333504 12.96432076 349.31243867 12 351 C6.7566996 353.9241483 4.29134153 354 -2 354 C-2 335.19 -2 316.38 -2 297 C2.29 296.01 6.58 295.02 11 294 C16.77532663 291.83425252 21.23015063 290.0657351 25 285 C26.11609962 281.09365133 26.31029018 278.91147742 25 275.0625 C23.06956738 272.6834639 23.06956738 272.6834639 19.625 272.3125 C15.44234523 273.10576211 14.93657636 274.12252761 12.58984375 277.46484375 C9.08216492 280.85186532 2.79790421 282 -2 282 C-2 262.86 -2 243.72 -2 224 C3.445 223.01 3.445 223.01 9 222 C15.41725965 220.06669899 21.81286496 217.67836347 25.375 211.6875 C26.199356 208.14276922 25.86330033 205.51960902 25 202 C22.11538937 199.6656442 22.11538937 199.6656442 18.5 200.0625 C14.86076389 200.59571358 14.86076389 200.59571358 13.625 203.375 C11.43614596 206.91084114 9.20681512 207.32056093 5.3515625 208.51953125 C3 209 3 209 -2 209 C-2 190.19 -2 171.38 -2 152 C5.92 150.02 5.92 150.02 14 148 C19.69407901 145.15296049 23.13337929 142.85268395 26 137 C26.58089903 132.88705917 26.58089903 132.88705917 24.765625 129.3359375 C22.47575091 127.60333365 21.14921212 127.68916469 18.3125 127.8125 C17.50425781 127.83957031 16.69601563 127.86664063 15.86328125 127.89453125 C14.94095703 127.94673828 14.94095703 127.94673828 14 128 C13.814375 128.763125 13.62875 129.52625 13.4375 130.3125 C11.79898448 133.37581163 10.3273278 134.13981175 7.14453125 135.421875 C4.15791748 136.2270095 1.06214652 136.5625505 -2 137 C-2 117.86 -2 98.72 -2 79 C3.445 78.01 3.445 78.01 9 77 C15.41725965 75.06669899 21.81286496 72.67836347 25.375 66.6875 C26.199356 63.14276922 25.86330033 60.51960902 25 57 C22.11538937 54.6656442 22.11538937 54.6656442 18.5 55.0625 C14.14051397 56.23021947 14.21040789 57.28651475 12 61 C7.36618148 63.64938054 3.27672539 64.05539278 -2 64 C-2.04628835 55.95076017 -2.08185126 47.90157571 -2.10362434 39.85223579 C-2.11407298 36.1148217 -2.1282517 32.3774985 -2.15087891 28.64013672 C-2.17256904 25.035095 -2.18456049 21.43014083 -2.18975449 17.82503891 C-2.19345716 16.44788102 -2.20068734 15.07072806 -2.21146011 13.69360733 C-2.22592335 11.76860455 -2.22681648 9.84351413 -2.22705078 7.91845703 C-2.231492 6.82147491 -2.23593323 5.7244928 -2.24050903 4.5942688 C-2 2 -2 2 0 0 Z " fill="#656565" transform="translate(47,15)"/>
<path d="M0 0 C8.25 0 16.5 0 25 0 C25 18.48 25 36.96 25 56 C24.67 56 24.34 56 24 56 C24 37.85 24 19.7 24 1 C22.35 1 20.7 1 19 1 C19.00037972 2.01528572 19.00075944 3.03057143 19.00115067 4.07662338 C19.0178113 48.79868579 19.03324023 93.52074847 19.04234314 138.24281311 C19.0424812 138.91934907 19.04261925 139.59588504 19.04276149 140.29292209 C19.04575405 154.99408949 19.04852428 169.69525692 19.05106533 184.39642441 C19.05231272 191.6053474 19.05360927 198.81427038 19.05493164 206.02319336 C19.0550624 206.74058709 19.05519316 207.45798083 19.05532788 208.19711376 C19.05959306 231.47099381 19.06710722 254.74487144 19.07629722 278.01875001 C19.08572008 301.92563758 19.09188318 325.83252381 19.09391499 349.7394132 C19.09420317 353.11219529 19.0945288 356.48497739 19.09487724 359.85775948 C19.09494467 360.52160428 19.09501209 361.18544909 19.09508156 361.86941041 C19.09619215 371.91301768 19.10018942 381.95662124 19.10573006 392.00022697 C19.11200506 403.41615203 19.11497605 414.83207161 19.11350138 426.24799841 C19.11285767 432.0788693 19.11387918 437.90972802 19.11920547 443.74059677 C19.12403779 449.06925673 19.12433977 454.39789622 19.12089889 459.72655708 C19.12047303 461.66330542 19.12177018 463.60005498 19.12488318 465.53680085 C19.12884437 468.15143106 19.12676515 470.76598546 19.12304783 473.38061428 C19.12567484 474.14807308 19.12830186 474.91553188 19.13100848 475.706247 C19.1141458 480.8858542 19.1141458 480.8858542 18 482 C12.06 482 6.12 482 0 482 C0 322.94 0 163.88 0 0 Z " fill="#5DAADA" transform="translate(102,15)"/>
<path d="M0 0 C4.53847198 1.34927545 8.31932246 3.19159348 12.375 5.625 C13.43460937 6.25664062 14.49421875 6.88828125 15.5859375 7.5390625 C16.38257813 8.02117187 17.17921875 8.50328125 18 9 C16.70891809 12.39002721 15.24218459 15.52160831 13.453125 18.67578125 C12.94539551 19.57337158 12.43766602 20.47096191 11.91455078 21.39575195 C11.36524902 22.35827881 10.81594727 23.32080566 10.25 24.3125 C9.38544189 25.83460083 9.38544189 25.83460083 8.50341797 27.38745117 C3.26959599 36.5780878 -2.06024042 45.71188214 -7.40234375 54.83984375 C-13.01413189 64.4348831 -18.5521324 74.0725666 -24.10009766 83.70458984 C-26.63970875 88.10958477 -29.18619265 92.51059063 -31.73266602 96.91162109 C-33.60050568 100.14509711 -35.46086405 103.38278668 -37.3203125 106.62109375 C-39.80483282 110.94479582 -42.32457594 115.24538343 -44.8671875 119.53515625 C-46.07837617 121.60662399 -47.28932392 123.67823263 -48.5 125.75 C-49.07057129 126.69641357 -49.64114258 127.64282715 -50.22900391 128.61791992 C-53.24523523 133.73331561 -53.24523523 133.73331561 -53.96875 139.515625 C-53.14299966 142.12493723 -53.14299966 142.12493723 -51 144 C-46.45313156 144.5832234 -46.45313156 144.5832234 -42.46777344 142.79711914 C-40.69244433 140.62343359 -39.34290318 138.37349872 -37.953125 135.93359375 C-37.06850586 134.38961914 -37.06850586 134.38961914 -36.16601562 132.81445312 C-35.53373047 131.70005859 -34.90144531 130.58566406 -34.25 129.4375 C-33.58058653 128.26598539 -32.91065574 127.09476624 -32.24023438 125.92382812 C-30.84760003 123.49056166 -29.45720253 121.05603768 -28.06835938 118.62060547 C-24.89970251 113.06842436 -21.69825474 107.5351647 -18.5 102 C-17.25112772 99.83603812 -16.00243043 97.67197524 -14.75390625 95.5078125 C-14.13531738 94.43563477 -13.51672852 93.36345703 -12.87939453 92.25878906 C-10.99019834 88.98300434 -9.10235891 85.70644107 -7.21484375 82.4296875 C5.39514697 60.54371858 18.12173431 38.72924065 31 17 C33.27159689 18.29033905 35.54229625 19.58221402 37.8125 20.875 C38.45509766 21.23980469 39.09769531 21.60460937 39.75976562 21.98046875 C42.56768798 23.58083901 45.30964298 25.20642866 48 27 C46.70891809 30.39002721 45.24218459 33.52160831 43.453125 36.67578125 C42.94547607 37.57321045 42.43782715 38.47063965 41.91479492 39.39526367 C41.09072144 40.83929565 41.09072144 40.83929565 40.25 42.3125 C39.67290283 43.32868408 39.09580566 44.34486816 38.5012207 45.3918457 C33.87474475 53.51704339 29.17017856 61.5956416 24.44433594 69.66333008 C19.91014007 77.41246774 15.44435477 85.19917869 11 93 C5.46031101 102.72134099 -0.13375063 112.40895092 -5.78344727 122.06689453 C-10.02617267 129.32211716 -14.23999497 136.59352496 -18.4375 143.875 C-19.05947266 144.95394531 -19.68144531 146.03289062 -20.32226562 147.14453125 C-22.21529126 150.42942992 -24.10775598 153.71465103 -26 157 C-35.61649846 173.696342 -45.27323048 190.367655 -55 207 C-58.45456169 205.30188862 -61.60011375 203.34648318 -64.8046875 201.21875 C-67.44233662 199.75443234 -70.12241564 198.88541057 -73 198 C-72.00573175 195.95553591 -71.00412983 193.91463871 -70 191.875 C-69.69255859 191.24916016 -69.38511719 190.62332031 -69.06835938 189.97851562 C-67.39882198 186.62940354 -65.65830966 183.36532552 -63.71875 180.1640625 C-63.34878906 179.54934082 -62.97882813 178.93461914 -62.59765625 178.30126953 C-61.54746679 176.57789368 -60.47730297 174.86673757 -59.40625 173.15625 C-57.77165894 169.48750118 -57.73902623 167.78292132 -59 164 C-62.57237608 161.61841595 -63.79873631 161.17622281 -68 162 C-73.65367623 167.79521202 -77.2925261 175.5890658 -81.11914062 182.63671875 C-81.57869141 183.45785156 -82.03824219 184.27898437 -82.51171875 185.125 C-82.91865967 185.87007812 -83.32560059 186.61515625 -83.74487305 187.3828125 C-84.15906494 187.91648437 -84.57325684 188.45015625 -85 189 C-88.72606968 189 -89.50327175 187.68459178 -92.171875 185.3125 C-95.41651995 182.98301132 -99.18319626 182.04325969 -103 181 C-101.7423893 176.89102713 -100.22023808 173.34593014 -98.05078125 169.640625 C-97.16132813 168.11115234 -97.16132813 168.11115234 -96.25390625 166.55078125 C-95.29291016 164.91689453 -95.29291016 164.91689453 -94.3125 163.25 C-93.63743361 162.09279028 -92.96296538 160.93523143 -92.2890625 159.77734375 C-90.88984195 157.37429418 -89.48807065 154.9727608 -88.08447266 152.57226562 C-84.86550635 147.06213188 -81.68480155 141.52992383 -78.5 136 C-77.25017876 133.83323021 -76.0001782 131.66656385 -74.75 129.5 C-74.13125 128.4275 -73.5125 127.355 -72.875 126.25 C-61 105.66666667 -49.125 85.08333333 -37.25 64.5 C-36.63092773 63.42693604 -36.01185547 62.35387207 -35.37402344 61.24829102 C-34.12729744 59.08731012 -32.88055273 56.92634002 -31.63378906 54.76538086 C-28.45854117 49.26181149 -25.28364505 43.75803968 -22.109375 38.25390625 C-14.75123049 25.49584057 -7.38465019 12.74274357 0 0 Z " fill="#F4A507" transform="translate(409,202)"/>
<path d="M0 0 C0.83267556 -0.00382555 1.66535113 -0.00765109 2.52325928 -0.01159257 C5.29976118 -0.02187091 8.07605428 -0.01794027 10.85256958 -0.01396179 C12.84882803 -0.01831113 14.84508481 -0.02349502 16.84133911 -0.02944946 C22.25459824 -0.04282701 27.6677875 -0.04341949 33.08105993 -0.04088616 C37.60386596 -0.03981558 42.1266579 -0.04470209 46.64946091 -0.04949158 C57.32166673 -0.06058254 67.99383735 -0.06102653 78.66604614 -0.05497742 C89.6672401 -0.04893761 100.66830616 -0.06124982 111.6694783 -0.08254749 C121.1227687 -0.10017404 130.57601843 -0.10616316 140.02932465 -0.10290974 C145.67177504 -0.10109838 151.3141342 -0.10371848 156.95656967 -0.11762428 C162.26389437 -0.13021504 167.57101997 -0.1282466 172.87834167 -0.11521339 C174.82253716 -0.11285077 176.76674671 -0.11557101 178.71092606 -0.12383652 C181.37229199 -0.13433235 184.03299334 -0.12618071 186.69433594 -0.11352539 C187.45709898 -0.12089968 188.21986202 -0.12827396 189.00573909 -0.13587171 C195.81108644 -0.06815285 202.08127779 1.23195556 207.34915161 5.69819641 C211.97323593 11.27429809 213.59036613 14.42933141 213.65115356 21.80830383 C213.65772476 22.46888794 213.66429596 23.12947205 213.67106628 23.81007385 C213.69076867 25.99543886 213.702457 28.18073513 213.71243286 30.36616516 C213.71650839 31.11467554 213.72058392 31.86318592 213.72478294 32.63437843 C213.74563394 36.5987635 213.75993797 40.5631141 213.76931763 44.52754211 C213.78036035 48.60848647 213.81473766 52.68888229 213.85448933 56.76963329 C213.88072674 59.91907719 213.88901589 63.06839201 213.89259911 66.21793556 C213.89744929 67.72133894 213.90901836 69.22473716 213.9276371 70.72803307 C214.02111857 78.77832055 214.07007716 85.36653897 209.47415161 92.26069641 C207.69290161 94.06538391 207.69290161 94.06538391 205.97415161 95.13569641 C205.40696411 95.50436829 204.83977661 95.87304016 204.25540161 96.25288391 C203.66758911 96.58546204 203.07977661 96.91804016 202.47415161 97.26069641 C201.89469504 97.60596689 201.31523848 97.95123737 200.71822262 98.3069706 C197.93859339 99.48830761 195.80709337 99.51807722 192.7877655 99.52812195 C191.62833939 99.53665192 190.46891327 99.54518188 189.27435303 99.55397034 C187.37210464 99.55261078 187.37210464 99.55261078 185.431427 99.55122375 C184.07935719 99.55720956 182.72729079 99.56401523 181.37522888 99.57157898 C177.70580727 99.58923934 174.03647894 99.59393432 170.36701894 99.59521055 C168.07407553 99.5966325 165.78115582 99.60090289 163.48821831 99.60620499 C155.48782724 99.62470422 147.48750281 99.63287559 139.48709106 99.63130188 C132.03092957 99.63009997 124.57505731 99.65121213 117.11896902 99.68278921 C110.71545235 99.70894167 104.31203023 99.71966964 97.90846056 99.71839106 C94.08472965 99.71788119 90.26125589 99.72357814 86.4375782 99.74474716 C82.84152897 99.7641129 79.24598268 99.76426598 75.6499157 99.7497139 C73.70307862 99.74662635 71.75624159 99.76331326 69.80947876 99.78059387 C68.64723282 99.7722049 67.48498688 99.76381592 66.28752136 99.75517273 C64.77573854 99.75680703 64.77573854 99.75680703 63.23341465 99.75847435 C59.6817049 99.11773705 57.99766942 97.80283378 55.47415161 95.26069641 C54.91165161 91.76069641 54.91165161 91.76069641 55.47415161 88.26069641 C57.54000255 85.57638916 58.7241461 84.40498281 62.0847187 83.75847435 C63.57965764 83.75684005 63.57965764 83.75684005 65.10479736 83.75517273 C66.25173065 83.74415024 67.39866394 83.73312775 68.58035278 83.72177124 C69.83453003 83.7299437 71.08870728 83.73811615 72.38088989 83.74653625 C73.71812752 83.74107488 75.05535888 83.73383312 76.39257812 83.72494507 C79.26935595 83.70961181 82.14577716 83.70680396 85.02258682 83.71371078 C89.56866675 83.72449065 94.11437331 83.70712474 98.66040039 83.68589783 C105.84734329 83.65564062 113.03417567 83.64394298 120.22117698 83.64032137 C133.10089946 83.63367021 145.9805459 83.60474652 158.86017406 83.55522501 C163.38231528 83.53869458 167.90429578 83.53331644 172.42646432 83.5368154 C175.23450707 83.53725136 178.04248873 83.52970443 180.85051346 83.52013969 C182.78000944 83.51616272 184.70951785 83.52224031 186.63900757 83.52856445 C188.35094803 83.52049019 188.35094803 83.52049019 190.09747314 83.51225281 C191.09334505 83.51191732 192.08921696 83.51158184 193.1152668 83.51123619 C195.66335865 83.49046891 195.66335865 83.49046891 197.47415161 81.26069641 C197.78154035 78.52308894 197.78154035 78.52308894 197.73294067 75.28218079 C197.74239716 73.40012939 197.74239716 73.40012939 197.75204468 71.48005676 C197.748465 70.10485189 197.74436306 68.72964829 197.73977661 67.35444641 C197.74112334 65.94961988 197.74306394 64.5447938 197.74557495 63.13996887 C197.74852587 60.19432645 197.7442297 57.24880523 197.7348938 54.30317688 C197.72349916 50.52331138 197.73005882 46.74372989 197.74203873 42.96387482 C197.74925826 40.06257479 197.74696899 37.16134233 197.74178314 34.26004028 C197.7404469 32.86614956 197.74209349 31.47225275 197.74674225 30.07836914 C197.75180872 28.1319846 197.74272031 26.18557861 197.73294067 24.23921204 C197.73134949 23.13049744 197.7297583 22.02178284 197.7281189 20.87947083 C197.73872198 18.1015666 197.73872198 18.1015666 195.47415161 16.26069641 C192.79540773 16.06522822 190.22020431 15.99584736 187.54043579 16.01345825 C186.71117694 16.01104384 185.8819181 16.00862942 185.02753019 16.00614184 C182.23296589 16.00048043 179.43862772 16.00918631 176.64407349 16.01777649 C174.64704832 16.01670421 172.65002345 16.01476634 170.65299988 16.01202393 C165.21717643 16.00716375 159.78143468 16.01484586 154.34562111 16.02497697 C148.66772169 16.03373846 142.98982497 16.03200039 137.31192017 16.03161621 C127.77532579 16.03255372 118.23876318 16.04124938 108.70217896 16.05488586 C97.66293332 16.0706123 86.62372249 16.07588402 75.58446646 16.07515031 C64.98263152 16.07454074 54.38080796 16.0796397 43.77897644 16.08794212 C39.2590679 16.09148048 34.73916339 16.09330616 30.21925354 16.09383583 C24.9005804 16.09483765 19.58193668 16.10092109 14.26327324 16.11100197 C12.30646889 16.11393202 10.34966115 16.11515132 8.39285469 16.11457443 C5.73116061 16.11408653 3.06954994 16.11971186 0.40786743 16.12698364 C-0.76614144 16.12466074 -0.76614144 16.12466074 -1.96386766 16.12229091 C-5.87318708 16.06206407 -5.87318708 16.06206407 -9.52584839 17.26069641 C-9.54897498 25.71836975 -9.56676509 34.17602997 -9.57766056 42.63372707 C-9.5828887 46.560583 -9.58998508 50.48741735 -9.60128784 54.41426086 C-9.61211919 58.20083899 -9.61812575 61.98739631 -9.62072563 65.77398872 C-9.62257943 67.22173961 -9.6261992 68.66948929 -9.63157845 70.11723137 C-9.63879206 72.13826776 -9.63925647 74.15932489 -9.63937378 76.18037415 C-9.6427047 77.90912025 -9.6427047 77.90912025 -9.64610291 79.67279053 C-9.82022434 82.19082788 -9.82022434 82.19082788 -8.52584839 83.26069641 C-5.68998165 83.37150673 -2.87436243 83.42233635 -0.03756714 83.43647766 C1.71830418 83.45967936 3.47416359 83.48379684 5.23001099 83.50874329 C8.00833042 83.54385594 10.78621355 83.57319429 13.56472778 83.58662415 C16.23950578 83.6020963 18.91299503 83.64230595 21.58743286 83.68647766 C22.41672806 83.68456924 23.24602325 83.68266083 24.10044861 83.68069458 C27.88349591 83.76095656 29.86490961 83.82372486 33.00222778 86.07392883 C35.14180901 89.25260342 34.94997143 91.5221121 34.47415161 95.26069641 C32.64299954 97.87662794 31.56446795 98.23059097 28.47415161 99.26069641 C25.61849098 99.3939324 22.7881036 99.47300356 19.93118286 99.49897766 C19.08875534 99.50704941 18.24632782 99.51512115 17.37837219 99.5234375 C15.59383188 99.53726619 13.80926526 99.54799378 12.02468872 99.55586243 C10.20820311 99.56736225 8.39175075 99.58778237 6.57546997 99.61738586 C3.94380851 99.66027646 1.31315146 99.67626271 -1.31881714 99.68647766 C-2.12119308 99.70398575 -2.92356903 99.72149384 -3.7502594 99.73953247 C-10.3691848 99.71440131 -15.6219809 97.87252409 -20.58444214 93.40913391 C-21.0394812 92.82389954 -21.49452026 92.23866516 -21.96334839 91.63569641 C-22.43643433 91.04530579 -22.90952026 90.45491516 -23.39694214 89.84663391 C-25.85962286 86.38695095 -25.67533199 83.77007147 -25.71871948 79.55122375 C-25.72689697 78.86152496 -25.73507446 78.17182617 -25.74349976 77.46122742 C-25.76835895 75.17303838 -25.78487543 72.88491164 -25.79928589 70.59663391 C-25.80460957 69.81410877 -25.80993324 69.03158363 -25.81541824 68.22534561 C-25.84215849 64.07942433 -25.8615262 59.93353318 -25.87594604 55.78755188 C-25.88925992 52.36345045 -25.91706289 48.93994857 -25.95797729 45.5160675 C-26.00743767 41.37693926 -26.03208405 37.23835293 -26.03917313 33.0989418 C-26.04586533 31.52573866 -26.0610344 29.95254664 -26.08506393 28.37951279 C-26.31407678 12.47374891 -26.31407678 12.47374891 -20.52584839 6.26069641 C-14.73949614 0.47434417 -7.76981362 -0.03827386 0 0 Z " fill="#020405" transform="translate(152.52584838867188,125.73930358886719)"/>
<path d="M0 0 C2.27159689 1.29033905 4.54229625 2.58221402 6.8125 3.875 C7.45509766 4.23980469 8.09769531 4.60460937 8.75976562 4.98046875 C11.56768798 6.58083901 14.30964298 8.20642866 17 10 C15.70891809 13.39002721 14.24218459 16.52160831 12.453125 19.67578125 C11.94547607 20.57321045 11.43782715 21.47063965 10.91479492 22.39526367 C10.3654126 23.35795166 9.81603027 24.32063965 9.25 25.3125 C8.67290283 26.32868408 8.09580566 27.34486816 7.5012207 28.3918457 C2.87474475 36.51704339 -1.82982144 44.5956416 -6.55566406 52.66333008 C-11.08985993 60.41246774 -15.55564523 68.19917869 -20 76 C-25.53968899 85.72134099 -31.13375063 95.40895092 -36.78344727 105.06689453 C-41.02617267 112.32211716 -45.23999497 119.59352496 -49.4375 126.875 C-50.37045898 128.49341797 -50.37045898 128.49341797 -51.32226562 130.14453125 C-53.21529126 133.42942992 -55.10775598 136.71465103 -57 140 C-66.61649846 156.696342 -76.27323048 173.367655 -86 190 C-89.45456169 188.30188862 -92.60011375 186.34648318 -95.8046875 184.21875 C-98.44233662 182.75443234 -101.12241564 181.88541057 -104 181 C-103.00573175 178.95553591 -102.00412983 176.91463871 -101 174.875 C-100.69255859 174.24916016 -100.38511719 173.62332031 -100.06835938 172.97851562 C-98.39882198 169.62940354 -96.65830966 166.36532552 -94.71875 163.1640625 C-94.34878906 162.54934082 -93.97882813 161.93461914 -93.59765625 161.30126953 C-92.54746679 159.57789368 -91.47730297 157.86673757 -90.40625 156.15625 C-88.51427293 151.90981258 -89.22832365 149.33252737 -90.64599609 145.04736328 C-91.28155102 141.37166423 -88.93392194 138.4407703 -87.125 135.375 C-86.76664062 134.694375 -86.40828125 134.01375 -86.0390625 133.3125 C-84.83187742 131.24886605 -83.75654081 129.62838586 -82 128 C-79.93896484 127.53417969 -79.93896484 127.53417969 -77.65625 127.3203125 C-74.29880802 126.80116343 -73.25181284 126.2977437 -71.01904297 123.65771484 C-68.99319612 120.33947183 -67.15837323 116.95145404 -65.375 113.5 C-64.68823757 112.22756434 -63.99815731 110.95691433 -63.30493164 109.68798828 C-61.88091507 107.07606917 -60.47071461 104.45739753 -59.06982422 101.83300781 C-55.99515289 96.10235909 -52.71148861 90.4933421 -49.4375 84.875 C-48.19708931 82.72964482 -46.95750668 80.58381065 -45.71875 78.4375 C-45.10644531 77.37789063 -44.49414062 76.31828125 -43.86328125 75.2265625 C-41.9796495 71.96475993 -40.09877679 68.70138156 -38.21875 65.4375 C-25.60861259 43.54826624 -12.87974247 21.73173239 0 0 Z " fill="#FBB40C" transform="translate(440,219)"/>
<path d="M0 0 C0.6776107 -0.00538554 1.35522141 -0.01077108 2.05336577 -0.01631981 C4.32893802 -0.03065261 6.60393291 -0.02348292 8.87953186 -0.01637268 C10.50893625 -0.02207351 12.13833665 -0.02903664 13.76773071 -0.03717041 C18.19748977 -0.05514916 22.62705126 -0.05392458 27.05683589 -0.04822803 C30.75230708 -0.04514287 34.44773995 -0.05122112 38.1432057 -0.05726677 C46.86003419 -0.07132597 55.57676471 -0.06973922 64.29359436 -0.05836487 C73.29196758 -0.04688273 82.2900428 -0.0609577 91.28837675 -0.08776134 C99.00905171 -0.10989972 106.72963301 -0.11655992 114.45033747 -0.11068493 C119.06376532 -0.10730961 123.67700214 -0.10976837 128.29040337 -0.12693596 C132.62840916 -0.14237339 136.96597268 -0.13848546 141.3039608 -0.11963081 C142.89710148 -0.11593597 144.49027469 -0.11907943 146.08338547 -0.1295166 C148.25654343 -0.14266812 150.42822456 -0.1312334 152.60131836 -0.11352539 C153.81787581 -0.11331611 155.03443327 -0.11310682 156.2878561 -0.1128912 C159.98064084 0.48799459 161.16850567 1.40192258 163.364151 4.38768005 C163.91563683 8.24808087 164.1042163 10.38369209 161.75236416 13.57426357 C158.57532282 15.98665256 156.62215514 15.89310957 152.65274048 15.90234375 C151.97906447 15.90928928 151.30538846 15.91623481 150.61129802 15.92339081 C148.35483176 15.9416814 146.09941447 15.93139172 143.84291077 15.92112732 C142.22483025 15.92818483 140.60675633 15.93692914 138.98869324 15.94723511 C134.59399848 15.96975844 130.19966337 15.9667825 125.80493283 15.95791364 C122.13683399 15.95280737 118.46880295 15.9600934 114.8007111 15.96738571 C106.14756256 15.98439422 97.49459032 15.9808095 88.84144592 15.96409607 C79.91287199 15.9471737 70.9847869 15.96300859 62.05626637 15.99531895 C54.39159067 16.02200546 46.72706723 16.02929341 39.06234974 16.02080387 C34.48407865 16.01587188 29.90610174 16.01810479 25.32786751 16.03859138 C21.02258248 16.05693385 16.71800116 16.05100786 12.41275406 16.02639198 C10.83293574 16.02137944 9.25306393 16.02488544 7.67328835 16.03754044 C5.51556365 16.0534574 3.36016017 16.03853819 1.20254517 16.01586914 C-0.00441733 16.01528283 -1.21137983 16.01469652 -2.45491695 16.01409245 C-6.57794832 15.20215497 -8.09791897 13.67831978 -10.635849 10.38768005 C-10.635849 6.93257692 -10.4561716 4.59319772 -8.48808956 1.70097256 C-5.6967547 -0.27816515 -3.39480767 0.00678273 0 0 Z " fill="#010202" transform="translate(169.63584899902344,154.61231994628906)"/>
<path d="M0 0 C0.67846513 -0.00623996 1.35693026 -0.01247993 2.05595493 -0.01890898 C4.32859142 -0.03485958 6.60015837 -0.02222777 8.87280273 -0.00964355 C10.50235622 -0.0150638 12.1319048 -0.02218591 13.76144409 -0.03088379 C18.18707652 -0.04913186 22.6123363 -0.04204359 27.03797531 -0.02936745 C31.66725425 -0.01924743 36.29650107 -0.02863035 40.92578125 -0.03491211 C48.70017227 -0.04219143 56.47441134 -0.03259336 64.2487793 -0.0135498 C73.23980034 0.00821951 82.23045858 0.00116834 91.22147083 -0.02085543 C98.93792993 -0.03900133 106.65427975 -0.04157172 114.37075329 -0.03110075 C118.98080073 -0.02486135 123.59067759 -0.0240424 128.20071411 -0.0372467 C132.53464891 -0.04879285 136.8681155 -0.04080235 141.20199966 -0.01766968 C142.7935216 -0.01237594 144.38508286 -0.01390776 145.9765892 -0.02272034 C148.1475242 -0.03363399 150.31695418 -0.01996558 152.48779297 0 C154.31068092 0.00226215 154.31068092 0.00226215 156.1703949 0.00457001 C159.86030506 0.60888725 161.05422712 1.51908199 163.24389648 4.50793457 C163.97523977 10.46315845 163.97523977 10.46315845 161.93139648 13.38293457 C158.30628255 15.7996772 154.95395073 15.64209515 150.72866821 15.66183472 C150.06401373 15.66621697 149.39935925 15.67059922 148.71456373 15.67511427 C146.48296474 15.68849025 144.25140522 15.69467834 142.01977539 15.70080566 C140.42155275 15.70870741 138.8233319 15.71697641 137.22511292 15.72558594 C131.97357891 15.75179179 126.72203697 15.76710947 121.47045898 15.78137207 C119.66306935 15.78673184 117.85567978 15.79210934 116.04829025 15.79750443 C108.53182733 15.81912865 101.01536654 15.83786667 93.49888039 15.84912682 C82.72276906 15.86537613 71.9470177 15.89858281 61.17104208 15.95552766 C53.59559451 15.99419721 46.02024335 16.0137558 38.44469965 16.01904738 C33.91889831 16.02270419 29.39348103 16.03476056 24.86778641 16.06715012 C20.61100954 16.09717939 16.35485017 16.10356124 12.09799004 16.09176636 C10.53588372 16.09154521 8.97374916 16.09988469 7.41174126 16.1174202 C5.27811265 16.14006903 3.14673165 16.13184075 1.01309204 16.11593628 C-0.18042059 16.11924643 -1.37393322 16.12255657 -2.6036129 16.12596703 C-6.69739197 15.32339895 -8.191214 13.73020298 -10.75610352 10.50793457 C-11.31860352 7.44543457 -11.31860352 7.44543457 -10.75610352 4.50793457 C-7.58407142 0.27597267 -5.15572021 0.00639811 0 0 Z " fill="#020303" transform="translate(169.756103515625,181.4920654296875)"/>
<path d="M0 0 C4.484542 1.3789035 7.46309903 2.87920503 11 6 C10.01 6.33 9.02 6.66 8 7 C6.92230411 9.30116262 6.92230411 9.30116262 6 12 C5.10624743 13.71934044 4.18209867 15.42309042 3.234375 17.11328125 C2.68144775 18.10126709 2.12852051 19.08925293 1.55883789 20.10717773 C0.96192139 21.16493408 0.36500488 22.22269043 -0.25 23.3125 C-0.87334229 24.42117432 -1.49668457 25.52984863 -2.13891602 26.67211914 C-7.47873305 36.13940877 -12.94123025 45.53299965 -18.4375 54.91015625 C-22.13213337 61.21570465 -25.7884724 67.54297534 -29.4375 73.875 C-30.37021729 75.49305542 -30.37021729 75.49305542 -31.32177734 77.14379883 C-33.21499899 80.42892251 -35.10760983 83.71439728 -37 87 C-44.28193536 99.64303049 -51.57051878 112.28128884 -58.9375 124.875 C-64.76237884 134.83529424 -70.49955939 144.84417223 -76.21459961 154.86767578 C-81.76647913 164.60368748 -87.36760761 174.3103758 -93 184 C-96.3 183.01 -99.6 182.02 -103 181 C-101.7423893 176.89102713 -100.22023808 173.34593014 -98.05078125 169.640625 C-97.16132813 168.11115234 -97.16132813 168.11115234 -96.25390625 166.55078125 C-95.29291016 164.91689453 -95.29291016 164.91689453 -94.3125 163.25 C-93.63743361 162.09279028 -92.96296538 160.93523143 -92.2890625 159.77734375 C-90.88984195 157.37429418 -89.48807065 154.9727608 -88.08447266 152.57226562 C-84.86550635 147.06213188 -81.68480155 141.52992383 -78.5 136 C-77.25017876 133.83323021 -76.0001782 131.66656385 -74.75 129.5 C-74.13125 128.4275 -73.5125 127.355 -72.875 126.25 C-61 105.66666667 -49.125 85.08333333 -37.25 64.5 C-36.63092773 63.42693604 -36.01185547 62.35387207 -35.37402344 61.24829102 C-34.12729744 59.08731012 -32.88055273 56.92634002 -31.63378906 54.76538086 C-28.45854117 49.26181149 -25.28364505 43.75803968 -22.109375 38.25390625 C-14.75123049 25.49584057 -7.38465019 12.74274357 0 0 Z " fill="#E69709" transform="translate(409,202)"/>
<path d="M0 0 C16.17 0 32.34 0 49 0 C49 17.82 49 35.64 49 54 C48.01 54 47.02 54 46 54 C44.203125 51.515625 44.203125 51.515625 42.25 48.25 C37.85265605 41.43732662 35.09303327 38.99024998 27.125 37.0625 C21.67852033 36.65084747 16.47044958 37.88167332 12.2734375 41.48046875 C8.62076616 45.57333382 5.77016345 50.28091625 3 55 C2.01 54.67 1.02 54.34 0 54 C0 36.18 0 18.36 0 0 Z " fill="#F74945" transform="translate(141,15)"/>
<path d="M0 0 C0.8315244 -0.00170885 1.66304881 -0.0034177 2.51977092 -0.00517833 C5.31590504 -0.00848185 8.11180106 0.00254462 10.90791321 0.01345825 C12.90833022 0.01402218 14.90874765 0.01370617 16.90916443 0.01257324 C22.34893199 0.01199801 27.78861185 0.0237799 33.22835898 0.03772116 C38.90985406 0.05020013 44.591351 0.05139678 50.27285767 0.05377197 C61.03568967 0.05999509 71.79848118 0.07641714 82.56129533 0.09647095 C94.81263764 0.11880411 107.06398186 0.12981688 119.31533945 0.13986182 C144.52110591 0.16078265 169.72683639 0.19597476 194.93257141 0.24050903 C194.93257141 0.57050903 194.93257141 0.90050903 194.93257141 1.24050903 C132.89257141 1.24050903 70.85257141 1.24050903 6.93257141 1.24050903 C7.42757141 9.16050903 7.42757141 9.16050903 7.93257141 17.24050903 C7.60257141 19.55050903 7.27257141 21.86050903 6.93257141 24.24050903 C7.26257141 24.90050903 7.59257141 25.56050903 7.93257141 26.24050903 C8.02723402 27.6038292 8.06329317 28.97156421 8.06538391 30.33816528 C8.0673175 31.5398938 8.0673175 31.5398938 8.06929016 32.76589966 C8.06542297 33.60314575 8.06155579 34.44039185 8.05757141 35.30300903 C8.06337219 36.56467896 8.06337219 36.56467896 8.06929016 37.85183716 C8.05919823 44.11388222 8.05919823 44.11388222 6.93257141 45.24050903 C6.68524004 49.38327778 6.68524004 49.38327778 7.93257141 53.24050903 C7.84336808 55.80150794 7.69956909 58.31425943 7.49507141 60.86550903 C7.30944641 63.29925903 7.12382141 65.73300903 6.93257141 68.24050903 C13.86257141 68.24050903 20.79257141 68.24050903 27.93257141 68.24050903 C27.93257141 68.57050903 27.93257141 68.90050903 27.93257141 69.24050903 C22.6998381 69.28986728 17.46723965 69.32620852 12.23432922 69.35037231 C10.45338074 69.36044335 8.67244884 69.37410088 6.89155579 69.39138794 C4.33487358 69.41558816 1.77840956 69.42698087 -0.77836609 69.43582153 C-1.57737335 69.4461441 -2.37638062 69.45646667 -3.19960022 69.46710205 C-5.15700078 69.4675013 -7.11385935 69.36291972 -9.06742859 69.24050903 C-11.81579872 66.49213891 -11.32659123 64.92671829 -11.34208679 61.07839966 C-11.3516188 59.78365723 -11.36115082 58.48891479 -11.37097168 57.15493774 C-11.37071029 55.73554457 -11.36977341 54.31615137 -11.36820984 52.89675903 C-11.37209503 51.44709144 -11.37642933 49.99742498 -11.38119507 48.54776001 C-11.38866253 45.50796825 -11.388362 42.46829263 -11.38310242 39.42849731 C-11.37730323 35.52747747 -11.39424654 31.62693171 -11.41744709 27.7259903 C-11.43215697 24.73203743 -11.43305999 21.73819951 -11.42993736 18.74421692 C-11.43045184 17.30565959 -11.43571323 15.86709603 -11.44574928 14.42857361 C-11.45804356 12.4199585 -11.44940622 10.4112479 -11.43974304 8.40261841 C-11.44037247 7.25837402 -11.44100189 6.11412964 -11.44165039 4.93521118 C-11.3181572 4.04595947 -11.194664 3.15670776 -11.06742859 2.24050903 C-7.30211202 -0.26970202 -4.35864133 -0.03250708 0 0 Z " fill="#7FBFDC" transform="translate(153.0674285888672,140.75949096679688)"/>
<path d="M0 0 C7.2901691 4.31607026 12.16444486 10.75958095 14.4375 18.9375 C15.67726206 27.51155535 13.95770816 33.64059254 9.4375 40.9375 C5.95502465 39.6158657 2.75401263 38.08756158 -0.484375 36.25 C-1.41999268 35.72075928 -2.35561035 35.19151855 -3.31958008 34.64624023 C-4.30724365 34.08235596 -5.29490723 33.51847168 -6.3125 32.9375 C-7.32787842 32.3587915 -8.34325684 31.78008301 -9.3894043 31.18383789 C-11.4570506 30.00337028 -13.52370582 28.82116502 -15.58935547 27.63720703 C-18.31512289 26.07892219 -21.04887715 24.53581429 -23.78515625 22.99609375 C-25.31556299 22.12319977 -26.84554048 21.24955261 -28.375 20.375 C-29.07915039 19.98248047 -29.78330078 19.58996094 -30.50878906 19.18554688 C-33.91228166 17.2168098 -36.32849277 15.79705453 -37.5625 11.9375 C-29.16858371 -0.8759404 -14.71480232 -6.84148584 0 0 Z " fill="#F54945" transform="translate(482.5625,128.0625)"/>
<path d="M0 0 C3.00281289 3.39791984 3.95322352 6.71128232 5.1875 11.03125 C6.73085822 14.48349864 8.07980594 15.82052184 11.375 17.6875 C14.21065758 17.73689158 16.60202417 17.62604008 19.375 17.25 C26.54262249 16.3176801 26.54262249 16.3176801 30.25 17.96484375 C33.17806032 20.33851029 34.26235928 22.20877694 35.125 25.875 C33.91759446 32.01264481 29.32656095 34.26155513 24.375 37.6875 C23.42109375 38.368125 22.4671875 39.04875 21.484375 39.75 C19.12930693 41.41873395 16.76079098 43.06313167 14.375 44.6875 C11.26398176 43.24838952 8.67746919 41.4890115 5.9375 39.4375 C0.12442398 35.30011009 -6.11293011 32.53763357 -12.625 29.6875 C-13.96107491 29.0263449 -15.29496599 28.36072489 -16.625 27.6875 C-16.34523292 24.31140404 -16.0490573 20.93693755 -15.75 17.5625 C-15.67136719 16.61117188 -15.59273438 15.65984375 -15.51171875 14.6796875 C-15.06868307 9.77221531 -14.60044179 5.2622073 -12.625 0.6875 C-8.74706439 -2.35944941 -4.27937122 -2.13968561 0 0 Z " fill="#F3CC99" transform="translate(308.625,398.3125)"/>
<path d="M0 0 C1.57043101 0.01330874 3.14079971 0.03717648 4.7109375 0.0703125 C5.51273438 0.07933594 6.31453125 0.08835937 7.140625 0.09765625 C9.12252273 0.12125027 11.10426731 0.15712185 13.0859375 0.1953125 C13.18727112 7.95480204 13.25737533 15.71412126 13.30566406 23.47412109 C13.32579225 26.11448544 13.35309737 28.75480515 13.38769531 31.39501953 C13.436158 35.18793751 13.4588947 38.98026666 13.4765625 42.7734375 C13.49720764 43.95585022 13.51785278 45.13826294 13.53912354 46.35650635 C13.53942566 47.45734558 13.53972778 48.55818481 13.54003906 49.69238281 C13.54892151 50.66056946 13.55780396 51.6287561 13.56695557 52.62628174 C12.94943938 55.92432433 11.59609032 57.05106075 9.0859375 59.1953125 C8.6321875 59.7315625 8.1784375 60.2678125 7.7109375 60.8203125 C3.68028832 64.23086181 -0.87101709 64.28674847 -5.9140625 64.1953125 C-5.96035085 56.14607267 -5.99591376 48.09688821 -6.01768684 40.04754829 C-6.02813548 36.3101342 -6.0423142 32.572811 -6.06494141 28.83544922 C-6.08663154 25.2304075 -6.09862299 21.62545333 -6.10381699 18.02035141 C-6.10751966 16.64319352 -6.11474984 15.26604056 -6.12552261 13.88891983 C-6.13998585 11.96391705 -6.14087898 10.03882663 -6.14111328 8.11376953 C-6.1455545 7.01678741 -6.14999573 5.9198053 -6.15457153 4.7895813 C-5.74070227 0.32534935 -4.33863898 0.21649895 0 0 Z " fill="#595A5A" transform="translate(50.9140625,14.8046875)"/>
<path d="M0 0 C0.12692283 7.43796542 0.21440352 14.87565091 0.2746582 22.31445312 C0.29978044 24.84418169 0.33388421 27.37383782 0.37719727 29.90332031 C0.43794555 33.54249963 0.46623385 37.18071812 0.48828125 40.8203125 C0.51408768 41.94865509 0.5398941 43.07699768 0.56648254 44.23953247 C0.56960714 53.0149908 0.56960714 53.0149908 -2.35400391 56.68359375 C-5.18655012 59.16331311 -7.03914595 60.06867891 -10.6875 60.875 C-11.64011719 61.09929687 -12.59273437 61.32359375 -13.57421875 61.5546875 C-16 62 -16 62 -18 62 C-18 42.86 -18 23.72 -18 4 C-12.555 3.01 -12.555 3.01 -7 2 C-0.55555556 0 -0.55555556 0 0 0 Z " fill="#595A5A" transform="translate(63,235)"/>
<path d="M0 0 C0.66 0.33 1.32 0.66 2 1 C1.67 1.33 1.34 1.66 1 2 C0.92753455 3.57565256 0.92468576 5.15457377 0.94995117 6.73168945 C0.96293747 7.73976151 0.97592377 8.74783356 0.98930359 9.78645325 C1.00701309 10.88430649 1.0247226 11.98215973 1.04296875 13.11328125 C1.06536066 15.41600698 1.08681566 17.71874197 1.10742188 20.02148438 C1.14452976 23.66911545 1.18756143 27.31628035 1.24682617 30.96362305 C1.30123851 34.47191189 1.33039752 37.97967631 1.35546875 41.48828125 C1.37925095 42.5800618 1.40303314 43.67184235 1.42753601 44.79670715 C1.43106583 45.81423569 1.43459564 46.83176422 1.43823242 47.88012695 C1.45013107 48.77423782 1.46202972 49.66834869 1.47428894 50.58955383 C0.84931068 53.76583802 -0.59452799 54.91422623 -3 57 C-3.433125 57.53625 -3.86625 58.0725 -4.3125 58.625 C-8.30043574 61.87442912 -13.05240927 62 -18 62 C-18 43.19 -18 24.38 -18 5 C-12.72 3.68 -7.44 2.36 -2 1 C-1.34 0.67 -0.68 0.34 0 0 Z " fill="#595A5A" transform="translate(63,162)"/>
<path d="M0 0 C0.2442898 7.3316816 0.45673608 14.66378834 0.64697266 21.99707031 C0.71546679 24.49207466 0.79127281 26.98688936 0.87451172 29.48144531 C0.99283999 33.06550885 1.084928 36.64943002 1.171875 40.234375 C1.21439392 41.35116638 1.25691284 42.46795776 1.30072021 43.61859131 C1.32104309 44.65936829 1.34136597 45.70014526 1.36230469 46.77246094 C1.38895203 47.68735291 1.41559937 48.60224487 1.4430542 49.54486084 C0.85998457 52.77588104 -0.55110005 53.89744127 -3 56 C-3.474375 56.53625 -3.94875 57.0725 -4.4375 57.625 C-8.72364018 61.39680336 -12.23823332 61 -18 61 C-18 42.19 -18 23.38 -18 4 C-13.71 3.01 -9.42 2.02 -5 1 C-2 0 -2 0 0 0 Z " fill="#595A5A" transform="translate(63,308)"/>
<path d="M0 0 C0 17.49 0 34.98 0 53 C-0.66 53 -1.32 53 -2 53 C-2.185625 53.763125 -2.37125 54.52625 -2.5625 55.3125 C-4.20101552 58.37581163 -5.6726722 59.13981175 -8.85546875 60.421875 C-11.84208252 61.2270095 -14.93785348 61.5625505 -18 62 C-18 42.86 -18 23.72 -18 4 C-12.555 3.01 -12.555 3.01 -7 2 C-0.55555556 0 -0.55555556 0 0 0 Z " fill="#595A5A" transform="translate(63,90)"/>
<path d="M0 0 C0.12693664 7.29554638 0.21440916 14.59080725 0.2746582 21.88720703 C0.29977841 24.36843508 0.33388069 26.84958931 0.37719727 29.33056641 C0.43795481 32.90025054 0.4662358 36.46895505 0.48828125 40.0390625 C0.51408768 41.14553131 0.5398941 42.25200012 0.56648254 43.39199829 C0.56960686 52.0010267 0.56960686 52.0010267 -2.38574219 55.66992188 C-4.85135032 57.8675091 -6.42202924 58.9902065 -9.5625 59.875 C-10.67818359 60.21144531 -10.67818359 60.21144531 -11.81640625 60.5546875 C-14 61 -14 61 -18 61 C-18 42.19 -18 23.38 -18 4 C-3 0 -3 0 0 0 Z " fill="#595A5A" transform="translate(63,381)"/>
<path d="M0 0 C6.27 0 12.54 0 19 0 C19.18421375 5.16310199 19.34318584 10.31473827 19.43945312 15.47851562 C19.47958095 17.23248993 19.53410049 18.98619831 19.60351562 20.73925781 C20.16853648 35.37994532 20.16853648 35.37994532 17.30224609 39.35375977 C15.26605744 40.82434046 13.25092894 41.89954585 11 43 C8.9727062 45.33191391 8.9727062 45.33191391 7.625 47.6875 C7.16351563 48.43386719 6.70203125 49.18023437 6.2265625 49.94921875 C5.82179687 50.62597656 5.41703125 51.30273438 5 52 C4.34 52.99 3.68 53.98 3 55 C2.01 54.67 1.02 54.34 0 54 C0 36.18 0 18.36 0 0 Z " fill="#E03838" transform="translate(141,15)"/>
<path d="M0 0 C0 14.52 0 29.04 0 44 C-5.28 44 -10.56 44 -16 44 C-18 42 -18 42 -18.22705078 38.28466797 C-18.22673351 36.68713948 -18.21539982 35.08958973 -18.1953125 33.4921875 C-18.1924826 32.65156769 -18.18965271 31.81094788 -18.18673706 30.94485474 C-18.1755243 28.25475954 -18.15041803 25.5649949 -18.125 22.875 C-18.1149716 21.05339022 -18.10584551 19.23177523 -18.09765625 17.41015625 C-18.07558142 12.93997642 -18.04104434 8.47004429 -18 4 C-15.18781196 3.33199351 -12.37527358 2.66553236 -9.5625 2 C-8.76005859 1.80921875 -7.95761719 1.6184375 -7.13085938 1.421875 C-1.11328125 0 -1.11328125 0 0 0 Z " fill="#595A5A" transform="translate(63,453)"/>
<path d="M0 0 C3.439595 1.30832158 6.61369994 2.80736381 9.81640625 4.6171875 C10.73671631 5.13643799 11.65702637 5.65568848 12.60522461 6.19067383 C13.58112549 6.74650146 14.55702637 7.3023291 15.5625 7.875 C16.56869385 8.44565186 17.5748877 9.01630371 18.61157227 9.60424805 C28.50518859 15.24079457 38.2737291 21.08029288 48 27 C46.77207194 30.89733689 45.65575614 33.86137911 43 37 C39.09147901 36.41516427 36.31618521 35.24371234 32.9296875 33.2265625 C31.95902344 32.65373535 30.98835938 32.0809082 29.98828125 31.49072266 C28.96089844 30.87503418 27.93351562 30.2593457 26.875 29.625 C24.72676262 28.3538284 22.57832222 27.08299986 20.4296875 25.8125 C19.35557617 25.17441406 18.28146484 24.53632813 17.17480469 23.87890625 C12.46919679 21.09404325 7.73608453 18.35760276 3 15.625 C1.43744918 14.72144205 -0.1250562 13.81780549 -1.6875 12.9140625 C-2.780625 12.28242188 -3.87375 11.65078125 -5 11 C-3.51911112 7.22051404 -1.84952557 3.6149818 0 0 Z " fill="#E0E0E0" transform="translate(436,155)"/>
<path d="M0 0 C4.25790765 1.29386544 7.90413406 2.92188103 11.74609375 5.16015625 C12.82455566 5.785271 13.90301758 6.41038574 15.01416016 7.05444336 C16.1438623 7.71710205 17.27356445 8.37976074 18.4375 9.0625 C19.60443651 9.74199312 20.77159248 10.42110947 21.93896484 11.09985352 C30.33759664 15.99128947 38.69863846 20.94521055 47 26 C46.27031096 30.50871015 44.67844067 33.28474359 42 37 C33.74703398 32.997229 25.77020351 28.66581059 17.875 24 C16.86824219 23.40960938 15.86148437 22.81921875 14.82421875 22.2109375 C12.83930265 21.04515236 10.85711326 19.87470983 8.87792969 18.69921875 C6.9502894 17.56108027 5.0132273 16.43875865 3.06738281 15.33203125 C1.70758301 14.54892578 1.70758301 14.54892578 0.3203125 13.75 C-0.48905762 13.29109375 -1.29842773 12.8321875 -2.13232422 12.359375 C-4 11 -4 11 -5 8 C-4.00390625 5.95703125 -4.00390625 5.95703125 -2.5625 3.8125 C-2.08941406 3.09707031 -1.61632812 2.38164062 -1.12890625 1.64453125 C-0.75636719 1.10183594 -0.38382812 0.55914062 0 0 Z " fill="#C7C7C7" transform="translate(423,179)"/>
<path d="M0 0 C1.875 1.5 1.875 1.5 3 3 C2.01 3.33 1.02 3.66 0 4 C-0.77415434 5.90077363 -0.77415434 5.90077363 -1.125 8.1875 C-1.27195312 8.94417969 -1.41890625 9.70085937 -1.5703125 10.48046875 C-1.71210938 11.31191406 -1.85390625 12.14335937 -2 13 C-2.18175781 13.93714844 -2.36351562 14.87429688 -2.55078125 15.83984375 C-3.05566767 19.39160993 -3.09633048 22.78896938 -3.0625 26.375 C-3.04896484 28.24285156 -3.04896484 28.24285156 -3.03515625 30.1484375 C-3.02355469 31.08945312 -3.01195312 32.03046875 -3 33 C-4.6510403 32.60446947 -6.2958515 32.18286103 -7.9375 31.75 C-8.85402344 31.51796875 -9.77054687 31.2859375 -10.71484375 31.046875 C-13 30 -13 30 -13.66674805 28.2668457 C-14.34487153 23.65411561 -13.43929755 19.03370353 -12.875 14.4375 C-12.76929688 13.38369141 -12.66359375 12.32988281 -12.5546875 11.24414062 C-11.61245826 3.55417594 -11.61245826 3.55417594 -8.578125 0.80859375 C-5.49053508 -0.15978673 -3.21526368 -0.41938222 0 0 Z " fill="#E4B787" transform="translate(306,397)"/>
<path d="M0 0 C7.34865985 0.38677157 13.07023557 5.04682371 19 9 C17.60228167 12.33260604 16.10401673 13.95439429 13.15625 16.015625 C12.40472656 16.54414063 11.65320313 17.07265625 10.87890625 17.6171875 C10.09386719 18.15601563 9.30882812 18.69484375 8.5 19.25 C7.71496094 19.80429687 6.92992187 20.35859375 6.12109375 20.9296875 C0.27628541 25 0.27628541 25 -2 25 C-1.03644647 8.29157175 -1.03644647 8.29157175 0 0 Z " fill="#585959" transform="translate(290,442)"/>
<path d="M0 0 C0.70189453 0.00451172 1.40378906 0.00902344 2.12695312 0.01367188 C3.85550538 0.02543073 5.58401365 0.04336546 7.3125 0.0625 C4.47824568 2.28288357 1.58316458 4.06817509 -1.5625 5.8125 C-8.04963957 9.66274631 -12.08780414 14.46305759 -15.6875 21.0625 C-19.14675163 19.8133258 -21.83443203 18.38722205 -24.6875 16.0625 C-22.10524169 8.53091326 -17.52059208 4.71055737 -10.6875 1.0625 C-7.06882441 -0.1437252 -3.76243749 -0.04566918 0 0 Z " fill="#E23838" transform="translate(469.6875,125.9375)"/>
<path d="M0 0 C4.50802601 1.25805377 7.4912812 2.90407165 11 6 C10.38125 6.04125 9.7625 6.0825 9.125 6.125 C8.42375 6.41375 7.7225 6.7025 7 7 C5.82917122 9.92914165 5.82917122 9.92914165 5 13 C4.34 13.66 3.68 14.32 3 15 C0.36 13.35 -2.28 11.7 -5 10 C-3.84414715 6.08788267 -2.64465038 3.1254959 0 0 Z " fill="#B5B4B4" transform="translate(423,179)"/>
<path d="M0 0 C3.7910119 1.44950455 7.3874638 3.15172566 11 5 C10.07265428 6.48555383 9.13275187 7.96327506 8.1875 9.4375 C7.40439453 10.67306641 7.40439453 10.67306641 6.60546875 11.93359375 C5 14 5 14 2 15 C-0.51698632 13.92745123 -2.66805545 12.45196548 -5 11 C-3.55049545 7.2089881 -1.84827434 3.6125362 0 0 Z " fill="#C4C4C4" transform="translate(436,155)"/>
<path d="M0 0 C4.1386803 1.03467008 6.55025148 2.56949536 10 5 C8.51697598 9.44907205 4.91714499 11.74579392 1 14 C0.34 14 -0.32 14 -1 14 C-0.67 9.38 -0.34 4.76 0 0 Z " fill="#626262" transform="translate(299,446)"/>
</svg>
