<?xml version="1.0" encoding="UTF-8"?>
<svg version="1.1" xmlns="http://www.w3.org/2000/svg" width="512" height="512">
<path d="M0 0 C1.32451172 -0.08121094 1.32451172 -0.08121094 2.67578125 -0.1640625 C11.20719215 2.07114503 18.40190774 12.19223702 24.4609375 18.265625 C25.47589817 19.27991046 26.49100711 20.29404757 27.5062561 21.30804443 C29.61728738 23.41761234 31.72652677 25.52895078 33.83447266 27.64160156 C36.53445118 30.34731339 39.23894484 33.04846082 41.94476891 35.74832535 C44.03463524 37.83458039 46.12211693 39.92320834 48.20888138 42.01256561 C49.2056913 43.01004133 50.20324106 44.00677829 51.20154953 45.00275421 C52.59170165 46.39036652 53.97830699 47.78152937 55.36474609 49.17285156 C56.15336029 49.96226135 56.94197449 50.75167114 57.75448608 51.56500244 C60.96342244 54.9847404 62.03099616 57.18911564 62.1875 61.8125 C62.2390625 62.71355469 62.290625 63.61460938 62.34375 64.54296875 C60.52811728 73.06995811 51.87164075 79.63534132 45.87890625 85.453125 C44.46423944 86.84535509 43.04958662 88.23759977 41.63579464 89.63071823 C38.17628191 93.03700615 34.7061936 96.43237972 31.22680664 99.81835938 C29.26191276 101.73138751 27.30374696 103.65085039 25.3525238 105.57781982 C23.51993467 107.3868531 21.67726919 109.18574514 19.8238678 110.97344971 C19.00228683 111.78819763 18.18070587 112.60294556 17.33422852 113.44238281 C16.60397964 114.15549622 15.87373077 114.86860962 15.12135315 115.60333252 C13.43784876 117.50790416 13.43784876 117.50790416 13.90304565 119.77636719 C14.71331512 121.68583551 15.60388339 123.40498243 16.69140625 125.171875 C17.09842773 125.84371826 17.50544922 126.51556152 17.92480469 127.20776367 C18.36211914 127.92295166 18.79943359 128.63813965 19.25 129.375 C24.1742217 137.59470317 28.60616754 145.95787509 32.6875 154.625 C33.19796875 155.70394531 33.7084375 156.78289062 34.234375 157.89453125 C42.37089812 175.98298453 48.00658059 195.16463536 51.6875 214.625 C51.85121094 215.4396875 52.01492188 216.254375 52.18359375 217.09375 C57.56499752 244.84578265 57.44735618 277.95388498 51.6875 305.625 C51.38948486 307.08945557 51.38948486 307.08945557 51.08544922 308.58349609 C41.3405295 355.16202249 20.80400212 397.27448744 -11.90234375 432.00390625 C-14.32395548 434.57342207 -14.32395548 434.57342207 -16.40625 437.265625 C-18.12089404 439.38784837 -19.79388239 441.06400162 -21.875 442.8125 C-25.10672598 445.56391441 -28.21747916 448.4083 -31.3125 451.3125 C-42.92732007 461.86997093 -55.81165471 470.66954061 -69.3125 478.625 C-70.02132324 479.04523438 -70.73014648 479.46546875 -71.46044922 479.8984375 C-96.41157645 494.57230158 -123.89897181 504.25059364 -152.3125 509.625 C-153.1271875 509.78871094 -153.941875 509.95242188 -154.78125 510.12109375 C-182.53328265 515.50249752 -215.64138498 515.38485618 -243.3125 509.625 C-244.28880371 509.42632324 -245.26510742 509.22764648 -246.27099609 509.02294922 C-292.84952249 499.2780295 -334.96198744 478.74150212 -369.69140625 446.03515625 C-372.26092207 443.61354452 -372.26092207 443.61354452 -374.953125 441.53125 C-377.07534837 439.81660596 -378.75150162 438.14361761 -380.5 436.0625 C-383.25141441 432.83077402 -386.0958 429.72002084 -389 426.625 C-419.5106002 393.02179736 -438.92354726 349.97589744 -447.3125 305.625 C-447.47621094 304.8103125 -447.63992188 303.995625 -447.80859375 303.15625 C-453.18999752 275.40421735 -453.07235618 242.29611502 -447.3125 214.625 C-447.11382324 213.64869629 -446.91514648 212.67239258 -446.71044922 211.66650391 C-436.96261318 165.07403818 -416.42532237 124.01203262 -384.30078125 88.8359375 C-382.7164618 87.07419917 -381.21859002 85.29411213 -379.75 83.4375 C-377.21427957 80.51166873 -374.53060067 78.09116544 -371.5859375 75.58984375 C-369.09571515 73.43764127 -366.71249575 71.18974826 -364.3125 68.9375 C-352.69767993 58.38002907 -339.81334529 49.58045939 -326.3125 41.625 C-325.60367676 41.20476563 -324.89485352 40.78453125 -324.16455078 40.3515625 C-299.21342355 25.67769842 -271.72602819 15.99940636 -243.3125 10.625 C-242.4978125 10.46128906 -241.683125 10.29757812 -240.84375 10.12890625 C-213.09171735 4.74750248 -179.98361502 4.86514382 -152.3125 10.625 C-150.84804443 10.92301514 -150.84804443 10.92301514 -149.35400391 11.22705078 C-118.35374201 17.71276613 -85.54805539 28.28880442 -60.0390625 47.76171875 C-58.35795661 48.79537979 -58.35795661 48.79537979 -56.48045349 48.43551636 C-53.58059035 47.35136648 -52.0683105 45.725998 -49.89868164 43.52001953 C-48.60197289 42.21328781 -48.60197289 42.21328781 -47.27906799 40.88015747 C-46.34359211 39.92271432 -45.40812167 38.96526587 -44.47265625 38.0078125 C-43.50466605 37.0291403 -42.53585751 36.05127689 -41.56626892 35.07418823 C-39.01535064 32.50049157 -36.47269331 29.91880606 -33.93255615 27.33447266 C-29.87214297 23.2038905 -25.80436371 19.08069082 -21.72714043 14.96670151 C-20.30850914 13.53143916 -18.89651303 12.08987546 -17.48487854 10.6477356 C-16.61725388 9.77027679 -15.74962921 8.89281799 -14.85571289 7.98876953 C-13.7179818 6.83080368 -13.7179818 6.83080368 -12.55726624 5.64944458 C-8.62614071 2.10415526 -5.32940344 0.1696771 0 0 Z " fill="#E7F3FC" transform="translate(450.3125,-0.625)"/>
<path d="M0 0 C0.97630371 0.19867676 1.95260742 0.39735352 2.95849609 0.60205078 C36.48659456 7.61662709 67.47613071 20.02597241 96 39 C94.54599304 42.32549702 92.71465258 44.55753516 90.18041992 47.1418457 C89.39587936 47.94560135 88.61133881 48.74935699 87.80302429 49.57746887 C86.95408096 50.43491196 86.10513763 51.29235504 85.23046875 52.17578125 C84.35731522 53.06033493 83.48416168 53.94488861 82.58454895 54.85624695 C80.73718562 56.72249238 78.88690393 58.58585282 77.03393555 60.4465332 C75.13222543 62.35705697 73.2405332 64.2767044 71.35717773 66.20532227 C68.64201551 68.9811638 65.90776079 71.73677242 63.16796875 74.48828125 C62.32509811 75.35584549 61.48222748 76.22340973 60.61381531 77.11726379 C59.42281975 78.29925606 59.42281975 78.29925606 58.20776367 79.50512695 C57.51430344 80.20587845 56.8208432 80.90662994 56.10636902 81.62861633 C54 83 54 83 51.4132843 82.81193542 C48.30026521 81.76457831 45.70859413 80.22715282 42.875 78.5625 C19.56333377 65.64073337 -8.02148276 57.99132274 -34.703125 57.76171875 C-35.62099792 57.753647 -36.53887085 57.74557526 -37.48455811 57.73725891 C-39.42425696 57.72349017 -41.36397931 57.71273612 -43.30371094 57.70483398 C-45.24649389 57.69340396 -47.18924773 57.67309778 -49.13183594 57.64331055 C-62.11968048 57.44487899 -74.1202517 58.45247828 -86.76763916 61.47091675 C-89.09639111 62.02284529 -91.43223669 62.53144397 -93.77148438 63.03686523 C-96.84244809 63.71751029 -99.82039536 64.48733731 -102.796875 65.515625 C-103.60358643 65.79398193 -104.41029785 66.07233887 -105.24145508 66.35913086 C-106.0692749 66.65311768 -106.89709473 66.94710449 -107.75 67.25 C-108.62615967 67.5601001 -109.50231934 67.8702002 -110.4050293 68.18969727 C-117.47605124 70.73406812 -124.28841472 73.61064943 -131 77 C-132.175625 77.58265625 -133.35125 78.1653125 -134.5625 78.765625 C-149.44385823 86.30686703 -162.52581508 95.98645316 -175 107 C-175.84433594 107.721875 -176.68867188 108.44375 -177.55859375 109.1875 C-182.50544004 113.45863879 -186.8704481 117.93796864 -191 123 C-191.40476562 123.49242187 -191.80953125 123.98484375 -192.2265625 124.4921875 C-199.14314329 132.94578625 -205.33407436 141.66526284 -211 151 C-211.68964844 152.12019531 -212.37929687 153.24039063 -213.08984375 154.39453125 C-218.3589654 163.24382384 -222.37983527 172.36766116 -226 182 C-226.27086426 182.70608398 -226.54172852 183.41216797 -226.82080078 184.13964844 C-231.35965449 196.12441623 -233.72879764 208.17712784 -235.61450195 220.83374023 C-236 223 -236 223 -237 226 C-237.10469988 227.33011725 -237.15830984 228.66467864 -237.17700195 229.9987793 C-237.19598289 231.20484329 -237.19598289 231.20484329 -237.21534729 232.43527222 C-237.2229155 233.30612457 -237.2304837 234.17697693 -237.23828125 235.07421875 C-237.24798447 235.98229279 -237.25768768 236.89036682 -237.26768494 237.82595825 C-237.29273177 240.77984995 -237.30522967 243.73351251 -237.3125 246.6875 C-237.31642761 248.18837662 -237.31642761 248.18837662 -237.32043457 249.71957397 C-237.32470157 264.87549429 -236.59371654 279.21469192 -233 294 C-232.8345166 294.73331543 -232.6690332 295.46663086 -232.49853516 296.22216797 C-230.54163957 304.87360137 -227.60931755 312.9066835 -224 321 C-223.47782222 322.24498704 -222.95843367 323.49114653 -222.44140625 324.73828125 C-216.0527664 340.00149345 -208.01058231 353.83359499 -198 367 C-197.32839844 367.8971875 -196.65679687 368.794375 -195.96484375 369.71875 C-181.24468999 388.5514708 -162.77812248 404.25162234 -142 416 C-141.38253906 416.35513672 -140.76507813 416.71027344 -140.12890625 417.07617188 C-118.39706009 429.49129587 -95.56636539 436.07637908 -71 440 C-69.93072266 440.17418457 -68.86144531 440.34836914 -67.75976562 440.52783203 C-63.82412041 441.02208774 -59.96271556 441.16168542 -56.00390625 441.16796875 C-55.25270004 441.17129715 -54.50149384 441.17462555 -53.7275238 441.17805481 C-52.14167893 441.18309269 -50.55582357 441.18546411 -48.9699707 441.18530273 C-46.60023375 441.18746556 -44.23098151 441.20558891 -41.86132812 441.22460938 C-31.74181957 441.26177559 -22.00921931 440.52086244 -12 439 C-10.79190674 438.81896729 -9.58381348 438.63793457 -8.33911133 438.45141602 C38.17946145 431.01339128 82.49026705 401.24654797 109.90625 363.47265625 C119.71296842 349.50860739 127.5502785 334.78138086 134 319 C134.26393555 318.35869141 134.52787109 317.71738281 134.79980469 317.05664062 C138.45969902 307.99827867 140.60768569 298.70317444 142.54443359 289.16162109 C142.84885674 287.71716101 143.17487915 286.27708984 143.52197266 284.84228516 C150.6991507 255.01358861 147.33847936 218.53420304 137 190 C136.63261719 188.87464844 136.26523437 187.74929687 135.88671875 186.58984375 C131.75494167 174.22290961 125.82865999 162.63654045 120 151 C120.51143051 150.4907901 121.02286102 149.9815802 121.54978943 149.4569397 C126.36415231 144.66259641 131.17612082 139.86586187 135.98539639 135.06641579 C138.45809943 132.59893601 140.93172604 130.132397 143.4074707 127.66796875 C146.25227099 124.83609091 149.09303645 122.00019636 151.93359375 119.1640625 C152.82525742 118.27756012 153.71692108 117.39105774 154.63560486 116.47769165 C155.45638016 115.65699188 156.27715546 114.83629211 157.12280273 113.99072266 C157.84894272 113.26680328 158.5750827 112.54288391 159.32322693 111.79702759 C161.07105327 110.09390763 161.07105327 110.09390763 162 108 C162.99 108 163.98 108 165 108 C166.69140625 110.2109375 166.69140625 110.2109375 168.5625 113.375 C168.90474609 113.9529834 169.24699219 114.5309668 169.59960938 115.12646484 C170.74589874 117.07710483 171.87259249 119.03839525 173 121 C173.60303955 122.02770508 173.60303955 122.02770508 174.21826172 123.07617188 C188.88230777 148.09637735 198.61346342 175.52234151 204 204 C204.16371094 204.8146875 204.32742188 205.629375 204.49609375 206.46875 C209.87749752 234.22078265 209.75985618 267.32888498 204 295 C203.70198486 296.46445557 203.70198486 296.46445557 203.39794922 297.95849609 C193.6530295 344.53702249 173.11650212 386.64948744 140.41015625 421.37890625 C137.98854452 423.94842207 137.98854452 423.94842207 135.90625 426.640625 C134.19160596 428.76284837 132.51861761 430.43900162 130.4375 432.1875 C127.20577402 434.93891441 124.09502084 437.7833 121 440.6875 C109.38517993 451.24497093 96.50084529 460.04454061 83 468 C82.29117676 468.42023438 81.58235352 468.84046875 80.85205078 469.2734375 C55.90092355 483.94730158 28.41352819 493.62559364 0 499 C-0.8146875 499.16371094 -1.629375 499.32742188 -2.46875 499.49609375 C-30.22078265 504.87749752 -63.32888498 504.75985618 -91 499 C-91.97630371 498.80132324 -92.95260742 498.60264648 -93.95849609 498.39794922 C-140.53702249 488.6530295 -182.64948744 468.11650212 -217.37890625 435.41015625 C-219.94842207 432.98854452 -219.94842207 432.98854452 -222.640625 430.90625 C-224.76284837 429.19160596 -226.43900162 427.51861761 -228.1875 425.4375 C-230.93891441 422.20577402 -233.7833 419.09502084 -236.6875 416 C-267.1981002 382.39679736 -286.61104726 339.35089744 -295 295 C-295.16371094 294.1853125 -295.32742188 293.370625 -295.49609375 292.53125 C-300.87749752 264.77921735 -300.75985618 231.67111502 -295 204 C-294.80132324 203.02369629 -294.60264648 202.04739258 -294.39794922 201.04150391 C-284.65011318 154.44903818 -264.11282237 113.38703262 -231.98828125 78.2109375 C-230.4039618 76.44919917 -228.90609002 74.66911213 -227.4375 72.8125 C-224.90177957 69.88666873 -222.21810067 67.46616544 -219.2734375 64.96484375 C-216.78321515 62.81264127 -214.39999575 60.56474826 -212 58.3125 C-200.38517993 47.75502907 -187.50084529 38.95545939 -174 31 C-173.29117676 30.57976563 -172.58235352 30.15953125 -171.85205078 29.7265625 C-146.90092355 15.05269842 -119.41352819 5.37440636 -91 0 C-90.1853125 -0.16371094 -89.370625 -0.32742188 -88.53125 -0.49609375 C-60.77921735 -5.87749752 -27.67111502 -5.75985618 0 0 Z " fill="#D13C75" transform="translate(298,10)"/>
<path d="M0 0 C-3.36742269 4.17158333 -6.83378392 7.82248903 -10.86328125 11.36328125 C-24.95027922 24.00111062 -31.58782296 35.61920699 -36 54 C-36.73524902 53.98952637 -37.47049805 53.97905273 -38.22802734 53.96826172 C-41.61031576 53.92628202 -44.99254907 53.9005417 -48.375 53.875 C-50.10943359 53.84986328 -50.10943359 53.84986328 -51.87890625 53.82421875 C-71.05861934 53.71585879 -88.50674233 60.04007811 -102.61328125 73.3515625 C-109.60154351 81.10613175 -114.60044087 90.15360853 -118 100 C-118.51240234 101.12728516 -118.51240234 101.12728516 -119.03515625 102.27734375 C-124.80361828 118.55514956 -120.91370381 138.15225559 -113.8125 153.3125 C-104.67891351 170.34122057 -91.14272004 180.46304974 -73.1796875 187.03125 C-56.2316139 192.12983482 -37.78878005 189.27263616 -22 182 C-18.21719609 179.82421064 -14.58214629 177.49099151 -11 175 C-11.61705811 174.42838135 -11.61705811 174.42838135 -12.24658203 173.84521484 C-13.49176858 172.68978391 -14.73552713 171.53281314 -15.97827148 170.37475586 C-17.42031859 169.03143642 -18.86519052 167.69114359 -20.31274414 166.35375977 C-23.96707008 162.95145631 -27.50623253 159.51413907 -30.86328125 155.81640625 C-31.4670459 155.16430176 -32.07081055 154.51219727 -32.69287109 153.84033203 C-33.83346694 152.59630684 -34.95109558 151.33072239 -36.04150391 150.04248047 C-37.64301305 148.31621698 -38.8995487 147.07082396 -41 146 C-43.47482954 146.07369552 -45.4766271 146.55109833 -47.82861328 147.31103516 C-53.73894817 149.18634043 -58.71372662 148.4206999 -64.25 145.8125 C-71.59177503 141.7501268 -77.13163828 135.60508517 -79.8125 127.5625 C-79.874375 126.716875 -79.93625 125.87125 -80 125 C-80.07347656 124.35546875 -80.14695312 123.7109375 -80.22265625 123.046875 C-80.73434143 115.54215901 -77.99076332 109.70715546 -73.3203125 103.91796875 C-69.33544251 99.71171709 -65.4183051 96.22617357 -59.40234375 95.828125 C-56.92599046 95.81419334 -54.47248504 95.86806898 -52 96 C-52.33 97.98 -52.66 99.96 -53 102 C-51.91912109 102.36351562 -51.91912109 102.36351562 -50.81640625 102.734375 C-43.86320314 105.85897667 -37.59605289 112.29826506 -34 119 C-34 119.66 -34 120.32 -34 121 C-26.58309584 118.3672262 -19.16674726 115.73289359 -11.75106049 113.09669304 C-8.30581725 111.87199664 -4.86040093 110.64779252 -1.41455078 109.42480469 C-0.7465596 109.18766439 -0.07856842 108.9505241 0.60966492 108.70619774 C1.94620409 108.23175756 3.28280243 107.75748403 4.61946106 107.28338051 C7.89487665 106.12058279 11.1679561 104.95184577 14.43676758 103.77059937 C24.87307605 100.0033621 24.87307605 100.0033621 29.984375 98.45166016 C40.92733325 95.03305392 47.3789989 88.83138234 55 80.625 C56.17726443 79.39741125 57.35694389 78.17213383 58.5390625 76.94921875 C61.38780545 73.99194204 64.20244246 71.00570914 67 68 C74.53194674 74.93493377 76.26977226 90.36684017 78 100 C78.18691406 101.02867187 78.37382812 102.05734375 78.56640625 103.1171875 C80.12568689 117.08047542 80.10284333 132.25633236 77 146 C76.71706772 147.37492182 76.43454599 148.74992816 76.15234375 150.125 C74.2978748 158.84457964 71.91459585 166.95111158 68 175 C67.68933594 175.63905273 67.37867188 176.27810547 67.05859375 176.93652344 C57.29506312 196.76985514 44.72882597 213.57935707 27 227 C26.25878906 227.58007812 25.51757812 228.16015625 24.75390625 228.7578125 C19.31569938 232.81054899 13.4779827 236.01561583 7.5 239.1875 C6.3253418 239.81192993 6.3253418 239.81192993 5.12695312 240.44897461 C-3.77518156 245.0751568 -12.65750812 248.44463867 -22.4375 250.6875 C-23.3641748 250.90172607 -24.29084961 251.11595215 -25.24560547 251.33666992 C-31.51242032 252.74700662 -37.56205467 253.87918065 -44 254 C-44.67708008 254.01901367 -45.35416016 254.03802734 -46.05175781 254.05761719 C-86.22116591 255.09809867 -119.60753668 241.05266855 -149 214 C-151.5705444 211.47741352 -153.81680584 208.86229834 -156 206 C-156.76570313 205.00871094 -157.53140625 204.01742187 -158.3203125 202.99609375 C-179.1986539 175.28763292 -189.62792915 140.79612977 -185.67480469 106.14990234 C-184.8015751 100.34218198 -183.48091505 94.67907192 -182 89 C-181.81808105 88.25959473 -181.63616211 87.51918945 -181.44873047 86.75634766 C-172.73484708 51.58153867 -148.51698651 23.85879795 -118.0625 5.25 C-111.31419823 1.43613265 -104.26458914 -1.36112073 -97 -4 C-95.97519531 -4.3815625 -94.95039063 -4.763125 -93.89453125 -5.15625 C-62.25939266 -15.96048879 -30.61234866 -11.14869715 0 0 Z " fill="#E23F7A" transform="translate(306,138)"/>
<path d="M0 0 C1.32451172 -0.08121094 1.32451172 -0.08121094 2.67578125 -0.1640625 C11.20719215 2.07114503 18.40190774 12.19223702 24.4609375 18.265625 C25.47589817 19.27991046 26.49100711 20.29404757 27.5062561 21.30804443 C29.61728738 23.41761234 31.72652677 25.52895078 33.83447266 27.64160156 C36.53445118 30.34731339 39.23894484 33.04846082 41.94476891 35.74832535 C44.03463524 37.83458039 46.12211693 39.92320834 48.20888138 42.01256561 C49.2056913 43.01004133 50.20324106 44.00677829 51.20154953 45.00275421 C52.59170165 46.39036652 53.97830699 47.78152937 55.36474609 49.17285156 C56.15336029 49.96226135 56.94197449 50.75167114 57.75448608 51.56500244 C60.96342244 54.9847404 62.03099616 57.18911564 62.1875 61.8125 C62.26484375 63.16408203 62.26484375 63.16408203 62.34375 64.54296875 C60.52336061 73.09229747 51.73601427 79.88327615 45.80078125 85.8125 C44.85225598 86.7649207 43.90395163 87.71756145 42.95585632 88.67041016 C40.98329982 90.65037185 39.00698736 92.62648811 37.02807617 94.60009766 C34.49084643 97.13148503 31.96527776 99.67417368 29.44253254 102.21998596 C27.49438637 104.18282877 25.53939538 106.13873869 23.58232689 108.09268188 C22.19365084 109.4821206 20.8115371 110.878108 19.42951965 112.27416992 C18.58822006 113.10924072 17.74692047 113.94431152 16.88012695 114.8046875 C15.77142998 115.91432861 15.77142998 115.91432861 14.64033508 117.04638672 C12.6875 118.625 12.6875 118.625 9.6875 118.625 C9.31990192 119.47349549 9.31990192 119.47349549 8.94487762 120.33913231 C7.45957465 123.03936016 5.69298288 124.96316467 3.56945801 127.19888306 C2.27276436 128.56906837 2.27276436 128.56906837 0.94987488 129.9669342 C-0.01170422 130.97247775 -0.97351955 131.97779544 -1.93554688 132.98291016 C-2.94848319 134.04770098 -3.96122959 135.1126725 -4.97380066 136.17781067 C-14.33755425 146.00814612 -23.80790919 155.73631619 -33.30396271 165.43871498 C-39.65947412 171.93557495 -45.98183276 178.45846774 -52.22607422 185.0625 C-81.2713279 215.74626844 -105.39238533 240.17024645 -147.76391602 250.18572998 C-154.8381656 251.91573576 -161.59093751 254.48412812 -168.38349152 257.0857296 C-169.24883263 257.41552629 -170.11417374 257.74532299 -171.0057373 258.08511353 C-171.76710747 258.38223047 -172.52847763 258.67934742 -173.31291962 258.98546791 C-175.3125 259.625 -175.3125 259.625 -178.3125 259.625 C-179.6015625 257.9375 -179.6015625 257.9375 -180.9375 255.625 C-184.9699882 249.24358742 -190.35794632 243.75612259 -197.3125 240.625 C-196.8175 237.655 -196.8175 237.655 -196.3125 234.625 C-204.561156 234.81093282 -210.01980766 236.53672158 -216.03515625 242.265625 C-221.16892371 247.86609859 -223.88068263 253.61848377 -223.60546875 261.28515625 C-222.88166792 267.06591219 -221.07721602 272.14319521 -217.3125 276.625 C-217.3125 277.285 -217.3125 277.945 -217.3125 278.625 C-216.74917969 278.90085937 -216.18585938 279.17671875 -215.60546875 279.4609375 C-214.06783351 280.24154278 -212.54896222 281.06017697 -211.05078125 281.9140625 C-205.26910362 285.09817482 -200.88980308 286.55143888 -194.3125 285.625 C-193.6539502 285.33890869 -192.99540039 285.05281738 -192.31689453 284.75805664 C-189.72907399 283.69242933 -188.11753567 283.34825211 -185.3125 283.625 C-180.85439409 286.69605176 -177.36103573 290.63394828 -173.75 294.625 C-171.77953471 296.73866119 -169.79430449 298.83816956 -167.80859375 300.9375 C-167.33690765 301.44200684 -166.86522156 301.94651367 -166.37924194 302.46630859 C-162.65721699 306.40104162 -158.77234969 309.57045372 -154.3125 312.625 C-163.35532643 322.51771614 -178.19831864 327.87088336 -191.41381836 328.76757812 C-211.94891173 329.65636653 -228.9569724 324.66490696 -244.81640625 310.9921875 C-258.32412757 298.18204803 -266.18166972 280.5427225 -266.6809082 261.95678711 C-266.73839941 242.71000764 -260.21067365 225.13902279 -246.90234375 211.01171875 C-232.92119576 198.12713139 -216.86782824 191.37890261 -197.875 191.5 C-196.76620483 191.50290039 -196.76620483 191.50290039 -195.63500977 191.50585938 C-190.46483846 191.54677972 -185.43434919 191.88000375 -180.3125 192.625 C-180.10625 191.490625 -179.9 190.35625 -179.6875 189.1875 C-176.31178603 174.61561682 -171.95613368 164.60094774 -161.18579102 154.26538086 C-160.06089749 153.14524362 -158.93845042 152.02264512 -157.8182373 150.89782715 C-154.8071081 147.88779943 -151.76366431 144.91259448 -148.71281171 141.94290996 C-145.50742453 138.81077667 -142.33426263 135.646315 -139.15745544 132.48524475 C-133.14568347 126.5126321 -127.10689575 120.56816329 -121.05718035 114.63401276 C-113.51977209 107.23812635 -106.01611768 99.80827649 -98.51367188 92.37695312 C-95.87708782 89.76552872 -93.24032096 87.15428923 -90.60325623 84.54335022 C-89.96392448 83.91032834 -89.32459273 83.27730646 -88.6658873 82.6251021 C-84.2803615 78.28484451 -79.88486594 73.95485446 -75.48524475 69.62889099 C-73.73353453 67.90445851 -71.98205002 66.17979714 -70.23065948 64.45503998 C-69.14290237 63.38500862 -68.05417358 62.31596391 -66.96436119 61.24802589 C-61.69970485 56.08890958 -56.53937624 50.90228031 -51.74768353 45.29454327 C-49.89352036 43.13760265 -47.93051369 41.10899094 -45.92529297 39.0925293 C-45.14113007 38.30198654 -44.35696716 37.51144379 -43.54904175 36.69694519 C-42.3143364 35.4605706 -42.3143364 35.4605706 -41.0546875 34.19921875 C-40.1886087 33.32981155 -39.32252991 32.46040436 -38.4302063 31.56465149 C-36.61119367 29.74060547 -34.7908501 27.91788585 -32.96923828 26.09643555 C-30.18363859 23.30863554 -27.40615157 20.51291668 -24.62890625 17.71679688 C-22.85465639 15.93961512 -21.07993319 14.16290576 -19.3046875 12.38671875 C-18.06390945 11.13516243 -18.06390945 11.13516243 -16.79806519 9.85832214 C-15.63127731 8.69614922 -15.63127731 8.69614922 -14.44091797 7.51049805 C-13.76253876 6.83069382 -13.08415955 6.15088959 -12.38522339 5.45048523 C-8.5001001 2.02878641 -5.20817564 0.16581746 0 0 Z " fill="#FEB24E" transform="translate(450.3125,-0.625)"/>
<path d="M0 0 C4.53966697 2.0823255 7.6817629 4.49944849 10 9 C10.85662898 15.43672615 10.15644655 21.6443227 9 28 C9.9178125 27.89300781 10.835625 27.78601563 11.78125 27.67578125 C20.83482829 26.79134556 26.89992962 26.67579747 34.3125 32.375 C39.41156747 37.3554845 40.52228119 41.19362535 41.015625 48.1953125 C40.99384084 52.10556861 40.19127973 55.28601027 39 59 C40.0725 58.835 41.145 58.67 42.25 58.5 C43.83192873 58.32049036 45.415534 58.15553041 47 58 C47.96421875 57.896875 48.9284375 57.79375 49.921875 57.6875 C55.67804517 57.33687035 59.23264429 57.50798943 63.75 61.3125 C65.671875 63.17578125 65.671875 63.17578125 67 65 C67 65.99 67 66.98 67 68 C66.35901367 68.22470978 65.71802734 68.44941956 65.05761719 68.68093872 C58.94007863 70.82590474 52.82313675 72.9725632 46.70681763 75.1210041 C43.5642977 76.22479384 40.42150765 77.32779868 37.27832031 78.4296875 C33.64331021 79.70411335 30.00894237 80.98034541 26.375 82.2578125 C25.20171143 82.67009094 24.02842285 83.08236938 22.81958008 83.50714111 C15.10078934 86.23002993 7.43249574 89.05670948 -0.19140625 92.03466797 C-3 93 -3 93 -6 93 C-7.2890625 91.3125 -7.2890625 91.3125 -8.625 89 C-12.6574882 82.61858742 -18.04544632 77.13112259 -25 74 C-24.67 72.02 -24.34 70.04 -24 68 C-32.248656 68.18593282 -37.70730766 69.91172158 -43.72265625 75.640625 C-48.85642371 81.24109859 -51.56818263 86.99348377 -51.29296875 94.66015625 C-50.56916792 100.44091219 -48.76471602 105.51819521 -45 110 C-45 110.66 -45 111.32 -45 112 C-44.43667969 112.27585937 -43.87335938 112.55171875 -43.29296875 112.8359375 C-41.75533351 113.61654278 -40.23646222 114.43517697 -38.73828125 115.2890625 C-32.95660362 118.47317482 -28.57730308 119.92643888 -22 119 C-21.3414502 118.71390869 -20.68290039 118.42781738 -20.00439453 118.13305664 C-17.41657399 117.06742933 -15.80503567 116.72325211 -13 117 C-8.54189409 120.07105176 -5.04853573 124.00894828 -1.4375 128 C0.53296529 130.11366119 2.51819551 132.21316956 4.50390625 134.3125 C4.97559235 134.81700684 5.44727844 135.32151367 5.93325806 135.84130859 C9.65528301 139.77604162 13.54015031 142.94545372 18 146 C8.95717357 155.89271614 -5.88581864 161.24588336 -19.10131836 162.14257812 C-39.63641173 163.03136653 -56.6444724 158.03990696 -72.50390625 144.3671875 C-86.01162757 131.55704803 -93.86916972 113.9177225 -94.3684082 95.33178711 C-94.42589941 76.08500764 -87.89817365 58.51402279 -74.58984375 44.38671875 C-60.60869576 31.50213139 -44.55532824 24.75390261 -25.5625 24.875 C-24.45370483 24.87790039 -24.45370483 24.87790039 -23.32250977 24.88085938 C-18.15233846 24.92177972 -13.12184919 25.25500375 -8 26 C-7.690625 24.2984375 -7.690625 24.2984375 -7.375 22.5625 C-5.68351233 14.82643138 -2.71054009 7.42415226 0 0 Z " fill="#F0F8FE" transform="translate(278,166)"/>
<path d="M0 0 C7.53194674 6.93493377 9.26977226 22.36684017 11 32 C11.28037109 33.54300781 11.28037109 33.54300781 11.56640625 35.1171875 C13.12568689 49.08047542 13.10284333 64.25633236 10 78 C9.71706772 79.37492182 9.43454599 80.74992816 9.15234375 82.125 C7.2978748 90.84457964 4.91459585 98.95111158 1 107 C0.68933594 107.63905273 0.37867188 108.27810547 0.05859375 108.93652344 C-7.53316891 124.3581934 -18.30956682 144.57730786 -34 153 C-34.40552094 152.52301666 -34.81104187 152.04603333 -35.22885132 151.55459595 C-39.80098786 146.24518679 -44.62139044 141.26155338 -49.6015625 136.3359375 C-50.40105316 135.54023346 -51.20054382 134.74452942 -52.02426147 133.92471313 C-54.55540914 131.4056814 -57.08978274 128.88993552 -59.625 126.375 C-62.97427798 123.05240443 -66.32017116 119.7264532 -69.6640625 116.3984375 C-70.42562653 115.64517181 -71.18719055 114.89190613 -71.97183228 114.11581421 C-75.03788006 111.06387605 -78.04679441 108.03477076 -80.78442383 104.68188477 C-82.680819 102.38635849 -84.49411526 100.56799061 -86.78515625 98.69140625 C-89.79715058 96.12715035 -92.51549782 93.44800367 -95.18359375 90.52734375 C-95.88419922 89.77388672 -96.58480469 89.02042969 -97.30664062 88.24414062 C-98.74305244 86.68923471 -100.15950385 85.11567995 -101.55664062 83.52539062 C-103.62225375 81.34217602 -105.42293278 79.55037697 -108 78 C-111.33010868 77.91370301 -113.90549695 78.88172153 -117 80 C-124.43437503 81.00642378 -129.7216953 78.99428172 -136 75 C-140.87640752 70.99050937 -144.80366877 65.5889937 -146.8125 59.5625 C-146.874375 58.716875 -146.93625 57.87125 -147 57 C-147.07347656 56.35546875 -147.14695313 55.7109375 -147.22265625 55.046875 C-147.73434143 47.54215901 -144.99076332 41.70715546 -140.3203125 35.91796875 C-136.33544251 31.71171709 -132.4183051 28.22617357 -126.40234375 27.828125 C-123.92599046 27.81419334 -121.47248504 27.86806898 -119 28 C-119.33 29.98 -119.66 31.96 -120 34 C-119.27941406 34.24234375 -118.55882812 34.4846875 -117.81640625 34.734375 C-110.86320314 37.85897667 -104.59605289 44.29826506 -101 51 C-101 51.66 -101 52.32 -101 53 C-93.58309584 50.3672262 -86.16674726 47.73289359 -78.75106049 45.09669304 C-75.30581725 43.87199664 -71.86040093 42.64779252 -68.41455078 41.42480469 C-67.7465596 41.18766439 -67.07856842 40.9505241 -66.39033508 40.70619774 C-65.05379591 40.23175756 -63.71719757 39.75748403 -62.38053894 39.28338051 C-59.10512335 38.12058279 -55.8320439 36.95184577 -52.56323242 35.77059937 C-42.12692395 32.0033621 -42.12692395 32.0033621 -37.015625 30.45166016 C-26.07266675 27.03305392 -19.6210011 20.83138234 -12 12.625 C-10.82273557 11.39741125 -9.64305611 10.17213383 -8.4609375 8.94921875 C-5.61219455 5.99194204 -2.79755754 3.00570914 0 0 Z " fill="#77355E" transform="translate(373,206)"/>
<path d="M0 0 C-0.33 1.98 -0.66 3.96 -1 6 C-0.27941406 6.24234375 0.44117188 6.4846875 1.18359375 6.734375 C8.13679686 9.85897667 14.40394711 16.29826506 18 23 C18 23.66 18 24.32 18 25 C18.5593222 24.79955078 19.11864441 24.59910156 19.69491577 24.39257812 C25.50066389 22.31261678 31.30796905 20.23704959 37.11621094 18.1640625 C39.28556174 17.38915505 41.45450883 16.6131165 43.62304688 15.8359375 C46.73462947 14.72100114 49.84762676 13.6101001 52.9609375 12.5 C53.934935 12.15001953 54.9089325 11.80003906 55.91244507 11.43945312 C57.26361923 10.95895508 57.26361923 10.95895508 58.64208984 10.46875 C59.43706879 10.18451172 60.23204773 9.90027344 61.05111694 9.60742188 C63 9 63 9 65 9 C66.58498968 14.59778102 67.32766761 19.56785264 67.25 25.375 C67.23876099 26.49406738 67.23876099 26.49406738 67.22729492 27.63574219 C66.8711498 45.94836622 59.04378026 63.11765266 46 76 C43 78 43 78 41.17578125 77.9453125 C37.96464856 76.55017047 35.68563698 74.26263366 33.1875 71.875 C32.62708008 71.35599121 32.06666016 70.83698242 31.48925781 70.30224609 C28.22964755 67.24983725 25.13724729 64.09736861 22.12890625 60.796875 C21.48219971 60.10352051 20.83549316 59.41016602 20.16918945 58.69580078 C18.90962714 57.33673609 17.67386369 55.95514005 16.46557617 54.55029297 C14.7075959 52.66884739 13.26224338 51.23528316 11 50 C8.48206745 50.02486649 6.52980346 50.48981959 4.1472168 51.28686523 C-1.7213409 53.23593369 -6.74546858 52.40574591 -12.25 49.8125 C-19.59177503 45.7501268 -25.13163828 39.60508517 -27.8125 31.5625 C-27.874375 30.716875 -27.93625 29.87125 -28 29 C-28.07347656 28.35546875 -28.14695313 27.7109375 -28.22265625 27.046875 C-28.73434143 19.54215901 -25.99076332 13.70715546 -21.3203125 7.91796875 C-14.81034348 1.04633478 -9.29377945 -0.49591313 0 0 Z " fill="#76ABCE" transform="translate(254,234)"/>
<path d="M0 0 C4.53966697 2.0823255 7.6817629 4.49944849 10 9 C10.85662898 15.43672615 10.15644655 21.6443227 9 28 C9.9178125 27.89300781 10.835625 27.78601563 11.78125 27.67578125 C20.83482829 26.79134556 26.89992962 26.67579747 34.3125 32.375 C39.41156747 37.3554845 40.52228119 41.19362535 41.015625 48.1953125 C40.99384084 52.10556861 40.19127973 55.28601027 39 59 C40.0725 58.835 41.145 58.67 42.25 58.5 C43.83192873 58.32049036 45.415534 58.15553041 47 58 C48.44632813 57.8453125 48.44632813 57.8453125 49.921875 57.6875 C55.67804517 57.33687035 59.23264429 57.50798943 63.75 61.3125 C65.671875 63.17578125 65.671875 63.17578125 67 65 C67 65.99 67 66.98 67 68 C66.35901367 68.22470978 65.71802734 68.44941956 65.05761719 68.68093872 C58.94007863 70.82590474 52.82313675 72.9725632 46.70681763 75.1210041 C43.5642977 76.22479384 40.42150765 77.32779868 37.27832031 78.4296875 C33.64331021 79.70411335 30.00894237 80.98034541 26.375 82.2578125 C24.61506714 82.87623016 24.61506714 82.87623016 22.81958008 83.50714111 C15.10078934 86.23002993 7.43249574 89.05670948 -0.19140625 92.03466797 C-3 93 -3 93 -6 93 C-7.2890625 91.3125 -7.2890625 91.3125 -8.625 89 C-12.6574882 82.61858742 -18.04544632 77.13112259 -25 74 C-24.67 72.02 -24.34 70.04 -24 68 C-25.65 68 -27.3 68 -29 68 C-29 67.67 -29 67.34 -29 67 C-27.02 67 -25.04 67 -23 67 C-22.82984375 66.40719238 -22.6596875 65.81438477 -22.484375 65.20361328 C-20.5691454 58.66203452 -18.35877511 52.26852201 -16 45.875 C-15.65710938 44.93785156 -15.31421875 44.00070313 -14.9609375 43.03515625 C-12.99887203 37.68066461 -11.0092102 32.3369646 -9 27 C-9.66 26.67 -10.32 26.34 -11 26 C-10.01 26 -9.02 26 -8 26 C-7.690625 24.2984375 -7.690625 24.2984375 -7.375 22.5625 C-5.68351233 14.82643138 -2.71054009 7.42415226 0 0 Z " fill="#FECFDE" transform="translate(278,166)"/>
<path d="M0 0 C-0.33 1.98 -0.66 3.96 -1 6 C-0.27941406 6.24234375 0.44117188 6.4846875 1.18359375 6.734375 C8.13679686 9.85897667 14.40394711 16.29826506 18 23 C18 23.66 18 24.32 18 25 C20.31 24.67 22.62 24.34 25 24 C25.99156361 31.27146645 22.91580406 36.98853109 19 43 C13.38256461 49.02961618 5.69546849 51.95589295 -2.4375 52.5 C-9.14287419 52.25339254 -14.74031954 48.85795949 -19.8125 44.6875 C-23.6031389 40.03042935 -27.54851 35.17036339 -28 29 C-28.07347656 28.35546875 -28.14695313 27.7109375 -28.22265625 27.046875 C-28.73434143 19.54215901 -25.99076332 13.70715546 -21.3203125 7.91796875 C-14.81034348 1.04633478 -9.29377945 -0.49591313 0 0 Z " fill="#E5417C" transform="translate(254,234)"/>
<path d="M0 0 C8.21707894 3.77314849 15.67854128 9.94637238 20 18 C20 18.66 20 19.32 20 20 C23.465 19.505 23.465 19.505 27 19 C27.9890594 26.25310228 24.93833559 32.01803228 21 38 C14.98886827 44 14.98886827 44 11 44 C9.625 42.6015625 9.625 42.6015625 8 40.625 C4.31317205 36.23814143 0.25031044 32.37264255 -3.9609375 28.4921875 C-6.50128208 25.38732191 -7.00469963 24.02288585 -7 20 C-6.10462452 16.44287713 -4.86069477 13.05262537 -3.5625 9.625 C-3.22412109 8.69816406 -2.88574219 7.77132812 -2.53710938 6.81640625 C-1.70376302 4.53937537 -0.85785286 2.26788688 0 0 Z " fill="#2E6A94" transform="translate(252,239)"/>
<path d="M0 0 C0.9890594 7.25310228 -2.06166441 13.01803228 -6 19 C-12.01113173 25 -12.01113173 25 -16 25 C-17.48046875 23.49609375 -17.48046875 23.49609375 -19.1875 21.4375 C-22.60201725 17.41324753 -26.21845349 13.67809995 -30 10 C-26.53672217 8.13977404 -22.95635813 6.86134384 -19.25 5.5625 C-15.26485536 4.16231405 -11.30178604 2.74339635 -7.375 1.1875 C-4 0 -4 0 0 0 Z " fill="#3C304F" transform="translate(279,258)"/>
</svg>
