<?xml version="1.0" encoding="UTF-8"?>
<svg version="1.1" xmlns="http://www.w3.org/2000/svg" width="512" height="512">
<path d="M0 0 C3.8604713 1.39634068 4.73870941 2.53340967 6.75 6.125 C8.33110508 10.29661623 8.70904518 14.57548011 9 19 C16.38059712 21.96813959 23.21111948 23.43715772 31.125 23.5625 C31.82020752 23.58892578 32.51541504 23.61535156 33.23168945 23.64257812 C48.8097065 23.5463645 64.44297756 16.59611896 78.6875 10.9375 C108.36632504 -0.83932024 108.36632504 -0.83932024 124.1875 -0.5 C125.58983887 -0.48187256 125.58983887 -0.48187256 127.02050781 -0.46337891 C138.51538373 -0.134897 148.72017753 2.94131151 158 10 C160.0265374 13.0398061 160.25083872 13.62069497 160.26069641 17.02980042 C160.26778122 17.84720703 160.27486603 18.66461365 160.28216553 19.50679016 C160.27968811 20.39988388 160.27721069 21.2929776 160.2746582 22.21313477 C160.27976913 23.1564566 160.28488007 24.09977844 160.29014587 25.07168579 C160.30406549 28.19499016 160.30308365 31.31807452 160.30078125 34.44140625 C160.30466619 36.60709211 160.30900044 38.7727772 160.31376648 40.9384613 C160.3212333 45.47877472 160.32093356 50.01901038 160.31567383 54.55932617 C160.30987134 60.38950228 160.3268269 66.21936153 160.3500185 72.04948521 C160.36471779 76.521478 160.36563287 80.99339375 160.36250877 85.46540642 C160.36302367 87.61568773 160.36829265 89.76597317 160.37832069 91.91623116 C160.39059739 94.91645324 160.38394691 97.91604842 160.37231445 100.91625977 C160.37995819 101.81137772 160.38760193 102.70649567 160.39547729 103.6287384 C160.3742218 106.09718323 160.3742218 106.09718323 160 110 C156.82857082 112.11428612 155.91130565 112.24666829 152.296875 111.62109375 C148.09956392 110.48610657 144.1062946 108.79877119 140.0859375 107.15625 C130.06917622 103.40313438 119.01964073 104.24589008 108.7421875 106.55078125 C107.58676704 106.80964111 107.58676704 106.80964111 106.40800476 107.07373047 C96.8967158 109.33632311 87.8920956 112.92557393 78.8125 116.5 C54.16846999 126.14118672 35.76225174 131.69056293 9 125 C8.67 137.21 8.34 149.42 8 162 C18.8745531 161.84223588 18.8745531 161.84223588 29.74829102 161.63964844 C31.12515005 161.62795134 32.50202307 161.61776194 33.87890625 161.609375 C34.57721558 161.58891113 35.2755249 161.56844727 35.99499512 161.54736328 C41.32282348 161.54362773 44.98637583 162.59595997 49 166 C53.74628677 172.26057028 53.55636246 179.0303723 53.48101807 186.57897949 C53.48443577 187.83538191 53.48785347 189.09178433 53.49137473 190.38625956 C53.50028343 193.8572532 53.48436841 197.3277495 53.46426249 200.79867983 C53.44694217 204.54772147 53.45283741 208.29673647 53.45587158 212.04580688 C53.45796606 218.53586946 53.44544678 225.02577082 53.42292023 231.51579285 C53.3903722 240.8991755 53.37999035 250.28248042 53.37496826 259.6659134 C53.36622 274.89092653 53.33961716 290.11585379 53.30175781 305.34082031 C53.26502558 320.12792533 53.23671975 334.91500699 53.21972656 349.70214844 C53.21867567 350.6140673 53.21762477 351.52598616 53.21654204 352.46553892 C53.21132178 357.0404995 53.20626697 361.61546025 53.20129442 366.1904211 C53.15984699 404.12700802 53.08941134 442.06349732 53 480 C53.81041748 479.98839844 54.62083496 479.97679687 55.45581055 479.96484375 C56.52613525 479.95582031 57.59645996 479.94679688 58.69921875 479.9375 C60.28609497 479.92009766 60.28609497 479.92009766 61.9050293 479.90234375 C67.47733527 480.07816787 71.91248558 481.07759971 76.07421875 484.91015625 C81.27581669 490.72370689 82.3969509 494.17872415 82.359375 502.00390625 C81.82285181 506.47687674 80.3330708 508.06372334 77 511 C74.06943742 512.46528129 71.48540112 512.13101477 68.21136856 512.13701439 C67.5017415 512.13966622 66.79211445 512.14231804 66.06098354 512.14505023 C63.65898977 512.15277146 61.25704688 512.15330347 58.8550415 512.15390015 C57.12517439 512.15791291 55.39530821 512.16235082 53.66544318 512.1671797 C48.89288524 512.17917177 44.12033742 512.18479973 39.34776735 512.18936086 C34.20789199 512.19530695 29.06802879 512.20691922 23.92816162 512.21765137 C11.50617138 512.24219748 -0.9158229 512.2568054 -13.33782995 512.26971143 C-16.84438533 512.27342164 -20.35094032 512.27739501 -23.85749531 512.2814641 C-45.61732273 512.30669795 -67.37715076 512.32875826 -89.13698959 512.34119225 C-94.17954256 512.3441221 -99.22209552 512.34708374 -104.26464844 512.35009766 C-105.51800178 512.35084371 -106.77135511 512.35158976 -108.06268886 512.35235842 C-128.3763772 512.36501806 -148.68997814 512.39824805 -169.0036256 512.43989949 C-189.84340718 512.48228064 -210.68314396 512.50588283 -231.52296853 512.51111281 C-243.23019286 512.51453118 -254.93728058 512.5263365 -266.64446259 512.55921555 C-276.61279469 512.5871647 -286.58096219 512.59823797 -296.54933044 512.58702008 C-301.63768874 512.58182035 -306.72570205 512.5848054 -311.81401062 512.60948563 C-316.4701038 512.63188148 -321.12560225 512.63131387 -325.78170517 512.61228175 C-327.46815555 512.60946813 -329.15464544 512.61515547 -330.841032 512.63009469 C-333.13075052 512.64914213 -335.41833535 512.63745486 -337.708004 512.61803246 C-338.98050184 512.61938898 -340.25299968 512.62074551 -341.56405807 512.62214315 C-346.11250236 511.79856012 -347.74471548 510.22983757 -351 507 C-353.09294386 502.81411228 -352.42417949 497.5584359 -352 493 C-349.23424811 487.14937099 -344.75340301 483.11195122 -338.75 480.6875 C-335.58407159 480.10707979 -332.95502357 479.92827438 -329.765625 479.95703125 C-328.87133789 479.96323486 -327.97705078 479.96943848 -327.05566406 479.97583008 C-326.37729492 479.98380615 -325.69892578 479.99178223 -325 480 C-325.00276538 479.21277778 -325.00553076 478.42555555 -325.00837994 477.61447811 C-325.07465961 458.45146293 -325.12429025 439.28847065 -325.15543652 420.12536526 C-325.17089932 410.85819314 -325.19197764 401.59109758 -325.22631836 392.32397461 C-325.25623866 384.24588073 -325.27557927 376.16784231 -325.28226548 368.08969456 C-325.28617328 363.81315404 -325.29534493 359.53677215 -325.31719017 355.26028252 C-325.33759691 351.23265478 -325.34382537 347.20525059 -325.33932304 343.17757607 C-325.34014638 341.70178893 -325.34608715 340.2259941 -325.35761642 338.75025177 C-325.47463059 322.99582518 -325.47463059 322.99582518 -319.5 316.125 C-315.0733214 312.36232319 -310.65742592 312.84031865 -305.12573242 312.82299805 C-304.21809647 312.81642685 -303.31046051 312.80985565 -302.37532043 312.80308533 C-299.36870238 312.78335857 -296.36213423 312.77169163 -293.35546875 312.76171875 C-292.32864801 312.75764322 -291.30182728 312.7535677 -290.24389076 312.74936867 C-284.80997544 312.72851146 -279.37608536 312.71420772 -273.94213867 312.70483398 C-268.32977579 312.69376504 -262.71780888 312.65935833 -257.10558605 312.61966228 C-252.7895687 312.59351988 -248.4736461 312.58514429 -244.15755653 312.58155251 C-242.08871089 312.5766811 -240.01986963 312.56505142 -237.9511013 312.54651451 C-235.05456494 312.52217199 -232.15905847 312.52307916 -229.26245117 312.5300293 C-227.98342422 312.51081421 -227.98342422 312.51081421 -226.67855835 312.49121094 C-221.30216079 312.53817961 -218.2815611 313.45306304 -214 317 C-210.27161655 321.24264324 -209.87529828 324.74635851 -209.87974548 330.28312683 C-209.87837082 331.59985886 -209.87699615 332.91659088 -209.87557983 334.27322388 C-209.87911901 335.73577904 -209.88275382 337.19833396 -209.88647461 338.66088867 C-209.88675663 340.19825743 -209.88659846 341.73562632 -209.8860321 343.272995 C-209.8857447 347.45038183 -209.89163222 351.62774006 -209.89860606 355.80512023 C-209.90484909 360.16933914 -209.90544415 364.53355868 -209.90663147 368.89778137 C-209.90974198 377.16377457 -209.9179516 385.42975457 -209.92798096 393.69574195 C-209.93915078 403.10554604 -209.94465474 412.51535075 -209.94967639 421.92515981 C-209.96013443 441.28344757 -209.97792945 460.64172224 -210 480 C-204.06 480 -198.12 480 -192 480 C-192.00888245 477.03164154 -192.01776489 474.06328308 -192.0269165 471.00497437 C-192.10650959 443.78568049 -192.16622656 416.56639252 -192.20426132 389.34701165 C-192.20926416 385.77968072 -192.21444144 382.21235006 -192.21972656 378.64501953 C-192.2207758 377.93482708 -192.22182505 377.22463463 -192.22290608 376.49292119 C-192.24031219 364.99298155 -192.27185098 353.49312187 -192.30861118 341.99322967 C-192.34601494 330.1936162 -192.36823465 318.39404462 -192.37635398 306.5943743 C-192.38135036 299.96651815 -192.39386516 293.33881085 -192.42292023 286.71100998 C-192.45003812 280.47466885 -192.4584522 274.23858412 -192.45243073 268.00218964 C-192.45353257 265.71163923 -192.46150776 263.42108038 -192.4768219 261.1305809 C-192.49669248 258.00571345 -192.49194929 254.88181691 -192.48101807 251.75692749 C-192.49266943 250.84835884 -192.5043208 249.9397902 -192.51632524 249.00368917 C-192.46423263 243.50286978 -191.66263863 240.36874964 -188 236 C-183.14978867 231.73769308 -178.50845438 231.84711634 -172.30932617 231.83886719 C-171.42119736 231.83390228 -170.53306854 231.82893738 -169.61802673 231.82382202 C-166.67633289 231.80920266 -163.73469297 231.80239863 -160.79296875 231.796875 C-158.74896747 231.79112319 -156.70496621 231.78536546 -154.66096497 231.77960205 C-150.37285104 231.76909259 -146.08475586 231.76324962 -141.79663086 231.75976562 C-136.30540633 231.75428222 -130.81442993 231.73025714 -125.3232832 231.70179367 C-121.09991231 231.6831577 -116.87660105 231.67796117 -112.65319252 231.67642975 C-110.62901771 231.67340467 -108.60484391 231.66538103 -106.58070946 231.65224457 C-103.74656753 231.63516484 -100.91303012 231.63706913 -98.07885742 231.64355469 C-97.24487427 231.6343399 -96.41089111 231.62512512 -95.55163574 231.6156311 C-90.62593355 231.65089006 -87.27265248 232.28451435 -83 235 C-78.06417281 240.46943013 -77.85702781 244.09897946 -77.87974548 251.27590942 C-77.87846385 252.73630089 -77.87846385 252.73630089 -77.87715632 254.22619522 C-77.87550096 257.50905084 -77.88102382 260.79185607 -77.88647461 264.07470703 C-77.8867565 266.41979979 -77.88659872 268.76489264 -77.8860321 271.10998535 C-77.88574418 277.49396852 -77.89164005 283.87793305 -77.89860606 290.26191187 C-77.90420941 296.25235518 -77.90522814 302.24279849 -77.90625793 308.23324393 C-77.90844804 320.10064922 -77.91510702 331.96804765 -77.92456055 343.83544922 C-77.93373572 355.36539679 -77.94081604 366.89534249 -77.94506836 378.42529297 C-77.94546244 379.49086222 -77.94546244 379.49086222 -77.94586449 380.57795812 C-77.9471695 384.1416258 -77.94843322 387.70529349 -77.94967639 391.26896119 C-77.96004773 420.84597856 -77.97773913 450.42298916 -78 480 C-72.72 480 -67.44 480 -62 480 C-62.00276538 478.42333494 -62.00553076 476.84666988 -62.00837994 475.2222271 C-62.07333413 437.80697566 -62.12281185 400.39173115 -62.15319599 362.976435 C-62.15694817 358.37263625 -62.16083113 353.76883763 -62.16479492 349.16503906 C-62.16558185 348.24849419 -62.16636878 347.33194932 -62.16717956 346.38763036 C-62.18023838 331.54128726 -62.20389484 316.69497896 -62.23145839 301.84865652 C-62.25949934 286.61832259 -62.27617349 271.3880069 -62.28226548 256.15764821 C-62.28638465 246.75745541 -62.29940114 237.35736098 -62.3237494 227.95719846 C-62.33959042 221.51374879 -62.34440407 215.07035009 -62.34050413 208.62688236 C-62.33858003 204.90768217 -62.34155811 201.18865403 -62.35761642 197.46948433 C-62.37489473 193.43835468 -62.36897228 189.4075925 -62.36076355 185.37643433 C-62.36950207 184.19939025 -62.3782406 183.02234617 -62.38724393 181.80963409 C-62.35602795 176.15844706 -62.32556264 171.81490084 -59 167 C-53.93344873 162.42774641 -50.79835868 161.85689959 -44.1484375 161.90234375 C-43.37440582 161.9037587 -42.60037415 161.90517365 -41.80288696 161.90663147 C-39.32688558 161.91223597 -36.85097412 161.92478917 -34.375 161.9375 C-32.69791797 161.94251442 -31.02083453 161.94707743 -29.34375 161.95117188 C-25.22913194 161.96220685 -21.11458122 161.97947446 -17 162 C-17.00368717 161.21185598 -17.00737434 160.42371197 -17.01117325 159.6116848 C-17.09951956 140.43234738 -17.16570731 121.25305058 -17.20724869 102.07355309 C-17.22787188 92.79847276 -17.25598783 83.52352829 -17.30175781 74.24853516 C-17.34163302 66.16422453 -17.36743458 58.0800123 -17.37635398 49.99560606 C-17.38156758 45.71513097 -17.39381627 41.43493733 -17.42292023 37.15455246 C-17.45010023 33.12441975 -17.45843985 29.09468405 -17.45243073 25.06446838 C-17.45352982 23.58663906 -17.4614686 22.10879627 -17.4768219 20.6310463 C-17.4967861 18.61011654 -17.48954 16.58897305 -17.48101807 14.56796265 C-17.48470524 13.43784445 -17.48839241 12.30772625 -17.49219131 11.14336205 C-16.87989786 7.23297203 -15.4465743 5.07829781 -13 2 C-8.73331037 -0.84445975 -5.00402865 -0.49639964 0 0 Z " fill="#E93D49" transform="translate(352,0)"/>
<path d="M0 0 C0.88812881 -0.0049649 1.77625763 -0.00992981 2.69129944 -0.01504517 C5.63299328 -0.02966452 8.5746332 -0.03646856 11.51635742 -0.04199219 C13.5603587 -0.047744 15.60435996 -0.05350173 17.64836121 -0.05926514 C21.93647513 -0.0697746 26.22457032 -0.07561757 30.51269531 -0.07910156 C36.00391984 -0.08458497 41.49489624 -0.10861004 46.98604298 -0.13707352 C51.20941387 -0.15570949 55.43272512 -0.16090602 59.65613365 -0.16243744 C61.68030847 -0.16546252 63.70448227 -0.17348616 65.72861671 -0.18662262 C68.56275864 -0.20370235 71.39629605 -0.20179806 74.23046875 -0.1953125 C75.0644519 -0.20452728 75.89843506 -0.21374207 76.75769043 -0.22323608 C81.68339262 -0.18797712 85.03667369 0.44564717 89.30932617 3.16113281 C94.25436706 8.64077271 94.45224497 12.28466952 94.42958069 19.4750061 C94.43043511 20.45268397 94.43128954 21.43036183 94.43216985 22.4376663 C94.43382523 25.73434138 94.42830232 29.03096628 94.42285156 32.32763672 C94.42256968 34.68258157 94.42272745 37.03752651 94.42329407 39.39247131 C94.42358199 45.8033131 94.4176861 52.21413632 94.41072011 58.62497377 C94.4046421 64.64060758 94.40409803 70.65624359 94.40306824 76.67187993 C94.40087812 88.58919951 94.39421913 100.50651226 94.38476562 112.42382812 C94.37559047 124.0022783 94.3685216 135.58072662 94.36425781 147.15917969 C94.36398982 147.87982692 94.36372182 148.60047414 94.3634457 149.34295917 C94.36113294 155.61128279 94.3589801 161.87960646 94.35684299 168.14793015 C94.34742869 195.15233747 94.3275096 222.15672668 94.30932617 249.16113281 C56.68932617 249.16113281 19.06932617 249.16113281 -19.69067383 249.16113281 C-19.85188596 189.46786102 -19.85188596 189.46786102 -19.88598633 164.49707031 C-19.89381784 158.79101516 -19.90189978 153.08496045 -19.91040039 147.37890625 C-19.91145539 146.66374328 -19.91251038 145.94858031 -19.91359735 145.21174574 C-19.93099556 133.66530722 -19.96253134 122.11894836 -19.99928501 110.57255708 C-20.03668847 98.72322304 -20.05890841 86.87393072 -20.06702781 75.02454007 C-20.07202424 68.36873853 -20.08453936 61.71308521 -20.11359406 55.05733871 C-20.14071147 48.79473305 -20.14912613 42.53238269 -20.14310455 36.26972389 C-20.14420642 33.9694982 -20.15218189 31.66926411 -20.16749573 29.36908913 C-20.18736556 26.2310858 -20.18262337 23.09404937 -20.17169189 19.95602417 C-20.18916894 18.58733478 -20.18916894 18.58733478 -20.20699906 17.1909951 C-20.15502796 11.68027449 -19.3625356 8.53673266 -15.69067383 4.16113281 C-10.8404625 -0.10117411 -6.19912821 0.00824915 0 0 Z " fill="#E83D49" transform="translate(179.690673828125,231.8388671875)"/>
<path d="M0 0 C0.90763596 -0.0065712 1.81527191 -0.0131424 2.75041199 -0.01991272 C5.75703004 -0.03963948 8.76359819 -0.05130642 11.77026367 -0.0612793 C12.79708441 -0.06535482 13.82390514 -0.06943035 14.88184166 -0.07362938 C20.31575698 -0.09448659 25.74964706 -0.10879033 31.18359375 -0.11816406 C36.79595663 -0.12923301 42.40792354 -0.16363971 48.02014637 -0.20333576 C52.33616372 -0.22947816 56.65208633 -0.23785376 60.96817589 -0.24144554 C63.03702153 -0.24631694 65.10586279 -0.25794663 67.17463112 -0.27648354 C70.07116748 -0.30082606 72.96667395 -0.29991888 75.86328125 -0.29296875 C77.1423082 -0.31218384 77.1423082 -0.31218384 78.44717407 -0.33178711 C83.82357163 -0.28481843 86.84417132 0.63006499 91.12573242 4.17700195 C94.86450927 8.43147216 95.25041769 11.94635575 95.24598694 17.49809265 C95.24684136 18.14177365 95.24769579 18.78545464 95.2485761 19.44864112 C95.25022536 21.60901808 95.24471859 23.76931767 95.23925781 25.9296875 C95.2389758 27.47690835 95.23913396 29.02412933 95.23970032 30.5713501 C95.23998772 34.7755955 95.23410011 38.97981249 95.22712636 43.18405128 C95.22088343 47.57629742 95.22028828 51.96854418 95.21910095 56.36079407 C95.21599042 64.67991117 95.20778075 72.99901517 95.19775146 81.3181265 C95.18449397 92.55849671 95.17908818 103.7988705 95.17324924 115.03924656 C95.16384069 132.75184151 95.14391991 150.4644088 95.12573242 168.17700195 C57.17573242 168.17700195 19.22573242 168.17700195 -19.87426758 168.17700195 C-19.99517668 129.58908575 -19.99517668 129.58908575 -20.02075195 113.42114258 C-20.03855407 102.25679389 -20.05948418 91.09251313 -20.10058594 79.92822266 C-20.13050561 71.79739107 -20.1498467 63.66661457 -20.15653306 55.53572947 C-20.16044097 51.23124373 -20.1696133 46.92691558 -20.19145775 42.62248039 C-20.21186349 38.56858821 -20.21809314 34.51491812 -20.21359062 30.46097946 C-20.214414 28.97551707 -20.22035536 27.49004702 -20.231884 26.00462914 C-20.34870282 10.17260249 -20.34870282 10.17260249 -14.37426758 3.30200195 C-9.94758898 -0.46067485 -5.5316935 0.0173206 0 0 Z " fill="#E83D48" transform="translate(46.874267578125,312.822998046875)"/>
<path d="M0 0 C1.40233887 0.01812744 1.40233887 0.01812744 2.83300781 0.03662109 C14.32788373 0.365103 24.53267753 3.44131151 33.8125 10.5 C35.8390374 13.5398061 36.06333872 14.12069497 36.07319641 17.52980042 C36.08028122 18.34720703 36.08736603 19.16461365 36.09466553 20.00679016 C36.09218811 20.89988388 36.08971069 21.7929776 36.0871582 22.71313477 C36.09226913 23.6564566 36.09738007 24.59977844 36.10264587 25.57168579 C36.11656549 28.69499016 36.11558365 31.81807452 36.11328125 34.94140625 C36.11716619 37.10709211 36.12150044 39.2727772 36.12626648 41.4384613 C36.1337333 45.97877472 36.13343356 50.51901038 36.12817383 55.05932617 C36.12237134 60.88950228 36.1393269 66.71936153 36.1625185 72.54948521 C36.17721779 77.021478 36.17813287 81.49339375 36.17500877 85.96540642 C36.17552367 88.11568773 36.18079265 90.26597317 36.19082069 92.41623116 C36.20309739 95.41645324 36.19644691 98.41604842 36.18481445 101.41625977 C36.19245819 102.31137772 36.20010193 103.20649567 36.20797729 104.1287384 C36.1867218 106.59718323 36.1867218 106.59718323 35.8125 110.5 C32.64107082 112.61428612 31.72380565 112.74666829 28.109375 112.12109375 C23.91206392 110.98610657 19.9187946 109.29877119 15.8984375 107.65625 C5.88167622 103.90313438 -5.16785927 104.74589008 -15.4453125 107.05078125 C-16.60073296 107.30964111 -16.60073296 107.30964111 -17.77949524 107.57373047 C-27.2907842 109.83632311 -36.2954044 113.42557393 -45.375 117 C-69.16855639 126.30846618 -89.87794878 133.02037978 -115.1875 125.5 C-115.8475 125.17 -116.5075 124.84 -117.1875 124.5 C-117.1875 89.85 -117.1875 55.2 -117.1875 19.5 C-113.8875 20.49 -110.5875 21.48 -107.1875 22.5 C-102.56630372 23.42423926 -98.24531331 23.78971698 -93.5625 23.875 C-92.83804687 23.91238281 -92.11359375 23.94976563 -91.3671875 23.98828125 C-75.63207729 24.2243079 -59.8673786 17.14492342 -45.5 11.4375 C-15.82117496 -0.33932024 -15.82117496 -0.33932024 0 0 Z " fill="#FBC52B" transform="translate(476.1875,-0.49999999999999994)"/>
<path d="M0 0 C0.68073002 -0.00320648 1.36146003 -0.00641296 2.06281823 -0.0097166 C4.33650674 -0.01799667 6.60993046 -0.01209941 8.88362312 -0.00622082 C10.53317218 -0.00924241 12.18271984 -0.01313193 13.83226502 -0.01781338 C18.35972774 -0.02810109 22.88711135 -0.02590959 27.41458058 -0.02163279 C32.29948294 -0.01916698 37.18436618 -0.02817794 42.06926155 -0.03567028 C51.63722614 -0.04842331 61.20516268 -0.05021022 70.77313434 -0.04787002 C78.54987724 -0.04608738 86.32661162 -0.04783534 94.1033535 -0.05209446 C95.20995106 -0.05268965 96.31654862 -0.05328484 97.45667944 -0.05389806 C99.70469712 -0.05510981 101.9527148 -0.05632394 104.20073248 -0.05754044 C125.28543464 -0.06841831 146.37012081 -0.06625231 167.45482387 -0.06015559 C186.74443386 -0.05498621 206.03399336 -0.06624203 225.32359336 -0.08525381 C245.12959056 -0.10462493 264.93556386 -0.11288949 284.74157059 -0.10913056 C295.86135528 -0.10721742 306.98109698 -0.10971712 318.10087395 -0.1238451 C327.56722321 -0.13575061 337.03350303 -0.13717309 346.49985324 -0.12505493 C351.32929747 -0.11916044 356.15861464 -0.11808262 360.98805046 -0.13005733 C365.41083435 -0.14089627 369.83338477 -0.13783646 374.25615765 -0.12379565 C375.85434819 -0.12114324 377.4525569 -0.12353232 379.05072962 -0.13153151 C397.73547644 -0.21854589 397.73547644 -0.21854589 404.29185677 5.22713184 C405.09623177 6.2616045 405.09623177 6.2616045 405.91685677 7.31697559 C406.75216927 8.35531544 406.75216927 8.35531544 407.60435677 9.41463184 C411.00238076 14.17793334 410.5950174 19.60067986 409.91685677 25.25447559 C408.29729634 28.48755331 406.19319386 30.61630705 402.91685677 32.25447559 C400.65573475 32.35460591 398.39155952 32.38734246 396.12822533 32.39148998 C395.06378474 32.39546772 395.06378474 32.39546772 393.9778403 32.39952582 C391.57584654 32.40724706 389.17390365 32.40777907 386.77189827 32.40837574 C385.04203115 32.4123885 383.31216498 32.41682641 381.58229995 32.4216553 C376.80974201 32.43364736 372.03719419 32.43927533 367.26462412 32.44383645 C362.12474876 32.44978254 356.98488556 32.46139481 351.84501839 32.47212696 C339.42302814 32.49667307 327.00103386 32.51128099 314.57902682 32.52418703 C311.07247143 32.52789723 307.56591645 32.5318706 304.05936146 32.53593969 C282.29953403 32.56117354 260.539706 32.58323385 238.77986717 32.59566784 C233.7373142 32.5985977 228.69476125 32.60155934 223.65220833 32.60457325 C222.39885499 32.6053193 221.14550165 32.60606535 219.85416791 32.60683401 C199.54047956 32.61949365 179.22687863 32.65272365 158.91323116 32.69437508 C138.07344959 32.73675623 117.23371281 32.76035842 96.39388824 32.7655884 C84.6866639 32.76900677 72.97957619 32.78081209 61.27239418 32.81369114 C51.30406208 32.84164029 41.33589458 32.85271357 31.36752632 32.84149568 C26.27916803 32.83629594 21.19115471 32.83928099 16.10284615 32.86396122 C11.44675297 32.88635708 6.79125452 32.88578947 2.13515159 32.86675735 C0.44870121 32.86394372 -1.23778867 32.86963106 -2.92417523 32.88457029 C-5.21389375 32.90361772 -7.50147859 32.89193046 -9.79114723 32.87250805 C-11.699894 32.87454284 -11.699894 32.87454284 -13.6472013 32.87661874 C-18.19564559 32.05303572 -19.82785871 30.48431317 -23.08314323 27.25447559 C-25.1760871 23.06858787 -24.50732272 17.81291149 -24.08314323 13.25447559 C-21.78384397 8.3905733 -18.46013397 5.34411612 -14.08314323 2.25447559 C-9.27181875 0.59276605 -5.07492173 0.00364271 0 0 Z " fill="#D3E6F2" transform="translate(24.08314323425293,479.7455244064331)"/>
<path d="M0 0 C3.62093235 1.30969893 4.6457157 2.40512102 6.60762024 5.69935608 C9.05262935 11.71860234 8.39111188 18.36479354 8.34057617 24.74780273 C8.33972913 26.24635298 8.34020656 27.74490446 8.34190369 29.24345398 C8.34276204 33.29673924 8.32516228 37.34975647 8.30418181 41.40297961 C8.28538833 45.64437665 8.28366247 49.88578028 8.28010559 54.12721252 C8.27079296 62.15229665 8.2461898 70.17725772 8.21605712 78.20228773 C8.18248873 87.34131564 8.16602098 96.48034951 8.15097082 105.61942375 C8.11963952 124.41302079 8.06628775 143.20649598 8 162 C-0.25 162 -8.5 162 -17 162 C-17.09260481 142.02455427 -17.16398298 122.04916919 -17.20724869 102.07355309 C-17.22787188 92.79847276 -17.25598783 83.52352829 -17.30175781 74.24853516 C-17.34163302 66.16422453 -17.36743458 58.0800123 -17.37635398 49.99560606 C-17.38156758 45.71513097 -17.39381627 41.43493733 -17.42292023 37.15455246 C-17.45010023 33.12441975 -17.45843985 29.09468405 -17.45243073 25.06446838 C-17.45352982 23.58663906 -17.4614686 22.10879627 -17.4768219 20.6310463 C-17.4967861 18.61011654 -17.48954 16.58897305 -17.48101807 14.56796265 C-17.48470524 13.43784445 -17.48839241 12.30772625 -17.49219131 11.14336205 C-16.87989786 7.23297203 -15.4465743 5.07829781 -13 2 C-8.73331037 -0.84445975 -5.00402865 -0.49639964 0 0 Z " fill="#778A90" transform="translate(352,0)"/>
<path d="M0 0 C6.93975904 2.31325301 6.93975904 2.31325301 9 6 C10.11732164 9.43474057 10.12322191 12.65504933 10.12025452 16.25152588 C10.12162918 17.53597595 10.12300385 18.82042603 10.12442017 20.14379883 C10.12088124 21.56494164 10.11724643 22.98608422 10.11352539 24.40722656 C10.11324328 25.90533445 10.11340171 27.40344248 10.1139679 28.90155029 C10.11425496 32.96731157 10.10837292 37.03304338 10.10139394 41.0987978 C10.09514526 45.34823266 10.0945554 49.59766819 10.09336853 53.84710693 C10.09025969 61.89348801 10.08205231 69.93985551 10.07201904 77.98623061 C10.06084404 87.14696946 10.05534395 96.30770896 10.05032361 105.46845293 C10.03986934 124.31230965 10.02227853 143.15615373 10 162 C6.7 162 3.4 162 0 162 C0 108.54 0 55.08 0 0 Z " fill="#415B5C" transform="translate(350,0)"/>
<path d="M0 0 C0.66 0 1.32 0 2 0 C2 53.13 2 106.26 2 161 C-0.31 161 -2.62 161 -5 161 C-5.09345104 141.02456067 -5.16398299 121.04916571 -5.20724869 101.07355309 C-5.22787188 91.79847276 -5.25598783 82.52352829 -5.30175781 73.24853516 C-5.34163302 65.16422453 -5.36743458 57.0800123 -5.37635398 48.99560606 C-5.38156758 44.71513097 -5.39381627 40.43493733 -5.42292023 36.15455246 C-5.45010023 32.12441975 -5.45843985 28.09468405 -5.45243073 24.06446838 C-5.45352982 22.58663906 -5.4614686 21.10879627 -5.4768219 19.6310463 C-5.4967861 17.61011654 -5.48954 15.58897305 -5.48101807 13.56796265 C-5.48470524 12.43784445 -5.48839241 11.30772625 -5.49219131 10.14336205 C-4.84270751 5.99545721 -2.97389183 2.97389183 0 0 Z " fill="#90A0A9" transform="translate(340,1)"/>
<path d="M0 0 C6 2 6 2 7 4 C7.10339039 6.55663217 7.14681174 9.0862147 7.14526367 11.64331055 C7.15030159 12.82657173 7.15030159 12.82657173 7.15544128 14.03373718 C7.16496842 16.65141358 7.16689561 19.26902607 7.16796875 21.88671875 C7.17118131 23.70555142 7.17454539 25.52438382 7.17805481 27.34321594 C7.18405133 31.16232909 7.18589429 34.98141959 7.18530273 38.80053711 C7.18520136 43.68518083 7.19882586 48.56967838 7.21607494 53.45428753 C7.22721883 57.214469 7.22922117 60.97461549 7.22869301 64.73481178 C7.22987059 66.53486444 7.23427988 68.33491807 7.24202538 70.13495445 C7.25186861 72.65997761 7.24892966 75.18468815 7.24291992 77.7097168 C7.24853943 78.44816833 7.25415894 79.18661987 7.25994873 79.94744873 C7.23178006 84.62618782 6.40352983 88.5530203 5 93 C4.72930303 95.3060317 4.51834657 97.62006375 4.375 99.9375 C4.30023438 101.08089844 4.22546875 102.22429687 4.1484375 103.40234375 C4.09945313 104.25957031 4.05046875 105.11679688 4 106 C2.68 105.67 1.36 105.34 0 105 C0 70.35 0 35.7 0 0 Z " fill="#FECB7C" transform="translate(359,19)"/>
<path d="M0 0 C1.32 0 2.64 0 4 0 C4 53.46 4 106.92 4 162 C2.68 162 1.36 162 0 162 C0 108.54 0 55.08 0 0 Z " fill="#5E7478" transform="translate(346,0)"/>
<path d="M0 0 C0.33 0.66 0.66 1.32 1 2 C1.66 2 2.32 2 3 2 C3.33 36.32 3.66 70.64 4 106 C2.68 105.67 1.36 105.34 0 105 C0 70.35 0 35.7 0 0 Z " fill="#F1AD5D" transform="translate(359,19)"/>
<path d="M0 0 C3.28498748 1.17320981 5.3891911 2.98261589 7.23046875 5.9609375 C8.94297257 10.49863798 8.76978671 15.2713102 8 20 C6.35492429 23.22337712 4.28238685 25.35880657 1 27 C-0.99960012 27.039992 -3.00047242 27.04346799 -5 27 C-4.87882812 26.29617188 -4.75765625 25.59234375 -4.6328125 24.8671875 C-3.44012552 17.83950884 -2.39935759 10.80505948 -1.46484375 3.73828125 C-1 1 -1 1 0 0 Z " fill="#7AB6D3" transform="translate(426,485)"/>
<path d="M0 0 C2.97 0.495 2.97 0.495 6 1 C6 5.51426227 5.2525016 9.91008477 4.625 14.375 C4.49867188 15.32117188 4.37234375 16.26734375 4.2421875 17.2421875 C3.60943161 21.74740943 3.02249528 25.86707487 1 30 C-0.32 30 -1.64 30 -3 30 C-2.38722388 27.03824877 -1.74627478 25.61941217 0 23 C-0.63920943 20.99105606 -1.31039038 18.99220557 -2 17 C-2.45260036 11.11619536 -1.28601921 5.70671026 0 0 Z " fill="#97C5DB" transform="translate(420,482)"/>
<path d="M0 0 C5 2 5 2 6 4 C6.1481544 5.95449844 6.22124849 7.9151053 6.25 9.875 C6.27578125 10.92429687 6.3015625 11.97359375 6.328125 13.0546875 C5.96227679 16.33861071 5.36177593 17.71547842 3 20 C2.01 20 1.02 20 0 20 C0 13.4 0 6.8 0 0 Z " fill="#3F97BE" transform="translate(428,489)"/>
<path d="M0 0 C1.32 0.66 2.64 1.32 4 2 C3.67 2.66 3.34 3.32 3 4 C2.34 3.67 1.68 3.34 1 3 C0.67 9.27 0.34 15.54 0 22 C0.66 22.33 1.32 22.66 2 23 C0.02 23.99 0.02 23.99 -2 25 C-3 24 -3 24 -3.125 20.625 C-3 17 -3 17 -2 14 C-1.69301138 10.61459776 -1.49095405 7.22864938 -1.28125 3.8359375 C-1 1 -1 1 0 0 Z " fill="#63AACA" transform="translate(428,487)"/>
<path d="M0 0 C1.32 0.33 2.64 0.66 4 1 C3.34 1 2.68 1 2 1 C2.02320313 1.56847656 2.04640625 2.13695312 2.0703125 2.72265625 C2.19191688 7.92558648 1.67723492 12.07312243 0 17 C-0.66 16.67 -1.32 16.34 -2 16 C-1.50130596 10.63108121 -0.97772468 5.30764827 0 0 Z " fill="#B3D7E9" transform="translate(420,482)"/>
<path d="M0 0 C2.475 0.99 2.475 0.99 5 2 C4.67 2.66 4.34 3.32 4 4 C3.34 3.67 2.68 3.34 2 3 C1.97308315 5.45840605 1.95320198 7.91651882 1.9375 10.375 C1.92912109 11.07367188 1.92074219 11.77234375 1.91210938 12.4921875 C1.8164558 16.37295376 1.8164558 16.37295376 3 20 C2.01 20 1.02 20 0 20 C0 13.4 0 6.8 0 0 Z " fill="#50A0C4" transform="translate(428,489)"/>
<path d="M0 0 C0.99 0.33 1.98 0.66 3 1 C2.67 1.33 2.34 1.66 2 2 C1.46067708 5.58491118 1.03332955 9.17846262 0.59765625 12.77734375 C0 16 0 16 -2 18 C-1.85980308 15.18711295 -1.71312045 12.37483115 -1.5625 9.5625 C-1.52318359 8.76005859 -1.48386719 7.95761719 -1.44335938 7.13085938 C-1.11328125 1.11328125 -1.11328125 1.11328125 0 0 Z " fill="#90C3DC" transform="translate(424,484)"/>
<path d="M0 0 C1.32 0.33 2.64 0.66 4 1 C3.01 1.495 3.01 1.495 2 2 C1.38743934 5.54831432 1.03877174 9.09938183 0.66015625 12.6796875 C0.00776459 15.96094735 -0.36515337 17.06155698 -3 19 C-3 16.04687303 -2.35678186 13.84967822 -1.51171875 11.05078125 C-0.6064966 7.42298255 -0.32038944 3.71820374 0 0 Z " fill="#A3CDE3" transform="translate(422,483)"/>
<path d="M0 0 C1.98 0.495 1.98 0.495 4 1 C3.34 1 2.68 1 2 1 C1.95101563 1.69867188 1.90203125 2.39734375 1.8515625 3.1171875 C1.77679688 4.02726562 1.70203125 4.93734375 1.625 5.875 C1.52058594 7.23238281 1.52058594 7.23238281 1.4140625 8.6171875 C1 11 1 11 -1 13 C-0.67 8.71 -0.34 4.42 0 0 Z " fill="#C5E2F0" transform="translate(418,481)"/>
</svg>
