<?xml version="1.0" encoding="UTF-8"?>
<svg version="1.1" xmlns="http://www.w3.org/2000/svg" width="512" height="512">
<path d="M0 0 C7.49916534 5.41530221 13.34245694 12.75834489 19 20 C22.26263979 18.9124534 22.62188044 18.43668107 24.5625 15.8125 C29.86940763 9.39668629 36.97908693 5.86078386 45 4 C68.2462654 2.00281836 85.56736932 11.50062618 103.28125 25.84765625 C108.01687154 29.84561367 112.07322682 34.21448915 116 39 C116.82371094 39.98613281 117.64742188 40.97226562 118.49609375 41.98828125 C142.59815042 71.36239139 160.1435592 110.82397052 156.69140625 149.453125 C154.79359617 164.70278473 150.25028434 177.51918283 138.11328125 187.53515625 C134.63871523 189.94358926 130.93746995 191.508427 127 193 C125.33284728 193.66545024 123.6660623 194.3318244 122 195 C122.14622803 195.60884033 122.29245605 196.21768066 122.44311523 196.8449707 C123.11580153 199.6656636 123.77668181 202.48900412 124.4375 205.3125 C124.78264648 206.74819336 124.78264648 206.74819336 125.13476562 208.21289062 C126.66515617 214.80022382 127.5648832 221.25197412 128 228 C128.845625 228.20625 129.69125 228.4125 130.5625 228.625 C136.16608019 230.86643208 139.80415528 234.03264257 142.9375 239.1875 C144.57180841 245.05178313 144.94202557 251.1739233 143 257 C143.53367187 256.77183594 144.06734375 256.54367187 144.6171875 256.30859375 C151.90648604 253.49628653 157.87519987 253.57218457 165.25 256.125 C170.4325378 259.6585485 174.0611285 263.99661347 176 270 C176.91989448 277.75492443 176.08486906 283.36208778 172 290 C172.33 290.33 172.66 290.66 173 291 C174.3343952 290.96723583 175.66794801 290.89806584 177 290.8125 C183.86512619 290.75784135 188.94115557 293.03067054 193.875 297.75 C197.71016725 303.61554991 199.76251122 308.88322857 199 316 C198.15236007 318.76213703 197.12421496 321.32998946 196 324 C196.845625 323.67 197.69125 323.34 198.5625 323 C205.26224735 321.05098259 210.33804359 321.95820599 216.62890625 324.66796875 C221.60378773 327.4627539 224.28417391 331.21043477 226.375 336.4375 C226.58125 337.283125 226.7875 338.12875 227 339 C230.41756159 339.8964096 233.47161265 340.37353457 237 340 C240.17451414 337.77840396 242.47094279 334.91240904 245 332 C251.54177713 326.05976559 259.90644514 323.33479072 268.71875 323.72265625 C277.23275455 324.75774927 284.09761008 327.67892844 290 334 C293.10439764 338.31285692 295.78509311 342.80651935 298.453125 347.39794922 C300.23612627 350.39719598 302.09896042 353.33926382 303.96875 356.28515625 C305.35472256 358.50225676 306.74013965 360.7197046 308.125 362.9375 C308.80127441 363.99114746 309.47754883 365.04479492 310.17431641 366.13037109 C316.30239329 376.09974057 316.30239329 376.09974057 315.62378216 381.79763699 C313.25649498 390.15572429 302.74063249 397.40103802 296.68041992 403.44897461 C295.54943551 404.58131649 294.41866341 405.71387046 293.28808594 406.84661865 C290.23913602 409.90009863 287.18706653 412.950442 284.13425994 416.00006557 C280.93462769 419.19715496 277.73744846 422.39669599 274.53987122 425.59584045 C269.17787227 430.9596539 263.8137786 436.3213657 258.44848633 441.68188477 C252.2418093 447.88310389 246.03876536 454.08793971 239.83756369 460.29463381 C234.50763892 465.62909037 229.17577575 470.96160361 223.84227449 476.29248434 C220.65882354 479.47437502 217.47605522 482.65694059 214.29503441 485.84126091 C211.31038406 488.82879148 208.32331425 491.81388131 205.3343277 494.79707336 C204.23613702 495.89393797 203.13880349 496.99166151 202.04237556 498.09028816 C200.5502933 499.58508747 199.05519033 501.07679709 197.55924988 502.56773376 C196.72213565 503.40447097 195.88502142 504.24120817 195.02254009 505.10330105 C191.87166215 508.05813339 189.18883517 508.66057033 184.83984375 508.578125 C179.06413692 507.40232774 174.26630219 503.69497996 169.39013672 500.52441406 C166.66500984 498.7863454 163.9022623 497.12094146 161.12890625 495.4609375 C160.10684082 494.84814941 159.08477539 494.23536133 158.03173828 493.60400391 C156.00358243 492.38877465 153.97463848 491.17485951 151.94482422 489.96240234 C141.90181469 483.88369348 135.88469432 478.69251818 131.6875 467.5 C130.07879369 459.31022244 131.25385927 452.82977029 134 445 C133.01902344 445.54269531 132.03804688 446.08539063 131.02734375 446.64453125 C119.37332747 452.89971745 109.02462175 455.74541152 95.6875 456.4375 C82.73875516 457.26680164 76.37076905 462.76987443 68 472 C68.91447846 473.08518111 69.83170407 474.16804738 70.75 475.25 C71.56984375 476.21679688 71.56984375 476.21679688 72.40625 477.203125 C74.03373597 479.10941152 74.03373597 479.10941152 76.25 481 C79.09070682 484.24652208 79.96047264 487.72937291 80.03515625 492.01953125 C79.64994923 496.93326961 78.22359163 500.16653969 75 504 C69.89863524 508.25280281 66.09629518 508.57739731 59.7457428 508.52139282 C58.82267238 508.52904392 57.89960195 508.53669501 56.9485597 508.54457796 C53.86008639 508.56519135 50.77235997 508.55726324 47.68383789 508.54931641 C45.46773084 508.55801197 43.25162981 508.56837871 41.03553772 508.58029175 C35.01901823 508.60707935 29.00274995 508.60822839 22.98618245 508.60316515 C17.96367221 508.60102638 12.94121286 508.6107907 7.91871351 508.62037599 C-4.6068996 508.64383754 -17.1323907 508.64211471 -29.65800441 508.62926237 C-40.52973459 508.61892351 -51.4011064 508.64143754 -62.27276569 508.67945881 C-73.44317984 508.71822465 -84.61346344 508.73414342 -95.78395468 508.72721231 C-102.05243125 508.72358458 -108.32057952 508.72887908 -114.58900261 508.75664139 C-120.48333823 508.78177006 -126.37695586 508.77793752 -132.27128029 508.75181961 C-134.43401201 508.74708285 -136.59679404 508.75257639 -138.75946808 508.76906586 C-141.71340001 508.78996376 -144.66491427 508.77383706 -147.61875916 508.7484436 C-148.47363086 508.76319217 -149.32850257 508.77794074 -150.20927948 508.79313624 C-155.7656227 508.69271542 -158.62806702 507.35945523 -162.65817839 503.52422464 C-165.46749504 500.33301828 -165.93344175 497.73214073 -166.3125 493.5625 C-165.77059813 487.38481864 -162.86402703 483.48924214 -158.57278442 479.1918335 C-157.66715759 478.27774719 -156.76153076 477.36366089 -155.82846069 476.421875 C-154.82736009 475.42660629 -153.82610366 474.4314943 -152.82470703 473.43652344 C-151.76772901 472.37547706 -150.71138955 471.31379425 -149.65563965 470.25152588 C-146.79479051 467.37703049 -143.92456952 464.51206931 -141.05213404 461.64915752 C-138.04440649 458.64903848 -135.04402035 455.64159169 -132.04244995 452.63531494 C-127.00227144 447.58968321 -121.95581088 442.55039949 -116.90576172 437.51464844 C-111.06919734 431.69441855 -105.24353093 425.86344805 -99.42339051 420.02679801 C-94.42244467 415.01223557 -89.41567286 410.00354644 -84.40399063 404.99971414 C-81.41224658 402.01264448 -78.42256014 399.02359118 -75.43811417 396.02922821 C-72.63282558 393.21526946 -69.82029159 390.40875899 -67.00201416 387.60781097 C-65.96946344 386.57922442 -64.93945233 385.54808116 -63.91219711 384.51420593 C-62.50880584 383.10260735 -61.09523192 381.70115408 -59.68118286 380.30023193 C-58.49929729 379.12004297 -58.49929729 379.12004297 -57.29353523 377.91601181 C-52.8880005 374.23564254 -48.76924707 373.59724387 -43.203125 373.75390625 C-36.81928036 374.46699528 -33.1549743 378.54824182 -29 383 C-20.67000112 379.13346006 -12.52211709 371.99172135 -8 364 C-6.39802427 356.86372 -7.40904068 349.6357768 -8.63842773 342.50097656 C-9.0050983 339.96473532 -9.05992613 337.55875963 -9 335 C-9.94875 335.886875 -10.8975 336.77375 -11.875 337.6875 C-22.04004691 346.32473425 -34.92305658 349.31957368 -48 350 C-49.11181641 350.061875 -49.11181641 350.061875 -50.24609375 350.125 C-88.84399402 351.16642733 -129.00383059 332.32123587 -156.703125 306.25390625 C-158.34406305 304.64366602 -159.97443741 303.02263195 -161.59765625 301.39453125 C-162.92633979 300.07016864 -164.2698183 298.75861688 -165.66796875 297.5078125 C-174.78091738 289.21479498 -181.6412277 277.41076976 -186 266 C-186.31710938 265.25234375 -186.63421875 264.5046875 -186.9609375 263.734375 C-190.81515582 253.33859349 -190.7525246 239.56322796 -186.33203125 229.39453125 C-182.58895163 222.66576935 -177.93125038 217.79512355 -172 213 C-173.8734012 211.26907429 -175.74866282 209.54023837 -177.625 207.8125 C-178.40810547 207.08836914 -178.40810547 207.08836914 -179.20703125 206.34960938 C-181.82248701 203.94403587 -184.45806092 201.61133694 -187.2265625 199.3828125 C-189.6182146 197.32801281 -191.15510963 195.73339517 -192.75 193.0625 C-193.13671875 192.43472656 -193.5234375 191.80695313 -193.921875 191.16015625 C-198.08223918 182.82435411 -198.22466595 173.13154896 -196.41796875 164.0859375 C-192.11241975 151.7001116 -178.88688348 141.72770539 -169.81054688 132.63354492 C-168.39508863 131.21180854 -166.97981569 129.78988765 -165.56471252 128.36779785 C-160.95293012 123.73515535 -156.335976 119.1076847 -151.71875 114.48046875 C-150.1225214 112.88018759 -148.52632509 111.27987422 -146.93016052 109.67952919 C-139.43681202 102.16717879 -131.94108923 94.65720748 -124.44241571 87.15017241 C-115.8062558 78.50422031 -107.17845963 69.85003186 -98.55758429 61.18884009 C-91.87560765 54.47669404 -85.18596401 47.77225155 -78.49054193 41.07351762 C-74.49872626 37.07935508 -70.51026365 33.08197638 -66.52989197 29.07640648 C-62.78918614 25.31239675 -59.03904206 21.55805223 -55.28153801 17.8108139 C-53.9079014 16.43767197 -52.53765652 15.06112699 -51.17115974 13.68087959 C-37.39121322 -0.22989864 -19.50527013 -11.91402986 0 0 Z M34.3125 29.90234375 C32.71376138 32.45747065 32.02735763 33.96330285 32 37 C33.46811531 39.14022717 34.85789186 40.82380605 36.625 42.6875 C57.53687031 66.14918925 74.85651026 94.56859625 90 122 C90.51997559 122.93827637 91.03995117 123.87655273 91.57568359 124.84326172 C99.33181112 138.95567769 105.82779537 153.45401429 111.91455078 168.35546875 C113.24068644 171.58639575 114.61164209 174.79539682 116 178 C123.39427879 177.16129708 128.17689763 174.71821962 133 169 C142.3831885 154.35365247 141.8568561 135.69801565 138.375 119.1875 C132.6647715 94.3120259 120.92575881 70.16018242 104 51 C103.15695312 50.01257813 102.31390625 49.02515625 101.4453125 48.0078125 C89.95353442 34.77383452 74.40664651 22.02595046 56.4453125 19.6640625 C46.74275081 19.50071971 40.60403603 22.57678213 34.3125 29.90234375 Z M-167 231 C-172.13982483 236.41034192 -173.49459567 241.9255938 -173.30859375 249.234375 C-171.03118084 269.64460715 -154.37344694 287.66156904 -139 300 C-110.74655926 321.36632563 -77.9805632 335.55063834 -42 333 C-32.42340374 331.54912969 -24.45502615 327.4782383 -18.2578125 320.015625 C-16.11215419 316.57724088 -15.58515405 312.95107532 -15 309 C-15.70817871 308.70794678 -16.41635742 308.41589355 -17.14599609 308.11499023 C-65.05361429 288.2671032 -112.34246304 262.99495596 -151.59716797 228.60058594 C-158.17635087 222.83747282 -161.12621312 226.00431459 -167 231 Z " fill="#F7B7A2" transform="translate(197,4)"/>
<path d="M0 0 C7.49916534 5.41530221 13.34245694 12.75834489 19 20 C22.26263979 18.9124534 22.62188044 18.43668107 24.5625 15.8125 C29.86940763 9.39668629 36.97908693 5.86078386 45 4 C68.2462654 2.00281836 85.56736932 11.50062618 103.28125 25.84765625 C108.01687154 29.84561367 112.07322682 34.21448915 116 39 C116.82371094 39.98613281 117.64742188 40.97226562 118.49609375 41.98828125 C142.59815042 71.36239139 160.1435592 110.82397052 156.69140625 149.453125 C154.79359617 164.70278473 150.25028434 177.51918283 138.11328125 187.53515625 C134.63871523 189.94358926 130.93746995 191.508427 127 193 C125.33284728 193.66545024 123.6660623 194.3318244 122 195 C122.14622803 195.60884033 122.29245605 196.21768066 122.44311523 196.8449707 C123.11580153 199.6656636 123.77668181 202.48900412 124.4375 205.3125 C124.78264648 206.74819336 124.78264648 206.74819336 125.13476562 208.21289062 C126.66515617 214.80022382 127.5648832 221.25197412 128 228 C125.36328125 228.16276042 122.7265625 228.32552083 120.08984375 228.48828125 C113.20872542 229.62788492 108.89754175 232.51680719 104.171875 237.5078125 C103.39834686 238.29694534 103.39834686 238.29694534 102.60919189 239.10202026 C100.97952819 240.76700932 99.36402099 242.44485435 97.75 244.125 C96.11993663 245.81039314 94.48697715 247.49271348 92.84796143 249.16940308 C91.83284127 250.20894955 90.82311499 251.25379744 89.81951904 252.30447388 C87.5455894 254.64330003 86.14767078 255.95077641 83 257 C80.8125 256.0625 80.8125 256.0625 79 255 C79 254.34 79 253.68 79 253 C64.52219029 251.54796999 64.52219029 251.54796999 50.95703125 256.10546875 C49 257 49 257 46 257 C45.72795242 257.59703735 45.45590485 258.19407471 45.1756134 258.8092041 C44.02455048 260.95424933 42.90399299 262.34385412 41.19018555 264.05273438 C40.62587326 264.62012329 40.06156097 265.18751221 39.48014832 265.77209473 C38.87181656 266.37324097 38.2634848 266.97438721 37.63671875 267.59375 C37.00772171 268.22228882 36.37872467 268.85082764 35.73066711 269.49841309 C34.4006906 270.82537266 33.06828862 272.14990507 31.73364258 273.47216797 C29.70013827 275.48747483 27.67469137 277.51060927 25.65039062 279.53515625 C24.35463634 280.82599247 23.05842708 282.11637217 21.76171875 283.40625 C21.15945969 284.00739624 20.55720062 284.60854248 19.93669128 285.22790527 C17.43974354 287.69708895 14.97930169 290.01645661 12.2265625 292.20507812 C10.20541072 293.83441013 8.9751359 295.13716677 7.61328125 297.3125 C7.0419043 298.21355469 7.0419043 298.21355469 6.45898438 299.1328125 C6.08064453 299.74898438 5.70230469 300.36515625 5.3125 301 C4.92255859 301.61617188 4.53261719 302.23234375 4.13085938 302.8671875 C2.26370901 305.84186124 0.48815669 308.81677714 -1 312 C-16.53798411 310.09252369 -30.85934964 303.36846704 -45 297 C-46.19713623 296.46632813 -46.19713623 296.46632813 -47.41845703 295.921875 C-79.47206582 281.55370915 -108.94339495 261.99259924 -137 241 C-137.57911133 240.56800293 -138.15822266 240.13600586 -138.75488281 239.69091797 C-145.30724831 234.78686449 -151.57465331 229.69601739 -157.60546875 224.15234375 C-161.58362807 220.57654312 -165.79276378 217.30005091 -170 214 C-193.52773908 195.54542966 -193.52773908 195.54542966 -197 183 C-197.90698892 172.91765811 -197.90914522 163.0905028 -191.27985382 154.86591053 C-184.3403708 147.23726711 -177.09441371 139.93171562 -169.81054688 132.63354492 C-168.39508863 131.21180854 -166.97981569 129.78988765 -165.56471252 128.36779785 C-160.95293012 123.73515535 -156.335976 119.1076847 -151.71875 114.48046875 C-150.1225214 112.88018759 -148.52632509 111.27987422 -146.93016052 109.67952919 C-139.43681202 102.16717879 -131.94108923 94.65720748 -124.44241571 87.15017241 C-115.8062558 78.50422031 -107.17845963 69.85003186 -98.55758429 61.18884009 C-91.87560765 54.47669404 -85.18596401 47.77225155 -78.49054193 41.07351762 C-74.49872626 37.07935508 -70.51026365 33.08197638 -66.52989197 29.07640648 C-62.78918614 25.31239675 -59.03904206 21.55805223 -55.28153801 17.8108139 C-53.9079014 16.43767197 -52.53765652 15.06112699 -51.17115974 13.68087959 C-37.39121322 -0.22989864 -19.50527013 -11.91402986 0 0 Z M34.3125 29.90234375 C32.71376138 32.45747065 32.02735763 33.96330285 32 37 C33.46811531 39.14022717 34.85789186 40.82380605 36.625 42.6875 C57.53687031 66.14918925 74.85651026 94.56859625 90 122 C90.51997559 122.93827637 91.03995117 123.87655273 91.57568359 124.84326172 C99.33181112 138.95567769 105.82779537 153.45401429 111.91455078 168.35546875 C113.24068644 171.58639575 114.61164209 174.79539682 116 178 C123.39427879 177.16129708 128.17689763 174.71821962 133 169 C142.3831885 154.35365247 141.8568561 135.69801565 138.375 119.1875 C132.6647715 94.3120259 120.92575881 70.16018242 104 51 C103.15695312 50.01257813 102.31390625 49.02515625 101.4453125 48.0078125 C89.95353442 34.77383452 74.40664651 22.02595046 56.4453125 19.6640625 C46.74275081 19.50071971 40.60403603 22.57678213 34.3125 29.90234375 Z " fill="#FAD58B" transform="translate(197,4)"/>
<path d="M0 0 C1.08087891 -0.02513672 1.08087891 -0.02513672 2.18359375 -0.05078125 C9.8080557 1.11354545 14.34906443 6.7786821 19.4375 12.0625 C24.42272879 17.19064429 29.42069158 22.1721117 34.85205078 26.82910156 C36.85556492 28.5666625 38.7208227 30.40504851 40.5625 32.3125 C43.7840855 35.58452128 47.14842145 38.60566055 50.62890625 41.59765625 C53.12681556 43.8129738 55.44274989 46.1814817 57.78125 48.5625 C59.64639674 50.39492487 61.58177746 52.10603135 63.5625 53.8125 C66.75880451 56.56623927 69.73543627 59.45993497 72.6887207 62.4699707 C74.49028242 64.24148683 76.34564376 65.89678429 78.26171875 67.54296875 C82.57454794 71.29278093 86.7309085 75.19061526 90.875 79.125 C98.77749936 86.59377839 106.72575402 93.99494969 114.9375 101.125 C116.14596036 102.18735552 117.35430754 103.24983981 118.5625 104.3125 C119.51125 105.1375 120.46 105.9625 121.4375 106.8125 C124.92897884 110.92012216 125.84148102 115.0828487 125.4375 120.375 C124.54954755 125.65168297 122.08586923 129.04252829 117.99635983 132.45178795 C113.5691267 134.85078105 110.25924592 134.87755492 105.3082428 134.83389282 C104.38517238 134.84154392 103.46210195 134.84919501 102.5110597 134.85707796 C99.42258639 134.87769135 96.33485997 134.86976324 93.24633789 134.86181641 C91.03023084 134.87051197 88.81412981 134.88087871 86.59803772 134.89279175 C80.58151823 134.91957935 74.56524995 134.92072839 68.54868245 134.91566515 C63.52617221 134.91352638 58.50371286 134.9232907 53.48121351 134.93287599 C40.9556004 134.95633754 28.4301093 134.95461471 15.90449559 134.94176237 C5.03276541 134.93142351 -5.8386064 134.95393754 -16.71026569 134.99195881 C-27.88067984 135.03072465 -39.05096344 135.04664342 -50.22145468 135.03971231 C-56.48993125 135.03608458 -62.75807952 135.04137908 -69.02650261 135.06914139 C-74.92083823 135.09427006 -80.81445586 135.09043752 -86.70878029 135.06431961 C-88.87151201 135.05958285 -91.03429404 135.06507639 -93.19696808 135.08156586 C-96.15090001 135.10246376 -99.10241427 135.08633706 -102.05625916 135.0609436 C-102.91113086 135.07569217 -103.76600257 135.09044074 -104.64677948 135.10563624 C-110.2031227 135.00521542 -113.06556702 133.67195523 -117.09567839 129.83672464 C-119.90499504 126.64551828 -120.37094175 124.04464073 -120.75 119.875 C-120.20809813 113.69731864 -117.30152703 109.80174214 -113.01028442 105.5043335 C-112.10465759 104.59024719 -111.19903076 103.67616089 -110.26596069 102.734375 C-109.26486009 101.73910629 -108.26360366 100.7439943 -107.26220703 99.74902344 C-106.20522901 98.68797706 -105.14888955 97.62629425 -104.09313965 96.56402588 C-101.23229051 93.68953049 -98.36206952 90.82456931 -95.48963404 87.96165752 C-92.48190649 84.96153848 -89.48152035 81.95409169 -86.47994995 78.94781494 C-81.43977144 73.90218321 -76.39331088 68.86289949 -71.34326172 63.82714844 C-65.50669734 58.00691855 -59.68103093 52.17594805 -53.86089051 46.33929801 C-48.85994467 41.32473557 -43.85317286 36.31604644 -38.84149063 31.31221414 C-35.84974658 28.32514448 -32.86006014 25.33609118 -29.87561417 22.34172821 C-27.07032558 19.52776946 -24.25779159 16.72125899 -21.43951416 13.92031097 C-20.40696344 12.89172442 -19.37695233 11.86058116 -18.34969711 10.82670593 C-16.94630584 9.41510735 -15.53273192 8.01365408 -14.11868286 6.61273193 C-13.33075914 5.82593929 -12.54283543 5.03914665 -11.73103523 4.22851181 C-8.12172068 1.21330227 -4.67001816 0.02497336 0 0 Z " fill="#E43F49" transform="translate(151.4375,377.6875)"/>
<path d="M0 0 C5.75524138 4.86287817 9.21930656 11.28490175 12.953125 17.71044922 C14.73612627 20.70969598 16.59896042 23.65176382 18.46875 26.59765625 C19.85472256 28.81475676 21.24013965 31.0322046 22.625 33.25 C23.30127441 34.30364746 23.97754883 35.35729492 24.67431641 36.44287109 C30.80239329 46.41224057 30.80239329 46.41224057 30.12378216 52.11013699 C27.75649498 60.46822429 17.24063249 67.71353802 11.18041992 73.76147461 C10.04943551 74.89381649 8.91866341 76.02637046 7.78808594 77.15911865 C4.73913602 80.21259863 1.68706653 83.262942 -1.36574006 86.31256557 C-4.56537231 89.50965496 -7.76255154 92.70919599 -10.96012878 95.90834045 C-16.32212773 101.2721539 -21.6862214 106.6338657 -27.05151367 111.99438477 C-33.2581907 118.19560389 -39.46123464 124.40043971 -45.66243631 130.60713381 C-50.99236108 135.94159037 -56.32422425 141.27410361 -61.65772551 146.60498434 C-64.84117646 149.78687502 -68.02394478 152.96944059 -71.20496559 156.15376091 C-74.18961594 159.14129148 -77.17668575 162.12638131 -80.1656723 165.10957336 C-81.26386298 166.20643797 -82.36119651 167.30416151 -83.45762444 168.40278816 C-84.9497067 169.89758747 -86.44480967 171.38929709 -87.94075012 172.88023376 C-88.77786435 173.71697097 -89.61497858 174.55370817 -90.47745991 175.41580105 C-93.62833785 178.37063339 -96.31116483 178.97307033 -100.66015625 178.890625 C-106.43586308 177.71482774 -111.23369781 174.00747996 -116.10986328 170.83691406 C-118.83499016 169.0988454 -121.5977377 167.43344146 -124.37109375 165.7734375 C-125.39315918 165.16064941 -126.41522461 164.54786133 -127.46826172 163.91650391 C-129.49641757 162.70127465 -131.52536152 161.48735951 -133.55517578 160.27490234 C-143.59818531 154.19619348 -149.61530568 149.00501818 -153.8125 137.8125 C-155.35723169 129.94841139 -154.91629329 122.64538129 -151.5 115.3125 C-145.53758119 107.65164411 -138.26888464 100.93264164 -131.40234375 94.08203125 C-130.3580549 93.03706624 -129.31391432 91.99195304 -128.26991272 90.94670105 C-126.09912037 88.77444773 -123.92656429 86.60397893 -121.75268555 84.43481445 C-118.9870013 81.67484085 -116.22585213 78.91038061 -113.46601009 76.14456654 C-111.31694723 73.99186669 -109.16547947 71.84158298 -107.01330757 69.69199181 C-105.99484762 68.67419173 -104.97710984 67.65566841 -103.96015739 66.63636208 C-98.85373359 61.52070521 -93.71563109 56.52078396 -88.2285614 51.81422424 C-85.7671937 49.67585904 -83.45886323 47.40106091 -81.15234375 45.09765625 C-80.69195206 44.63822128 -80.23156036 44.17878632 -79.75721741 43.70542908 C-78.79744921 42.74633264 -77.83890713 41.78600765 -76.8815918 40.82446289 C-75.43974779 39.37725615 -73.99262884 37.93547974 -72.54492188 36.49414062 C-67.83384547 31.78608912 -63.25921877 27.01304194 -58.92407227 21.95483398 C-57.20685763 19.9744289 -55.38525366 18.13274492 -53.5 16.3125 C-50.86480094 13.72788058 -48.4266174 11.08366497 -46.0625 8.25 C-33.91619483 -5.71000685 -16.20978335 -10.90165007 0 0 Z " fill="#474747" transform="translate(482.5,333.6875)"/>
<path d="M0 0 C10.0871166 6.95875565 19.22312592 14.52241787 27 24 C27.82371094 24.98613281 28.64742188 25.97226562 29.49609375 26.98828125 C53.59815042 56.36239139 71.1435592 95.82397052 67.69140625 134.453125 C65.79654363 149.67910075 61.2654688 162.55863874 49.10546875 172.53125 C43.4892129 176.44908339 37.78423534 178.42261827 31 179 C30.32320342 177.274773 29.65898 175.54461061 29 173.8125 C28.443125 172.36810547 28.443125 172.36810547 27.875 170.89453125 C27.02363228 168.07817642 26.82927353 165.91835561 27 163 C27.71285156 162.8040625 28.42570312 162.608125 29.16015625 162.40625 C36.42113243 160.13902729 40.91941785 157.50447018 45 151 C54.65967584 131.59202744 50.40461083 108.24758533 43.97973633 88.4440918 C37.46295445 69.40828632 27.29116313 51.09641449 14 36 C13.23042969 35.08605469 12.46085937 34.17210937 11.66796875 33.23046875 C0.47663755 20.30348683 -15.06263805 7.96424026 -32.5546875 5.6640625 C-39.57000433 5.54595952 -45.54165737 6.80825337 -50.82421875 11.68359375 C-53.41727379 14.60313514 -55.33301899 17.46444959 -57 21 C-57.66 21 -58.32 21 -59 21 C-60.875 18.953125 -60.875 18.953125 -63 16.25 C-63.70125 15.36828125 -64.4025 14.4865625 -65.125 13.578125 C-66.69307683 11.42201936 -67.91326484 9.42251379 -69 7 C-52.30562754 -17.91508617 -22.99778666 -14.43387597 0 0 Z " fill="#CB7F58" transform="translate(286,19)"/>
<path d="M0 0 C5.11723176 3.19826985 9.52692892 6.95834187 14 11 C13.29875 11.556875 12.5975 12.11375 11.875 12.6875 C10.92625 13.450625 9.9775 14.21375 9 15 C7.989375 15.721875 6.97875 16.44375 5.9375 17.1875 C1.55184094 20.90454437 -0.48172996 25.7740334 -1.3828125 31.3828125 C-2.17649654 47.83852834 8.5182391 62.11727887 18.97265625 73.75 C40.93147324 97.57253118 76.5227539 117.17181584 109.31176758 119.13867188 C129.92627076 119.95255047 129.92627076 119.95255047 148 111 C152.53760924 106.46239076 154.31897836 102.15007918 156 96 C160.571279 96.54855348 164.67435795 97.41744803 169 99 C168.3859661 102.019 167.7169211 105.00458829 167 108 C166.75507813 109.07121094 166.51015625 110.14242187 166.2578125 111.24609375 C163.8581239 120.4307426 160.65614573 124.53394437 152.6796875 129.421875 C143.5083312 134.43515658 133.36513913 136.46067569 123 137 C122.25878906 137.04125 121.51757812 137.0825 120.75390625 137.125 C82.15600598 138.16642733 41.99616941 119.32123587 14.296875 93.25390625 C12.65593695 91.64366602 11.02556259 90.02263195 9.40234375 88.39453125 C8.07366021 87.07016864 6.7301817 85.75861688 5.33203125 84.5078125 C-3.78091738 76.21479498 -10.6412277 64.41076976 -15 53 C-15.31710938 52.25234375 -15.63421875 51.5046875 -15.9609375 50.734375 C-19.81295647 40.34452566 -19.76026839 26.55412754 -15.328125 16.39453125 C-11.41215241 9.33426302 -6.80613825 4.3059242 0 0 Z " fill="#F1B669" transform="translate(26,217)"/>
<path d="M0 0 C3.19210248 2.6246176 6.02415456 5.25859785 8.8125 8.3125 C8.8125 8.9725 8.8125 9.6325 8.8125 10.3125 C9.4725 10.3125 10.1325 10.3125 10.8125 10.3125 C10.8125 10.9725 10.8125 11.6325 10.8125 12.3125 C11.8025 12.6425 12.7925 12.9725 13.8125 13.3125 C13.8125 13.9725 13.8125 14.6325 13.8125 15.3125 C14.37839844 15.54324219 14.94429688 15.77398437 15.52734375 16.01171875 C18.39000155 17.64123165 20.15963258 19.69065063 22.375 22.125 C30.38184432 30.24924673 38.52418079 33.072323 49.8125 33.3125 C49.98265625 33.90417969 50.1528125 34.49585938 50.328125 35.10546875 C52.52580274 42.27130097 54.79180829 46.39707303 61.5 50.125 C66.37767746 52.38835694 70.49125304 53.38817246 75.8125 52.3125 C78.68758666 51.19414409 81.13088995 49.87270948 83.8125 48.3125 C83.3484375 49.4571875 83.3484375 49.4571875 82.875 50.625 C80.30795814 57.11810587 79.25336938 63.50884913 81.9765625 70.15234375 C85.05070302 75.52026605 87.80508918 78.97669639 93.8515625 80.9921875 C99.49656436 81.91427944 105.23588559 81.45642091 110.8125 80.3125 C106.37833328 85.62318805 101.69733314 90.56086617 96.7890625 95.43359375 C96.04288666 96.17835464 95.29671082 96.92311554 94.52792358 97.69044495 C92.16680611 100.04600827 89.80221838 102.39805216 87.4375 104.75 C85.82659144 106.35588763 84.21591204 107.96200516 82.60546875 109.56835938 C78.67712487 113.48573513 74.74593326 117.40023487 70.8125 121.3125 C69.37135517 118.53621307 68.5116398 116.33540661 68.13671875 113.22265625 C68.03399658 112.44470703 67.93127441 111.66675781 67.82543945 110.86523438 C67.71804443 110.04345703 67.61064941 109.22167969 67.5 108.375 C64.39170172 87.2329531 53.51911452 74.53843252 38.96875 59.89453125 C37.63165101 58.54267997 36.29461604 57.19076536 34.9576416 55.83879089 C32.17280433 53.0271531 29.38148042 50.22213282 26.58642578 47.4206543 C23.01010118 43.83338604 19.46000684 40.22127064 15.91529083 36.60280323 C13.17149019 33.81065452 10.4099151 31.03661823 7.64311218 28.26727867 C6.32562146 26.94256994 5.01473424 25.61125859 3.71076965 24.27323341 C1.89003002 22.40854114 0.04565167 20.57082841 -1.80664062 18.73754883 C-2.33570511 18.18443527 -2.86476959 17.63132172 -3.40986633 17.06144714 C-6.31286783 14.24526284 -8.41242611 12.97717212 -12.39880371 12.91093445 C-16.10920966 13.1672504 -16.10920966 13.1672504 -19.1875 14.3125 C-20.93873125 14.23163104 -22.68883293 14.12455589 -24.4375 14 C-28.83198995 13.92413231 -31.0448968 14.40461847 -34.375 17.3125 C-35.33859582 18.28737914 -36.28660937 19.27939675 -37.1875 20.3125 C-34.9806296 15.35133447 -31.29029503 12.04713054 -27.5 8.25 C-26.80455078 7.53005859 -26.10910156 6.81011719 -25.39257812 6.06835938 C-17.80244386 -1.56429665 -10.23625214 -5.41919231 0 0 Z " fill="#F8C87A" transform="translate(275.1875,312.6875)"/>
<path d="M0 0 C4.28363384 3.6327326 6.66000244 7.50601 8 13 C12.95 13.99 12.95 13.99 18 15 C14.26922558 19.4769293 10.41409885 23.66578561 6.22265625 27.71484375 C4.38722307 29.60188841 2.68035291 31.51905499 0.96875 33.515625 C-3.48447852 38.6390659 -8.23669607 43.45855749 -13.02514648 48.26538086 C-14.57025617 49.82030544 -16.10436424 51.38559671 -17.63867188 52.95117188 C-18.63475754 53.95378027 -19.63148023 54.95575628 -20.62890625 55.95703125 C-21.51650635 56.85397705 -22.40410645 57.75092285 -23.31860352 58.67504883 C-29.2153221 63.78790061 -35.09904262 65.32704617 -42.69140625 65.21484375 C-48.91283289 64.63586158 -53.07903801 61.66276561 -57 57 C-60.81631942 51.84281159 -61.44284525 48.12037631 -61.43359375 41.74609375 C-60.42442177 35.35467124 -56.80475228 31.42573047 -52.25 27.125 C-51.16086226 26.06835928 -50.07361272 25.00976872 -48.98828125 23.94921875 C-48.20831787 23.18810791 -48.20831787 23.18810791 -47.41259766 22.41162109 C-45.66108798 20.66132228 -44.03802876 18.82620183 -42.4375 16.9375 C-39.48928979 13.48575884 -36.37529188 10.22902443 -33.1875 7 C-32.70659912 6.5062085 -32.22569824 6.01241699 -31.73022461 5.50366211 C-30.52569814 4.29571308 -29.26661156 3.14268107 -28 2 C-27.34 2 -26.68 2 -26 2 C-25.67 1.01 -25.34 0.02 -25 -1 C-16.03272686 -5.17442025 -8.67763706 -4.87491637 0 0 Z " fill="#FEC6B3" transform="translate(416,330)"/>
<path d="M0 0 C5.83429456 3.09101699 9.71329763 8.11638268 11.76953125 14.3125 C12.03515625 16.99609375 12.03515625 16.99609375 12.01953125 19.75 C12.02726562 21.10931641 12.02726562 21.10931641 12.03515625 22.49609375 C11.25143856 30.80580626 6.92873448 34.67402809 1.14453125 40.25 C-0.02916016 41.40918945 -0.02916016 41.40918945 -1.2265625 42.59179688 C-3.53734965 44.85851429 -5.87737833 47.08980376 -8.23046875 49.3125 C-8.96620117 50.0255127 -9.70193359 50.73852539 -10.45996094 51.47314453 C-11.50265137 52.44743408 -11.50265137 52.44743408 -12.56640625 53.44140625 C-13.17790527 54.02092041 -13.7894043 54.60043457 -14.41943359 55.19750977 C-16.23046875 56.3125 -16.23046875 56.3125 -18.14697266 56.30444336 C-21.15466117 54.87249604 -22.96751726 52.74070268 -25.23046875 50.3125 C-26.46567261 49.07729614 -26.46567261 49.07729614 -27.72583008 47.81713867 C-33.89404297 41.64892578 -40.06225586 35.48071289 -46.23046875 29.3125 C-41.45885547 23.54347592 -36.31854416 18.214355 -31.02539062 12.92211914 C-29.59604435 11.49056102 -28.17492496 10.05114725 -26.75390625 8.61132812 C-25.84640625 7.70189453 -24.93890625 6.79246094 -24.00390625 5.85546875 C-23.18325684 5.03071045 -22.36260742 4.20595215 -21.51708984 3.35620117 C-15.61697408 -1.91711391 -7.4687717 -2.30210826 0 0 Z " fill="#FEC3AF" transform="translate(329.23046875,232.6875)"/>
<path d="M0 0 C2.64933743 2.21804994 4.66822513 4.45408095 6.6875 7.25 C4.47459289 7.9876357 2.26149761 8.72455514 0.046875 9.45703125 C-1.7078403 10.04677828 -3.45111349 10.67079194 -5.1875 11.3125 C-11.81830748 13.30174224 -18.13814522 14.4000315 -25.0625 14 C-29.2898016 13.8787001 -31.2828767 14.47951957 -34.5 17.25 C-35.46359582 18.22487914 -36.41160937 19.21689675 -37.3125 20.25 C-35.1056296 15.28883447 -31.41529503 11.98463054 -27.625 8.1875 C-26.92955078 7.46755859 -26.23410156 6.74761719 -25.51757812 6.00585938 C-17.84907477 -1.70560478 -10.30637506 -5.44487739 0 0 Z " fill="#E19867" transform="translate(275.3125,312.75)"/>
<path d="M0 0 C3.63 0.66 7.26 1.32 11 2 C6.98528179 6.89599781 2.89599781 10.98528179 -2 15 C-1.34 10.05 -0.68 5.1 0 0 Z " fill="#ECA866" transform="translate(423,343)"/>
<path d="M0 0 C2.56564327 1.28282164 2.88473433 2.39771344 4 5 C4.33 6.32 4.66 7.64 5 9 C2.69 7.02 0.38 5.04 -2 3 C-1.34 2.01 -0.68 1.02 0 0 Z " fill="#F1A28D" transform="translate(171,386)"/>
</svg>
