<?xml version="1.0" encoding="UTF-8"?>
<svg version="1.1" xmlns="http://www.w3.org/2000/svg" width="512" height="512">
<path d="M0 0 C3.02996843 1.54909508 5.90940654 3.23733695 8.80224609 5.02929688 C10.40350342 5.97349487 10.40350342 5.97349487 12.03710938 6.93676758 C14.26241015 8.25145056 16.48083549 9.5778378 18.69238281 10.91552734 C22.89088968 13.44781203 27.13183775 15.90286365 31.37524414 18.35888672 C34.17696864 19.98294883 36.97122917 21.6189795 39.76318359 23.25976562 C41.153936 24.03597511 41.153936 24.03597511 42.57278442 24.8278656 C45.08115495 26.35216101 47.17996253 27.81641513 49.44764709 29.62718201 C64.55801944 40.89161005 81.57860493 39.3494929 99.50135732 39.05690145 C103.98752307 38.9969112 108.47357452 39.00450788 112.96006775 39.00564575 C121.43729801 38.99870507 129.91323712 38.94037307 138.39005226 38.85917962 C153.58280745 38.71445762 168.77582544 38.64016566 183.96922582 38.61219513 C189.28997098 38.60011643 194.60949424 38.55956251 199.92985451 38.49514461 C203.24082124 38.45942174 206.55167514 38.44410516 209.86280823 38.43358421 C211.38902139 38.4243164 212.91521228 38.40642522 214.44120598 38.37893486 C224.13444985 38.20925113 232.43192409 38.79793422 239.88629246 45.64678764 C246.64795825 52.81019709 248.14971102 61.2277342 248.05224609 70.77929688 C248.04322266 71.93171875 248.03419922 73.08414063 248.02490234 74.27148438 C248.0075 75.57472656 248.0075 75.57472656 247.98974609 76.90429688 C248.95654297 76.84628906 249.92333984 76.78828125 250.91943359 76.72851562 C261.05755531 76.37719458 267.96266345 77.64220507 275.86474609 84.34179688 C282.27518224 92.07202869 284.30755297 98.93510699 284.24371338 108.86273193 C284.24683336 109.62220226 284.24995334 110.38167258 284.25316787 111.16415715 C284.26108931 113.68666756 284.2548474 116.20893348 284.24853516 118.73144531 C284.25124753 120.5487736 284.25480985 122.36610079 284.25915527 124.1834259 C284.2682496 129.10251292 284.26474791 134.02151577 284.2583971 138.94060421 C284.2533249 144.09169169 284.25803166 149.24277209 284.26116943 154.39385986 C284.2648042 163.03879081 284.26002143 171.68368753 284.25048828 180.32861328 C284.23959091 190.32618372 284.24314058 200.32367266 284.25414109 210.32124114 C284.26321147 218.90823749 284.26450088 227.49520928 284.25926375 236.08220887 C284.25614446 241.20970385 284.25573391 246.33716049 284.26233673 251.46465302 C284.2681064 256.28112299 284.26412024 261.09748758 284.25254822 265.91394615 C284.2499002 267.68285891 284.25066914 269.45178052 284.25507355 271.22068977 C284.26052448 273.63184572 284.25370062 276.04266217 284.24371338 278.45379639 C284.24817482 279.1565135 284.25263627 279.85923061 284.2572329 280.58324218 C284.20392443 287.20103014 284.20392443 287.20103014 281.98974609 289.90429688 C280.00974609 290.56429688 278.02974609 291.22429687 275.98974609 291.90429688 C275.98974609 298.17429687 275.98974609 304.44429688 275.98974609 310.90429688 C277.63974609 311.23429687 279.28974609 311.56429688 280.98974609 311.90429688 C284.28971187 315.79183869 284.36873264 319.22295804 284.37792969 324.19799805 C284.38581512 325.27227554 284.38581512 325.27227554 284.39385986 326.36825562 C284.40702608 328.72814984 284.39832948 331.08736489 284.38818359 333.44726562 C284.39020642 335.09768299 284.3931196 336.74809948 284.3968811 338.39851379 C284.40130082 341.85764068 284.394889 345.31653496 284.38085938 348.77563477 C284.36383468 353.18584244 284.37356793 357.59549963 284.39157677 362.00568676 C284.40248168 365.41602123 284.39893658 368.82622797 284.39119339 372.23656654 C284.38920636 373.86108784 284.39159742 375.48562112 284.39863205 377.1101284 C284.43452321 387.73498725 284.4706744 398.50039245 277.64990234 407.30273438 C271.83480813 412.91258997 265.05400841 416.03137638 257.04829407 416.02455139 C255.80728943 416.02592606 254.56628479 416.02730072 253.28767395 416.02871704 C251.91012549 416.02517791 250.53257728 416.0215431 249.1550293 416.01782227 C247.70632937 416.01754023 246.25762929 416.01769844 244.80892944 416.01826477 C240.87326971 416.01855212 236.93764036 416.01266551 233.0019877 416.00569081 C228.89001382 415.99944685 224.77803928 415.99885265 220.6660614 415.99766541 C212.87818337 415.99455517 205.09031935 415.98634592 197.3024475 415.97631592 C188.43676861 415.96514523 179.57108905 415.95964192 170.70540488 415.95462048 C152.466844 415.94416307 134.22829617 415.92656957 115.98974609 415.90429688 C116.10437195 416.60892563 116.2189978 417.31355438 116.33709717 418.03953552 C116.86385491 421.28451275 117.38775407 424.52994552 117.91162109 427.77539062 C118.09192871 428.88346069 118.27223633 429.99153076 118.45800781 431.13317871 C119.89145075 440.03328843 121.05257525 448.93951788 121.98974609 457.90429688 C122.57353027 457.87811279 123.15731445 457.85192871 123.75878906 457.82495117 C146.36788688 456.94335259 146.36788688 456.94335259 155.02490234 464.73632812 C160.61961233 470.56080033 163.06557357 476.24338558 163.42724609 484.27929688 C163.14455646 492.78354332 160.22642181 499.32151983 154.25927734 505.33398438 C144.54741327 512.05372509 135.0454109 511.47459079 123.64379883 511.421875 C121.67517582 511.42730029 119.70655687 511.43442522 117.73794556 511.44311523 C112.40949702 511.46130187 107.08135936 511.45430057 101.75290561 511.44159889 C96.16860051 511.43144853 90.58432144 511.44087009 85.00001526 511.44714355 C75.62455482 511.45441341 66.24922057 511.44484894 56.8737793 511.42578125 C46.04288197 511.4040075 35.2122858 511.4110703 24.38139576 511.43308687 C15.071586 511.45125209 5.76186678 511.45379387 -3.54795498 511.4433322 C-9.10372696 511.43710429 -14.65935748 511.43624252 -20.21512032 511.44947815 C-25.43800422 511.46105251 -30.6605006 511.45298171 -35.88334274 511.42990112 C-37.79731415 511.42462281 -39.71131829 511.42611274 -41.62527657 511.43495178 C-44.243302 511.44592556 -46.86009513 511.43212223 -49.4780426 511.41223145 C-50.2306814 511.42115433 -50.9833202 511.43007722 -51.75876623 511.4392705 C-58.69843725 511.33739365 -64.7839315 508.68171351 -69.76025391 503.77929688 C-74.90404025 498.24707816 -77.18177064 491.90643086 -77.51025391 484.40429688 C-77.14113724 475.9741484 -74.19657179 469.43633363 -68.27978516 463.47460938 C-61.02476739 458.45478641 -54.65928054 457.33905722 -45.94775391 457.65429688 C-44.98675781 457.67234375 -44.02576172 457.69039063 -43.03564453 457.70898438 C-40.69276164 457.75560891 -38.352071 457.82101518 -36.01025391 457.90429688 C-35.89750122 456.95514404 -35.89750122 456.95514404 -35.7824707 455.98681641 C-35.42517594 453.00044795 -35.06145365 450.01489182 -34.69775391 447.02929688 C-34.57980469 446.03542969 -34.46185547 445.0415625 -34.34033203 444.01757812 C-33.53731475 437.46989875 -32.54970903 430.9695757 -31.45092773 424.46630859 C-31.24272274 423.22596107 -31.24272274 423.22596107 -31.03031158 421.96055603 C-30.69127234 419.94163817 -30.35090094 417.92294409 -30.01025391 415.90429688 C-30.75863462 415.90890584 -31.50701534 415.9135148 -32.27807426 415.91826344 C-50.51578125 416.02884504 -68.75342103 416.11150312 -86.99139214 416.16335773 C-95.81127869 416.18910295 -104.630941 416.2241827 -113.45068359 416.28149414 C-121.1409655 416.33144229 -128.83108493 416.36361464 -136.52152455 416.37473935 C-140.59093861 416.3812389 -144.65988803 416.39643684 -148.72915268 416.43294716 C-152.56566175 416.46708765 -156.40151834 416.47731394 -160.2381649 416.46983528 C-161.64015064 416.47120184 -163.04216001 416.48102698 -164.4440136 416.50032425 C-174.66329254 416.63400291 -181.98836025 415.16198932 -189.88525391 408.46679688 C-197.47055807 399.31981244 -198.31037939 391.46053558 -198.27095032 379.96206665 C-198.27477586 378.77397317 -198.27860141 377.5858797 -198.28254288 376.36178339 C-198.29104911 373.08125965 -198.29064954 369.80087979 -198.28636229 366.52035236 C-198.28388905 362.97560776 -198.29291664 359.43088917 -198.30039978 355.88615417 C-198.31313224 348.94825914 -198.31494229 342.01040284 -198.31259952 335.0724981 C-198.31081456 329.43156108 -198.3125698 323.79063579 -198.31682396 318.14970016 C-198.31741915 317.34604119 -198.31801434 316.54238222 -198.31862756 315.71436995 C-198.31983935 314.08159253 -198.32105348 312.44881511 -198.32226994 310.8160377 C-198.33313989 295.5126728 -198.33098557 280.20932996 -198.32488509 264.90596382 C-198.31971647 250.91640376 -198.33097089 236.92691333 -198.34998331 222.93736704 C-198.36937109 208.56104113 -198.37761606 194.18474816 -198.37386006 179.80840909 C-198.37194944 171.74194571 -198.37442205 163.6755416 -198.3885746 155.6090889 C-198.40050135 148.74195974 -198.40187881 141.87492633 -198.38978443 135.00779583 C-198.38390479 131.50677845 -198.38277078 128.00593611 -198.39478683 124.5049305 C-198.40524584 120.70329001 -198.39715958 116.90211811 -198.38447571 113.10049438 C-198.39184999 112.0028138 -198.39922428 110.90513322 -198.40682203 109.77418959 C-198.34620895 101.12242106 -197.11570874 92.53312544 -191.67041016 85.50585938 C-185.18331127 79.24771692 -178.13942477 76.73477846 -169.32275391 76.84179688 C-168.62085938 76.84630859 -167.91896484 76.85082031 -167.19580078 76.85546875 C-165.46724852 76.86722761 -163.73874025 76.88516234 -162.01025391 76.90429688 C-162.03345703 76.07027344 -162.05666016 75.23625 -162.08056641 74.37695312 C-162.25884425 63.26005595 -161.66785292 54.51505695 -154.01025391 45.90429688 C-148.53090386 41.44414334 -143.92598818 38.71180991 -136.75805664 38.93701172 C-135.68023422 38.96487762 -134.6024118 38.99274353 -133.4919281 39.02145386 C-131.73562828 39.06787521 -131.73562828 39.06787521 -129.94384766 39.11523438 C-91.25378547 40.52274744 -91.25378547 40.52274744 -58.01025391 22.90429688 C-55.22110002 21.50971993 -53.10752127 21.72210468 -50.01025391 21.90429688 C-49.26904297 22.30777344 -48.52783203 22.71125 -47.76416016 23.12695312 C-44.35835208 24.08830888 -42.69544349 23.28193395 -39.64306641 21.62695312 C-39.02173828 21.26472656 -38.40041016 20.9025 -37.76025391 20.52929688 C-37.12345703 20.20574219 -36.48666016 19.8821875 -35.83056641 19.54882812 C-33.24615982 18.08066524 -31.28107239 16.84996637 -30.43798828 13.90600586 C-30.22998168 11.91117736 -30.11598838 9.90715177 -30.01025391 7.90429688 C-28.01025391 5.71679687 -28.01025391 5.71679687 -25.01025391 3.90429688 C-24.39150391 3.45957031 -23.77275391 3.01484375 -23.13525391 2.55664062 C-16.07354121 -2.10357051 -7.99791781 -2.91116424 0 0 Z " fill="#000100" transform="translate(213.01025390625,1.095703125)"/>
<path d="M0 0 C8.58 0 17.16 0 26 0 C26.00410889 1.89685547 26.00821777 3.79371094 26.01245117 5.74804688 C26.03190311 12.03866786 26.0742967 18.32881285 26.13209057 24.61919403 C26.16627748 28.43045306 26.19145746 32.2413148 26.19555664 36.05273438 C26.19985768 39.73599241 26.22846704 43.41835552 26.27343178 47.10133362 C26.28634969 48.50137607 26.29073477 49.90152593 26.28615379 51.30162048 C26.26592702 59.36589641 26.33634711 65.85121157 32 72 C33.94832722 73.89383599 33.94832722 73.89383599 36.08984375 75.09375 C36.87085449 75.57199219 37.65186523 76.05023438 38.45654297 76.54296875 C39.29588379 77.02378906 40.13522461 77.50460938 41 78 C41.88445801 78.51175781 42.76891602 79.02351563 43.68017578 79.55078125 C46.62724005 81.22637304 49.5921233 82.8661176 52.5625 84.5 C61.03418666 89.20114549 69.45627152 93.97149192 77.8125 98.875 C87.90303535 104.79432064 98.04424786 110.61929498 108.21020508 116.40771484 C109.86185669 117.3486499 109.86185669 117.3486499 111.546875 118.30859375 C112.61703857 118.91711182 113.68720215 119.52562988 114.78979492 120.15258789 C116.97981843 121.41290487 119.1593458 122.69159479 121.3293457 123.98608398 C122.38726318 124.61716064 123.44518066 125.2482373 124.53515625 125.8984375 C125.47496338 126.4661084 126.41477051 127.0337793 127.38305664 127.61865234 C131.27374119 129.67234142 134.61359151 130.55715687 139 130 C146.24402621 127.55589908 152.94112057 123.37546596 159.5625 119.625 C160.65457764 119.00995605 161.74665527 118.39491211 162.87182617 117.76123047 C171.20786814 113.05140574 179.48781076 108.24864635 187.74609375 103.40405273 C195.04496502 99.12550687 202.38034079 94.91531594 209.73275757 90.72982788 C214.82654005 87.82811264 219.91280513 84.91324253 225 82 C226.30106689 81.2579834 226.30106689 81.2579834 227.62841797 80.50097656 C229.75864887 79.2820482 231.88086109 78.05057873 234 76.8125 C235.093125 76.17957031 236.18625 75.54664063 237.3125 74.89453125 C241.35145133 72.04730538 244.14033078 68.57198029 246 64 C246.32698087 61.00941058 246.32698087 61.00941058 246.31884766 57.67089844 C246.33871735 56.38987244 246.35858704 55.10884644 246.37905884 53.78900146 C246.39093436 52.3957944 246.40259727 51.0025855 246.4140625 49.609375 C246.43277832 48.1801848 246.45235205 46.75100559 246.4727478 45.32183838 C246.52403148 41.56708264 246.56367716 37.81229108 246.60089111 34.05737305 C246.64095449 30.2230547 246.69203615 26.38888483 246.7421875 22.5546875 C246.83890225 15.03655256 246.92230228 7.51835993 247 0 C254.26 0 261.52 0 269 0 C269 70.29 269 140.58 269 213 C203.70354586 213.12099405 203.70354586 213.12099405 176.46679688 213.14648438 C170.23234026 213.15235812 163.99788386 213.15841961 157.76342773 213.16479492 C156.5913228 213.16598179 156.5913228 213.16598179 155.39553899 213.16719264 C142.77518841 213.18024576 130.15487878 213.20390007 117.53455249 213.23145839 C104.58571881 213.25949853 91.63690658 213.27617331 78.68804377 213.28226548 C70.69586951 213.28638482 62.70381093 213.29940221 54.71167227 213.3237494 C48.58653111 213.34146013 42.46147842 213.34336914 36.33631516 213.33932304 C33.82120615 213.34015034 31.30609288 213.34614367 28.7910099 213.35761642 C25.36379101 213.37248691 21.93707177 213.36897316 18.50984192 213.36076355 C17.50886862 213.36950207 16.50789532 213.3782406 15.4765895 213.38724393 C6.6501761 213.32988323 6.6501761 213.32988323 3 210 C-0.15300592 205.31728221 -0.42252475 201.02032635 -0.36076355 195.53384399 C-0.36332682 194.69567276 -0.3658901 193.85750153 -0.36853105 192.99393117 C-0.37346152 190.19318507 -0.35698822 187.39298137 -0.34057617 184.59228516 C-0.33972974 182.58157362 -0.34020536 180.57086115 -0.34190369 178.56015015 C-0.34276443 173.10605263 -0.32512564 167.65215304 -0.30418181 162.19810152 C-0.28542838 156.49661036 -0.28366562 150.79511466 -0.28010559 145.09359741 C-0.27078123 134.29896664 -0.24616207 123.504427 -0.21605712 112.70983636 C-0.18252536 100.41973832 -0.16603017 88.12963593 -0.15097082 75.83950353 C-0.11961292 50.55961677 -0.06624045 25.27981734 0 0 Z " fill="#595959" transform="translate(67,113)"/>
<path d="M0 0 C1.63001953 0.01353516 1.63001953 0.01353516 3.29296875 0.02734375 C4.12441406 0.03894531 4.95585938 0.05054687 5.8125 0.0625 C5.81396656 1.2241011 5.81543312 2.38570219 5.81694412 3.58250332 C5.85266842 31.17449784 5.90894177 58.76638845 5.99042095 86.35828739 C6.00043806 89.75651733 6.01028225 93.15474776 6.02001953 96.55297852 C6.0219609 97.22948727 6.02390228 97.90599603 6.02590248 98.60300506 C6.05689912 109.54798264 6.07389659 120.49293926 6.08569422 131.43795245 C6.09811791 142.67376636 6.12594302 153.90947124 6.16711307 165.14522272 C6.18974357 171.45400427 6.20540971 177.76262927 6.20438385 184.071455 C6.2036382 190.01158302 6.22155154 195.95136477 6.25366783 201.8914032 C6.26217448 204.0693968 6.26391159 206.24742921 6.25830269 208.42543221 C6.25165303 211.40482835 6.26960727 214.38312591 6.29351807 217.3624115 C6.28575765 218.21944119 6.27799723 219.07647088 6.27000165 219.95947117 C6.38416596 228.02396364 9.13387474 235.21685635 14.8125 241.0625 C20.83816195 245.74912596 26.77387378 247.30820056 34.34065533 247.32535553 C36.25761983 247.33687896 36.25761983 247.33687896 38.2133109 247.3486352 C39.6189887 247.347075 41.02466629 247.34531748 42.43034363 247.34338379 C43.93338792 247.34855544 45.43642948 247.35458298 46.93946725 247.36139059 C51.06207286 247.37748588 55.18460873 247.38110722 59.30724204 247.38258553 C63.75662507 247.38629441 68.20597225 247.40139292 72.65533447 247.41485596 C82.38061714 247.441991 92.10588328 247.45406686 101.8311975 247.46287727 C107.90607219 247.468407 113.98094053 247.47688256 120.05581093 247.48588562 C136.8825182 247.51026594 153.70922039 247.53086614 170.53594494 247.5376358 C171.61235845 247.53807494 172.68877197 247.53851407 173.79780408 247.53896651 C175.41623478 247.53962134 175.41623478 247.53962134 177.06736106 247.5402894 C179.25364761 247.54117633 181.43993416 247.54206945 183.6262207 247.54296875 C185.25292294 247.54363304 185.25292294 247.54363304 186.91248784 247.54431075 C204.48326487 247.55220618 222.05387599 247.58711478 239.62458893 247.63368779 C257.67343315 247.68114122 275.72219416 247.70604067 293.77110177 247.70837164 C303.90122126 247.71020359 314.03112448 247.72166903 324.16118431 247.75801086 C332.78721891 247.7888485 341.41297039 247.79903296 350.03904965 247.78253466 C354.43765211 247.77473418 358.83568476 247.77651757 363.23421669 247.80464935 C367.26696896 247.83020517 371.29872556 247.82766721 375.3314772 247.80346793 C376.78437511 247.7995671 378.2373445 247.80565049 379.69014218 247.82315665 C389.22097379 247.93066197 396.9150907 246.71607368 404.8125 241.0625 C411.36649078 233.857144 413.41847207 225.81069895 413.33148193 216.28012085 C413.33898319 215.34869377 413.34648444 214.41726669 413.354213 213.45761454 C413.37436408 210.36522819 413.36641221 207.27358389 413.35839844 204.18115234 C413.36714027 201.95309734 413.37762818 199.7250486 413.38972473 197.49700928 C413.41753028 191.4688179 413.4209906 185.44083193 413.42000484 179.41258574 C413.4231386 173.10513961 413.44876649 166.79778537 413.47198486 160.49038696 C413.50791197 149.91042329 413.53003919 139.33050081 413.54150391 128.75048828 C413.55334611 117.85722367 413.57356921 106.9640273 413.60498047 96.07080078 C413.60691657 95.39836702 413.60885267 94.72593325 413.61084744 94.0331227 C413.62061256 90.65942854 413.63054157 87.28573487 413.64055204 83.91204143 C413.7232734 55.96222715 413.77702676 28.01241115 413.8125 0.0625 C415.73804323 0.01510896 417.66392266 -0.01875727 419.58984375 -0.046875 C421.1984729 -0.0773291 421.1984729 -0.0773291 422.83959961 -0.10839844 C427.69247935 0.17057141 430.1734627 2.38096558 433.441185 5.7334137 C435.3429907 8.96350277 435.22643672 11.93581553 435.19104004 15.57788086 C435.19557017 16.33801703 435.2001003 17.09815321 435.2047677 17.88132381 C435.21640152 20.43017092 435.20674095 22.97849422 435.19726562 25.52734375 C435.20137025 27.35393615 435.20683047 29.18052593 435.21354675 31.0071106 C435.22527923 34.94131594 435.22775345 38.87538097 435.22319031 42.80960083 C435.2163904 49.02800683 435.23223143 55.24622759 435.25158691 61.46459961 C435.29269341 75.78699805 435.30399299 90.10939154 435.31511688 104.43183899 C435.32561694 117.5575064 435.34235741 130.68308511 435.38321257 143.8086977 C435.40160008 149.99284408 435.40545005 156.17677942 435.39827728 162.36094666 C435.39675818 166.20486749 435.40752181 170.04868221 435.42165565 173.89257431 C435.42566689 175.67760697 435.42451873 177.46265965 435.41788292 179.24768448 C435.40953026 181.68109014 435.41945803 184.1137582 435.43395996 186.54711914 C435.42706603 187.25645568 435.42017209 187.96579222 435.41306925 188.6966238 C435.44791573 191.69000677 435.67604795 193.80460603 437.08615875 196.4697113 C438.93776461 198.43353603 438.93776461 198.43353603 442.8125 199.0625 C442.8125 205.9925 442.8125 212.9225 442.8125 220.0625 C440.8325 220.3925 438.8525 220.7225 436.8125 221.0625 C432.16970391 234.99088828 435.17048647 250.38505468 434.8125 265.0625 C286.3125 265.0625 137.8125 265.0625 -15.1875 265.0625 C-15.31125 222.801875 -15.435 180.54125 -15.5625 137 C-15.61712402 123.646521 -15.67174805 110.29304199 -15.72802734 96.53491211 C-15.75512695 80.25305176 -15.75512695 80.25305176 -15.76016235 72.63551331 C-15.76576183 67.30482487 -15.78778794 61.97450146 -15.82095337 56.64393616 C-15.86317498 49.84775412 -15.87445715 43.05209884 -15.86593366 36.25579369 C-15.86771641 33.75951482 -15.87964655 31.26321807 -15.90279078 28.76704586 C-15.9325837 25.39770138 -15.92546291 22.03038537 -15.9090271 18.66099548 C-15.92650309 17.68169351 -15.94397907 16.70239153 -15.96198463 15.69341373 C-15.88469123 9.80866828 -14.85183661 6.61606921 -10.76760256 2.31880289 C-7.4281079 -0.33635184 -4.0762285 -0.04383041 0 0 Z " fill="#73CBD3" transform="translate(46.1875,92.9375)"/>
<path d="M0 0 C148.5 0 297 0 450 0 C450 20 450 20 447 25 C442.4950831 28.77741244 439.34657856 29.5000936 433.52897549 29.50057125 C432.42677171 29.5088425 432.42677171 29.5088425 431.3023012 29.51728085 C428.83843467 29.5308835 426.37557568 29.51597539 423.91172791 29.50120544 C422.12819477 29.50509804 420.34466473 29.51073815 418.56114203 29.51797634 C413.65876111 29.53275478 408.75670062 29.52253556 403.85432994 29.50823963 C398.56797561 29.4971474 393.28166686 29.50906661 387.99531555 29.51808167 C377.63910521 29.53202776 367.28301666 29.52444795 356.9268121 29.50940608 C344.87244117 29.49256277 332.81810072 29.4957541 320.76372165 29.49950016 C299.25969278 29.50538119 277.75572244 29.4911973 256.25170898 29.46655273 C235.37375698 29.44262828 214.49588317 29.43554934 193.61791992 29.44604492 C170.8948201 29.45744758 148.17175647 29.4593925 125.4486571 29.44494683 C123.02689875 29.44342095 120.60514039 29.44190059 118.18338203 29.44038582 C116.99175989 29.439628 115.80013774 29.43887019 114.57240583 29.43808941 C106.16489756 29.43334177 97.75740541 29.4352014 89.34989738 29.43945122 C79.10826056 29.44437178 68.86669775 29.43842072 58.6250779 29.41855692 C53.39716829 29.40866797 48.16937151 29.40359711 42.94145584 29.41144943 C38.15923796 29.41848551 33.37724814 29.41175033 28.59506042 29.3938458 C26.86165383 29.38978784 25.12822659 29.39082364 23.3948276 29.39736467 C21.04467097 29.40547656 18.69528997 29.39525001 16.34518337 29.38031673 C15.03802095 29.3792876 13.73085853 29.37825848 12.38408512 29.37719816 C7.53908621 28.83716308 4.10936835 26.73124202 1 23 C-1.4267033 15.71989011 0 7.67390962 0 0 Z " fill="#CCCCCC" transform="translate(31,373)"/>
<path d="M0 0 C1.26822439 -0.0083016 1.26822439 -0.0083016 2.56206948 -0.0167709 C5.38804018 -0.0303568 8.21312455 -0.01541941 11.03907776 -0.00050354 C13.06799189 -0.00428749 15.09690344 -0.00978816 17.12580872 -0.01687622 C22.63205601 -0.03083897 28.13799111 -0.01965474 33.64422107 -0.00316501 C39.40784624 0.01068656 45.1714533 0.00422521 50.93508911 0.0007019 C60.61514821 -0.00200034 70.29508332 0.01147598 79.97511292 0.03465271 C91.16322235 0.06125496 102.35112439 0.06301194 113.53925461 0.05126435 C124.30448713 0.04048065 135.06964471 0.0466788 145.83487129 0.06081963 C150.41485938 0.06657503 154.99479253 0.06650021 159.57478142 0.06175423 C164.96993223 0.05697786 170.3648563 0.0671137 175.75996399 0.08870888 C177.73885394 0.09426816 179.71776572 0.09474993 181.69665718 0.08975601 C184.40039843 0.08378915 187.10344974 0.09633527 189.80712891 0.11352539 C190.97854444 0.10451032 190.97854444 0.10451032 192.17362493 0.09531313 C197.3151902 0.15465199 200.8980963 1.09566326 205.46705627 3.50120544 C210.0040514 8.39638439 210.64026068 11.65401961 210.70533752 18.14183044 C210.71340927 18.90163208 210.72148102 19.66143372 210.72979736 20.44425964 C210.74363765 22.05485249 210.75436006 23.66547466 210.76222229 25.27610779 C210.77939387 27.72801655 210.82327261 30.17856204 210.8674469 32.63011169 C210.87757783 34.19650805 210.88609268 35.76291585 210.89283752 37.32933044 C210.91034561 38.0576709 210.9278537 38.78601135 210.94589233 39.53642273 C210.92421136 44.67820868 209.67562582 47.5291521 206.46705627 51.50120544 C201.73774277 55.65726882 197.30153511 55.64977717 191.25018311 55.64837646 C190.40247433 55.65205315 189.55476556 55.65572984 188.68136865 55.65951794 C185.83022134 55.67056391 182.97911046 55.67440015 180.12794495 55.6782074 C178.08800134 55.68447128 176.04805888 55.69111801 174.00811768 55.69812012 C168.45848664 55.71553493 162.90886423 55.72608287 157.35921264 55.73432565 C153.89353965 55.73947405 150.42786935 55.7455498 146.96219826 55.75183678 C136.12329808 55.77088891 125.28440472 55.78512085 114.44549102 55.79344875 C101.9253191 55.80322679 89.40532372 55.82956113 76.88521403 55.86994964 C67.21295144 55.90008301 57.54073954 55.91491492 47.86843091 55.91822976 C42.08903858 55.92058311 36.30983485 55.92958088 30.53049278 55.95469093 C25.09434381 55.97792842 19.65850818 55.98222223 14.22232246 55.97192955 C12.22687108 55.97143305 10.23140449 55.9777869 8.23600006 55.9914856 C5.51191612 56.00914085 2.78896453 56.00212987 0.06488037 55.98895264 C-0.72491347 55.99992188 -1.5147073 56.01089113 -2.32843429 56.02219278 C-7.50913633 55.96168028 -10.40531946 54.88884766 -14.53294373 51.50120544 C-18.38384594 46.98225681 -19.12954553 43.24724975 -19.06419373 37.46995544 C-19.06802063 36.7158136 -19.07184753 35.96167175 -19.07579041 35.18467712 C-19.07849967 33.59795285 -19.07120768 32.01118315 -19.0544281 30.42454529 C-19.03300105 28.00767131 -19.05425991 25.59376917 -19.07981873 23.17698669 C-19.07717527 21.62880311 -19.07204992 20.08062136 -19.06419373 18.53245544 C-19.07229065 17.81666321 -19.08038757 17.10087097 -19.08872986 16.36338806 C-18.99428573 11.2631034 -17.82792826 8.36779697 -14.53294373 4.50120544 C-9.7795569 0.60756875 -5.96918267 -0.07320724 0 0 Z " fill="#020202" transform="translate(107.53294372558594,257.49879455566406)"/>
<path d="M0 0 C28.05 0 56.1 0 85 0 C85 7.59 85 15.18 85 23 C83.68 22.34 82.36 21.68 81 21 C78.74157424 20.67704142 78.74157424 20.67704142 76.32324219 20.68115234 C75.40258972 20.66128265 74.48193726 20.64141296 73.53338623 20.62094116 C72.54783752 20.60938995 71.56228882 20.59783875 70.546875 20.5859375 C69.02383759 20.55688828 69.02383759 20.55688828 67.47003174 20.5272522 C64.23010635 20.46751901 60.99014532 20.42109572 57.75 20.375 C55.55206792 20.33681449 53.35415072 20.29776242 51.15625 20.2578125 C45.77096544 20.16182265 40.38559117 20.07675677 35 20 C34.34 17.36 33.68 14.72 33 12 C27.66287507 10.86035096 27.66287507 10.86035096 22.5625 12.0625 C20.50030941 14.61961633 20.28685414 16.77289092 20 20 C17.36 20.66 14.72 21.32 12 22 C11.91868537 23.43655854 11.86066441 24.8744483 11.8125 26.3125 C11.77769531 27.11300781 11.74289062 27.91351563 11.70703125 28.73828125 C11.81574673 31.06320684 11.81574673 31.06320684 13.34375 32.75 C15.48125162 34.36320877 17.37559 34.64535 20 35 C20.4640625 36.7015625 20.4640625 36.7015625 20.9375 38.4375 C21.62924531 41.78775099 21.62924531 41.78775099 23 43 C25.85672146 43.23038076 28.20352505 43.41074984 31 43 C33.64361162 40.61222176 34.21230947 38.37784408 35 35 C35.55266037 34.99191315 36.10532074 34.98382629 36.67472839 34.97549438 C42.43385586 34.88934687 48.19264316 34.7898389 53.95141602 34.68261719 C56.09979534 34.64436615 58.24823787 34.60950653 60.39672852 34.578125 C63.48737146 34.53239063 66.57758081 34.47440944 69.66796875 34.4140625 C70.62648239 34.40251129 71.58499603 34.39096008 72.57255554 34.37905884 C73.47311172 34.35918915 74.37366791 34.33931946 75.30151367 34.31884766 C76.08983078 34.30552399 76.87814789 34.29220032 77.69035339 34.2784729 C80.53107677 34.03656258 80.53107677 34.03656258 85 32 C85 41.57 85 51.14 85 61 C83.68 60.34 82.36 59.68 81 59 C78.58820096 58.63820497 78.58820096 58.63820497 76.015625 58.5859375 C74.61376953 58.52792969 74.61376953 58.52792969 73.18359375 58.46875 C72.21550781 58.4378125 71.24742187 58.406875 70.25 58.375 C69.26644531 58.33632812 68.28289062 58.29765625 67.26953125 58.2578125 C64.84653963 58.16371574 62.42355204 58.07807672 60 58 C59.34 55.36 58.68 52.72 58 50 C52.66287507 48.86035096 52.66287507 48.86035096 47.5625 50.0625 C45.51465837 52.60182362 45.44507125 54.81536396 45 58 C44.10692139 58.02505615 43.21384277 58.0501123 42.29370117 58.07592773 C38.97814546 58.17110186 35.66276271 58.27033283 32.34741211 58.37231445 C30.91288997 58.41560793 29.47831816 58.45728699 28.04370117 58.49731445 C25.9808048 58.55515267 23.91815717 58.61880753 21.85546875 58.68359375 C19.99378052 58.73858032 19.99378052 58.73858032 18.09448242 58.79467773 C14.96446653 58.87144121 14.96446653 58.87144121 12 60 C11.91868537 61.43655854 11.86066441 62.8744483 11.8125 64.3125 C11.77769531 65.11300781 11.74289062 65.91351563 11.70703125 66.73828125 C11.82848503 69.00653254 11.82848503 69.00653254 13.08984375 70.609375 C15.94420393 72.68739591 18.35779391 72.43792814 21.85546875 72.51171875 C22.84792351 72.53864555 22.84792351 72.53864555 23.86042786 72.56611633 C25.96938747 72.62020898 28.07812099 72.65410931 30.1875 72.6875 C31.61917208 72.72067427 33.05081433 72.75516405 34.48242188 72.79101562 C37.9880639 72.87593257 41.49378473 72.94274921 45 73 C45.309375 74.134375 45.61875 75.26875 45.9375 76.4375 C46.62924531 79.78775099 46.62924531 79.78775099 48 81 C50.85672146 81.23038076 53.20352505 81.41074984 56 81 C58.64361162 78.61222176 59.21230947 76.37784408 60 73 C60.86951294 72.970271 60.86951294 72.970271 61.7565918 72.93994141 C64.40065937 72.84427399 67.0439817 72.73476547 69.6875 72.625 C70.59951172 72.5940625 71.51152344 72.563125 72.45117188 72.53125 C73.33740234 72.49257812 74.22363281 72.45390625 75.13671875 72.4140625 C75.94842529 72.3826416 76.76013184 72.3512207 77.59643555 72.31884766 C80.51453235 72.03205169 80.51453235 72.03205169 85 70 C85 79.57 85 89.14 85 99 C83.02 98.01 83.02 98.01 81 97 C78.94506338 96.6786595 78.94506338 96.6786595 76.78222656 96.68115234 C75.96167786 96.66128265 75.14112915 96.64141296 74.29571533 96.62094116 C73.41953552 96.60938995 72.54335571 96.59783875 71.640625 96.5859375 C70.73624695 96.56657135 69.8318689 96.5472052 68.90008545 96.5272522 C66.01681901 96.46756169 63.13351242 96.42111314 60.25 96.375 C58.29295152 96.33681053 56.33591967 96.29775823 54.37890625 96.2578125 C49.58607289 96.16186875 44.79316085 96.07779873 40 96 C39.34 93.36 38.68 90.72 38 88 C32.66287507 86.86035096 32.66287507 86.86035096 27.5625 88.0625 C25.50030941 90.61961633 25.28685414 92.77289092 25 96 C23.96939453 96.05607422 23.96939453 96.05607422 22.91796875 96.11328125 C22.01691406 96.17902344 21.11585938 96.24476563 20.1875 96.3125 C19.29417969 96.37050781 18.40085937 96.42851562 17.48046875 96.48828125 C14.64026162 97.07421374 13.67502051 97.65933616 12 100 C11.4127775 104.59521617 11.4127775 104.59521617 13.19921875 108.67578125 C15.55729587 110.40981193 17.28641614 110.49911793 20.1875 110.6875 C21.08855469 110.75324219 21.98960937 110.81898438 22.91796875 110.88671875 C23.60503906 110.92410156 24.29210937 110.96148437 25 111 C25.28875 112.134375 25.5775 113.26875 25.875 114.4375 C26.24625 115.613125 26.6175 116.78875 27 118 C30.0832635 119.54163175 32.60878099 119.29747535 36 119 C38.5862064 116.58620736 39.22297429 114.36240217 40 111 C41.778302 110.970271 41.778302 110.970271 43.5925293 110.93994141 C48.00029367 110.86374211 52.4077341 110.77504677 56.81518555 110.68261719 C58.72104486 110.64438661 60.62697487 110.60952345 62.53295898 110.578125 C65.27613553 110.53234578 68.01882788 110.4743727 70.76171875 110.4140625 C71.61086349 110.40251129 72.46000824 110.39096008 73.33488464 110.37905884 C74.53556328 110.3492543 74.53556328 110.3492543 75.76049805 110.31884766 C76.45999069 110.30552399 77.15948334 110.29220032 77.88017273 110.2784729 C80.5590286 110.01544125 80.5590286 110.01544125 85 108 C85 117.57 85 127.14 85 137 C80 134 80 134 79.07421875 131.95703125 C78.71614583 129.97135417 78.35807292 127.98567708 78 126 C72.66287507 124.86035096 72.66287507 124.86035096 67.5625 126.0625 C65.51465837 128.60182362 65.44507125 130.81536396 65 134 C64.38025803 134.00586624 63.76051605 134.01173248 63.12199402 134.01777649 C56.68185579 134.0816235 50.24222132 134.16602033 43.80249023 134.26245117 C41.39793533 134.29574176 38.99330149 134.32376067 36.58862305 134.34643555 C33.13556221 134.3799051 29.68322739 134.43221797 26.23046875 134.48828125 C24.61316109 134.49786613 24.61316109 134.49786613 22.96318054 134.50764465 C21.96236954 134.52743881 20.96155853 134.54723297 19.93041992 134.56762695 C19.04883713 134.57873001 18.16725433 134.58983307 17.25895691 134.60127258 C14.51534081 135.08554697 13.61454256 135.7524927 12 138 C11.41288083 142.60702855 11.41288083 142.60702855 13.21528625 146.69172668 C15.56192055 148.41191237 17.03370599 148.3958905 19.93041992 148.43237305 C21.43163643 148.46206429 21.43163643 148.46206429 22.96318054 148.49235535 C24.5804882 148.50194023 24.5804882 148.50194023 26.23046875 148.51171875 C27.33602615 148.52966995 28.44158356 148.54762115 29.5806427 148.56611633 C33.11622285 148.62035427 36.65166696 148.65415892 40.1875 148.6875 C42.58270128 148.72066109 44.97788457 148.7551496 47.37304688 148.79101562 C53.24857594 148.87608846 59.12412232 148.94438118 65 149 C65.28875 150.134375 65.5775 151.26875 65.875 152.4375 C66.24625 153.613125 66.6175 154.78875 67 156 C70.0832635 157.54163175 72.60878099 157.29747535 76 157 C78.3785166 154.85933506 78.92354968 153.53515225 79.375 150.375 C79.58125 149.59125 79.7875 148.8075 80 148 C81.65 147.34 83.3 146.68 85 146 C85 155.57 85 165.14 85 175 C83.02 174.01 83.02 174.01 81 173 C78.74157424 172.67704142 78.74157424 172.67704142 76.32324219 172.68115234 C75.40258972 172.66128265 74.48193726 172.64141296 73.53338623 172.62094116 C72.54783752 172.60938995 71.56228882 172.59783875 70.546875 172.5859375 C69.53151672 172.56657135 68.51615845 172.5472052 67.47003174 172.5272522 C64.23010635 172.46751901 60.99014532 172.42109572 57.75 172.375 C55.55206792 172.33681449 53.35415072 172.29776242 51.15625 172.2578125 C45.77096544 172.16182265 40.38559117 172.07675677 35 172 C34.34 169.36 33.68 166.72 33 164 C27.66287507 162.86035096 27.66287507 162.86035096 22.5625 164.0625 C20.50030941 166.61961633 20.28685414 168.77289092 20 172 C18.2984375 172.433125 18.2984375 172.433125 16.5625 172.875 C15.386875 173.24625 14.21125 173.6175 13 174 C11.47508002 177.04983996 11.76437452 179.6423369 12 183 C13.64325574 185.59461433 14.70259478 185.92391959 17.6875 186.6875 C18.450625 186.790625 19.21375 186.89375 20 187 C20.433125 188.7015625 20.433125 188.7015625 20.875 190.4375 C21.24625 191.613125 21.6175 192.78875 22 194 C25.0832635 195.54163175 27.60878099 195.29747535 31 195 C33.5862064 192.58620736 34.22297429 190.36240217 35 187 C35.55266037 186.99191315 36.10532074 186.98382629 36.67472839 186.97549438 C42.43385586 186.88934687 48.19264316 186.7898389 53.95141602 186.68261719 C56.09979534 186.64436615 58.24823787 186.60950653 60.39672852 186.578125 C63.48737146 186.53239063 66.57758081 186.47440944 69.66796875 186.4140625 C71.10573921 186.39673569 71.10573921 186.39673569 72.57255554 186.37905884 C77.1239409 186.27863799 80.87532274 186.16688114 85 184 C85.08732726 187.89569135 85.14050185 191.79112982 85.1875 195.6875 C85.21263672 196.79029297 85.23777344 197.89308594 85.26367188 199.02929688 C85.27333984 200.09599609 85.28300781 201.16269531 85.29296875 202.26171875 C85.3086792 203.24100342 85.32438965 204.22028809 85.34057617 205.22924805 C85 208 85 208 82 213 C54.94 213 27.88 213 0 213 C0 142.71 0 72.42 0 0 Z " fill="#BBBBBB" transform="translate(350,113)"/>
<path d="M0 0 C2.54174805 1.25244141 2.54174805 1.25244141 5.26171875 2.8515625 C6.28442871 3.44767334 7.30713867 4.04378418 8.36083984 4.65795898 C9.4586377 5.30708252 10.55643555 5.95620605 11.6875 6.625 C12.85063005 7.3055286 14.01421276 7.98528407 15.17822266 8.66430664 C17.59407573 10.07444196 20.00795209 11.4878734 22.42041016 12.90380859 C27.88877316 16.11022682 33.38249481 19.2726783 38.875 22.4375 C40.44846191 23.34592651 40.44846191 23.34592651 42.05371094 24.27270508 C47.94573598 27.67253383 53.84556104 31.05832781 59.75390625 34.4296875 C60.39783325 34.79717606 61.04176025 35.16466461 61.7052002 35.54328918 C64.83679255 37.33004912 67.96927458 39.11522529 71.10302734 40.89819336 C72.22273926 41.53635986 73.34245117 42.17452637 74.49609375 42.83203125 C75.48794678 43.39639893 76.4797998 43.9607666 77.50170898 44.54223633 C79.37170228 45.63338555 81.19856182 46.79904121 83 48 C81.69813222 51.90560333 80.31354055 52.24650315 76.76171875 54.23046875 C75.64587402 54.86025635 74.5300293 55.49004395 73.38037109 56.13891602 C72.14944963 56.82184146 70.91849158 57.50470096 69.6875 58.1875 C68.41693096 58.90128509 67.1469193 59.61606318 65.87744141 60.33178711 C63.23508041 61.82047531 60.59035658 63.3048319 57.94384766 64.78613281 C51.89924794 68.17365383 45.88869149 71.62052551 39.875 75.0625 C38.73369629 75.7131543 37.59239258 76.36380859 36.41650391 77.03417969 C30.47083745 80.42618869 24.54276992 83.84433872 18.63671875 87.3046875 C16.85184708 88.34706446 15.0667228 89.38900767 13.28155518 90.43087769 C11.60439284 91.41296893 9.93177045 92.40280029 8.25927734 93.39282227 C7.24687988 93.98377686 6.23448242 94.57473145 5.19140625 95.18359375 C3.86411499 95.96561157 3.86411499 95.96561157 2.51000977 96.76342773 C-0.14067804 98.06930593 -2.04655077 98.8176248 -5 99 C-7.6652832 97.95874023 -7.6652832 97.95874023 -10.55078125 96.30859375 C-11.6291626 95.70080078 -12.70754395 95.09300781 -13.81860352 94.46679688 C-14.98345235 93.79073778 -16.14807879 93.11429537 -17.3125 92.4375 C-18.52661392 91.74560567 -19.74138642 91.05486583 -20.95678711 90.36523438 C-24.64946042 88.26335082 -28.32561106 86.13363523 -32 84 C-33.05380859 83.39043457 -34.10761719 82.78086914 -35.19335938 82.15283203 C-40.10951443 79.30634316 -45.01557343 76.44318043 -49.9140625 73.56640625 C-56.57056329 69.65885447 -63.25187619 65.79490005 -69.9375 61.9375 C-71.00943604 61.31810547 -72.08137207 60.69871094 -73.18579102 60.06054688 C-79.09439044 56.65247532 -85.02371628 53.2880423 -91 50 C-91 49.34 -91 48.68 -91 48 C-90.45923828 47.7097998 -89.91847656 47.41959961 -89.36132812 47.12060547 C-78.09958053 41.06257821 -66.92519426 34.87442424 -55.875 28.4375 C-54.85083984 27.84243652 -53.82667969 27.24737305 -52.77148438 26.63427734 C-51.81306641 26.07305176 -50.85464844 25.51182617 -49.8671875 24.93359375 C-49.02269043 24.43915771 -48.17819336 23.94472168 -47.30810547 23.43530273 C-45.08999294 22.05596239 -42.99540049 20.68722611 -41 19 C-40.86272281 17.01101837 -40.86272281 17.01101837 -41.1875 14.875 C-41.04137343 12.10316156 -40.6248765 10.5775438 -38.5625 8.67138672 C-36.65704163 7.27155241 -34.71665267 6.0259452 -32.6875 4.8125 C-32.01033936 4.40177246 -31.33317871 3.99104492 -30.63549805 3.56787109 C-28.63671875 2.45703125 -28.63671875 2.45703125 -25 1 C-22.64175146 1.68194909 -21.69107517 2.30892483 -20 4 C-14.61737414 4.80739388 -11.58538375 2.85027915 -7.24609375 -0.00390625 C-4.32058794 -1.30130448 -3.06394004 -0.84389122 0 0 Z " fill="#FDDF76" transform="translate(207,16)"/>
<path d="M0 0 C3.3 0 6.6 0 10 0 C10.070057 26.49465275 10.12297198 52.98929163 10.15543652 79.48401833 C10.17091049 91.78576375 10.19201022 104.08745165 10.22631836 116.38916016 C10.25620439 127.11035588 10.27557114 137.83150995 10.28226548 148.55274618 C10.28617907 154.2304337 10.29538772 159.90800204 10.31719017 165.5856514 C10.33754264 170.92896517 10.34383626 176.27211059 10.33932304 181.61545944 C10.34014879 183.5770433 10.34612176 185.53863275 10.35761642 187.50018311 C10.37254106 190.17827709 10.36895368 192.85573531 10.36076355 195.53384399 C10.36950207 196.3101204 10.3782406 197.0863968 10.38724393 197.88619673 C10.34775217 202.66343189 9.58463585 205.96683653 7 210 C2.21019108 213.15923567 2.21019108 213.15923567 -1.375 212.6875 C-1.91125 212.460625 -2.4475 212.23375 -3 212 C-2.67854004 211.45633789 -2.35708008 210.91267578 -2.02587891 210.35253906 C-0.80794247 207.55957488 -0.6830009 205.40069472 -0.5859375 202.359375 C-0.54726563 201.28945313 -0.50859375 200.21953125 -0.46875 199.1171875 C-0.4378125 198.00601563 -0.406875 196.89484375 -0.375 195.75 C-0.33632813 194.62335938 -0.29765625 193.49671875 -0.2578125 192.3359375 C-0.16362664 189.55745452 -0.07800414 186.77897666 0 184 C-0.61190186 184.48895752 -1.22380371 184.97791504 -1.85424805 185.48168945 C-6.36227202 187.65750638 -10.39171022 187.37277483 -15.33203125 187.29296875 C-16.81965218 187.28660149 -16.81965218 187.28660149 -18.33732605 187.28010559 C-21.49599685 187.26335123 -24.65402297 187.22570448 -27.8125 187.1875 C-29.95767306 187.17244899 -32.10285615 187.15876132 -34.24804688 187.14648438 C-39.49891681 187.11345841 -44.74941234 187.06329122 -50 187 C-50.21269531 188.42699219 -50.21269531 188.42699219 -50.4296875 189.8828125 C-51 193 -51 193 -52.125 194.875 C-55.16832808 196.70099685 -57.54249555 196.42460581 -61 196 C-63.4375 194.3125 -63.4375 194.3125 -65 192 C-65.25 189.25 -65.25 189.25 -65 187 C-65.7425 187.0825 -66.485 187.165 -67.25 187.25 C-70 187 -70 187 -72.3125 185.4375 C-74.64226201 182.07228821 -74.57289582 180.01027077 -74 176 C-72.3125 173.5625 -72.3125 173.5625 -70 172 C-67.25 171.75 -67.25 171.75 -65 172 C-65.103125 171.0925 -65.20625 170.185 -65.3125 169.25 C-65 166 -65 166 -62.8125 163.625 C-59.71632365 161.83609811 -58.48128355 161.2167112 -55 162 C-52.1875 164.1875 -52.1875 164.1875 -50 167 C-49.86328125 169.67578125 -49.86328125 169.67578125 -50 172 C-49.43037033 171.99555878 -48.86074066 171.99111755 -48.27384949 171.98654175 C-42.35308334 171.94234564 -36.43236394 171.9121491 -30.51147461 171.89013672 C-28.30084327 171.88006994 -26.09022528 171.86641552 -23.87963867 171.84912109 C-20.70488189 171.82490262 -17.53030094 171.81352373 -14.35546875 171.8046875 C-13.36475876 171.79436493 -12.37404877 171.78404236 -11.35331726 171.77340698 C-10.43258926 171.77325592 -9.51186127 171.77310486 -8.56323242 171.77294922 C-7.34744759 171.76628738 -7.34744759 171.76628738 -6.10710144 171.75949097 C-4 172 -4 172 -1 174 C-0.67 164.76 -0.34 155.52 0 146 C-1.65 146.66 -3.3 147.32 -5 148 C-5.103125 149.093125 -5.20625 150.18625 -5.3125 151.3125 C-6 155 -6 155 -7.125 156.9375 C-10.18452459 158.6712306 -12.56817525 158.42145216 -16 158 C-18.4375 156.3125 -18.4375 156.3125 -20 154 C-20.09765625 151.35546875 -20.09765625 151.35546875 -20 149 C-20.61752136 149.00888245 -21.23504272 149.01776489 -21.87127686 149.0269165 C-28.29494984 149.11536919 -34.71845002 149.17572569 -41.14257812 149.21972656 C-43.54043606 149.23984936 -45.93824488 149.26715059 -48.3359375 149.30175781 C-51.78137323 149.3502449 -55.22616052 149.37296241 -58.671875 149.390625 C-60.28144073 149.42159271 -60.28144073 149.42159271 -61.92352295 149.45318604 C-63.42462616 149.45363922 -63.42462616 149.45363922 -64.95605469 149.45410156 C-65.83541687 149.46298401 -66.71477905 149.47186646 -67.62078857 149.48101807 C-70.82220415 148.83377053 -72.00958814 147.54063349 -74 145 C-74.5 141.5 -74.5 141.5 -74 138 C-72.00958814 135.45936651 -70.82220415 134.16622947 -67.62078857 133.51898193 C-66.74142639 133.52786438 -65.86206421 133.53674683 -64.95605469 133.54589844 C-63.95531921 133.54620056 -62.95458374 133.54650269 -61.92352295 133.54681396 C-60.85047913 133.56745911 -59.7774353 133.58810425 -58.671875 133.609375 C-57.01566132 133.61786469 -57.01566132 133.61786469 -55.32598877 133.62652588 C-51.80021774 133.64891232 -48.27546376 133.69911504 -44.75 133.75 C-42.35938968 133.77006197 -39.96876342 133.78831326 -37.578125 133.8046875 C-31.71840313 133.84878457 -25.85927422 133.91572002 -20 134 C-20.04511719 133.05898437 -20.09023438 132.11796875 -20.13671875 131.1484375 C-20 128 -20 128 -17.8125 125.625 C-14.71632365 123.83609811 -13.48128355 123.2167112 -10 124 C-6.09903392 127.1030412 -4.78325413 129.16993287 -4 134 C-2.515 134.99 -2.515 134.99 -1 136 C-1 127.09 -1 118.18 -1 109 C-2.98 109.99 -2.98 109.99 -5 111 C-6.99957275 111.24050903 -6.99957275 111.24050903 -9.12597656 111.22705078 C-9.92650452 111.22689972 -10.72703247 111.22674866 -11.55181885 111.22659302 C-12.40612488 111.21627045 -13.26043091 111.20594788 -14.140625 111.1953125 C-15.02280701 111.1924826 -15.90498901 111.18965271 -16.81390381 111.18673706 C-19.62607499 111.17555961 -22.4379254 111.15045951 -25.25 111.125 C-27.15884956 111.11496705 -29.06770412 111.10584175 -30.9765625 111.09765625 C-35.65116489 111.07562824 -40.32552809 111.04111511 -45 111 C-45.21269531 112.42699219 -45.21269531 112.42699219 -45.4296875 113.8828125 C-46 117 -46 117 -47.125 118.875 C-50.16832808 120.70099685 -52.54249555 120.42460581 -56 120 C-58.4375 118.3125 -58.4375 118.3125 -60 116 C-60.09765625 113.35546875 -60.09765625 113.35546875 -60 111 C-60.67546875 111.04640625 -61.3509375 111.0928125 -62.046875 111.140625 C-69.27256982 111.43299415 -69.27256982 111.43299415 -72.625 109.4375 C-74.54211763 106.03897329 -74.54861638 103.84031465 -74 100 C-72.625 97.5625 -72.625 97.5625 -70 96 C-66.63939316 95.67868806 -63.36437766 95.76885955 -60 96 C-60.103125 95.0925 -60.20625 94.185 -60.3125 93.25 C-60 90 -60 90 -57.8125 87.625 C-54.71632365 85.83609811 -53.48128355 85.2167112 -50 86 C-47.1875 88.1875 -47.1875 88.1875 -45 91 C-44.86328125 93.67578125 -44.86328125 93.67578125 -45 96 C-43.77369873 95.98952637 -42.54739746 95.97905273 -41.28393555 95.96826172 C-36.73855503 95.93208896 -32.19318727 95.90910943 -27.64770508 95.89013672 C-25.67958436 95.88007293 -23.71147862 95.86642066 -21.7434082 95.84912109 C-18.91614082 95.82488941 -16.08907095 95.81352077 -13.26171875 95.8046875 C-12.38037766 95.79436493 -11.49903656 95.78404236 -10.59098816 95.77340698 C-9.77036392 95.77325592 -8.94973969 95.77310486 -8.10424805 95.77294922 C-7.38254929 95.768508 -6.66085052 95.76406677 -5.9172821 95.75949097 C-4 96 -4 96 -1 98 C-1 89.09 -1 80.18 -1 71 C-2.98 71.99 -2.98 71.99 -5 73 C-7.29003906 73.22705078 -7.29003906 73.22705078 -9.765625 73.1953125 C-10.65507812 73.18886719 -11.54453125 73.18242187 -12.4609375 73.17578125 C-13.84152344 73.15064453 -13.84152344 73.15064453 -15.25 73.125 C-16.65378906 73.11146484 -16.65378906 73.11146484 -18.0859375 73.09765625 C-20.39088657 73.07413636 -22.6953116 73.04126853 -25 73 C-25.14308594 73.95132813 -25.28617187 74.90265625 -25.43359375 75.8828125 C-26 79 -26 79 -27.0625 80.875 C-30.2323327 82.71554802 -33.44127835 82.66726031 -37 82 C-39 80.3125 -39 80.3125 -40 78 C-40.03937847 76.3337986 -40.04420777 74.66608027 -40 73 C-41.3317627 73.0314209 -41.3317627 73.0314209 -42.69042969 73.06347656 C-45.99294455 73.13175677 -49.2947067 73.1818487 -52.59765625 73.21972656 C-54.02551121 73.23980982 -55.45328425 73.26708252 -56.88085938 73.30175781 C-58.93640368 73.35042669 -60.99085855 73.37299967 -63.046875 73.390625 C-64.28276367 73.41157227 -65.51865234 73.43251953 -66.79199219 73.45410156 C-70 73 -70 73 -72.40332031 71.19433594 C-74.73130623 67.99495712 -74.55078456 65.8554919 -74 62 C-72.40332031 59.80566406 -72.40332031 59.80566406 -70 58 C-66.79199219 57.54589844 -66.79199219 57.54589844 -63.046875 57.609375 C-62.38665344 57.61503479 -61.72643188 57.62069458 -61.04620361 57.62652588 C-58.94671737 57.6488377 -56.8489663 57.69901686 -54.75 57.75 C-53.3229414 57.77007206 -51.89585592 57.78832161 -50.46875 57.8046875 C-46.97860707 57.84868307 -43.48947301 57.91767124 -40 58 C-40.04511719 57.05898437 -40.09023438 56.11796875 -40.13671875 55.1484375 C-40 52 -40 52 -37.8125 49.625 C-34.71632365 47.83609811 -33.48128355 47.2167112 -30 48 C-27.1875 50.1875 -27.1875 50.1875 -25 53 C-24.86328125 55.67578125 -24.86328125 55.67578125 -25 58 C-24.37955811 57.98952637 -23.75911621 57.97905273 -23.11987305 57.96826172 C-20.30912323 57.92669114 -17.4984381 57.90067067 -14.6875 57.875 C-13.71103516 57.85824219 -12.73457031 57.84148437 -11.72851562 57.82421875 C-10.79072266 57.81777344 -9.85292969 57.81132812 -8.88671875 57.8046875 C-8.02264404 57.79421387 -7.15856934 57.78374023 -6.26831055 57.77294922 C-4 58 -4 58 -1 60 C-1 51.09 -1 42.18 -1 33 C-2.98 33.99 -2.98 33.99 -5 35 C-7.18939209 35.24050903 -7.18939209 35.24050903 -9.58496094 35.22705078 C-10.48559265 35.22689972 -11.38622437 35.22674866 -12.31414795 35.22659302 C-13.27782288 35.21627045 -14.2414978 35.20594788 -15.234375 35.1953125 C-16.72411835 35.19106766 -16.72411835 35.19106766 -18.24395752 35.18673706 C-21.41276144 35.17555143 -24.58128165 35.15044962 -27.75 35.125 C-29.8997355 35.11496812 -32.04947543 35.10584263 -34.19921875 35.09765625 C-39.46624246 35.07561741 -44.73310096 35.04215584 -50 35 C-50.14308594 35.95132813 -50.28617187 36.90265625 -50.43359375 37.8828125 C-51 41 -51 41 -52.0625 42.875 C-55.2323327 44.71554802 -58.44127835 44.66726031 -62 44 C-64 42.3125 -64 42.3125 -65 40 C-65.1875 37.25 -65.1875 37.25 -65 35 C-65.7425 35.0825 -66.485 35.165 -67.25 35.25 C-70 35 -70 35 -72.3125 33.4375 C-74.64226201 30.07228821 -74.57289582 28.01027077 -74 24 C-72.3125 21.5625 -72.3125 21.5625 -70 20 C-67.25 19.75 -67.25 19.75 -65 20 C-65.103125 19.0925 -65.20625 18.185 -65.3125 17.25 C-65 14 -65 14 -62.8125 11.625 C-59.71632365 9.83609811 -58.48128355 9.2167112 -55 10 C-52.1875 12.1875 -52.1875 12.1875 -50 15 C-49.86328125 17.67578125 -49.86328125 17.67578125 -50 20 C-49.43037033 19.99555878 -48.86074066 19.99111755 -48.27384949 19.98654175 C-42.35308334 19.94234564 -36.43236394 19.9121491 -30.51147461 19.89013672 C-28.30084327 19.88006994 -26.09022528 19.86641552 -23.87963867 19.84912109 C-20.70488189 19.82490262 -17.53030094 19.81352373 -14.35546875 19.8046875 C-13.36475876 19.79436493 -12.37404877 19.78404236 -11.35331726 19.77340698 C-10.43258926 19.77325592 -9.51186127 19.77310486 -8.56323242 19.77294922 C-7.34744759 19.76628738 -7.34744759 19.76628738 -6.10710144 19.75949097 C-4 20 -4 20 -1 22 C-0.67 14.74 -0.34 7.48 0 0 Z " fill="#ABABAB" transform="translate(435,113)"/>
<path d="M0 0 C1.74652147 0.95243579 3.49301709 1.90491897 5.23950195 2.85742188 C6.69837578 3.65303528 6.69837578 3.65303528 8.1867218 4.46472168 C20.10057224 10.9664165 31.88515656 17.65761304 43.59106445 24.52734375 C52.14781228 29.53524441 60.78106934 34.3978345 69.45141602 39.20605469 C70.42393311 39.74649414 71.3964502 40.28693359 72.3984375 40.84375 C73.24067871 41.30974609 74.08291992 41.77574219 74.95068359 42.25585938 C75.95695801 42.83142578 76.96323242 43.40699219 78 44 C78.83842438 44.25528473 79.67684875 44.51056946 80.54067993 44.77359009 C83.94025848 46.1027472 85.6676284 47.1580366 88 50 C89.93933183 56.89458086 89.15667925 64.50792358 88.9765625 71.5859375 C88.95790347 73.72967225 88.94367252 75.87344974 88.9336853 78.01724243 C88.89556354 83.65067988 88.7973902 89.281525 88.68664551 94.91394043 C88.58421374 100.66492643 88.53864804 106.41633282 88.48828125 112.16796875 C88.3811408 123.44644945 88.21054661 134.7230089 88 146 C84.0940648 144.73617103 80.67793544 143.40780806 77.1484375 141.3046875 C76.22933594 140.76199219 75.31023437 140.21929687 74.36328125 139.66015625 C73.37714844 139.07105469 72.39101562 138.48195312 71.375 137.875 C69.21686539 136.60034343 67.05798044 135.3269566 64.8984375 134.0546875 C63.77018555 133.38920898 62.64193359 132.72373047 61.47949219 132.03808594 C56.26897217 128.97697411 51.01526737 125.99148786 45.76281738 123.00311279 C36.02502257 117.46192251 26.3084533 111.88574594 16.625 106.25 C15.63886719 105.67765625 14.65273437 105.1053125 13.63671875 104.515625 C12.71761719 103.979375 11.79851562 103.443125 10.8515625 102.890625 C10.05572754 102.42688477 9.25989258 101.96314453 8.43994141 101.48535156 C7.63476074 100.99518555 6.82958008 100.50501953 6 100 C4.97372498 99.50048828 3.94744995 99.00097656 2.89007568 98.48632812 C-0.19676385 95.83072433 -0.42221183 95.63032545 -0.7215271 91.87445068 C-0.73890678 90.16080189 -0.72299266 88.44662453 -0.68115234 86.73339844 C-0.6820285 85.79647156 -0.68290466 84.85954468 -0.68380737 83.89422607 C-0.67962831 80.79842653 -0.63296035 77.70479579 -0.5859375 74.609375 C-0.57474652 72.46276025 -0.56620587 70.31613018 -0.56021118 68.16949463 C-0.5373054 62.52036201 -0.478366 56.87215546 -0.4119873 51.22338867 C-0.35060313 45.45894906 -0.32320436 39.69435976 -0.29296875 33.9296875 C-0.22862535 22.61938485 -0.12622383 11.30976944 0 0 Z " fill="#FDD05A" transform="translate(108,78)"/>
<path d="M0 0 C0.20857902 12.41289513 0.36846936 24.82537314 0.46630955 37.23966408 C0.51327023 43.00431864 0.57695699 48.76777399 0.67895508 54.53173828 C0.77678544 60.09503316 0.83056607 65.65717521 0.85389519 71.22126389 C0.87051832 73.34329762 0.90298162 75.46526856 0.95157051 77.58681107 C1.3166306 94.1875515 1.3166306 94.1875515 -1.84597778 98.5411377 C-4.19596209 100.14837317 -6.31098228 101.09206249 -9 102 C-10.06605469 102.62680664 -11.13210938 103.25361328 -12.23046875 103.89941406 C-13.20628906 104.43276367 -14.18210937 104.96611328 -15.1875 105.515625 C-16.28908447 106.12148437 -17.39066895 106.72734375 -18.52563477 107.3515625 C-19.67217529 107.97804688 -20.81871582 108.60453125 -22 109.25 C-24.42743539 110.58555343 -26.85272528 111.9249654 -29.27734375 113.265625 C-29.8682933 113.59220093 -30.45924286 113.91877686 -31.06809998 114.25524902 C-36.25739997 117.12937058 -41.37817264 120.10597931 -46.47607422 123.13818359 C-53.15802736 127.10995098 -59.8900039 130.99413708 -66.625 134.875 C-68.29864624 135.83986328 -68.29864624 135.83986328 -70.00610352 136.82421875 C-72.09201365 138.02601672 -74.17879203 139.22630946 -76.26660156 140.42480469 C-77.9347114 141.38609842 -79.59913174 142.3538792 -81.25683594 143.33300781 C-85.79236172 146 -85.79236172 146 -88 146 C-88 114.32 -88 82.64 -88 50 C-80.41 45.71 -72.82 41.42 -65 37 C-60.99230406 34.67778366 -56.99024443 32.35128088 -53 30 C-44.11640102 24.79047756 -35.17860216 19.68685079 -26.20068359 14.6418457 C-19.40104044 10.81370949 -12.65830268 6.89837715 -5.96118164 2.89355469 C-1.10154036 0 -1.10154036 0 0 0 Z " fill="#FDC243" transform="translate(299,78)"/>
<path d="M0 0 C16.97663254 -0.07011089 33.95321983 -0.12299833 50.92996407 -0.15543652 C58.81273364 -0.1708991 66.6954132 -0.19197694 74.578125 -0.22631836 C81.44946792 -0.25623941 88.32074565 -0.27557943 95.1921519 -0.28226548 C98.82983463 -0.28617318 102.46733086 -0.29534397 106.10495377 -0.31719017 C110.16787201 -0.34139215 114.23046692 -0.34196826 118.29345703 -0.34057617 C120.09851967 -0.35675491 120.09851967 -0.35675491 121.94004822 -0.3732605 C132.54542195 -0.33387608 132.54542195 -0.33387608 137 3 C143.87920994 14.4653499 140 29.62921925 140 43 C96.77 43 53.54 43 9 43 C8.67 32.44 8.34 21.88 8 11 C6.68 9.02 5.36 7.04 4 5 C4 4.34 4 3.68 4 3 C2.68 2.34 1.36 1.68 0 1 C0 0.67 0 0.34 0 0 Z " fill="#999999" transform="translate(305,55)"/>
<path d="M0 0 C38.28 0 76.56 0 116 0 C121 38 121 38 121 42 C79.42 42 37.84 42 -5 42 C-4.40489921 34.26368969 -3.8125769 26.89555567 -2.5 19.3125 C-1.4021574 12.87218572 -0.65238101 6.52381014 0 0 Z " fill="#ABABAB" transform="translate(198,417)"/>
<path d="M0 0 C65.67 0 131.34 0 199 0 C199 8.25 199 16.5 199 25 C133.33 25 67.66 25 0 25 C0 16.75 0 8.5 0 0 Z " fill="#B7B7B7" transform="translate(104,273)"/>
<path d="M0 0 C0.78322636 -0.00453111 1.56645272 -0.00906223 2.37341321 -0.01373065 C5.00039558 -0.02640063 7.62717134 -0.02475261 10.25418091 -0.02310181 C12.13664009 -0.02908542 14.01909681 -0.03589058 15.90155029 -0.04345703 C21.01726872 -0.06114089 26.13292025 -0.06581341 31.24866629 -0.0670886 C35.51810258 -0.06898687 39.78752326 -0.07634354 44.05695355 -0.08343279 C54.12921445 -0.09972331 64.2014396 -0.10460113 74.27371216 -0.10317993 C84.66657213 -0.10197821 95.05922453 -0.12308467 105.45203197 -0.15466726 C114.37273699 -0.18081106 123.29337413 -0.19154803 132.21411717 -0.19026911 C137.54300487 -0.18975894 142.87170813 -0.19547297 148.20055771 -0.21662521 C153.21240274 -0.2359757 158.22388678 -0.23615388 163.23574448 -0.22159195 C165.07477342 -0.21949881 166.91382477 -0.22423474 168.75281525 -0.23631287 C171.2645091 -0.25174022 173.7749543 -0.24247454 176.28662109 -0.22705078 C177.01347764 -0.23733791 177.74033418 -0.24762503 178.48921669 -0.25822389 C183.53270666 -0.18983447 186.39523312 1.08506712 190.27029419 4.26742554 C192.95438064 8.29355521 193.07639825 11.53559472 192.27029419 16.26742554 C190.34672546 19.84082437 188.18206879 21.96350067 184.27029419 23.26742554 C181.71235018 23.3715311 179.18119099 23.41960047 176.62287903 23.42132568 C175.83642354 23.42570794 175.04996806 23.43009019 174.23968059 23.43460524 C171.59582998 23.44799451 168.9520127 23.45417235 166.30813599 23.46029663 C164.4159734 23.46819739 162.52381232 23.47646633 160.63165283 23.4850769 C154.41095418 23.51129636 148.19024878 23.5266028 141.96951294 23.54086304 C139.82906401 23.54622243 137.68861512 23.55159994 135.54816628 23.55699539 C126.64629926 23.5786225 117.74443406 23.59736032 108.84254742 23.60861778 C96.07858013 23.62486491 83.31491686 23.65806329 70.55106419 23.71501863 C61.57943421 23.75368991 52.60788565 23.77324705 43.6361745 23.77853835 C38.27590883 23.78219517 32.91596743 23.79425201 27.55579185 23.82664108 C22.51355714 23.8566727 17.47184375 23.86305102 12.42953873 23.85125732 C10.57920834 23.85103619 8.72885409 23.85937413 6.8786068 23.87691116 C4.35132866 23.89956104 1.82594777 23.89132851 -0.70133972 23.87542725 C-1.43276933 23.88930933 -2.16419895 23.90319142 -2.9177931 23.91749418 C-8.58649928 23.82967183 -10.89287628 22.14362051 -14.72970581 18.26742554 C-16.46095702 14.80492311 -16.20785805 11.05334325 -15.72970581 7.26742554 C-11.77916795 0.63616556 -7.28968063 -0.03087252 0 0 Z " fill="#CDCDCD" transform="translate(167.72970581054688,473.7325744628906)"/>
<path d="M0 0 C5.7200759 -0.45760607 8.55296727 0.36151868 13 4 C15.90249249 6.94246248 16.35178239 9.2727857 16.39943075 13.3658762 C16.39253682 14.07521274 16.38564288 14.78454927 16.37854004 15.51538086 C16.38307017 16.27551703 16.3876003 17.03565321 16.3922677 17.81882381 C16.40390152 20.36767092 16.39424095 22.91599422 16.38476562 25.46484375 C16.38887025 27.29143615 16.39433047 29.11802593 16.40104675 30.9446106 C16.41277923 34.87881594 16.41525345 38.81288097 16.41069031 42.74710083 C16.4038904 48.96550683 16.41973143 55.18372759 16.43908691 61.40209961 C16.48019341 75.72449805 16.49149299 90.04689154 16.50261688 104.36933899 C16.51311694 117.4950064 16.52985741 130.62058511 16.57071257 143.7461977 C16.58910008 149.93034408 16.59295005 156.11427942 16.58577728 162.29844666 C16.58425818 166.14236749 16.59502181 169.98618221 16.60915565 173.83007431 C16.61316689 175.61510697 16.61201873 177.40015965 16.60538292 179.18518448 C16.59703026 181.61859014 16.60695803 184.0512582 16.62145996 186.48461914 C16.61456603 187.19395568 16.60767209 187.90329222 16.60056925 188.6341238 C16.63541573 191.62750677 16.86354795 193.74210603 18.27365875 196.4072113 C20.12526461 198.37103603 20.12526461 198.37103603 24 199 C24 205.93 24 212.86 24 220 C22.02 220.33 20.04 220.66 18 221 C17.10557535 223.68327394 16.85418313 225.34149739 16.79467773 228.10424805 C16.77473251 228.92487228 16.75478729 229.74549652 16.73423767 230.59098816 C16.70916893 231.9129998 16.70916893 231.9129998 16.68359375 233.26171875 C16.66281265 234.16751175 16.64203156 235.07330475 16.62062073 236.00654602 C16.55523442 238.90012016 16.49629096 241.79378507 16.4375 244.6875 C16.3943044 246.64909793 16.35068977 248.61068668 16.30664062 250.57226562 C16.19956418 255.38141739 16.09826586 260.19066046 16 265 C12.04 265 8.08 265 4 265 C3.99761165 263.68102156 3.99522329 262.36204311 3.99276257 261.00309563 C3.93540975 229.69719325 3.86268423 198.39136821 3.77101372 167.08554851 C3.75974548 163.23281392 3.74860704 159.38007895 3.73754883 155.52734375 C3.73534514 154.76032962 3.73314146 153.99331548 3.730871 153.2030585 C3.69549316 140.78169185 3.67063177 128.36032527 3.64965298 115.93892692 C3.6278948 103.19457775 3.59484423 90.45029399 3.55129844 77.70600045 C3.52478198 69.84131079 3.50708658 61.97670265 3.50065396 54.1119705 C3.49477919 48.08251392 3.47319757 42.05321822 3.44572449 36.02381706 C3.43691687 33.54946237 3.43322728 31.07508346 3.43499184 28.60071373 C3.4366387 25.22634028 3.4199946 21.85253644 3.39872742 18.47824097 C3.40357499 17.4957443 3.40842257 16.51324764 3.41341704 15.50097835 C3.3579251 10.17755982 2.79697313 6.68370075 0 2 C0 1.34 0 0.68 0 0 Z " fill="#29BBC7" transform="translate(465,93)"/>
<path d="M0 0 C38.28 0 76.56 0 116 0 C116.495 6.93 116.495 6.93 117 14 C78.06 14 39.12 14 -1 14 C-0.67 9.38 -0.34 4.76 0 0 Z " fill="#9B9B9B" transform="translate(198,417)"/>
<path d="M0 0 C2.8125 2.1875 2.8125 2.1875 5 5 C5.13671875 7.67578125 5.13671875 7.67578125 5 10 C6.22106445 9.97905273 7.44212891 9.95810547 8.70019531 9.93652344 C13.23246524 9.86409841 17.76468407 9.81819112 22.29736328 9.78027344 C24.25871381 9.76016368 26.22000444 9.73287182 28.18115234 9.69824219 C31.00112695 9.64969579 33.82030865 9.62702514 36.640625 9.609375 C37.95489471 9.57840729 37.95489471 9.57840729 39.29571533 9.54681396 C45.35353071 9.54458349 45.35353071 9.54458349 48.55761719 11.80175781 C50.65173218 14.99326279 50.47443247 17.27231634 50 21 C48.45737187 23.10358381 47.31891683 23.84054159 45 25 C42.01029711 25.08705146 39.04415045 25.11550145 36.0546875 25.09765625 C35.1696756 25.0962413 34.2846637 25.09482635 33.37283325 25.09336853 C30.54018809 25.0877614 27.70762136 25.07520771 24.875 25.0625 C22.95703239 25.05748592 21.03906354 25.05292285 19.12109375 25.04882812 C14.41403218 25.03778966 9.7070294 25.02052025 5 25 C4.78730469 26.42699219 4.78730469 26.42699219 4.5703125 27.8828125 C4 31 4 31 2.875 32.875 C-0.16832808 34.70099685 -2.54249555 34.42460581 -6 34 C-8.4375 32.3125 -8.4375 32.3125 -10 30 C-10.09765625 27.35546875 -10.09765625 27.35546875 -10 25 C-10.67546875 25.04640625 -11.3509375 25.0928125 -12.046875 25.140625 C-19.27256982 25.43299415 -19.27256982 25.43299415 -22.625 23.4375 C-24.54211763 20.03897329 -24.54861638 17.84031465 -24 14 C-22.625 11.5625 -22.625 11.5625 -20 10 C-16.63939316 9.67868806 -13.36437766 9.76885955 -10 10 C-10.103125 9.0925 -10.20625 8.185 -10.3125 7.25 C-10 4 -10 4 -7.8125 1.625 C-4.71632365 -0.16390189 -3.48128355 -0.7832888 0 0 Z " fill="#020202" transform="translate(385,199)"/>
<path d="M0 0 C2.8125 2.1875 2.8125 2.1875 5 5 C5.13671875 7.67578125 5.13671875 7.67578125 5 10 C5.61520508 9.97905273 6.23041016 9.95810547 6.86425781 9.93652344 C9.65933809 9.85322983 12.45415715 9.80129987 15.25 9.75 C16.70212891 9.69972656 16.70212891 9.69972656 18.18359375 9.6484375 C25.33595625 9.54978422 25.33595625 9.54978422 28.64453125 11.79296875 C30.6162541 15.00341085 30.46909596 17.31424605 30 21 C28.45737187 23.10358381 27.31891683 23.84054159 25 25 C23.47851674 25.08372659 21.95344222 25.10730027 20.4296875 25.09765625 C19.53378906 25.09443359 18.63789063 25.09121094 17.71484375 25.08789062 C16.77769531 25.07951172 15.84054687 25.07113281 14.875 25.0625 C13.93011719 25.05798828 12.98523438 25.05347656 12.01171875 25.04882812 C9.67441613 25.03702357 7.33723939 25.02055759 5 25 C4.85691406 25.95132813 4.71382813 26.90265625 4.56640625 27.8828125 C4 31 4 31 2.9375 32.875 C-0.2323327 34.71554802 -3.44127835 34.66726031 -7 34 C-9 32.3125 -9 32.3125 -10 30 C-10.03937847 28.3337986 -10.04420777 26.66608027 -10 25 C-11.3317627 25.0314209 -11.3317627 25.0314209 -12.69042969 25.06347656 C-15.99294455 25.13175677 -19.2947067 25.1818487 -22.59765625 25.21972656 C-24.02551121 25.23980982 -25.45328425 25.26708252 -26.88085938 25.30175781 C-28.93640368 25.35042669 -30.99085855 25.37299967 -33.046875 25.390625 C-34.28276367 25.41157227 -35.51865234 25.43251953 -36.79199219 25.45410156 C-40 25 -40 25 -42.40332031 23.19433594 C-44.73130623 19.99495712 -44.55078456 17.8554919 -44 14 C-42.40332031 11.80566406 -42.40332031 11.80566406 -40 10 C-36.79199219 9.54589844 -36.79199219 9.54589844 -33.046875 9.609375 C-32.38665344 9.61503479 -31.72643188 9.62069458 -31.04620361 9.62652588 C-28.94671737 9.6488377 -26.8489663 9.69901686 -24.75 9.75 C-23.3229414 9.77007206 -21.89585592 9.78832161 -20.46875 9.8046875 C-16.97860707 9.84868307 -13.48947301 9.91767124 -10 10 C-10.04511719 9.05898437 -10.09023438 8.11796875 -10.13671875 7.1484375 C-10 4 -10 4 -7.8125 1.625 C-4.71632365 -0.16390189 -3.48128355 -0.7832888 0 0 Z " fill="#020202" transform="translate(405,161)"/>
<path d="M0 0 C2.8125 2.1875 2.8125 2.1875 5 5 C5.13671875 7.67578125 5.13671875 7.67578125 5 10 C5.56740906 9.99111755 6.13481812 9.98223511 6.71942139 9.9730835 C12.62404305 9.88460206 18.52847646 9.82426269 24.43359375 9.78027344 C26.6374476 9.76015581 28.84124807 9.73285828 31.04492188 9.69824219 C34.21237356 9.64973167 37.37911968 9.62703264 40.546875 9.609375 C41.53242371 9.58872986 42.51797241 9.56808472 43.53338623 9.54681396 C50.33624916 9.54458152 50.33624916 9.54458152 53.62597656 11.80175781 C55.62724772 15.00350719 55.46983244 17.30845939 55 21 C53.45737187 23.10358381 52.31891683 23.84054159 50 25 C48.54962893 25.08949417 47.09521371 25.1175844 45.64208984 25.11352539 C44.29091568 25.11341209 44.29091568 25.11341209 42.91244507 25.11329651 C41.93844757 25.10813522 40.96445007 25.10297394 39.9609375 25.09765625 C38.96494537 25.0962413 37.96895325 25.09482635 36.94277954 25.09336853 C33.75348947 25.08775936 30.56426894 25.0752053 27.375 25.0625 C25.21614685 25.05748618 23.05729259 25.05292307 20.8984375 25.04882812 C15.5989345 25.03778695 10.29947222 25.02103988 5 25 C4.78537109 26.42699219 4.78537109 26.42699219 4.56640625 27.8828125 C4 31 4 31 2.9375 32.875 C-0.2323327 34.71554802 -3.44127835 34.66726031 -7 34 C-9 32.3125 -9 32.3125 -10 30 C-10.1875 27.25 -10.1875 27.25 -10 25 C-11.11375 25.12375 -11.11375 25.12375 -12.25 25.25 C-15 25 -15 25 -17.3125 23.4375 C-19.64226201 20.07228821 -19.57289582 18.01027077 -19 14 C-17.3125 11.5625 -17.3125 11.5625 -15 10 C-12.25 9.75 -12.25 9.75 -10 10 C-10.103125 9.0925 -10.20625 8.185 -10.3125 7.25 C-10 4 -10 4 -7.8125 1.625 C-4.71632365 -0.16390189 -3.48128355 -0.7832888 0 0 Z " fill="#020202" transform="translate(380,123)"/>
<path d="M0 0 C2.8125 2.1875 2.8125 2.1875 5 5 C5.13671875 7.67578125 5.13671875 7.67578125 5 10 C5.56740906 9.99111755 6.13481812 9.98223511 6.71942139 9.9730835 C12.62404305 9.88460206 18.52847646 9.82426269 24.43359375 9.78027344 C26.6374476 9.76015581 28.84124807 9.73285828 31.04492188 9.69824219 C34.21237356 9.64973167 37.37911968 9.62703264 40.546875 9.609375 C41.53242371 9.58872986 42.51797241 9.56808472 43.53338623 9.54681396 C50.3396539 9.5445804 50.3396539 9.5445804 53.61816406 11.80566406 C55.67603118 15.07352796 55.60630442 17.22743918 55 21 C52.84910169 23.49803257 51.1105289 24.82574966 47.80844116 25.34387207 C45.08586236 25.46358374 42.39256145 25.4493092 39.66796875 25.390625 C38.67622147 25.38496521 37.68447418 25.37930542 36.66267395 25.37347412 C33.50378586 25.35113344 30.34604364 25.30094038 27.1875 25.25 C25.04233412 25.22993206 22.89715041 25.2116818 20.75195312 25.1953125 C15.50091297 25.15127645 10.25053836 25.0843875 5 25 C4.78730469 26.42699219 4.78730469 26.42699219 4.5703125 27.8828125 C4 31 4 31 2.875 32.875 C-0.16832808 34.70099685 -2.54249555 34.42460581 -6 34 C-8.4375 32.3125 -8.4375 32.3125 -10 30 C-10.25 27.25 -10.25 27.25 -10 25 C-11.11375 25.12375 -11.11375 25.12375 -12.25 25.25 C-15 25 -15 25 -17.3125 23.4375 C-19.64226201 20.07228821 -19.57289582 18.01027077 -19 14 C-17.3125 11.5625 -17.3125 11.5625 -15 10 C-12.25 9.75 -12.25 9.75 -10 10 C-10.103125 9.0925 -10.20625 8.185 -10.3125 7.25 C-10 4 -10 4 -7.8125 1.625 C-4.71632365 -0.16390189 -3.48128355 -0.7832888 0 0 Z " fill="#030303" transform="translate(380,275)"/>
<path d="M0 0 C3.94196942 3.13565749 5.13337967 5.17168672 6 10 C6.680625 10.61875 7.36125 11.2375 8.0625 11.875 C10 14 10 14 10.4375 17.5625 C10 21 10 21 8.625 22.9375 C7 24 7 24 5 24 C4.896875 25.093125 4.79375 26.18625 4.6875 27.3125 C4 31 4 31 2.875 32.9375 C-0.18452459 34.6712306 -2.56817525 34.42145216 -6 34 C-8.4375 32.3125 -8.4375 32.3125 -10 30 C-10.09765625 27.35546875 -10.09765625 27.35546875 -10 25 C-10.61752136 25.00888245 -11.23504272 25.01776489 -11.87127686 25.0269165 C-18.29494984 25.11536919 -24.71845002 25.17572569 -31.14257812 25.21972656 C-33.54043606 25.23984936 -35.93824488 25.26715059 -38.3359375 25.30175781 C-41.78137323 25.3502449 -45.22616052 25.37296241 -48.671875 25.390625 C-50.28144073 25.42159271 -50.28144073 25.42159271 -51.92352295 25.45318604 C-53.42462616 25.45363922 -53.42462616 25.45363922 -54.95605469 25.45410156 C-55.83541687 25.46298401 -56.71477905 25.47186646 -57.62078857 25.48101807 C-60.82220415 24.83377053 -62.00958814 23.54063349 -64 21 C-64.5 17.5 -64.5 17.5 -64 14 C-62.00958814 11.45936651 -60.82220415 10.16622947 -57.62078857 9.51898193 C-56.74142639 9.52786438 -55.86206421 9.53674683 -54.95605469 9.54589844 C-53.95531921 9.54620056 -52.95458374 9.54650269 -51.92352295 9.54681396 C-50.85047913 9.56745911 -49.7774353 9.58810425 -48.671875 9.609375 C-47.01566132 9.61786469 -47.01566132 9.61786469 -45.32598877 9.62652588 C-41.80021774 9.64891232 -38.27546376 9.69911504 -34.75 9.75 C-32.35938968 9.77006197 -29.96876342 9.78831326 -27.578125 9.8046875 C-21.71840313 9.84878457 -15.85927422 9.91572002 -10 10 C-10.04511719 9.05898437 -10.09023438 8.11796875 -10.13671875 7.1484375 C-10 4 -10 4 -7.8125 1.625 C-4.71632365 -0.16390189 -3.48128355 -0.7832888 0 0 Z " fill="#020202" transform="translate(425,237)"/>
<path d="M0 0 C1.20205078 0.00966797 2.40410156 0.01933594 3.64257812 0.02929688 C5.51139648 0.06700195 5.51139648 0.06700195 7.41796875 0.10546875 C9.31579102 0.12577148 9.31579102 0.12577148 11.25195312 0.14648438 C14.37022518 0.18178557 17.48762917 0.23110056 20.60546875 0.29296875 C20.19554687 0.751875 19.785625 1.21078125 19.36328125 1.68359375 C18.82445312 2.2971875 18.285625 2.91078125 17.73046875 3.54296875 C17.19679688 4.14625 16.663125 4.74953125 16.11328125 5.37109375 C12.72761476 9.68650286 12.28323046 13.28349736 12.19140625 18.68359375 C12.1720401 19.3882074 12.15267395 20.09282104 12.13272095 20.81878662 C12.0731414 23.06005914 12.02662752 25.30138364 11.98046875 27.54296875 C11.94226896 29.06642813 11.90321606 30.58986637 11.86328125 32.11328125 C11.76585772 35.83973114 11.6861214 39.56596736 11.60546875 43.29296875 C3.02546875 43.29296875 -5.55453125 43.29296875 -14.39453125 43.29296875 C-14.46352602 38.39945099 -14.5232198 33.50763087 -14.55932617 28.61401367 C-14.57438239 26.95054394 -14.59483188 25.2871137 -14.62084961 23.6237793 C-14.65737332 21.22825353 -14.67428907 18.83325408 -14.6875 16.4375 C-14.70298386 15.69772415 -14.71846771 14.9579483 -14.73442078 14.195755 C-14.73587699 9.69490741 -14.28140468 6.79814926 -11.39453125 3.29296875 C-7.5953878 0.31357432 -4.76445074 -0.06774101 0 0 Z " fill="#9A9A9A" transform="translate(81.39453125,54.70703125)"/>
<path d="M0 0 C24.93002922 -0.0934173 49.86003223 -0.1639665 74.79020119 -0.20724869 C86.36556472 -0.227879 97.94081953 -0.25600868 109.51611328 -0.30175781 C119.6044568 -0.34161107 129.69272159 -0.3674294 139.78114164 -0.37635398 C145.12352771 -0.38157126 150.46568855 -0.39384371 155.80800247 -0.42292023 C160.83617783 -0.45006532 165.86403509 -0.45844676 170.89227676 -0.45243073 C172.73776477 -0.45353136 174.58326339 -0.4614906 176.42868805 -0.4768219 C178.94931935 -0.49673586 181.46875111 -0.49193444 183.9894104 -0.48101807 C184.71899542 -0.49266943 185.44858045 -0.5043208 186.20027411 -0.51632524 C191.25455757 -0.45719515 194.11791859 0.80858824 198 4 C200.68408645 8.02612967 200.80610406 11.26816918 200 16 C198.07643127 19.57339883 195.9117746 21.69607513 192 23 C189.66700175 23.03954234 187.33291811 23.04401732 185 23 C185.33 22.030625 185.66 21.06125 186 20.0625 C187.86133485 13.50794229 187.52430291 8.31075727 185 2 C123.95 1.67 62.9 1.34 0 1 C0 0.67 0 0.34 0 0 Z " fill="#B7B7B7" transform="translate(160,474)"/>
<path d="M0 0 C1.34094727 -0.03577148 1.34094727 -0.03577148 2.70898438 -0.07226562 C7.27447526 -0.06209749 9.42522804 0.09171534 13.1875 2.87109375 C15.0625 5.5625 15.0625 5.5625 15.125 9.1875 C13.91293267 13.03759622 13.56531873 13.72975584 10.0625 15.5625 C6.91077891 16.0522868 3.80975264 16.07215808 0.625 16.0625 C-0.6444043 16.10503906 -0.6444043 16.10503906 -1.93945312 16.1484375 C-6.40871631 16.16243676 -8.34763927 16.01317166 -12 13.22265625 C-13.9375 10.5625 -13.9375 10.5625 -14.5 7.5 C-12.96395168 -0.52158565 -6.81188899 -0.08313145 0 0 Z " fill="#030303" transform="translate(403.9375,68.4375)"/>
<path d="M0 0 C0.89847656 -0.01998047 1.79695313 -0.03996094 2.72265625 -0.06054688 C6.99777262 -0.05738948 9.48405781 0.05552435 13.21875 2.28125 C15.125 4.4375 15.125 4.4375 15.75 7.375 C14.89411483 11.56883734 13.51278689 12.83384281 10.125 15.4375 C6.93889697 16.16382536 3.88048869 16.13728152 0.625 16.0625 C-0.21675781 16.08183594 -1.05851562 16.10117188 -1.92578125 16.12109375 C-6.35219139 16.08624013 -8.32986453 15.84497499 -11.96875 13.125 C-13.875 10.4375 -13.875 10.4375 -13.875 6.8125 C-11.6108065 -0.82915306 -7.02076311 -0.05492773 0 0 Z " fill="#030303" transform="translate(360.875,68.5625)"/>
<path d="M0 0 C3.96 0 7.92 0 12 0 C12.08111739 3.2296738 12.14055592 6.45730014 12.1875 9.6875 C12.22520508 11.05551758 12.22520508 11.05551758 12.26367188 12.45117188 C12.33129023 18.64952128 11.64079355 22.16359212 7.3125 26.8125 C3.82364143 28.60407602 0.89238853 28.19461943 -3 28 C-2.5359375 26.081875 -2.5359375 26.081875 -2.0625 24.125 C-0.44517236 16.18747712 -0.33414127 8.07214961 0 0 Z " fill="#BEBEBE" transform="translate(469,373)"/>
</svg>
