<?xml version="1.0" encoding="UTF-8"?>
<svg version="1.1" xmlns="http://www.w3.org/2000/svg" width="512" height="512">
<path d="M0 0 C0.77988281 0.350625 1.55976563 0.70125 2.36328125 1.0625 C15.6429159 7.66791413 24.1465861 19.885514 32.0078125 31.9921875 C32.56230072 32.83850739 33.11678894 33.68482727 33.68807983 34.55679321 C34.88072076 36.37728765 36.0718101 38.19879936 37.26147461 40.02124023 C40.49027559 44.96575152 43.73271422 49.90128905 46.9765625 54.8359375 C47.6438739 55.85117493 48.3111853 56.86641235 48.99871826 57.91241455 C55.74864419 68.16516997 62.61578512 78.33714052 69.5 88.5 C79.88236885 103.83343666 90.13242828 119.24771749 100.29135132 134.7300415 C107.12557752 145.14315594 114.00255094 155.52368407 120.98828125 165.8359375 C121.97578873 167.2943808 121.97578873 167.2943808 122.98324585 168.7822876 C126.13458127 173.43320788 129.29279935 178.07926035 132.4609375 182.71875 C146.98399357 204.05488306 157.77778595 222.666598 154.609375 249.28125 C152.7025306 258.17985718 148.26698616 266.05308005 144 274 C143.29109619 275.331521 143.29109619 275.331521 142.56787109 276.68994141 C136.78064902 287.54723699 130.84762709 298.31419114 124.75 309 C119.08900816 318.92214007 113.72623313 328.98742513 108.39758301 339.09008789 C103.40713269 348.54585289 98.28864458 357.90535294 92.96191406 367.17724609 C89.77804847 372.75445254 86.71699153 378.38379959 83.734375 384.0703125 C83.36344727 384.77609436 82.99251953 385.48187622 82.61035156 386.20904541 C80.78623251 389.68345918 78.97229166 393.16262999 77.17382812 396.65039062 C65.94083245 418.24501153 52.93024856 432.08969017 29.31103516 439.73388672 C26.6441263 440.57353498 23.96771289 441.37844017 21.2890625 442.1796875 C19.8116285 442.63328024 18.33458824 443.08815711 16.85791016 443.54420471 C12.93157194 444.75320231 9.00031946 445.94537725 5.06787872 447.13434982 C0.92532596 448.39031984 -3.21217705 449.66270679 -7.35009766 450.93383789 C-13.23043855 452.73883248 -19.11213378 454.53926751 -24.99590111 456.33306217 C-37.96323813 460.2864877 -50.90877751 464.30788279 -63.85165405 468.34063721 C-73.06553384 471.20903619 -82.28459369 474.06078033 -91.50250244 476.91619873 C-95.12869747 478.03988065 -98.75455523 479.16464606 -102.38037109 480.28955078 C-108.45530381 482.17389524 -114.53144568 484.05429362 -120.60845947 485.93191528 C-122.88060814 486.6345264 -125.15238838 487.33833028 -127.42376709 488.04342651 C-130.54319728 489.01149626 -133.66398801 489.97505109 -136.78515625 490.9375 C-137.69174484 491.21993057 -138.59833344 491.50236115 -139.53239441 491.79335022 C-162.24847059 498.7714668 -184.50923174 498.15398368 -205.7734375 486.921875 C-210.58976938 484.05306715 -214.87711434 480.79115923 -219 477 C-219.53262451 476.51192871 -220.06524902 476.02385742 -220.61401367 475.52099609 C-225.34560648 471.01341106 -228.89850838 466.09847357 -232.4375 460.625 C-233.03022705 459.72233398 -233.6229541 458.81966797 -234.23364258 457.88964844 C-240.31680771 448.5942744 -246.29218317 439.22797818 -252.26171875 429.859375 C-255.32053945 425.05935579 -258.40061633 420.27389871 -261.5 415.5 C-269.42880433 403.27642666 -277.25514252 390.98684626 -285.10253906 378.7109375 C-291.9706282 367.96813079 -298.83873479 357.22593713 -305.77856445 346.52929688 C-310.58034201 339.12027978 -315.32985084 331.6778546 -320.08447266 324.23852539 C-323.99395389 318.12454406 -327.92211922 312.02348803 -331.875 305.9375 C-333.58668684 303.29382027 -335.2945838 300.64772871 -337 298 C-337.45133301 297.3002002 -337.90266602 296.60040039 -338.36767578 295.87939453 C-348.66293876 279.8617205 -348.66293876 279.8617205 -351 273 C-351.22171875 272.35933594 -351.4434375 271.71867187 -351.671875 271.05859375 C-353.07461843 266.06368978 -353.26155484 260.97541233 -353.375 255.8125 C-353.40110352 255.15443359 -353.42720703 254.49636719 -353.45410156 253.81835938 C-353.50788445 237.69885823 -344.47976517 223.21447867 -337.375 209.3125 C-336.32053572 207.22515404 -335.26714355 205.13726612 -334.21484375 203.04882812 C-329.60580806 193.92379692 -324.93298902 184.83657235 -320.13671875 175.80859375 C-315.9576417 167.93274538 -311.96058256 159.96976152 -307.99609375 151.984375 C-307.68950081 151.36730368 -307.38290787 150.75023235 -307.06702423 150.1144619 C-304.2123573 144.36845866 -301.36100979 138.62082253 -298.51977539 132.86816406 C-280.46163594 96.32197919 -280.46163594 96.32197919 -271.375 86 C-270.90610352 85.46713379 -270.43720703 84.93426758 -269.95410156 84.38525391 C-268.64843927 82.9124416 -267.3249892 81.45544967 -266 80 C-265.14535156 79.02160156 -265.14535156 79.02160156 -264.2734375 78.0234375 C-243.30101301 55.3301987 -211.95671014 48.18093478 -183.48121643 39.87225342 C-178.4404762 38.39741823 -173.40562373 36.90274247 -168.37011719 35.41015625 C-160.3220987 33.02717911 -152.27094301 30.65515012 -144.21679688 28.29296875 C-134.4257019 25.42135398 -124.64088574 22.52907231 -114.859375 19.625 C-103.74679149 16.32618954 -92.62521451 13.05915999 -81.4985199 9.80825806 C-74.51474383 7.76008661 -67.55911787 5.63389155 -60.61328125 3.4609375 C-19.35461541 -9.35421794 -19.35461541 -9.35421794 0 0 Z " fill="#FE8E00" transform="translate(355,10)"/>
<path d="M0 0 C-1.49800621 3.29107425 -3.43179101 5.94688743 -5.625 8.8125 C-8.64712731 13.03066606 -8.64712731 13.03066606 -9.625 18 C-9.30239632 21.30498897 -9.30239632 21.30498897 -6 23 C-2.83710887 22.85181275 -1.44032452 22.43766805 0.82104492 20.18994141 C1.64245972 19.03244385 1.64245972 19.03244385 2.48046875 17.8515625 C3.08697266 17.01109375 3.69347656 16.170625 4.31835938 15.3046875 C4.93517578 14.42039062 5.55199219 13.53609375 6.1875 12.625 C6.81591797 11.7484375 7.44433594 10.871875 8.09179688 9.96875 C10.44484418 6.67700041 12.75547336 3.36678996 15 0 C25.30723962 0.46851089 33.62132577 6.01473761 40.61181641 13.24169922 C45.20930753 18.55170276 48.93590893 24.4325122 52.75 30.3125 C53.69744472 31.7547538 54.64596505 33.19630149 55.59545898 34.63720703 C57.64941999 37.75807947 59.69702964 40.88298674 61.73974609 44.01123047 C66.88422617 51.88828412 72.06104886 59.74408631 77.23596191 67.60116577 C78.46014793 69.46025051 79.68385722 71.31964925 80.90710449 73.17935181 C90.59766922 87.91086335 100.41304258 102.55340828 110.29748535 117.15536499 C120.98449096 132.94833197 131.51833919 148.83825074 141.98413086 164.77856445 C143.16123134 166.57116848 144.33839464 168.36373126 145.515625 170.15625 C146.07939346 171.01474045 146.64316193 171.8732309 147.22401428 172.75773621 C150.53067124 177.78625568 153.86396134 182.79525633 157.234375 187.78125 C157.61736252 188.34910721 158.00035004 188.91696442 158.39494324 189.50202942 C160.06674598 191.97978492 161.74468112 194.45278627 163.43676758 196.91674805 C168.67769009 204.66357407 172.3146855 211.57692563 173 221 C172.42781738 221.15557373 171.85563477 221.31114746 171.26611328 221.47143555 C164.50938617 223.30933547 157.7541354 225.15259872 151 227 C150.20078125 227.21849609 149.4015625 227.43699219 148.578125 227.66210938 C141.53388361 229.59178188 134.50005296 231.54929576 127.49609375 233.62109375 C115.65265654 237.12374832 103.78033789 240.38994093 91.81152344 243.43823242 C84.09893831 245.4165473 76.47643938 247.59986441 68.86669922 249.93945312 C63.25883058 251.65357816 57.62824233 253.15210902 51.93041992 254.53417969 C44.65556937 256.30474926 37.45786027 258.33919755 30.25146484 260.36767578 C28.08152513 260.97710366 25.91028521 261.58156819 23.73828125 262.18359375 C23.03195557 262.37937012 22.32562988 262.57514648 21.59790039 262.77685547 C20.15581931 263.17612077 18.71359873 263.57488258 17.27124023 263.97314453 C12.6682607 265.24757051 8.07437749 266.55063651 3.484375 267.87109375 C2.35974854 268.19223145 1.23512207 268.51336914 0.07641602 268.84423828 C-2.14597946 269.47920842 -4.36691039 270.11933193 -6.58618164 270.76513672 C-7.60574951 271.05533691 -8.62531738 271.34553711 -9.67578125 271.64453125 C-10.58239502 271.90596924 -11.48900879 272.16740723 -12.4230957 272.43676758 C-15.13689718 273.02992153 -17.24053724 273.38023309 -20 273 C-21.71337891 271.37939453 -21.71337891 271.37939453 -23.2265625 269.1328125 C-24.061875 267.92818359 -24.061875 267.92818359 -24.9140625 266.69921875 C-25.47867188 265.84972656 -26.04328125 265.00023437 -26.625 264.125 C-27.75853872 262.45788111 -28.89638507 260.79368086 -30.0390625 259.1328125 C-30.53615723 258.38918457 -31.03325195 257.64555664 -31.54541016 256.87939453 C-33.03823589 254.74449359 -33.03823589 254.74449359 -36 253 C-39.14221967 253.31506627 -39.14221967 253.31506627 -42 254 C-43.00364159 256.62549629 -43.00364159 256.62549629 -43 260 C-41.54624572 262.8641129 -39.58223737 265.26379366 -37.5625 267.75 C-36.51838274 269.07517683 -35.47782594 270.40316927 -34.44140625 271.734375 C-33.97420166 272.31413086 -33.50699707 272.89388672 -33.02563477 273.49121094 C-32 275 -32 275 -32 277 C-49.19723674 282.84592536 -49.19723674 282.84592536 -56.3125 284.9375 C-57.51326172 285.29134766 -57.51326172 285.29134766 -58.73828125 285.65234375 C-61.50693186 286.07792217 -63.31368294 285.80175124 -66 285 C-67.61132812 283.35888672 -67.61132812 283.35888672 -69.03125 281.1796875 C-69.58296875 280.35114258 -70.1346875 279.52259766 -70.703125 278.66894531 C-71.29609375 277.74694336 -71.8890625 276.82494141 -72.5 275.875 C-73.84324899 273.8460224 -75.18702886 271.81739618 -76.53125 269.7890625 C-77.25183594 268.69110352 -77.97242188 267.59314453 -78.71484375 266.46191406 C-82.31191599 260.99444195 -86.00723239 255.59315188 -89.68753052 250.18154907 C-91.91988458 246.89621446 -94.14525385 243.60615617 -96.37109375 240.31640625 C-97.2953838 238.95066576 -98.21970054 237.58494333 -99.14404297 236.21923828 C-99.61074402 235.52969055 -100.07744507 234.84014282 -100.55828857 234.12969971 C-102.03605708 231.94673639 -103.51428952 229.76408796 -104.99267578 227.58154297 C-110.39558789 219.60519264 -115.79595666 211.62714647 -121.18766785 203.64321899 C-123.18124189 200.69118573 -125.17616074 197.74010951 -127.17480469 194.79150391 C-128.93325444 192.19714956 -130.68642008 189.59933138 -132.4375 187 C-132.92162354 186.2886792 -133.40574707 185.5773584 -133.90454102 184.84448242 C-137 180.22935928 -137 180.22935928 -137 178 C-133.09011859 176.46129838 -129.17116392 174.94719297 -125.25 173.4375 C-124.13882813 172.99986328 -123.02765625 172.56222656 -121.8828125 172.11132812 C-120.27792969 171.49741211 -120.27792969 171.49741211 -118.640625 170.87109375 C-117.16384277 170.29766235 -117.16384277 170.29766235 -115.65722656 169.71264648 C-112.81777479 168.95112868 -111.64098504 168.75035642 -109 170 C-107.27661133 171.84179688 -107.27661133 171.84179688 -105.58203125 174.21875 C-104.96779297 175.06824219 -104.35355469 175.91773438 -103.72070312 176.79296875 C-102.77614258 178.13294922 -102.77614258 178.13294922 -101.8125 179.5 C-100.54852795 181.2606686 -99.28422297 183.02109827 -98.01953125 184.78125 C-97.46370361 185.56564453 -96.90787598 186.35003906 -96.33520508 187.15820312 C-95.12975188 188.92273699 -95.12975188 188.92273699 -94 190 C-91.32941149 190.14115161 -88.67567762 190.04247107 -86 190 C-85.54781902 184.45927572 -85.64969857 181.53454965 -89.30322266 177.02807617 C-89.76003418 176.50318604 -90.2168457 175.9782959 -90.6875 175.4375 C-91.60623085 174.31833351 -92.5242069 173.19854695 -93.44140625 172.078125 C-93.88371582 171.55025391 -94.32602539 171.02238281 -94.78173828 170.47851562 C-97.01656296 167.76627148 -98.99053133 164.88023843 -101 162 C-99.68682157 159.22433132 -98.21872448 156.79056242 -96.3984375 154.3203125 C-95.90859375 153.63839844 -95.41875 152.95648438 -94.9140625 152.25390625 C-93.88902863 150.83602945 -92.85515117 149.4245037 -91.8125 148.01953125 C-89.48359295 144.74797135 -88.0894169 142.65622909 -87.5390625 138.6171875 C-87.76857952 135.84892626 -87.76857952 135.84892626 -90 134 C-92.40091251 133.43139301 -92.40091251 133.43139301 -95 134 C-97.30472313 136.02529298 -97.30472313 136.02529298 -99.3125 138.8125 C-100.09238281 139.81023437 -100.87226563 140.80796875 -101.67578125 141.8359375 C-103.17282645 143.87393181 -104.63218983 145.9404277 -106.04296875 148.0390625 C-106.68878906 148.99554688 -107.33460938 149.95203125 -108 150.9375 C-108.556875 151.81277344 -109.11375 152.68804687 -109.6875 153.58984375 C-112.97383834 157.01496327 -116.62492755 158.30502717 -121 160 C-122.30251709 160.53282593 -122.30251709 160.53282593 -123.63134766 161.07641602 C-126.34839159 162.18244104 -129.07784237 163.25085506 -131.8125 164.3125 C-133.2037207 164.8703418 -133.2037207 164.8703418 -134.62304688 165.43945312 C-135.51701172 165.78556641 -136.41097656 166.13167969 -137.33203125 166.48828125 C-138.53436401 166.96068237 -138.53436401 166.96068237 -139.76098633 167.44262695 C-142.34788986 168.08660261 -143.51125237 167.89251352 -146 167 C-147.84444811 164.70185354 -149.44975539 162.46358394 -151.05078125 160.00390625 C-151.5374527 159.27657791 -152.02412415 158.54924957 -152.52554321 157.79988098 C-154.13183046 155.39431725 -155.72195338 152.97849398 -157.3125 150.5625 C-158.43247819 148.87957392 -159.5536691 147.19745432 -160.67602539 145.51611328 C-162.98887727 142.04946209 -165.29645849 138.57938888 -167.60058594 135.10693359 C-172.19007671 128.19991758 -176.84920257 121.34048957 -181.50836182 114.4803772 C-191.75961182 99.37844496 -201.90407716 84.20611022 -212 69 C-200.95471377 57.48358068 -183.85265203 53.29748192 -169 49 C-167.47220137 48.54579813 -165.94482723 48.09016487 -164.41796875 47.6328125 C-160.96038982 46.6015633 -157.49731183 45.590704 -154.03125 44.58837891 C-150.58065819 43.58886854 -147.13405185 42.57583831 -143.6875 41.5625 C-142.99358154 41.35866699 -142.29966309 41.15483398 -141.5847168 40.94482422 C-135.19638995 39.06491645 -128.81914005 37.14862177 -122.44213867 35.23071289 C-117.13334449 33.63557025 -111.81958767 32.05874537 -106.5 30.5 C-96.1847885 27.47626176 -85.89306343 24.37466249 -75.59960938 21.27783203 C-56.88737199 15.64948152 -38.15845477 10.0749785 -19.40283203 4.59277344 C-14.91069214 3.27794501 -10.43793048 1.90843437 -5.98046875 0.48046875 C-4 0 -4 0 0 0 Z " fill="#FEC006" transform="translate(324,19)"/>
<path d="M0 0 C1.25913858 19.7864634 -19.44704041 45.35133374 -28.89306641 61.89282227 C-33.98406778 70.86053483 -38.79241272 79.97063697 -43.60269165 89.09063721 C-48.5921519 98.54451169 -53.71294291 107.90007943 -59.03369141 117.17285156 C-62.23143043 122.77960047 -65.3195032 128.43493967 -68.3359375 134.140625 C-68.89942902 135.20639771 -68.89942902 135.20639771 -69.4743042 136.29370117 C-71.32527369 139.80017587 -73.16814325 143.31069484 -75.00195312 146.82617188 C-86.3513931 168.49115428 -86.3513931 168.49115428 -93 174 C-93.66 174 -94.32 174 -95 174 C-95.96566147 172.72311631 -96.87396285 171.40246005 -97.75 170.0625 C-99.94307773 167.02551736 -100.60376318 166.1371589 -104.25 164.875 C-107.14649305 164.69698014 -107.14649305 164.69698014 -109 167 C-109.4830499 171.26694079 -109.5543027 173.26092973 -106.9375 176.75 C-105.9784375 177.86375 -105.9784375 177.86375 -105 179 C-106 182 -106 182 -107.63348389 182.83169556 C-108.3432135 183.04659637 -109.05294312 183.26149719 -109.78417969 183.48291016 C-110.59252258 183.73426224 -111.40086548 183.98561432 -112.23370361 184.24458313 C-113.12080017 184.50676132 -114.00789673 184.76893951 -114.921875 185.0390625 C-115.84071472 185.32118088 -116.75955444 185.60329926 -117.70623779 185.89396667 C-120.71747806 186.81572109 -123.73359698 187.72029877 -126.75 188.625 C-128.82654058 189.25749847 -130.90271169 189.89121115 -132.97851562 190.52612305 C-137.1017765 191.78575938 -141.22677483 193.03941023 -145.35351562 194.28759766 C-152.41416277 196.4250856 -159.45770287 198.6154073 -166.5 200.8125 C-168.77069705 201.51736625 -171.04152849 202.22179976 -173.3125 202.92578125 C-180.37528108 205.11628203 -187.43765561 207.30809175 -194.5 209.5 C-196.91666508 210.25000511 -199.33333174 211.00000512 -201.75 211.75 C-203.544375 212.306875 -203.544375 212.306875 -205.375 212.875 C-225.3125 219.0625 -225.3125 219.0625 -245.25 225.25 C-246.44802246 225.62189453 -247.64604492 225.99378906 -248.88037109 226.37695312 C-251.27891787 227.12114004 -253.67767846 227.86463819 -256.07666016 228.60742188 C-261.72230151 230.35636426 -267.36556013 232.11206737 -273.00128174 233.8927002 C-275.65323152 234.73012432 -278.30642272 235.56357494 -280.9597168 236.39672852 C-282.82397555 236.98392844 -284.68643044 237.57684574 -286.54882812 238.16992188 C-300.27595368 242.47570771 -312.91487503 243.16139078 -327 240 C-325.55008002 235.2029342 -323.52861017 230.85489298 -321.21875 226.42578125 C-320.8491214 225.70881577 -320.4794928 224.99185028 -320.09866333 224.25315857 C-318.90334007 221.93738979 -317.70182473 219.62490035 -316.5 217.3125 C-315.6720631 215.71206932 -314.84442748 214.11148274 -314.01708984 212.51074219 C-309.16800262 203.13751583 -304.28867394 193.78031423 -299.3515625 184.453125 C-296.54432662 179.14761816 -293.77331263 173.82329464 -291 168.5 C-286.94793661 160.72466189 -282.87808638 152.95907996 -278.7890625 145.203125 C-275.50913682 138.97753359 -272.25213914 132.74014515 -269 126.5 C-264.9518971 118.73257412 -260.88963563 110.972964 -256.80004883 103.22729492 C-254.47737666 98.82357554 -252.17382914 94.41058805 -249.88671875 89.98828125 C-249.35498047 88.9621875 -248.82324219 87.93609375 -248.27539062 86.87890625 C-247.24654168 84.89207619 -246.22033064 82.90387702 -245.19726562 80.9140625 C-244.25723016 79.10049747 -243.30318921 77.29410751 -242.33374023 75.49609375 C-241.48675597 73.9109634 -240.67659347 72.30516133 -239.91821289 70.67578125 C-237.67735738 66.30749316 -235.71290724 64.51196958 -231.03515625 62.8984375 C-229.05247693 62.35947462 -227.06067707 61.8533165 -225.0625 61.375 C-223.99346436 61.09197021 -222.92442871 60.80894043 -221.82299805 60.51733398 C-219.61509982 59.93467833 -217.40383775 59.36462592 -215.18945312 58.80712891 C-211.42014446 57.85326069 -207.67490233 56.82438193 -203.92822266 55.78588867 C-201.24909565 55.04496527 -198.56653828 54.31782806 -195.8828125 53.59375 C-189.14488569 51.77231387 -182.41590696 49.91874953 -175.6875 48.0625 C-173.84418091 47.55432739 -173.84418091 47.55432739 -171.96362305 47.03588867 C-165.04785491 45.12659961 -158.13799842 43.19763886 -151.23266602 41.25097656 C-141.12369272 38.40149929 -130.99194944 35.6777683 -120.82104492 33.05810547 C-114.97784717 31.54371156 -109.21151562 29.87983195 -103.45703125 28.0546875 C-92.23113367 24.62983739 -80.83817257 21.7229281 -69.47412109 18.79638672 C-59.59645864 16.25206338 -49.79819042 13.51390755 -40.01831055 10.61669922 C-30.18441382 7.72101541 -20.27338472 5.15625913 -10.34326172 2.61474609 C-8.18927694 2.04965611 -6.04892696 1.45187818 -3.91015625 0.83203125 C-1 0 -1 0 0 0 Z " fill="#FD9F00" transform="translate(497,252)"/>
<path d="M0 0 C0.77988281 0.350625 1.55976563 0.70125 2.36328125 1.0625 C15.6429159 7.66791413 24.1465861 19.885514 32.0078125 31.9921875 C32.56230072 32.83850739 33.11678894 33.68482727 33.68807983 34.55679321 C34.88072076 36.37728765 36.0718101 38.19879936 37.26147461 40.02124023 C40.49027559 44.96575152 43.73271422 49.90128905 46.9765625 54.8359375 C47.6438739 55.85117493 48.3111853 56.86641235 48.99871826 57.91241455 C55.74864419 68.16516997 62.61578512 78.33714052 69.5 88.5 C79.88236885 103.83343666 90.13242828 119.24771749 100.29135132 134.7300415 C107.12557752 145.14315594 114.00255094 155.52368407 120.98828125 165.8359375 C121.97578873 167.2943808 121.97578873 167.2943808 122.98324585 168.7822876 C126.13458127 173.43320788 129.29279935 178.07926035 132.4609375 182.71875 C146.98399357 204.05488306 157.77778595 222.666598 154.609375 249.28125 C152.7025306 258.17985718 148.26698616 266.05308005 144 274 C143.29109619 275.331521 143.29109619 275.331521 142.56787109 276.68994141 C136.78064902 287.54723699 130.84762709 298.31419114 124.75 309 C119.08900816 318.92214007 113.72623313 328.98742513 108.39758301 339.09008789 C103.40713269 348.54585289 98.28864458 357.90535294 92.96191406 367.17724609 C89.77804847 372.75445254 86.71699153 378.38379959 83.734375 384.0703125 C83.36344727 384.77609436 82.99251953 385.48187622 82.61035156 386.20904541 C80.78623251 389.68345918 78.97229166 393.16262999 77.17382812 396.65039062 C65.94083245 418.24501153 52.93024856 432.08969017 29.31103516 439.73388672 C26.6441263 440.57353498 23.96771289 441.37844017 21.2890625 442.1796875 C19.8116285 442.63328024 18.33458824 443.08815711 16.85791016 443.54420471 C12.93157194 444.75320231 9.00031946 445.94537725 5.06787872 447.13434982 C0.92532596 448.39031984 -3.21217705 449.66270679 -7.35009766 450.93383789 C-13.23043855 452.73883248 -19.11213378 454.53926751 -24.99590111 456.33306217 C-37.96323813 460.2864877 -50.90877751 464.30788279 -63.85165405 468.34063721 C-73.06553384 471.20903619 -82.28459369 474.06078033 -91.50250244 476.91619873 C-95.12869747 478.03988065 -98.75455523 479.16464606 -102.38037109 480.28955078 C-108.45530381 482.17389524 -114.53144568 484.05429362 -120.60845947 485.93191528 C-122.88060814 486.6345264 -125.15238838 487.33833028 -127.42376709 488.04342651 C-130.54319728 489.01149626 -133.66398801 489.97505109 -136.78515625 490.9375 C-137.69174484 491.21993057 -138.59833344 491.50236115 -139.53239441 491.79335022 C-162.24847059 498.7714668 -184.50923174 498.15398368 -205.7734375 486.921875 C-210.58976938 484.05306715 -214.87711434 480.79115923 -219 477 C-219.53262451 476.51192871 -220.06524902 476.02385742 -220.61401367 475.52099609 C-225.34560648 471.01341106 -228.89850838 466.09847357 -232.4375 460.625 C-233.03022705 459.72233398 -233.6229541 458.81966797 -234.23364258 457.88964844 C-240.31680771 448.5942744 -246.29218317 439.22797818 -252.26171875 429.859375 C-255.32053945 425.05935579 -258.40061633 420.27389871 -261.5 415.5 C-269.42880433 403.27642666 -277.25514252 390.98684626 -285.10253906 378.7109375 C-291.9706282 367.96813079 -298.83873479 357.22593713 -305.77856445 346.52929688 C-310.58034201 339.12027978 -315.32985084 331.6778546 -320.08447266 324.23852539 C-323.99395389 318.12454406 -327.92211922 312.02348803 -331.875 305.9375 C-333.58668684 303.29382027 -335.2945838 300.64772871 -337 298 C-337.45133301 297.3002002 -337.90266602 296.60040039 -338.36767578 295.87939453 C-348.66293876 279.8617205 -348.66293876 279.8617205 -351 273 C-351.22171875 272.35933594 -351.4434375 271.71867187 -351.671875 271.05859375 C-353.07461843 266.06368978 -353.26155484 260.97541233 -353.375 255.8125 C-353.40110352 255.15443359 -353.42720703 254.49636719 -353.45410156 253.81835938 C-353.50788445 237.69885823 -344.47976517 223.21447867 -337.375 209.3125 C-336.32053572 207.22515404 -335.26714355 205.13726612 -334.21484375 203.04882812 C-329.60580806 193.92379692 -324.93298902 184.83657235 -320.13671875 175.80859375 C-315.9576417 167.93274538 -311.96058256 159.96976152 -307.99609375 151.984375 C-307.68950081 151.36730368 -307.38290787 150.75023235 -307.06702423 150.1144619 C-304.2123573 144.36845866 -301.36100979 138.62082253 -298.51977539 132.86816406 C-280.46163594 96.32197919 -280.46163594 96.32197919 -271.375 86 C-270.90610352 85.46713379 -270.43720703 84.93426758 -269.95410156 84.38525391 C-268.64843927 82.9124416 -267.3249892 81.45544967 -266 80 C-265.14535156 79.02160156 -265.14535156 79.02160156 -264.2734375 78.0234375 C-243.30101301 55.3301987 -211.95671014 48.18093478 -183.48121643 39.87225342 C-178.4404762 38.39741823 -173.40562373 36.90274247 -168.37011719 35.41015625 C-160.3220987 33.02717911 -152.27094301 30.65515012 -144.21679688 28.29296875 C-134.4257019 25.42135398 -124.64088574 22.52907231 -114.859375 19.625 C-103.74679149 16.32618954 -92.62521451 13.05915999 -81.4985199 9.80825806 C-74.51474383 7.76008661 -67.55911787 5.63389155 -60.61328125 3.4609375 C-19.35461541 -9.35421794 -19.35461541 -9.35421794 0 0 Z M-38.921875 10.06640625 C-39.68741699 10.30093506 -40.45295898 10.53546387 -41.24169922 10.77709961 C-42.06943848 11.03628174 -42.89717773 11.29546387 -43.75 11.5625 C-45.55957619 12.11822941 -47.36948675 12.67287089 -49.1796875 13.2265625 C-50.13069336 13.51821289 -51.08169922 13.80986328 -52.06152344 14.11035156 C-56.9853281 15.60107474 -61.93161848 17.01336015 -66.875 18.4375 C-74.7488087 20.71503232 -82.57464729 23.10765086 -90.375 25.625 C-97.64889356 27.97179184 -104.94180257 30.15163077 -112.31616211 32.15893555 C-123.58803866 35.23353948 -134.7681908 38.63166769 -145.89257812 42.20141602 C-154.02894663 44.81111294 -162.20318794 47.2170287 -170.4375 49.5 C-181.33843964 52.52340743 -192.19583512 55.64661785 -203 59 C-203.87672363 59.26780273 -204.75344727 59.53560547 -205.65673828 59.81152344 C-225.99463002 65.8602081 -225.99463002 65.8602081 -243 78 C-230.93789148 96.16750727 -218.76519736 114.25784677 -206.53111267 132.30990601 C-202.85809058 137.73050977 -199.19163047 143.15551953 -195.52734375 148.58203125 C-193.94605045 150.92296087 -192.3646817 153.26383951 -190.78329468 155.60470581 C-189.76866655 157.10702912 -188.75435904 158.60956902 -187.74038696 160.11233521 C-186.33305871 162.19791298 -184.92447717 164.28263898 -183.515625 166.3671875 C-183.10106552 166.98225662 -182.68650604 167.59732574 -182.25938416 168.23103333 C-180.24334294 171.21144954 -178.19206098 174.14610184 -176 177 C-164.09807394 174.63684612 -146.97236065 171.08060843 -139.125 161.1875 C-138.05220074 159.47747411 -137.0121305 157.74661921 -136 156 C-134.40323036 153.77473638 -132.72972819 151.61021413 -131.0625 149.4375 C-130.31097656 148.42558594 -129.55945313 147.41367188 -128.78515625 146.37109375 C-127 144 -127 144 -126 143 C-123.5625 142.8125 -123.5625 142.8125 -121 143 C-119 145 -119 145 -118.5 147.5859375 C-119.23402959 152.59798332 -121.95705727 155.67739863 -125 159.625 C-126.13346959 161.11076419 -127.25885538 162.60273972 -128.375 164.1015625 C-129.12910156 165.08116943 -129.12910156 165.08116943 -129.8984375 166.08056641 C-131.33183587 168.20936775 -131.33183587 168.20936775 -131 172 C-129.83635053 174.16720144 -129.83635053 174.16720144 -128.19140625 176.29296875 C-127.60939453 177.08767578 -127.02738281 177.88238281 -126.42773438 178.70117188 C-125.81220703 179.52166016 -125.19667969 180.34214844 -124.5625 181.1875 C-123.64500977 182.43563477 -123.64500977 182.43563477 -122.70898438 183.70898438 C-120.03120938 187.50210722 -120.03120938 187.50210722 -117 191 C-116.85884839 193.67058851 -116.95752893 196.32432238 -117 199 C-119.92439092 199.2980271 -122.14689028 199.5035679 -125 199 C-127.20327086 196.95276816 -128.52171906 195.44307882 -130.125 193 C-130.54313965 192.41001221 -130.9612793 191.82002441 -131.39208984 191.2121582 C-132.22612309 190.03359095 -133.05013551 188.84785943 -133.86328125 187.65478516 C-135.38105112 185.44528254 -136.99791848 183.31728831 -138.625 181.1875 C-139.40875 180.135625 -140.1925 179.08375 -141 178 C-144.5922998 178.63693259 -147.87918241 179.5870672 -151.30078125 180.84765625 C-152.27724609 181.20537109 -153.25371094 181.56308594 -154.25976562 181.93164062 C-155.26716797 182.30482422 -156.27457031 182.67800781 -157.3125 183.0625 C-158.85260742 183.62807617 -158.85260742 183.62807617 -160.42382812 184.20507812 C-162.95043887 185.13346068 -165.47575761 186.06520129 -168 187 C-166.47632646 191.37779182 -164.14929686 195.0136523 -161.55078125 198.8125 C-161.10914139 199.46629639 -160.66750153 200.12009277 -160.21247864 200.79370117 C-159.27959125 202.17372656 -158.34464988 203.55236544 -157.40777588 204.9296875 C-156.05529655 206.91867942 -154.70886111 208.91159865 -153.36474609 210.90625 C-150.64466653 214.94134581 -147.91645797 218.97090547 -145.1875 223 C-144.18551036 224.48011851 -143.183558 225.96026226 -142.18164062 227.44042969 C-140.12971924 230.47157417 -138.07745301 233.50248473 -136.02490234 236.53320312 C-134.06127186 239.43266246 -132.09801918 242.33237677 -130.13525391 245.23242188 C-129.67472122 245.91285553 -129.21418854 246.59328918 -128.73970032 247.29434204 C-127.82636397 248.64387864 -126.91310437 249.99346718 -125.99992371 251.34310913 C-123.79963266 254.59437947 -121.59709698 257.84408219 -119.3894043 261.09033203 C-115.3963619 266.96442425 -111.42848152 272.85083898 -107.53125 278.7890625 C-106.84546875 279.82385742 -106.1596875 280.85865234 -105.453125 281.92480469 C-104.19086049 283.83145522 -102.94000546 285.74573064 -101.703125 287.66894531 C-101.15140625 288.49749023 -100.5996875 289.32603516 -100.03125 290.1796875 C-99.56267578 290.89882324 -99.09410156 291.61795898 -98.61132812 292.35888672 C-96.44948011 294.56069616 -95.05888353 294.79744168 -92 295 C-89.25383462 294.54359327 -89.25383462 294.54359327 -86.4375 293.63671875 C-85.39335937 293.32669922 -84.34921875 293.01667969 -83.2734375 292.69726562 C-82.19320312 292.36404297 -81.11296875 292.03082031 -80 291.6875 C-78.91976562 291.36587891 -77.83953125 291.04425781 -76.7265625 290.71289062 C-72.06376705 289.31117372 -67.50236251 287.86151445 -63 286 C-64.96696054 281.54445404 -68.01483118 277.77808949 -70.98632812 273.953125 C-73.20883499 270.90388853 -74.02760174 269.40888009 -73.76953125 265.5859375 C-73.51558594 264.73257813 -73.26164063 263.87921875 -73 263 C-70.3125 262.1875 -70.3125 262.1875 -67 262 C-62.670594 265.69442645 -59.48871921 270.20666012 -56.1875 274.8125 C-55.68541016 275.50537109 -55.18332031 276.19824219 -54.66601562 276.91210938 C-53.4400012 278.60517691 -52.2194351 280.30218756 -51 282 C-43.72616018 281.32898157 -36.86344148 279.55289051 -29.8125 277.6875 C-28.66974609 277.39166016 -27.52699219 277.09582031 -26.34960938 276.79101562 C-19.53430899 275.00724848 -12.80311383 273.03575042 -6.0793457 270.93530273 C-1.48457825 269.53971452 3.15693944 268.3606041 7.8125 267.1875 C15.84082117 265.13154707 23.80619011 262.9233374 31.75 260.5625 C40.37344998 258.00226963 49.03316284 255.65856115 57.75 253.4375 C66.47325082 251.21335785 75.11570124 248.8365291 83.72241211 246.19897461 C98.49074195 241.68638769 113.45607514 237.83440747 128.41333008 234.00390625 C133.00484887 232.82036923 137.52481499 231.58123204 142 230 C141.81965547 228.39244617 141.60345502 226.78892492 141.375 225.1875 C141.25898438 224.29417969 141.14296875 223.40085938 141.0234375 222.48046875 C137.66141334 211.04702018 129.45218599 201.03663635 122.81396484 191.31225586 C119.55044725 186.52992452 116.30445464 181.73573223 113.05859375 176.94140625 C112.05298904 175.45672348 112.05298904 175.45672348 111.02706909 173.94204712 C104.09298113 163.6881553 97.29063939 153.34920173 90.5 143 C80.35021168 127.53977247 70.07933873 112.16782136 59.70864868 96.85498047 C48.84195498 80.80493342 38.14988182 64.64408791 27.5390625 48.42382812 C12.43614531 24.20136626 12.43614531 24.20136626 -11 9 C-13.50628182 8.57942428 -13.50628182 8.57942428 -16 9 C-17.78843258 10.55519233 -17.78843258 10.55519233 -19.15625 12.76171875 C-19.70410156 13.55126953 -20.25195312 14.34082031 -20.81640625 15.15429688 C-21.37199219 15.99025391 -21.92757812 16.82621094 -22.5 17.6875 C-29.86645742 28.51499599 -29.86645742 28.51499599 -34 32 C-38.19047619 31.80952381 -38.19047619 31.80952381 -40 30 C-40.46970003 25.67128725 -40.31907687 23.52483081 -38.03125 19.76171875 C-37.1959375 18.74722656 -36.360625 17.73273437 -35.5 16.6875 C-32.25981966 13.25620617 -32.25981966 13.25620617 -31 9 C-34.251823 9 -35.96247062 9.14491292 -38.921875 10.06640625 Z M-256.9375 88.5625 C-260.71876513 92.42522096 -263.8500223 96.3980353 -266.82421875 100.90625 C-267.2581192 101.56230728 -267.69201965 102.21836456 -268.1390686 102.89430237 C-272.54483401 109.66877244 -276.25323338 116.72236264 -279.875 123.9375 C-280.61720112 125.39811054 -281.3600669 126.85838347 -282.10351562 128.31835938 C-287.12829069 138.21100635 -292.07658764 148.14240809 -297.0390625 158.06640625 C-297.34539486 158.67899733 -297.65172722 159.2915884 -297.96734238 159.92274284 C-301.3437929 166.67573373 -304.71554411 173.43101032 -308.07763672 180.19116211 C-314.24655107 192.58339316 -320.51297384 204.9086392 -327.01037598 217.13183594 C-329.09390097 221.065013 -331.1225849 225.02505659 -333.125 229 C-333.50914062 229.74765625 -333.89328125 230.4953125 -334.2890625 231.265625 C-336.41961776 235.42404775 -336.41961776 235.42404775 -337 240 C-330.5571469 238.18571997 -330.5571469 238.18571997 -324.3125 235.8125 C-321.08389289 234.67812453 -318.38828457 234.68035051 -315 235 C-313 238 -313 238 -312.8125 240.4375 C-314.77285594 244.66774176 -318.87088265 245.42749882 -323 247 C-325.24064948 247.9159394 -327.4756814 248.84490916 -329.7109375 249.77392578 C-333.13544194 251.19535111 -336.56783499 252.59718629 -340 254 C-341.33298609 270.70675898 -332.78399747 281.8223747 -323.90478516 295.12109375 C-320.49850349 300.26937283 -317.19242714 305.48170942 -313.875 310.6875 C-309.43553092 317.63734888 -304.98889963 324.58196439 -300.5 331.5 C-295.26392296 339.57020128 -290.08392381 347.6759851 -284.90234375 355.78125 C-281.11802177 361.69829234 -277.32290498 367.60781618 -273.5 373.5 C-268.26396056 381.57022593 -263.08392403 389.67598475 -257.90234375 397.78125 C-253.6982609 404.35461674 -249.47706425 410.91621178 -245.22705078 417.45996094 C-241.78723568 422.76359553 -238.38936704 428.09335666 -234.99438477 433.42578125 C-220.07627561 458.55472905 -220.07627561 458.55472905 -198 477 C-197.34 477 -196.68 477 -196 477 C-195.47680176 475.97865967 -194.95360352 474.95731934 -194.41455078 473.9050293 C-176.57246476 439.08270785 -176.57246476 439.08270785 -168.19970703 423.27441406 C-165.78256251 418.6919724 -163.39360816 414.09476541 -161 409.5 C-157.36965696 402.53341765 -153.72767781 395.57331754 -150.0625 388.625 C-146.1805243 381.26437076 -142.33514361 373.88512986 -138.5 366.5 C-134.27449071 358.36316392 -130.03121144 350.23636683 -125.75146484 342.12792969 C-123.43995025 337.74554618 -121.14176257 333.3565396 -118.85546875 328.9609375 C-118.31865479 327.9292041 -117.78184082 326.8974707 -117.22875977 325.83447266 C-116.18767153 323.83217264 -115.14772761 321.82927708 -114.10913086 319.82568359 C-113.6322583 318.90867676 -113.15538574 317.99166992 -112.6640625 317.046875 C-112.21321289 316.17482422 -111.76236328 315.30277344 -111.29785156 314.40429688 C-110.14400043 312.26676378 -108.89295996 310.24821756 -107.5859375 308.203125 C-105.81320749 305.16410094 -105.81320749 305.16410094 -105.87109375 302.1171875 C-107.52260146 297.55696898 -110.19961415 294.01081328 -113.0625 290.125 C-114.35922046 288.31946512 -115.6533935 286.51209859 -116.9453125 284.703125 C-117.95513184 283.29256836 -117.95513184 283.29256836 -118.98535156 281.85351562 C-122.23082723 277.25667612 -125.33405148 272.56840829 -128.4375 267.875 C-134.92717521 258.08928658 -141.47834365 248.34730152 -148.0625 238.625 C-148.54846649 237.90729431 -149.03443298 237.18958862 -149.53512573 236.45013428 C-152.02701512 232.77014791 -154.51946071 229.09053875 -157.01220703 225.41113281 C-161.36793802 218.98128641 -165.71860762 212.54801672 -170.06954956 206.1149292 C-172.46281524 202.57647213 -174.85642544 199.03824813 -177.25 195.5 C-178.20833498 194.08333444 -179.16666831 192.66666778 -180.125 191.25 C-180.599375 190.54875 -181.07375 189.8475 -181.5625 189.125 C-195.21875 168.9375 -195.21875 168.9375 -208.875 148.75 C-209.34926422 148.0489212 -209.82352844 147.34784241 -210.31216431 146.6255188 C-211.27164453 145.20714168 -212.23109678 143.78874565 -213.19052124 142.37033081 C-215.56857966 138.85467932 -217.94710416 135.33934509 -220.32666016 131.82470703 C-224.85197834 125.1396466 -229.37196512 118.45112276 -233.87701416 111.75238037 C-236.02347049 108.56130204 -238.17239838 105.37189201 -240.3215332 102.18261719 C-241.35288874 100.65057688 -242.3830105 99.11770524 -243.41186523 97.58398438 C-244.83143205 95.46798685 -246.25508639 93.35479761 -247.6796875 91.2421875 C-248.31697281 90.28866898 -248.31697281 90.28866898 -248.96713257 89.31588745 C-249.95220327 87.85941184 -250.97218658 86.42663417 -252 85 C-254.01696808 85 -255.58681768 87.27353603 -256.9375 88.5625 Z M136.50390625 243.13671875 C135.56184326 243.38172119 134.61978027 243.62672363 133.64916992 243.87915039 C132.63056885 244.14590576 131.61196777 244.41266113 130.5625 244.6875 C129.52005127 244.96005615 128.47760254 245.2326123 127.40356445 245.51342773 C118.9605925 247.72989349 110.54584471 250.03632384 102.14306641 252.39990234 C100.00717731 252.99799022 97.86927258 253.58820851 95.73046875 254.17578125 C88.31985814 256.2145776 80.9303553 258.30848533 73.56005859 260.48901367 C62.69632539 263.69999981 51.78919695 266.64237081 40.81152344 269.43823242 C33.09893831 271.4165473 25.47643938 273.59986441 17.86669922 275.93945312 C12.25883058 277.65357816 6.62824233 279.15210902 0.93041992 280.53417969 C-6.33406169 282.30222565 -13.52163705 284.33334171 -20.71777344 286.35888672 C-24.47609103 287.41465715 -28.23824288 288.45656607 -32 289.5 C-33.50781721 289.91925388 -35.01562972 290.3385247 -36.5234375 290.7578125 C-39.44416272 291.56933607 -42.36605419 292.37642824 -45.2890625 293.1796875 C-55.02530191 295.86076078 -64.72695355 298.64936758 -74.41455078 301.50146484 C-75.84710205 301.92226318 -75.84710205 301.92226318 -77.30859375 302.3515625 C-78.25202637 302.64450195 -79.19545898 302.93744141 -80.16748047 303.23925781 C-83 304 -83 304 -85.85205078 304.31542969 C-90.9225576 305.02958558 -93.24737716 306.00123877 -96.39257812 310.17504883 C-98.44049914 313.61049018 -100.20964017 317.1710795 -101.9319458 320.77874756 C-103.28455488 323.59179414 -104.73690061 326.3461541 -106.19239807 329.10693359 C-107.60748526 331.80140879 -108.98975258 334.51213294 -110.3722229 337.22344971 C-112.21300049 340.83328696 -114.06438181 344.43768782 -115.9140625 348.04296875 C-116.45299889 349.0944812 -116.45299889 349.0944812 -117.00282288 350.16723633 C-119.73971676 355.50401876 -122.50899978 360.82286778 -125.3125 366.125 C-128.89741576 372.90511722 -132.45624397 379.69826572 -136 386.5 C-140.05208477 394.27532703 -144.12191357 402.04091993 -148.2109375 409.796875 C-151.49086322 416.02246649 -154.74784366 422.25986375 -158 428.5 C-161.67385949 435.54890784 -165.35753662 442.59238944 -169.0625 449.625 C-169.65490479 450.75119751 -169.65490479 450.75119751 -170.25927734 451.90014648 C-172.52008206 456.19695739 -174.78978479 460.4888903 -177.06640625 464.77734375 C-178.0860148 466.7056883 -179.10554761 468.63407289 -180.125 470.5625 C-180.85408569 471.92979248 -180.85408569 471.92979248 -181.59790039 473.32470703 C-182.04254639 474.16759277 -182.48719238 475.01047852 -182.9453125 475.87890625 C-183.54110107 477.00147827 -183.54110107 477.00147827 -184.14892578 478.14672852 C-185.13910884 479.96302745 -185.13910884 479.96302745 -185 482 C-166.58037008 486.13426563 -151.50046793 482.70452184 -134.10400391 476.71533203 C-129.1092984 475.01720171 -124.04998919 473.52351995 -119 472 C-105.58908985 467.94666246 -92.20827362 463.81630943 -78.86328125 459.55078125 C-71.22281375 457.10985372 -63.55205927 454.77202841 -55.875 452.44921875 C-45.15770423 449.20274869 -34.45974641 445.90736747 -23.79711914 442.48510742 C-16.88163069 440.26736105 -9.94335606 438.12870789 -3 436 C0.26714153 434.99548839 3.53394775 433.98988785 6.80078125 432.984375 C8.53580177 432.45050288 10.27082786 431.91664888 12.00585938 431.3828125 C12.87621826 431.11500977 13.74657715 430.84720703 14.64331055 430.57128906 C21.76220703 428.38085938 28.88110352 426.19042969 36 424 C36.42504514 420.121481 36.42504514 420.121481 34.5 418.1875 C32.36012748 415.06685257 32.65803978 412.69317039 33 409 C35 407 35 407 37.75 406.875 C42.49886381 408.51883747 44.3537172 411.8804321 47 416 C55.98047189 412.19878091 60.38720008 401.0330244 64.625 392.875 C65.85860332 390.54056963 67.09432052 388.20725523 68.33203125 385.875 C68.94771973 384.71355469 69.5634082 383.55210937 70.19775391 382.35546875 C72.81698411 377.47891769 75.55899034 372.67658898 78.3125 367.875 C83.95704779 357.99660543 89.29565097 347.9711935 94.60269165 337.90936279 C99.11187153 329.36550866 103.69640637 320.88333691 108.5 312.5 C113.77773714 303.27759269 118.82792993 293.94547745 123.8125 284.5625 C124.16344727 283.90330566 124.51439453 283.24411133 124.87597656 282.56494141 C128.79466213 275.19759135 132.64085441 267.79669054 136.38671875 260.33984375 C136.7199263 259.67876114 137.05313385 259.01767853 137.3964386 258.33656311 C140.24907562 252.62158137 142.30028084 248.456038 142 242 C140.1258341 242 138.30605652 242.66781209 136.50390625 243.13671875 Z " fill="#030200" transform="translate(355,10)"/>
<path d="M0 0 C7.22731107 1.25088076 11.95810612 11.14455686 16 16.8125 C16.57621094 17.61429687 17.15242188 18.41609375 17.74609375 19.2421875 C24.26434295 28.32823184 24.26434295 28.32823184 24.0625 31.625 C23.25 34.5625 23.25 34.5625 20.25 36.5625 C17.40159346 36.92917086 15.91056389 37.06063015 13.58203125 35.3046875 C13.08058594 34.68851562 12.57914062 34.07234375 12.0625 33.4375 C11.4746875 32.715625 10.886875 31.99375 10.28125 31.25 C6.55271789 26.31686521 2.92320678 21.31419188 -0.59472656 16.22851562 C-1.73338028 14.58646724 -2.89585366 12.96101924 -4.05859375 11.3359375 C-5.75 8.5625 -5.75 8.5625 -5.625 5.3125 C-4.48042253 1.71525652 -3.72669639 0.76227881 0 0 Z " fill="#060400" transform="translate(356.75,367.4375)"/>
<path d="M0 0 C3.1875 0.875 3.1875 0.875 5.1875 2 C6.77821029 4.9825818 6.08489587 6.62517134 5.1875 9.875 C3.34289531 12.99853061 1.18791489 15.86011903 -1 18.75 C-1.56525391 19.51441406 -2.13050781 20.27882813 -2.71289062 21.06640625 C-3.84385441 22.59249484 -4.981828 24.11341494 -6.12695312 25.62890625 C-7.25696909 27.13472127 -8.37019633 28.6532728 -9.46679688 30.18359375 C-10.24700195 31.26447266 -10.24700195 31.26447266 -11.04296875 32.3671875 C-11.73169067 33.33567627 -11.73169067 33.33567627 -12.43432617 34.32373047 C-13.8125 35.875 -13.8125 35.875 -16.9375 37.125 C-19.8125 36.875 -19.8125 36.875 -22.1875 35.25 C-24.20539086 32.3007749 -24.36745522 31.39945242 -23.8125 27.875 C-22.22449792 25.14066617 -20.28307139 22.71739602 -18.3125 20.25 C-17.20303567 18.83181659 -16.09496722 17.41254008 -14.98828125 15.9921875 C-14.17157959 14.94949707 -14.17157959 14.94949707 -13.33837891 13.88574219 C-11.97525663 12.08947418 -10.70997253 10.27190242 -9.48046875 8.3828125 C-4.66599054 1.07088308 -4.66599054 1.07088308 0 0 Z " fill="#070500" transform="translate(266.8125,103.125)"/>
<path d="M0 0 C3.4375 0.25 3.4375 0.25 7 1 C9 4 9 4 8.9765625 6.69921875 C7.65284964 11.17336822 5.24564298 14.18762827 2.375 17.8125 C1.83319092 18.5144751 1.29138184 19.2164502 0.7331543 19.93969727 C-0.8349376 21.96751934 -2.41665691 23.98408072 -4 26 C-5.39585032 27.81248692 -6.79168769 29.62498381 -8.1875 31.4375 C-10.84482759 34.84482759 -10.84482759 34.84482759 -12 36 C-14.875 36.3125 -14.875 36.3125 -18 36 C-19.9375 34.3125 -19.9375 34.3125 -21 32 C-20.79450575 26.66693485 -17.40313169 22.89007002 -14.375 18.75 C-13.83319092 17.99654297 -13.29138184 17.24308594 -12.7331543 16.46679688 C-3.01233361 3.01233361 -3.01233361 3.01233361 0 0 Z " fill="#060500" transform="translate(299,55)"/>
<path d="M0 0 C3.640625 0.40625 3.640625 0.40625 5.90625 2.25 C6.56109375 3.1265625 7.2159375 4.003125 7.890625 4.90625 C8.63699219 5.90011719 9.38335937 6.89398438 10.15234375 7.91796875 C10.98193361 9.08061304 11.81134871 10.24338203 12.640625 11.40625 C13.64697882 12.7670429 14.65349624 14.12771484 15.66015625 15.48828125 C16.67733288 16.89638044 17.69168427 18.30652506 18.703125 19.71875 C19.19264648 20.38777344 19.68216797 21.05679687 20.18652344 21.74609375 C22.96195314 25.73540144 24.37172159 28.37063576 23.640625 33.40625 C22.453125 35.28125 22.453125 35.28125 20.640625 36.40625 C17.83114597 36.71538362 16.27206586 36.88241852 13.97265625 35.1484375 C13.47121094 34.53226562 12.96976562 33.91609375 12.453125 33.28125 C11.8653125 32.559375 11.2775 31.8375 10.671875 31.09375 C6.53482887 25.62011974 2.54569862 20.04727929 -1.359375 14.40625 C-2.11089844 13.34148437 -2.86242187 12.27671875 -3.63671875 11.1796875 C-5.64929933 7.93947841 -5.87054443 6.15482585 -5.359375 2.40625 C-3.359375 0.40625 -3.359375 0.40625 0 0 Z " fill="#060300" transform="translate(321.359375,319.59375)"/>
<path d="M0 0 C1.875 1.125 1.875 1.125 3 3 C3.5625 5.9375 3.5625 5.9375 3 9 C-2.4042997 13.4583131 -9.05966851 15.7251992 -15.5 18.3125 C-16.61503906 18.77978516 -17.73007813 19.24707031 -18.87890625 19.72851562 C-19.96042969 20.16486328 -21.04195312 20.60121094 -22.15625 21.05078125 C-23.62288086 21.64886597 -23.62288086 21.64886597 -25.11914062 22.2590332 C-28.48705289 23.12527165 -30.65979109 22.90390119 -34 22 C-36 20 -36 20 -36.3125 17.0625 C-36 14 -36 14 -34.85473633 12.47729492 C-30.98868667 9.39799171 -26.11601708 7.90941534 -21.56762695 6.07397461 C-19.6988478 5.317096 -17.838744 4.54129017 -15.97851562 3.76367188 C-14.20057617 3.03954102 -14.20057617 3.03954102 -12.38671875 2.30078125 C-11.30608154 1.85903564 -10.22544434 1.41729004 -9.11206055 0.9621582 C-5.86744201 -0.04098306 -3.37428435 -0.26580862 0 0 Z " fill="#060300" transform="translate(95,222)"/>
<path d="M0 0 C5.0514522 4.60777968 8.87230657 10.83087378 12.8125 16.375 C13.96410787 17.98750496 15.11641335 19.59951202 16.26953125 21.2109375 C16.77073486 21.91524902 17.27193848 22.61956055 17.78833008 23.34521484 C18.89753971 24.94846367 18.89753971 24.94846367 20 26 C20.4626087 32.24521739 20.4626087 32.24521739 18.8125 34.9375 C16.15328668 36.49634919 15.04429255 36.70797501 12 36 C7.04248084 31.30397437 3.19731897 25.28532086 -0.75 19.75 C-1.61431641 18.54730469 -1.61431641 18.54730469 -2.49609375 17.3203125 C-9.5593246 7.47459677 -9.5593246 7.47459677 -9 3 C-6.73377119 -0.65114641 -4.03390382 -0.79096153 0 0 Z " fill="#060400" transform="translate(254,223)"/>
<path d="M0 0 C1.8125 1.125 1.8125 1.125 3 3 C3.64238762 8.13910095 3.64238762 8.13910095 1.86669922 10.51879883 C-0.65603041 12.52055147 -3.24815728 13.51510873 -6.2421875 14.69921875 C-6.84757355 14.9391304 -7.45295959 15.17904205 -8.07669067 15.42622375 C-9.35444569 15.9300595 -10.63377662 16.42991461 -11.91455078 16.92602539 C-13.86601591 17.68401041 -15.80999509 18.45920647 -17.75390625 19.23632812 C-18.999587 19.72501241 -20.24566845 20.21267675 -21.4921875 20.69921875 C-22.61995605 21.14096436 -23.74772461 21.58270996 -24.90966797 22.0378418 C-27.84990652 22.9532692 -29.95266489 23.29569738 -33 23 C-34.8125 21.875 -34.8125 21.875 -36 20 C-36.5 17.0625 -36.5 17.0625 -36 14 C-32.6341615 10.83080696 -29.28718655 9.07646106 -25 7.421875 C-23.2984375 6.76445312 -23.2984375 6.76445312 -21.5625 6.09375 C-20.386875 5.6503125 -19.21125 5.206875 -18 4.75 C-16.824375 4.29109375 -15.64875 3.8321875 -14.4375 3.359375 C-4.57734687 -0.40541074 -4.57734687 -0.40541074 0 0 Z " fill="#060300" transform="translate(151,200)"/>
</svg>
